<svg width="133" height="50" viewBox="0 0 133 50" fill="none" xmlns="http://www.w3.org/2000/svg">
<g clip-path="url(#clip0_3570_68699)">
<path d="M46.207 6.01511C45.6447 4.64544 44.5714 3.63087 43.1912 3.02213C42.7823 2.86994 42.3735 2.76848 41.9645 2.86994C40.9423 3.12359 41.3 5.05127 41.8623 5.60928C42.3735 6.16729 42.8335 6.77603 42.4757 7.53695C42.2201 8.09498 41.6579 8.45005 41.0956 8.45005C40.5333 8.45005 39.92 8.09498 39.7155 7.53695C39.4088 6.77603 39.8177 6.16729 40.3289 5.60928C40.84 5.05127 41.2489 3.12359 40.2266 2.86994C39.8177 2.76848 39.4088 2.86994 38.9999 3.02213C37.6198 3.58014 36.5975 4.64544 35.9842 6.01511C35.4219 7.38479 35.4219 8.85592 35.9842 10.2256C36.5465 11.5952 37.6198 12.6098 38.9999 13.1678C39.6644 13.4722 40.38 13.5736 41.0956 13.5736C41.8112 13.5736 42.5268 13.4215 43.1912 13.1678C44.5714 12.6098 45.6447 11.5445 46.207 10.2256C46.7693 8.9066 46.7693 7.38479 46.207 6.01511Z" fill="#222222"/>
<path d="M67.6746 13.0689C67.4192 13.0689 67.2146 12.866 67.2146 12.6123V3.329H72.1215C72.3769 3.329 72.5815 3.53191 72.5815 3.78555C72.5815 4.03919 72.3769 4.24211 72.1215 4.24211H68.1346V12.6123C68.1346 12.866 67.93 13.0689 67.6746 13.0689ZM71.4569 7.5902C71.4569 7.33654 71.2528 7.13363 70.997 7.13363H69.8724C69.617 7.13363 69.4124 7.33654 69.4124 7.5902C69.4124 7.84384 69.617 8.04675 69.8724 8.04675H70.997C71.2528 8.04675 71.4569 7.84384 71.4569 7.5902ZM55.4072 12.6123C55.4072 12.3587 55.2026 12.1558 54.9473 12.1558H51.5226V3.78555C51.5226 3.53191 51.3182 3.329 51.0626 3.329C50.807 3.329 50.6025 3.53191 50.6025 3.78555V13.0181H54.9473C55.2026 13.0689 55.4072 12.866 55.4072 12.6123ZM98.5474 12.6123C98.5474 12.3587 98.3428 12.1558 98.0874 12.1558H94.663V3.78555C94.663 3.53191 94.4584 3.329 94.2026 3.329C93.9472 3.329 93.7426 3.53191 93.7426 3.78555V13.0181H98.0874C98.3428 13.0689 98.5474 12.866 98.5474 12.6123ZM88.0178 12.9674C88.3245 12.9167 88.6311 12.8152 88.9378 12.663C89.2449 12.5616 89.5003 12.4094 89.7557 12.2065C90.0116 12.0543 90.2669 11.8514 90.4715 11.5977C90.6761 11.3948 90.8802 11.1412 91.0848 10.8875C91.2381 10.6339 91.3915 10.3295 91.5448 10.0759C91.6468 9.77152 91.7494 9.46714 91.8514 9.16276C91.9027 8.90911 91.7494 8.65547 91.4935 8.60478C91.2381 8.55404 90.9828 8.7062 90.9315 8.95985C90.8802 9.21349 90.7782 9.46714 90.6761 9.72078C90.5736 9.97443 90.4715 10.1773 90.3182 10.3802C90.1649 10.5831 90.0116 10.7861 89.8582 10.9383C89.6536 11.1412 89.5003 11.2933 89.2957 11.3948C89.0911 11.547 88.8357 11.6485 88.6311 11.7499C88.3758 11.8514 88.1204 11.9021 87.8645 12.0035C87.3533 12.105 86.7913 12.105 86.28 12.0035C86.0246 11.9528 85.7688 11.8514 85.5134 11.7499C85.258 11.6485 85.0534 11.547 84.8488 11.3948C84.6442 11.2427 84.4401 11.0904 84.2868 10.9383C84.0822 10.7354 83.9289 10.5831 83.8268 10.3802C83.6735 10.1773 83.571 9.92369 83.4689 9.72078C83.3664 9.46714 83.3156 9.21349 83.213 8.95985C83.1623 8.7062 82.9064 8.55404 82.651 8.60478C82.3957 8.65547 82.2423 8.90911 82.2931 9.16276C82.3444 9.46714 82.4464 9.77152 82.5997 10.0759C82.7023 10.3802 82.8556 10.6339 83.0597 10.8875C83.213 11.1412 83.4176 11.3948 83.6735 11.5977C83.8776 11.8006 84.1335 12.0035 84.3889 12.2065C84.6442 12.3587 84.9509 12.5108 85.2068 12.663C85.5134 12.7645 85.82 12.866 86.1267 12.9674C86.4333 13.0181 86.7913 13.0689 87.0979 13.0689C87.4045 13.0689 87.7112 13.0181 88.0178 12.9674ZM91.4427 7.74236C91.6981 7.69162 91.8514 7.43798 91.8002 7.18436C91.7494 6.87999 91.6468 6.57562 91.4935 6.27125C91.3915 5.96687 91.2381 5.71323 91.0335 5.45959C90.8802 5.20595 90.6761 4.9523 90.4202 4.74939C90.2156 4.54648 89.9603 4.34357 89.7049 4.14065C89.449 3.98846 89.1424 3.83628 88.887 3.68409C88.5804 3.58264 88.2737 3.48118 87.9671 3.37973C87.3025 3.22754 86.6379 3.22754 85.9734 3.37973C85.6667 3.43045 85.3601 3.53191 85.0534 3.68409C84.7468 3.78555 84.4909 3.93773 84.2355 4.14065C83.9802 4.29284 83.7243 4.49575 83.5202 4.74939C83.3156 4.9523 83.3156 5.20595 83.5202 5.40886C83.7243 5.61178 83.9802 5.61178 84.1843 5.40886C84.3889 5.20595 84.5422 5.05376 84.7468 4.9523C84.9514 4.80012 85.2068 4.69866 85.4114 4.59721C85.6667 4.49575 85.9221 4.44502 86.178 4.34357C86.6892 4.24211 87.2512 4.24211 87.7625 4.34357C88.0178 4.39429 88.2737 4.49575 88.5291 4.59721C88.7845 4.69866 88.9891 4.80012 89.1937 4.9523C89.3983 5.10449 89.6024 5.25668 89.7557 5.40886C89.9603 5.61178 90.1136 5.76396 90.2156 5.96687C90.369 6.16979 90.4715 6.42343 90.5736 6.62635C90.6761 6.87999 90.7269 7.13363 90.8294 7.38729C90.8802 7.5902 91.0848 7.74236 91.2894 7.74236C91.3915 7.7931 91.4427 7.74236 91.4427 7.74236ZM82.5997 7.74236C82.8556 7.69162 83.0089 7.43798 82.9577 7.18436C82.9064 6.87999 82.8044 6.57562 82.651 6.27125C82.549 5.96687 82.3957 5.71323 82.1911 5.45959C82.0377 5.20595 81.8331 4.9523 81.5778 4.74939C81.3732 4.54648 81.1178 4.34357 80.8619 4.14065C80.6066 3.98846 80.2999 3.83628 80.044 3.68409C79.7374 3.58264 79.4307 3.48118 79.1241 3.37973C78.4595 3.22754 77.795 3.22754 77.1309 3.37973C76.8242 3.43045 76.5171 3.53191 76.2104 3.68409C75.9038 3.78555 75.6484 3.93773 75.3931 4.14065C75.1372 4.29284 74.8818 4.49575 74.6772 4.74939C74.4726 4.9523 74.2685 5.20595 74.0639 5.45959C73.9106 5.71323 73.7573 6.0176 73.604 6.27125C73.5014 6.57562 73.3993 6.87999 73.2973 7.18436C73.246 7.43798 73.3994 7.69162 73.6547 7.74236C73.9106 7.7931 74.166 7.64094 74.2172 7.38729C74.2685 7.13363 74.3706 6.87999 74.4726 6.62635C74.5752 6.3727 74.6772 6.16979 74.8305 5.96687C74.9839 5.76396 75.1372 5.56105 75.2905 5.40886C75.4951 5.20595 75.6484 5.05376 75.853 4.9523C76.0571 4.80012 76.313 4.69866 76.5171 4.59721C76.773 4.49575 77.0283 4.44502 77.2842 4.34357C77.795 4.24211 78.3575 4.24211 78.8687 4.34357C79.1241 4.39429 79.3795 4.49575 79.6353 4.59721C79.8907 4.69866 80.0953 4.80012 80.2999 4.9523C80.504 5.10449 80.7086 5.25668 80.8619 5.40886C81.0665 5.61178 81.2198 5.76396 81.3219 5.96687C81.4752 6.16979 81.5778 6.42343 81.6798 6.62635C81.7819 6.87999 81.8331 7.13363 81.9352 7.38729C81.9865 7.5902 82.1911 7.74236 82.3957 7.74236C82.549 7.7931 82.549 7.74236 82.5997 7.74236ZM79.1754 12.9674C79.482 12.9167 79.7887 12.8152 80.0953 12.663C80.4019 12.5616 80.6573 12.4094 80.9132 12.2065C81.1686 12.0543 81.4244 11.8514 81.6285 11.5977C81.8331 11.3948 81.8331 11.1412 81.6285 10.9383C81.4244 10.7354 81.1686 10.7354 80.9645 10.9383C80.7599 11.1412 80.6066 11.2933 80.402 11.3948C80.1974 11.547 79.942 11.6485 79.7374 11.7499C79.482 11.8514 79.2261 11.9021 78.9708 12.0035C78.4595 12.105 77.8975 12.105 77.3863 12.0035C77.1309 11.9528 76.875 11.8514 76.6196 11.7499C76.3638 11.6485 76.1597 11.547 75.9551 11.3948C75.7505 11.2427 75.5464 11.0904 75.3931 10.9383C75.1885 10.7354 75.0351 10.5831 74.9326 10.3802C74.7793 10.1773 74.6772 9.92369 74.5752 9.72078C74.4726 9.46714 74.4218 9.21349 74.3193 8.95985C74.2685 8.7062 74.0126 8.55404 73.7573 8.60478C73.5014 8.65547 73.3481 8.90911 73.3993 9.16276C73.4506 9.46714 73.5527 9.77152 73.706 10.0759C73.808 10.3802 73.9619 10.6339 74.166 10.8875C74.3193 11.1412 74.5239 11.3948 74.7793 11.5977C74.9839 11.8006 75.2392 12.0035 75.4951 12.2065C75.7505 12.3587 76.0571 12.5108 76.313 12.663C76.6196 12.7645 76.9263 12.866 77.2329 12.9674C77.5396 13.0181 77.8975 13.0689 78.2042 13.0689C78.5108 13.0689 78.8174 13.0181 79.1754 12.9674ZM62.1032 10.3295C62.1032 10.0759 61.8986 9.87295 61.6432 9.87295H60.5187C60.2633 9.87295 60.0587 10.0759 60.0587 10.3295C60.0587 10.5831 60.2633 10.7861 60.5187 10.7861H61.6432C61.8986 10.7861 62.1032 10.5831 62.1032 10.3295ZM57.5543 12.866L60.9787 5.40886L64.6076 12.866C64.7102 13.0689 65.0168 13.1703 65.2209 13.0689C65.4255 12.9674 65.5276 12.663 65.4255 12.4601L60.9274 3.22754L56.6851 12.4601C56.5831 12.7138 56.6851 12.9674 56.8897 13.0689C56.9405 13.1196 56.9917 13.1196 57.0938 13.1196C57.2984 13.1196 57.503 13.0181 57.5543 12.866Z" fill="#222222"/>
<path d="M13.9014 35.8455C13.3392 35.3382 12.7258 34.9324 12.0613 34.628C11.3968 34.3236 10.7324 34.0193 10.0679 33.7656C9.3012 33.4613 8.53448 33.1569 7.81889 32.8018C7.15437 32.4974 6.54103 32.0916 6.13213 31.635C5.72321 31.2292 5.51875 30.6712 5.51875 30.0625C5.51875 29.2001 5.82543 28.5406 6.4899 28.0333C7.15437 27.526 8.02334 27.2724 9.14782 27.2724C9.96566 27.2724 10.8346 27.4246 11.7035 27.6782C12.5725 27.9319 13.4925 28.3884 13.4925 28.3884C13.9014 28.5913 14.4637 28.3884 14.6681 27.9826L15.1793 26.968C15.3838 26.5622 15.2304 26.0042 14.7704 25.8013C14.7192 25.8013 13.5947 25.1925 12.5213 24.8881C11.448 24.5331 10.1701 24.3809 8.73893 24.3809C7.46107 24.4316 6.33658 24.6852 5.3654 25.1925C4.39424 25.6998 3.57642 26.41 3.01416 27.2724C2.45191 28.1348 2.14523 29.1494 2.14523 30.3161C2.14523 31.28 2.34969 32.0916 2.70748 32.8018C3.06528 33.4613 3.57642 34.07 4.18979 34.5266C4.80315 34.9831 5.46763 35.389 6.13213 35.6933C6.84772 35.9977 7.51219 36.3021 8.22778 36.5557C8.94338 36.8094 9.65897 37.1644 10.2724 37.4688C10.8857 37.8239 11.3968 38.2297 11.7547 38.6863C12.1124 39.1428 12.3169 39.7009 12.3169 40.4111C12.3169 41.2227 12.1124 41.8822 11.7035 42.3388C11.2946 42.846 10.7324 43.2011 10.119 43.404C8.89225 43.8606 7.56331 43.8606 6.1832 43.5055C5.51875 43.3026 4.90538 43.049 4.29201 42.7446C3.67865 42.4402 3.21862 42.1358 3.21862 42.1358C3.01416 42.0344 2.80971 41.9836 2.55414 42.0344C2.34968 42.0851 2.14523 42.2373 2.043 42.4402L1.42963 43.5055C1.17406 43.9113 1.32741 44.4693 1.73632 44.6723C1.73632 44.6723 2.4008 45.0781 3.16751 45.4332C3.93421 45.7883 4.75204 46.0926 5.62098 46.2956C6.4899 46.4985 7.40994 46.5999 8.38111 46.5999C9.86342 46.5999 11.1924 46.3463 12.2658 45.7883C13.3392 45.2303 14.2081 44.4693 14.7704 43.5055C15.3326 42.5417 15.6393 41.4764 15.6393 40.2589C15.6393 39.2443 15.486 38.3312 15.1793 37.621C14.8726 36.9615 14.4637 36.3528 13.9014 35.8455Z" fill="#222222"/>
<path d="M59.65 37.6201C59.5993 37.6201 59.5993 37.6201 59.65 37.6201C60.3659 37.2142 60.9792 36.7069 61.4904 36.149C62.0524 35.4895 62.5124 34.6778 62.7683 33.8662C63.0236 33.0545 63.177 32.1921 63.177 31.3298C63.177 30.2137 62.9724 29.2499 62.5637 28.3875C62.155 27.5251 61.5925 26.8149 60.8771 26.2062C60.1613 25.6481 59.3434 25.1916 58.3722 24.8872C57.4522 24.5829 56.021 24.4814 55.9698 24.4814C55.6124 24.4307 54.9478 24.4307 54.5899 24.4307H50.1941C49.7341 24.4307 49.3252 24.8365 49.3252 25.2931V45.483C49.3252 45.9395 49.7341 46.3453 50.1941 46.3453H51.7275C52.1875 46.3453 52.5967 45.9395 52.5967 45.483V38.9897C52.5967 38.7361 52.8008 38.4825 53.1074 38.4825H54.9478C55.3057 38.4825 55.8164 38.4825 56.2256 38.4317L60.9792 45.7366C61.2345 46.0917 61.7458 46.3961 62.2058 46.3961H64.1995C64.4548 46.3961 64.6594 46.2947 64.7107 46.1424C64.8127 45.9903 64.7615 45.7874 64.6594 45.5337L59.65 37.6201ZM59.7526 31.4819C59.7526 31.8877 59.7013 32.3443 59.548 32.7502C59.3947 33.2067 59.1901 33.6125 58.8834 33.9676C58.5768 34.3735 58.1681 34.6778 57.6056 34.9315C57.0943 35.1851 56.2256 35.2358 56.2256 35.2358C55.8677 35.2866 55.2544 35.2866 54.8452 35.2866H53.0566C52.8008 35.2866 52.5454 35.0836 52.5454 34.7793V28.1339C52.5454 27.8802 52.75 27.6266 53.0566 27.6266H55.0498C55.4078 27.6266 56.021 27.6773 56.379 27.6773C56.379 27.6773 57.0943 27.728 57.5543 27.9817C58.0655 28.2353 58.4747 28.5397 58.7814 28.9455C59.088 29.3513 59.3434 29.7572 59.4967 30.163C59.65 30.6196 59.7526 31.0254 59.7526 31.4819Z" fill="#222222"/>
<path d="M87.1475 24.4814H85.0517C84.5918 24.4814 84.1318 24.8365 83.9785 25.2423L78.9691 39.6492L73.1931 25.2423C73.0397 24.8365 72.529 24.4814 72.0685 24.4814H69.9733C69.7174 24.4814 69.5128 24.5829 69.4108 24.7351C69.3087 24.8873 69.3087 25.1409 69.3595 25.3438L78.4578 46.7005C78.6112 47.0049 78.7645 47.0556 78.867 47.0556C78.9691 47.0556 79.1737 47.0049 79.2757 46.7005L87.7095 25.3945C87.8121 25.1916 87.7608 24.938 87.6587 24.7858C87.5562 24.5829 87.3516 24.4814 87.1475 24.4814Z" fill="#222222"/>
<path d="M132.739 24.7351C132.637 24.5829 132.432 24.4814 132.177 24.4814H129.979C129.519 24.4814 129.008 24.7858 128.803 25.1916L123.334 35.388L117.814 25.1916C117.609 24.7858 117.098 24.4814 116.638 24.4814H114.44C114.185 24.4814 113.98 24.5829 113.878 24.7351C113.776 24.8873 113.776 25.1409 113.929 25.3438L121.341 38.5332C121.494 38.8376 121.647 39.3956 121.647 39.6999V45.5337C121.647 45.9903 122.056 46.3961 122.516 46.3961H124.05C124.51 46.3961 124.918 45.9903 124.918 45.5337V39.6999C124.918 39.3449 125.072 38.7868 125.225 38.5332L132.688 25.3438C132.79 25.1409 132.841 24.8873 132.739 24.7351Z" fill="#222222"/>
<path d="M108.361 43.3017H98.087C97.8316 43.3017 97.5758 43.0987 97.5758 42.7944V37.4679C97.5758 37.2143 97.7804 36.9606 98.087 36.9606H106.725C107.185 36.9606 107.594 36.5548 107.594 36.0982V34.6778C107.594 34.2213 107.185 33.8155 106.725 33.8155H98.087C97.8316 33.8155 97.5758 33.6126 97.5758 33.3082V28.1338C97.5758 27.8802 97.7804 27.6266 98.087 27.6266H107.952C108.412 27.6266 108.821 27.2207 108.821 26.7642V25.3438C108.821 24.8873 108.412 24.4814 107.952 24.4814H95.1734C94.7134 24.4814 94.3047 24.8873 94.3047 25.3438V45.5337C94.3047 45.9903 94.7134 46.3961 95.1734 46.3961H108.361C108.821 46.3961 109.23 45.9903 109.23 45.5337V44.1133C109.23 43.6568 108.821 43.3017 108.361 43.3017Z" fill="#222222"/>
<path d="M25.4042 26.3081C26.3242 26.3081 27.0398 25.5979 27.0398 24.6848C27.0398 23.7717 26.3242 23.0615 25.4042 23.0615C24.4841 23.0615 23.7686 23.7717 23.7686 24.6848C23.7686 25.5979 24.4841 26.3081 25.4042 26.3081Z" fill="#222222"/>
<path d="M39.5595 24.3281H38.0261C37.5661 24.3281 37.1571 24.7339 37.1571 25.1905V37.7711C37.1571 38.1262 37.106 38.735 37.0549 39.0901C37.0549 39.0901 36.9016 40.2568 36.4927 40.9671C36.0838 41.6772 35.4704 42.286 34.7037 42.6918C33.937 43.0976 33.0169 43.3513 32.0457 43.3513C31.1257 43.3513 30.2568 43.1483 29.4901 42.7425C28.7234 42.3367 28.11 41.7279 27.6499 41.0177C27.1899 40.3075 27.0366 39.1408 27.0366 39.1408C26.9855 38.7857 26.9343 38.177 26.9343 37.8219V29.5531C26.9343 28.64 26.2188 27.9298 25.2987 27.9298C24.3787 27.9298 23.6631 28.64 23.6631 29.5531V37.8219C23.6631 38.2277 23.7142 38.8364 23.7653 39.1915C23.7653 39.293 24.072 41.525 24.7876 42.6918C25.5032 43.9093 26.5255 44.8224 27.8033 45.4819C29.0811 46.1413 30.4612 46.4457 31.9946 46.4457C33.5281 46.4457 34.9592 46.1413 36.2371 45.4819C37.515 44.8224 38.5373 43.9093 39.2528 42.6918C39.9684 41.4743 40.2751 39.293 40.2751 39.1915C40.3262 38.8364 40.3773 38.177 40.3773 37.8219V25.1397C40.4285 24.7339 40.0706 24.3281 39.5595 24.3281Z" fill="#222222"/>
</g>
<defs>
<clipPath id="clip0_3570_68699">
<rect width="132" height="45.3477" fill="white" transform="translate(0.796875 2.32617)"/>
</clipPath>
</defs>
</svg>
