<svg width="154" height="38" viewBox="0 0 154 38" fill="none" xmlns="http://www.w3.org/2000/svg">
<g clip-path="url(#clip0_3570_68700)">
<g clip-path="url(#clip1_3570_68700)">
<path d="M34.75 18.8922H45.5673L39.9352 31.5869H44.4945L50.1267 18.8922H58.6196V14.7798H34.75V18.8922Z" fill="#222222"/>
<path d="M56.0272 11.4717H37.3428V7.44871H56.0272V11.4717Z" fill="#222222"/>
<path d="M79.5393 13.6177H89.3733V9.50529H78.3771L77.7514 7.09151H73.3708L73.9966 9.50529H66.3082V13.6177H75.1588L76.2316 17.5512H66.04V21.753H77.3044L79.9863 31.5869H84.3669L81.6849 21.753H89.6415V17.5512H80.6121L79.5393 13.6177Z" fill="#222222"/>
<path d="M111.544 6.19752H107.163L105.465 10.8463H97.1504V14.9586H104.034L98.0444 31.2293H102.514L108.415 14.9586H116.103L110.024 31.5869H114.494L122.003 10.8463H109.845L111.544 6.19752Z" fill="#222222"/>
<path d="M140.33 8.6113L142.029 6.19752H136.933L127.188 20.0544H132.284L137.38 12.7237H145.337L132.105 31.5869H137.201L153.293 8.6113H140.33Z" fill="#222222"/>
</g>
<g clip-path="url(#clip2_3570_68700)">
<path d="M0.796875 19.031H4.6187C4.4846 19.3662 4.3505 19.7015 4.3505 20.0367C4.3505 21.3107 5.35624 22.3164 6.63018 22.3164C7.90412 22.3164 8.90986 21.3107 8.90986 20.0367C8.90986 19.7015 8.84281 19.3662 8.70871 19.031H12.5976V14.0693C12.2623 14.2705 11.86 14.3375 11.4577 14.3375C10.1838 14.3375 9.17806 13.3318 9.17806 12.0578C9.17806 10.7839 10.1838 9.77816 11.4577 9.77816C11.86 9.77816 12.2623 9.91225 12.5976 10.1134V6.49273H0.796875V19.031Z" fill="#222222"/>
<path d="M24.3984 31.5693H12.5977V27.9487C12.9329 28.1498 13.3352 28.2839 13.7375 28.2839C15.0114 28.2839 16.0172 27.2782 16.0172 26.0042C16.0172 24.7303 15.0114 23.7245 13.7375 23.7245C13.3352 23.7245 12.9329 23.7916 12.5977 23.9927V19.0311H16.4865C16.3524 18.6958 16.2854 18.3606 16.2854 18.0253C16.2854 16.7514 17.2911 15.7457 18.5651 15.7457C19.839 15.7457 20.8447 16.7514 20.8447 18.0253C20.8447 18.4276 20.7777 18.7629 20.5765 19.0311H24.3984V31.5693Z" fill="#222222"/>
<path d="M2.33901 29.9601V22.3165H0.796875V31.5693H9.11101V29.9601H2.33901Z" fill="#222222"/>
</g>
</g>
<defs>
<clipPath id="clip0_3570_68700">
<rect width="152.407" height="37.3" fill="white" transform="translate(0.796875 0.287109)"/>
</clipPath>
<clipPath id="clip1_3570_68700">
<rect width="118.454" height="25.3" fill="white" transform="matrix(1 0 0 -1 34.75 31.5869)"/>
</clipPath>
<clipPath id="clip2_3570_68700">
<rect width="23.6685" height="25.0765" fill="white" transform="matrix(1 0 0 -1 0.796875 31.5693)"/>
</clipPath>
</defs>
</svg>
