<svg width="179" height="30" viewBox="0 0 179 30" fill="none" xmlns="http://www.w3.org/2000/svg">
<path d="M30.2723 8.8957C28.6733 5.07143 25.6207 2.23863 21.6957 0.53895C20.5329 0.114027 19.37 -0.169249 18.207 0.114027C15.2998 0.822233 16.3173 6.20454 17.9163 7.76258C19.37 9.32061 20.6783 11.0203 19.6606 13.1449C18.9338 14.7029 17.3349 15.6943 15.7358 15.6943C14.1368 15.6943 12.3924 14.7029 11.811 13.1449C10.9388 11.0203 12.1016 9.32061 13.5553 7.76258C15.009 6.20454 16.1719 0.822233 13.2645 0.114027C12.1016 -0.169249 10.9388 0.114027 9.77576 0.53895C5.85094 2.09699 2.94361 5.07143 1.1993 8.8957C-0.399765 12.72 -0.399765 16.8276 1.1993 20.6518C2.79836 24.476 5.85094 27.3088 9.77576 28.8669C11.6656 29.7168 13.7007 30 15.7358 30C17.7709 30 19.806 29.5751 21.6957 28.8669C25.6207 27.3088 28.6733 24.3345 30.2723 20.6518C31.8714 16.9691 31.8714 12.72 30.2723 8.8957Z" fill="url(#paint0_linear_3451_68559)"/>
<path d="M90.87 28.6271C90.1488 28.6271 89.571 28.0539 89.571 27.3373V1.11182H103.429C104.151 1.11182 104.728 1.68504 104.728 2.40159C104.728 3.11813 104.151 3.69137 103.429 3.69137H92.1691V27.3373C92.1691 28.0539 91.5913 28.6271 90.87 28.6271ZM101.552 13.1498C101.552 12.4332 100.976 11.86 100.253 11.86H97.0773C96.3561 11.86 95.7782 12.4332 95.7782 13.1498C95.7782 13.8663 96.3561 14.4395 97.0773 14.4395H100.253C100.976 14.4395 101.552 13.8663 101.552 13.1498ZM56.2233 27.3373C56.2233 26.6208 55.6454 26.0475 54.9242 26.0475H45.2519V2.40159C45.2519 1.68504 44.6745 1.11182 43.9527 1.11182C43.2309 1.11182 42.6533 1.68504 42.6533 2.40159V28.4837H54.9242C55.6454 28.6271 56.2233 28.0539 56.2233 27.3373ZM178.064 27.3373C178.064 26.6208 177.486 26.0475 176.765 26.0475H167.094V2.40159C167.094 1.68504 166.516 1.11182 165.793 1.11182C165.072 1.11182 164.494 1.68504 164.494 2.40159V28.4837H176.765C177.486 28.6271 178.064 28.0539 178.064 27.3373ZM148.326 28.3404C149.192 28.1972 150.058 27.9105 150.924 27.4806C151.791 27.194 152.512 26.7641 153.234 26.1909C153.956 25.7609 154.678 25.1876 155.255 24.4711C155.833 23.8979 156.41 23.1813 156.988 22.4648C157.421 21.7482 157.854 20.8883 158.287 20.1718C158.575 19.312 158.865 18.4522 159.153 17.5923C159.298 16.8757 158.865 16.1592 158.142 16.016C157.421 15.8726 156.699 16.3025 156.555 17.0191C156.41 17.7356 156.122 18.4522 155.833 19.1687C155.544 19.8853 155.255 20.4585 154.822 21.0317C154.389 21.6049 153.956 22.1782 153.523 22.6081C152.945 23.1813 152.512 23.6112 151.935 23.8979C151.357 24.3278 150.636 24.6144 150.058 24.9011C149.336 25.1876 148.615 25.331 147.893 25.6175C146.449 25.9042 144.861 25.9042 143.417 25.6175C142.696 25.4743 141.973 25.1876 141.252 24.9011C140.531 24.6144 139.953 24.3278 139.375 23.8979C138.797 23.468 138.221 23.038 137.788 22.6081C137.21 22.0349 136.777 21.6049 136.489 21.0317C136.056 20.4585 135.766 19.7419 135.478 19.1687C135.188 18.4522 135.045 17.7356 134.755 17.0191C134.612 16.3025 133.889 15.8726 133.168 16.016C132.447 16.1592 132.014 16.8757 132.157 17.5923C132.302 18.4522 132.59 19.312 133.023 20.1718C133.313 21.0317 133.746 21.7482 134.322 22.4648C134.755 23.1813 135.333 23.8979 136.056 24.4711C136.632 25.0443 137.355 25.6175 138.076 26.1909C138.797 26.6207 139.663 27.0506 140.386 27.4806C141.252 27.7672 142.118 28.0539 142.984 28.3404C143.85 28.4837 144.861 28.6271 145.727 28.6271C146.593 28.6271 147.459 28.4837 148.326 28.3404ZM157.998 13.5796C158.72 13.4363 159.153 12.7198 159.008 12.0033C158.865 11.1434 158.575 10.2836 158.142 9.42372C157.854 8.56386 157.421 7.84732 156.843 7.13077C156.41 6.41423 155.833 5.69768 155.111 5.12446C154.533 4.55122 153.812 3.97799 153.09 3.40475C152.368 2.97482 151.502 2.5449 150.78 2.11497C149.914 1.82835 149.048 1.54173 148.182 1.25513C146.305 0.825195 144.428 0.825195 142.551 1.25513C141.685 1.39842 140.819 1.68504 139.953 2.11497C139.087 2.40159 138.364 2.83151 137.643 3.40475C136.922 3.83468 136.199 4.40791 135.623 5.12446C135.045 5.69768 135.045 6.41423 135.623 6.98746C136.199 7.5607 136.922 7.5607 137.498 6.98746C138.076 6.41423 138.509 5.9843 139.087 5.69768C139.665 5.26777 140.386 4.98115 140.964 4.69453C141.685 4.40791 142.406 4.2646 143.129 3.97799C144.573 3.69137 146.16 3.69137 147.604 3.97799C148.326 4.12129 149.048 4.40791 149.769 4.69453C150.491 4.98115 151.069 5.26777 151.646 5.69768C152.224 6.12761 152.801 6.55754 153.234 6.98746C153.812 7.5607 154.245 7.99063 154.533 8.56386C154.966 9.1371 155.255 9.85363 155.544 10.4269C155.833 11.1434 155.977 11.86 156.266 12.5766C156.41 13.1498 156.988 13.5796 157.565 13.5796C157.854 13.723 157.998 13.5796 157.998 13.5796ZM133.023 13.5796C133.746 13.4363 134.179 12.7198 134.034 12.0033C133.889 11.1434 133.601 10.2836 133.168 9.42372C132.88 8.56386 132.447 7.84732 131.869 7.13077C131.436 6.41423 130.858 5.69768 130.137 5.12446C129.559 4.55122 128.838 3.97799 128.115 3.40475C127.394 2.97482 126.528 2.5449 125.805 2.11497C124.939 1.82835 124.073 1.54173 123.207 1.25513C121.33 0.825195 119.453 0.825195 117.577 1.25513C116.711 1.39842 115.844 1.68504 114.978 2.11497C114.112 2.40159 113.391 2.83151 112.669 3.40475C111.947 3.83468 111.225 4.40791 110.648 5.12446C110.07 5.69768 109.493 6.41423 108.915 7.13077C108.482 7.84732 108.049 8.70717 107.616 9.42372C107.327 10.2836 107.038 11.1434 106.75 12.0033C106.605 12.7198 107.038 13.4363 107.76 13.5796C108.482 13.723 109.204 13.2931 109.348 12.5766C109.493 11.86 109.781 11.1434 110.07 10.4269C110.359 9.71032 110.648 9.1371 111.081 8.56386C111.514 7.99063 111.947 7.41739 112.38 6.98746C112.958 6.41423 113.391 5.9843 113.968 5.69768C114.545 5.26777 115.267 4.98115 115.844 4.69453C116.567 4.40791 117.288 4.2646 118.01 3.97799C119.453 3.69137 121.042 3.69137 122.486 3.97799C123.207 4.12129 123.928 4.40791 124.651 4.69453C125.372 4.98115 125.95 5.26777 126.528 5.69768C127.104 6.12761 127.682 6.55754 128.115 6.98746C128.693 7.5607 129.126 7.99063 129.414 8.56386C129.847 9.1371 130.137 9.85363 130.425 10.4269C130.713 11.1434 130.858 11.86 131.146 12.5766C131.291 13.1498 131.869 13.5796 132.447 13.5796C132.88 13.723 132.88 13.5796 133.023 13.5796ZM123.352 28.3404C124.218 28.1972 125.084 27.9105 125.95 27.4806C126.816 27.194 127.537 26.7641 128.26 26.1909C128.981 25.7609 129.704 25.1876 130.28 24.4711C130.858 23.8979 130.858 23.1813 130.28 22.6081C129.704 22.0349 128.981 22.0349 128.405 22.6081C127.827 23.1813 127.394 23.6112 126.816 23.8979C126.238 24.3278 125.517 24.6144 124.939 24.9011C124.218 25.1876 123.495 25.331 122.774 25.6175C121.33 25.9042 119.743 25.9042 118.299 25.6175C117.577 25.4743 116.855 25.1876 116.134 24.9011C115.411 24.6144 114.834 24.3278 114.257 23.8979C113.679 23.468 113.102 23.038 112.669 22.6081C112.091 22.0349 111.658 21.6049 111.369 21.0317C110.936 20.4585 110.648 19.7419 110.359 19.1687C110.07 18.4522 109.926 17.7356 109.637 17.0191C109.493 16.3025 108.771 15.8726 108.049 16.016C107.327 16.1592 106.894 16.8757 107.038 17.5923C107.183 18.4522 107.471 19.312 107.905 20.1718C108.193 21.0317 108.627 21.7482 109.204 22.4648C109.637 23.1813 110.215 23.8979 110.936 24.4711C111.514 25.0443 112.235 25.6175 112.958 26.1909C113.679 26.6207 114.545 27.0506 115.267 27.4806C116.134 27.7672 117 28.0539 117.866 28.3404C118.732 28.4837 119.743 28.6271 120.609 28.6271C121.475 28.6271 122.341 28.4837 123.352 28.3404ZM75.1347 20.8883C75.1347 20.1718 74.5568 19.5986 73.8356 19.5986H70.6595C69.9383 19.5986 69.3604 20.1718 69.3604 20.8883C69.3604 21.6049 69.9383 22.1783 70.6595 22.1783H73.8356C74.5568 22.1783 75.1347 21.6049 75.1347 20.8883ZM62.2871 28.0539L71.9586 6.98746L82.208 28.0539C82.4976 28.6271 83.3637 28.9137 83.9401 28.6271C84.518 28.3404 84.8062 27.4806 84.518 26.9074L71.8138 0.825195L59.8323 26.9074C59.5441 27.624 59.8323 28.3404 60.4102 28.6271C60.5536 28.7704 60.6984 28.7704 60.9866 28.7704C61.5645 28.7704 62.1423 28.4837 62.2871 28.0539Z" fill="#717071"/>
<defs>
<linearGradient id="paint0_linear_3451_68559" x1="15.7296" y1="30.1286" x2="15.7296" y2="0.138535" gradientUnits="userSpaceOnUse">
<stop stop-color="#D0E3A5"/>
<stop offset="0.6067" stop-color="#AADBF1"/>
</linearGradient>
</defs>
</svg>
