<?xml version="1.0" encoding="utf-8"?>
<!-- Generator: Adobe Illustrator 25.0.1, SVG Export Plug-In . SVG Version: 6.00 Build 0)  -->
<svg version="1.1" xmlns="http://www.w3.org/2000/svg" xmlns:xlink="http://www.w3.org/1999/xlink" x="0px" y="0px"
	 viewBox="0 0 480.93 132.72" style="enable-background:new 0 0 480.93 132.72;" xml:space="preserve">
<style type="text/css">
	.st0{fill:#595959;}
	.st1{font-family:'TsukuARdGothic-Regular-83pv-RKSJ-H';}
	.st2{font-size:16.2px;}
	.st3{fill:url(#SVGID_1_);}
	.st4{fill:#727171;}
</style>
<g id="レイヤー_2">
</g>
<g id="レイヤー_1">
	<g>
		<g>
			<path d="M150.28,28.74c-3.88-1.55-6.97-2.11-10-2.11c-5.21,0-8.52,2.18-8.52,5.57c0,3.03,1.62,4.93,8.88,7.54
				c9.16,3.24,13.03,7.47,13.03,14.72c0,9.44-7.19,15.36-18.53,15.36c-4.72,0-8.95-0.7-13.03-2.11l0.92-8.67
				c4.23,2.04,8.1,2.82,11.55,2.82c5.21,0,8.95-2.18,8.95-6.13c0-3.73-2.04-5.71-9.51-8.45c-8.74-3.17-12.47-7.12-12.47-14.09
				c0-8.74,7.12-14.23,17.61-14.23c4.37,0,8.03,0.49,11.91,1.76L150.28,28.74z"/>
			<path d="M174.53,39.8v20.93h19.52v8.24h-29.31V19.8h29.1v8.17h-19.3V39.8z"/>
			<path d="M204.73,19.8h9.93v40.72h19.09v8.45h-29.03V19.8z"/>
			<path d="M254.37,40.44v28.53h-9.93V19.8h27.48v8.24h-17.54V40.44z"/>
			<path d="M303.66,51.85c0.7,2.25,1.97,5.99,2.68,8.52h0.14c0.71-2.54,1.83-6.34,2.54-8.52l10.57-32.06h10l-17.54,49.18H300
				L282.6,19.8h10.64L303.66,51.85z"/>
			<path d="M340.27,33.89h9.93v35.08h-9.93V33.89z"/>
			<path d="M373.44,39.8v20.93h19.52v8.24h-29.31V19.8h29.1v8.17h-19.3V39.8z"/>
			<path d="M440.45,36.07c-0.49-2.25-1.48-6.55-1.83-9.23h-0.14c-0.35,2.68-1.13,6.9-1.62,9.23l-7.33,32.9h-12.54l-13.6-49.18h10.64
				l7.12,29.45c0.35,1.62,1.9,8.74,2.32,12.05h0.14c0.49-3.31,1.9-10.43,2.25-12.05l6.41-29.45h13.17l6.76,29.45
				c0.42,1.69,1.76,8.81,2.25,12.05h0.14c0.49-3.24,1.9-10.22,2.32-12.05l7.05-29.45h9.86l-13.17,49.18H448.2L440.45,36.07z"/>
			<rect x="181.42" y="39.8" width="10.86" height="7.96"/>
			<rect x="261.26" y="40.44" width="10.86" height="8.03"/>
			<rect x="340.27" y="19.8" width="9.93" height="8.03"/>
			<rect x="380.34" y="39.8" width="10.86" height="7.96"/>
		</g>
		<g>
			<path d="M38.17,81.68c0,0-31.08-0.65-31.08-37.3s31.08-37.3,31.08-37.3v1.09l0,0c-7.74,2.46-20.79,10.42-20.79,36.21
				c0,25.79,13.06,33.75,20.79,36.21L38.17,81.68z"/>
			<path d="M63.73,8.18c7.74,2.46,20.79,10.42,20.79,36.21S71.46,78.13,63.73,80.59l0,0v1.09c0,0,31.08-0.65,31.08-37.3
				S63.73,7.09,63.73,7.09L63.73,8.18z"/>
			<g>
				<ellipse cx="50.95" cy="50.63" rx="3.71" ry="17.2"/>
				<circle cx="50.95" cy="24.37" r="3.43"/>
			</g>
		</g>
	</g>
	<g>
		<text transform="matrix(1 0 0 1 114.7184 117.9104)"><tspan x="0" y="0" class="st0 st1 st2">p</tspan><tspan x="9.9" y="0" class="st0 st1 st2">o</tspan><tspan x="19.13" y="0" class="st0 st1 st2">w</tspan><tspan x="30.6" y="0" class="st0 st1 st2">e</tspan><tspan x="39.17" y="0" class="st0 st1 st2">r</tspan><tspan x="45.13" y="0" class="st0 st1 st2">e</tspan><tspan x="53.7" y="0" class="st0 st1 st2">d</tspan><tspan x="63.6" y="0" class="st0 st1 st2"> </tspan><tspan x="68.44" y="0" class="st0 st1 st2">by</tspan><tspan x="86.34" y="0" class="st0 st1 st2">                              </tspan><tspan x="231.65" y="0" class="st0 st1 st2"> </tspan></text>
		<g>
			
				<linearGradient id="SVGID_1_" gradientUnits="userSpaceOnUse" x1="226.3869" y1="440.6416" x2="226.3869" y2="466.0253" gradientTransform="matrix(1 0 0 -1 0 566.2545)">
				<stop  offset="0" style="stop-color:#CBDEA3"/>
				<stop  offset="0.61" style="stop-color:#A9D6EA"/>
			</linearGradient>
			<path class="st3" d="M238.37,107.69c-1.31-3.18-3.83-5.71-7.01-7.01c-0.9-0.43-1.91-0.55-2.89-0.35c-2.41,0.6-1.54,5.1-0.29,6.42
				c1.25,1.32,2.24,2.8,1.49,4.55c-0.75,1.81-2.83,2.67-4.64,1.92c-0.87-0.36-1.56-1.05-1.92-1.92c-0.75-1.74,0.28-3.27,1.49-4.55
				s2.11-5.82-0.29-6.42c-0.97-0.2-1.99-0.08-2.89,0.35c-6.61,2.75-9.75,10.33-7,16.95c2.75,6.61,10.33,9.75,16.95,7
				C237.97,121.87,241.1,114.3,238.37,107.69z"/>
			<path class="st4" d="M288.7,124.25c-0.6,0.02-1.1-0.44-1.12-1.04c0-0.02,0-0.03,0-0.05v-21.85h11.47c0.6,0.04,1.05,0.56,1,1.16
				c-0.04,0.54-0.47,0.97-1,1h-9.28v19.68C289.77,123.75,289.29,124.24,288.7,124.25z M297.57,111.32c0-0.6-0.48-1.08-1.08-1.08
				c0,0,0,0-0.01,0h-2.6c-0.6,0.04-1.05,0.56-1,1.16c0.04,0.54,0.47,0.97,1,1h2.6c0.59-0.01,1.07-0.49,1.07-1.09H297.57z
				 M259.93,123.16c0-0.6-0.49-1.08-1.09-1.08h-8.02V102.4c-0.04-0.6-0.56-1.05-1.16-1c-0.54,0.04-0.97,0.47-1,1v21.85h10.17
				c0.6,0,1.09-0.49,1.09-1.09c0,0,0,0,0,0H259.93z M361.16,123.16c0-0.6-0.49-1.08-1.09-1.08h-8.01V102.4
				c-0.04-0.6-0.56-1.05-1.16-1c-0.54,0.04-0.97,0.47-1,1v21.85h10.17C360.67,124.25,361.16,123.76,361.16,123.16
				C361.16,123.16,361.16,123.16,361.16,123.16L361.16,123.16z M336.42,124.01c0.74-0.15,1.46-0.37,2.15-0.67
				c1.36-0.58,2.6-1.41,3.64-2.46c0.52-0.51,0.99-1.07,1.4-1.68c0.42-0.61,0.77-1.26,1.06-1.95c0.29-0.69,0.52-1.41,0.67-2.15
				c0.12-0.59-0.26-1.16-0.84-1.28c-0.59-0.12-1.16,0.26-1.28,0.84c-0.25,1.19-0.72,2.32-1.4,3.33c-0.67,0.99-1.52,1.84-2.52,2.51
				c-0.5,0.34-1.02,0.62-1.58,0.86c-0.56,0.25-1.15,0.43-1.74,0.56c-1.24,0.25-2.51,0.25-3.75,0c-0.6-0.13-1.18-0.32-1.74-0.56
				c-1.1-0.47-2.11-1.14-2.95-1.99c-0.42-0.42-0.79-0.88-1.12-1.38c-0.68-1.01-1.15-2.14-1.4-3.33c-0.12-0.59-0.69-0.96-1.28-0.84
				c-0.59,0.12-0.96,0.69-0.84,1.28c0.15,0.74,0.38,1.46,0.67,2.15c0.29,0.68,0.64,1.33,1.06,1.95c0.41,0.6,0.88,1.17,1.4,1.68
				c0.52,0.52,1.08,0.99,1.68,1.4c0.62,0.41,1.27,0.77,1.95,1.06C331.79,124.24,334.15,124.47,336.42,124.01z M344.5,111.74
				c0.58-0.12,0.96-0.69,0.84-1.28c-0.15-0.74-0.38-1.46-0.67-2.15c-0.29-0.68-0.64-1.34-1.06-1.95c-1.24-1.84-2.99-3.28-5.03-4.15
				c-2.14-0.91-4.5-1.14-6.77-0.67c-1.47,0.3-2.86,0.89-4.11,1.73c-0.6,0.41-1.16,0.88-1.68,1.4c-0.4,0.44-0.37,1.13,0.08,1.53
				c0.41,0.37,1.04,0.37,1.45,0c0.42-0.42,0.88-0.79,1.38-1.12c0.5-0.34,1.02-0.63,1.58-0.86c1.73-0.74,3.65-0.93,5.5-0.56
				c0.6,0.13,1.18,0.32,1.74,0.56c0.55,0.23,1.08,0.52,1.58,0.86c0.5,0.33,0.96,0.7,1.38,1.12c0.41,0.42,0.79,0.88,1.12,1.38
				c0.34,0.5,0.62,1.02,0.86,1.58c0.24,0.56,0.43,1.15,0.56,1.74c0.1,0.5,0.54,0.87,1.06,0.87
				C344.37,111.76,344.44,111.76,344.5,111.74L344.5,111.74z M323.73,111.74c0.58-0.12,0.96-0.69,0.84-1.28
				c-0.14-0.73-0.36-1.44-0.64-2.12c-0.29-0.68-0.64-1.34-1.06-1.95c-0.82-1.22-1.87-2.27-3.09-3.09c-1.24-0.84-2.64-1.42-4.11-1.73
				c-2.28-0.49-4.65-0.27-6.8,0.62c-0.68,0.29-1.33,0.64-1.95,1.06c-0.6,0.41-1.16,0.88-1.68,1.4c-0.52,0.51-0.99,1.08-1.4,1.68
				c-0.43,0.64-0.78,1.31-1.07,2.02c-0.29,0.68-0.51,1.4-0.66,2.13c-0.12,0.59,0.26,1.16,0.84,1.28s1.16-0.26,1.28-0.84
				c0.13-0.6,0.32-1.18,0.56-1.74c0.47-1.1,1.14-2.11,1.99-2.95c0.42-0.42,0.88-0.79,1.38-1.12c0.5-0.34,1.02-0.63,1.58-0.86
				c0.56-0.24,1.15-0.43,1.74-0.56c1.85-0.37,3.76-0.18,5.5,0.56c0.55,0.23,1.08,0.52,1.58,0.86c0.49,0.33,0.96,0.7,1.38,1.12
				c0.42,0.42,0.79,0.88,1.12,1.38c0.33,0.5,0.62,1.03,0.86,1.58c0.24,0.56,0.43,1.15,0.56,1.74c0.1,0.5,0.54,0.87,1.06,0.87
				C323.6,111.77,323.67,111.76,323.73,111.74L323.73,111.74z M315.65,124.01c0.73-0.15,1.44-0.37,2.13-0.66
				c0.68-0.29,1.34-0.64,1.95-1.06c0.6-0.42,1.16-0.89,1.68-1.4c0.42-0.42,0.42-1.11,0-1.53c-0.42-0.42-1.11-0.42-1.53,0l0,0
				c-0.42,0.41-0.89,0.79-1.38,1.12c-1.01,0.68-2.13,1.15-3.32,1.4c-1.24,0.25-2.51,0.25-3.75,0c-0.6-0.13-1.18-0.31-1.74-0.56
				c-0.55-0.23-1.08-0.52-1.58-0.86c-0.99-0.67-1.85-1.52-2.52-2.51c-0.34-0.5-0.62-1.03-0.86-1.58c-0.25-0.56-0.43-1.15-0.56-1.74
				c-0.12-0.59-0.69-0.96-1.28-0.84c-0.59,0.12-0.96,0.69-0.84,1.28l0,0c0.15,0.74,0.38,1.46,0.67,2.15
				c0.29,0.68,0.64,1.33,1.06,1.95c0.41,0.6,0.88,1.17,1.4,1.68c1.04,1.05,2.28,1.88,3.64,2.46c0.71,0.31,1.45,0.55,2.21,0.71
				C312.56,124.32,314.13,124.32,315.65,124.01z M275.63,117.82c0-0.6-0.48-1.08-1.08-1.08c0,0,0,0,0,0h-2.6
				c-0.6-0.04-1.12,0.41-1.16,1s0.41,1.12,1,1.16c0.05,0,0.1,0,0.16,0h2.6C275.15,118.9,275.63,118.42,275.63,117.82
				C275.63,117.82,275.63,117.82,275.63,117.82z M265,123.75l7.99-17.65l8.51,17.67c0.26,0.54,0.91,0.76,1.44,0.5
				c0.54-0.26,0.76-0.91,0.5-1.44l-10.52-21.81l-9.9,21.86c-0.24,0.55,0.01,1.19,0.56,1.43c0,0,0,0,0,0c0.14,0.07,0.29,0.1,0.44,0.1
				C264.46,124.4,264.84,124.14,265,123.75L265,123.75z"/>
		</g>
	</g>
</g>
</svg>
