<svg width="258" height="133" viewBox="0 0 258 133" fill="none" xmlns="http://www.w3.org/2000/svg">
<path d="M87.8444 6.28051C86.7444 3.58051 84.6444 1.58051 81.9444 0.380506C81.1444 0.080506 80.3444 -0.119494 79.5444 0.0805062C77.5444 0.580506 78.2444 4.38051 79.3444 5.48051C80.3444 6.58051 81.2444 7.78051 80.5444 9.28052C80.0444 10.3805 78.9444 11.0805 77.8444 11.0805C76.7444 11.0805 75.5444 10.3805 75.1444 9.28052C74.5444 7.78051 75.3444 6.58051 76.3444 5.48051C77.3444 4.38051 78.1444 0.580506 76.1444 0.0805062C75.3444 -0.119494 74.5444 0.080506 73.7444 0.380506C71.0444 1.48051 69.0444 3.58051 67.8444 6.28051C66.7444 8.98052 66.7444 11.8805 67.8444 14.5805C68.9444 17.2805 71.0444 19.2805 73.7444 20.3805C75.0444 20.9805 76.4444 21.1805 77.8444 21.1805C79.2444 21.1805 80.6444 20.8805 81.9444 20.3805C84.6444 19.2805 86.7444 17.1805 87.8444 14.5805C88.9444 11.9805 88.9444 8.98052 87.8444 6.28051Z" fill="url(#paint0_linear)"/>
<path d="M129.844 20.1805C129.344 20.1805 128.944 19.7805 128.944 19.2805V0.980518H138.544C139.044 0.980518 139.444 1.38052 139.444 1.88052C139.444 2.38052 139.044 2.78052 138.544 2.78052H130.744V19.2805C130.744 19.7805 130.344 20.1805 129.844 20.1805ZM137.244 9.38052C137.244 8.88052 136.844 8.48052 136.344 8.48052H134.144C133.644 8.48052 133.244 8.88052 133.244 9.38052C133.244 9.88052 133.644 10.2805 134.144 10.2805H136.344C136.844 10.2805 137.244 9.88052 137.244 9.38052ZM105.844 19.2805C105.844 18.7805 105.444 18.3805 104.944 18.3805H98.2444V1.88052C98.2444 1.38052 97.8445 0.980518 97.3445 0.980518C96.8445 0.980518 96.4445 1.38052 96.4445 1.88052V20.0805H104.944C105.444 20.1805 105.844 19.7805 105.844 19.2805ZM190.244 19.2805C190.244 18.7805 189.844 18.3805 189.344 18.3805H182.644V1.88052C182.644 1.38052 182.244 0.980518 181.744 0.980518C181.244 0.980518 180.844 1.38052 180.844 1.88052V20.0805H189.344C189.844 20.1805 190.244 19.7805 190.244 19.2805ZM169.644 19.9805C170.244 19.8805 170.844 19.6805 171.444 19.3805C172.044 19.1805 172.544 18.8805 173.044 18.4805C173.544 18.1805 174.044 17.7805 174.444 17.2805C174.844 16.8805 175.244 16.3805 175.644 15.8805C175.944 15.3805 176.244 14.7805 176.544 14.2805C176.744 13.6805 176.944 13.0805 177.144 12.4805C177.244 11.9805 176.944 11.4805 176.444 11.3805C175.944 11.2805 175.444 11.5805 175.344 12.0805C175.244 12.5805 175.044 13.0805 174.844 13.5805C174.644 14.0805 174.444 14.4805 174.144 14.8805C173.844 15.2805 173.544 15.6805 173.244 15.9805C172.844 16.3805 172.544 16.6805 172.144 16.8805C171.744 17.1805 171.244 17.3805 170.844 17.5805C170.344 17.7805 169.844 17.8805 169.344 18.0805C168.344 18.2805 167.244 18.2805 166.244 18.0805C165.744 17.9805 165.244 17.7805 164.744 17.5805C164.244 17.3805 163.844 17.1805 163.444 16.8805C163.044 16.5805 162.644 16.2805 162.344 15.9805C161.944 15.5805 161.644 15.2805 161.444 14.8805C161.144 14.4805 160.944 13.9805 160.744 13.5805C160.544 13.0805 160.444 12.5805 160.244 12.0805C160.144 11.5805 159.644 11.2805 159.144 11.3805C158.644 11.4805 158.344 11.9805 158.444 12.4805C158.544 13.0805 158.744 13.6805 159.044 14.2805C159.244 14.8805 159.544 15.3805 159.944 15.8805C160.244 16.3805 160.644 16.8805 161.144 17.2805C161.544 17.6805 162.044 18.0805 162.544 18.4805C163.044 18.7805 163.644 19.0805 164.144 19.3805C164.744 19.5805 165.344 19.7805 165.944 19.9805C166.544 20.0805 167.244 20.1805 167.844 20.1805C168.444 20.1805 169.044 20.0805 169.644 19.9805ZM176.344 9.68052C176.844 9.58052 177.144 9.08052 177.044 8.58052C176.944 7.98052 176.744 7.38052 176.444 6.78052C176.244 6.18052 175.944 5.68052 175.544 5.18052C175.244 4.68052 174.844 4.18052 174.344 3.78052C173.944 3.38052 173.444 2.98052 172.944 2.58052C172.444 2.28052 171.844 1.98052 171.344 1.68052C170.744 1.48052 170.144 1.28052 169.544 1.08052C168.244 0.780518 166.944 0.780518 165.644 1.08052C165.044 1.18052 164.444 1.38052 163.844 1.68052C163.244 1.88052 162.744 2.18052 162.244 2.58052C161.744 2.88052 161.244 3.28052 160.844 3.78052C160.444 4.18052 160.444 4.68052 160.844 5.08052C161.244 5.48052 161.744 5.48052 162.144 5.08052C162.544 4.68052 162.844 4.38052 163.244 4.18052C163.644 3.88052 164.144 3.68052 164.544 3.48052C165.044 3.28052 165.544 3.18052 166.044 2.98052C167.044 2.78052 168.144 2.78052 169.144 2.98052C169.644 3.08052 170.144 3.28052 170.644 3.48052C171.144 3.68052 171.544 3.88052 171.944 4.18052C172.344 4.48052 172.744 4.78052 173.044 5.08052C173.444 5.48052 173.744 5.78052 173.944 6.18052C174.244 6.58052 174.444 7.08052 174.644 7.48052C174.844 7.98052 174.944 8.48052 175.144 8.98052C175.244 9.38052 175.644 9.68052 176.044 9.68052C176.244 9.78052 176.344 9.68052 176.344 9.68052ZM159.044 9.68052C159.544 9.58052 159.844 9.08052 159.744 8.58052C159.644 7.98052 159.444 7.38052 159.144 6.78052C158.944 6.18052 158.644 5.68052 158.244 5.18052C157.944 4.68052 157.544 4.18052 157.044 3.78052C156.644 3.38052 156.144 2.98052 155.644 2.58052C155.144 2.28052 154.544 1.98052 154.044 1.68052C153.444 1.48052 152.844 1.28052 152.244 1.08052C150.944 0.780518 149.644 0.780518 148.344 1.08052C147.744 1.18052 147.144 1.38052 146.544 1.68052C145.944 1.88052 145.444 2.18052 144.944 2.58052C144.444 2.88052 143.944 3.28052 143.544 3.78052C143.144 4.18052 142.744 4.68052 142.344 5.18052C142.044 5.68052 141.744 6.28052 141.444 6.78052C141.244 7.38052 141.044 7.98052 140.844 8.58052C140.744 9.08052 141.044 9.58052 141.544 9.68052C142.044 9.78052 142.544 9.48052 142.644 8.98052C142.744 8.48052 142.944 7.98052 143.144 7.48052C143.344 6.98052 143.544 6.58052 143.844 6.18052C144.144 5.78052 144.444 5.38052 144.744 5.08052C145.144 4.68052 145.444 4.38052 145.844 4.18052C146.244 3.88052 146.744 3.68052 147.144 3.48052C147.644 3.28052 148.144 3.18052 148.644 2.98052C149.644 2.78052 150.744 2.78052 151.744 2.98052C152.244 3.08052 152.744 3.28052 153.244 3.48052C153.744 3.68052 154.144 3.88052 154.544 4.18052C154.944 4.48052 155.344 4.78052 155.644 5.08052C156.044 5.48052 156.344 5.78052 156.544 6.18052C156.844 6.58052 157.044 7.08052 157.244 7.48052C157.444 7.98052 157.544 8.48052 157.744 8.98052C157.844 9.38052 158.244 9.68052 158.644 9.68052C158.944 9.78052 158.944 9.68052 159.044 9.68052ZM152.344 19.9805C152.944 19.8805 153.544 19.6805 154.144 19.3805C154.744 19.1805 155.244 18.8805 155.744 18.4805C156.244 18.1805 156.744 17.7805 157.144 17.2805C157.544 16.8805 157.544 16.3805 157.144 15.9805C156.744 15.5805 156.244 15.5805 155.844 15.9805C155.444 16.3805 155.144 16.6805 154.744 16.8805C154.344 17.1805 153.844 17.3805 153.444 17.5805C152.944 17.7805 152.444 17.8805 151.944 18.0805C150.944 18.2805 149.844 18.2805 148.844 18.0805C148.344 17.9805 147.844 17.7805 147.344 17.5805C146.844 17.3805 146.444 17.1805 146.044 16.8805C145.644 16.5805 145.244 16.2805 144.944 15.9805C144.544 15.5805 144.244 15.2805 144.044 14.8805C143.744 14.4805 143.544 13.9805 143.344 13.5805C143.144 13.0805 143.044 12.5805 142.844 12.0805C142.744 11.5805 142.244 11.2805 141.744 11.3805C141.244 11.4805 140.944 11.9805 141.044 12.4805C141.144 13.0805 141.344 13.6805 141.644 14.2805C141.844 14.8805 142.144 15.3805 142.544 15.8805C142.844 16.3805 143.244 16.8805 143.744 17.2805C144.144 17.6805 144.644 18.0805 145.144 18.4805C145.644 18.7805 146.244 19.0805 146.744 19.3805C147.344 19.5805 147.944 19.7805 148.544 19.9805C149.144 20.0805 149.844 20.1805 150.444 20.1805C151.044 20.1805 151.644 20.0805 152.344 19.9805ZM118.944 14.7805C118.944 14.2805 118.544 13.8805 118.044 13.8805H115.844C115.344 13.8805 114.944 14.2805 114.944 14.7805C114.944 15.2805 115.344 15.6805 115.844 15.6805H118.044C118.544 15.6805 118.944 15.2805 118.944 14.7805ZM110.044 19.7805L116.744 5.08052L123.844 19.7805C124.044 20.1805 124.644 20.3805 125.044 20.1805C125.444 19.9805 125.644 19.3805 125.444 18.9805L116.644 0.780518L108.344 18.9805C108.144 19.4805 108.344 19.9805 108.744 20.1805C108.844 20.2805 108.944 20.2805 109.144 20.2805C109.544 20.2805 109.944 20.0805 110.044 19.7805Z" fill="#717071"/>
<path d="M24.6445 65.0805C23.5445 64.0805 22.3445 63.2805 21.0445 62.6805C19.7445 62.0805 18.4445 61.4805 17.1445 60.9805C15.6445 60.3805 14.1445 59.7805 12.7445 59.0805C11.4445 58.4805 10.2445 57.6805 9.44448 56.7805C8.64448 55.9805 8.24448 54.8805 8.24448 53.6805C8.24448 51.9805 8.84448 50.6805 10.1445 49.6805C11.4445 48.6805 13.1445 48.1805 15.3445 48.1805C16.9445 48.1805 18.6445 48.4805 20.3445 48.9805C22.0445 49.4805 23.8445 50.3805 23.8445 50.3805C24.6445 50.7805 25.7445 50.3805 26.1445 49.5805L27.1445 47.5805C27.5445 46.7805 27.2445 45.6805 26.3445 45.2805C26.2445 45.2805 24.0445 44.0805 21.9445 43.4805C19.8445 42.7805 17.3445 42.4805 14.5445 42.4805C12.0445 42.5805 9.84448 43.0805 7.94444 44.0805C6.04444 45.0805 4.44444 46.4805 3.34444 48.1805C2.24444 49.8805 1.64444 51.8805 1.64444 54.1805C1.64444 56.0805 2.04444 57.6805 2.74444 59.0805C3.44444 60.3805 4.44444 61.5805 5.64444 62.4805C6.84444 63.3805 8.14444 64.1805 9.44448 64.7805C10.8445 65.3805 12.1445 65.9805 13.5445 66.4805C14.9445 66.9805 16.3445 67.6805 17.5445 68.2805C18.7445 68.9805 19.7445 69.7805 20.4445 70.6805C21.1445 71.5805 21.5445 72.6805 21.5445 74.0805C21.5445 75.6805 21.1445 76.9805 20.3445 77.8805C19.5445 78.8805 18.4445 79.5805 17.2445 79.9805C14.8445 80.8805 12.2445 80.8805 9.54449 80.1805C8.24448 79.7805 7.04444 79.2805 5.84444 78.6805C4.64444 78.0805 3.74444 77.4805 3.74444 77.4805C3.34444 77.2805 2.94444 77.1805 2.44444 77.2805C2.04444 77.3805 1.64444 77.6805 1.44444 78.0805L0.244444 80.1805C-0.255556 80.9805 0.0444444 82.0805 0.844444 82.4805C0.844444 82.4805 2.14444 83.2805 3.64444 83.9805C5.14444 84.6805 6.74444 85.2805 8.44448 85.6805C10.1445 86.0805 11.9445 86.2805 13.8445 86.2805C16.7445 86.2805 19.3445 85.7805 21.4445 84.6805C23.5445 83.5805 25.2445 82.0805 26.3445 80.1805C27.4445 78.2805 28.0445 76.1805 28.0445 73.7805C28.0445 71.7805 27.7445 69.9805 27.1445 68.5805C26.5445 67.2805 25.7445 66.0805 24.6445 65.0805Z" fill="#717071"/>
<path d="M114.144 68.5805C114.044 68.5805 114.044 68.5805 114.144 68.5805C115.544 67.7805 116.744 66.7805 117.744 65.6805C118.844 64.3805 119.744 62.7805 120.244 61.1805C120.744 59.5805 121.044 57.8805 121.044 56.1805C121.044 53.9805 120.644 52.0805 119.844 50.3805C119.044 48.6805 117.944 47.2805 116.544 46.0805C115.144 44.9805 113.544 44.0805 111.644 43.4805C109.844 42.8805 107.044 42.6805 106.944 42.6805C106.244 42.5805 104.944 42.5805 104.244 42.5805H95.6444C94.7444 42.5805 93.9444 43.3805 93.9444 44.2805V84.0805C93.9444 84.9805 94.7444 85.7805 95.6444 85.7805H98.6444C99.5444 85.7805 100.344 84.9805 100.344 84.0805V71.2805C100.344 70.7805 100.744 70.2805 101.344 70.2805H104.944C105.644 70.2805 106.644 70.2805 107.444 70.1805L116.744 84.5805C117.244 85.2805 118.244 85.8805 119.144 85.8805H123.044C123.544 85.8805 123.944 85.6805 124.044 85.3805C124.244 85.0805 124.144 84.6805 123.944 84.1805L114.144 68.5805ZM114.344 56.4805C114.344 57.2805 114.244 58.1805 113.944 58.9805C113.644 59.8805 113.244 60.6805 112.644 61.3805C112.044 62.1805 111.244 62.7805 110.144 63.2805C109.144 63.7805 107.444 63.8805 107.444 63.8805C106.744 63.9805 105.544 63.9805 104.744 63.9805H101.244C100.744 63.9805 100.244 63.5805 100.244 62.9805V49.8805C100.244 49.3805 100.644 48.8805 101.244 48.8805H105.144C105.844 48.8805 107.044 48.9805 107.744 48.9805C107.744 48.9805 109.144 49.0805 110.044 49.5805C111.044 50.0805 111.844 50.6805 112.444 51.4805C113.044 52.2805 113.544 53.0805 113.844 53.8805C114.144 54.7805 114.344 55.5805 114.344 56.4805Z" fill="#717071"/>
<path d="M167.944 42.6805H163.844C162.944 42.6805 162.044 43.3805 161.744 44.1805L151.944 72.5805L140.644 44.1805C140.344 43.3805 139.344 42.6805 138.444 42.6805H134.344C133.844 42.6805 133.444 42.8805 133.244 43.1805C133.044 43.4805 133.044 43.9805 133.144 44.3805L150.944 86.4805C151.244 87.0805 151.544 87.1805 151.744 87.1805C151.944 87.1805 152.344 87.0805 152.544 86.4805L169.044 44.4805C169.244 44.0805 169.144 43.5805 168.944 43.2805C168.744 42.8805 168.344 42.6805 167.944 42.6805Z" fill="#717071"/>
<path d="M257.144 43.1805C256.944 42.8805 256.544 42.6805 256.044 42.6805H251.744C250.844 42.6805 249.844 43.2805 249.444 44.0805L238.744 64.1805L227.944 44.0805C227.544 43.2805 226.544 42.6805 225.644 42.6805H221.344C220.844 42.6805 220.444 42.8805 220.244 43.1805C220.044 43.4805 220.044 43.9805 220.344 44.3805L234.844 70.3805C235.144 70.9805 235.444 72.0805 235.444 72.6805V84.1805C235.444 85.0805 236.244 85.8805 237.144 85.8805H240.144C241.044 85.8805 241.844 85.0805 241.844 84.1805V72.6805C241.844 71.9805 242.144 70.8805 242.444 70.3805L257.044 44.3805C257.244 43.9805 257.344 43.4805 257.144 43.1805Z" fill="#717071"/>
<path d="M209.444 79.7805H189.344C188.844 79.7805 188.344 79.3805 188.344 78.7805V68.2805C188.344 67.7805 188.744 67.2805 189.344 67.2805H206.244C207.144 67.2805 207.944 66.4805 207.944 65.5805V62.7805C207.944 61.8805 207.144 61.0805 206.244 61.0805H189.344C188.844 61.0805 188.344 60.6805 188.344 60.0805V49.8805C188.344 49.3805 188.744 48.8805 189.344 48.8805H208.644C209.544 48.8805 210.344 48.0805 210.344 47.1805V44.3805C210.344 43.4805 209.544 42.6805 208.644 42.6805H183.644C182.744 42.6805 181.944 43.4805 181.944 44.3805V84.1805C181.944 85.0805 182.744 85.8805 183.644 85.8805H209.444C210.344 85.8805 211.144 85.0805 211.144 84.1805V81.3805C211.144 80.4805 210.344 79.7805 209.444 79.7805Z" fill="#717071"/>
<path d="M47.1444 46.2805C48.9444 46.2805 50.3443 44.8805 50.3443 43.0805C50.3443 41.2805 48.9444 39.8805 47.1444 39.8805C45.3444 39.8805 43.9444 41.2805 43.9444 43.0805C43.9444 44.8805 45.3444 46.2805 47.1444 46.2805Z" fill="#717071"/>
<path d="M74.8444 42.3805H71.8444C70.9444 42.3805 70.1444 43.1805 70.1444 44.0805V68.8805C70.1444 69.5805 70.0444 70.7805 69.9444 71.4805C69.9444 71.4805 69.6444 73.7805 68.8444 75.1805C68.0444 76.5805 66.8444 77.7805 65.3444 78.5805C63.8444 79.3805 62.0444 79.8805 60.1444 79.8805C58.3444 79.8805 56.6444 79.4805 55.1444 78.6805C53.6444 77.8805 52.4444 76.6805 51.5444 75.2805C50.6444 73.8805 50.3444 71.5805 50.3444 71.5805C50.2444 70.8805 50.1444 69.6805 50.1444 68.9805V52.6805C50.1444 50.8805 48.7444 49.4805 46.9444 49.4805C45.1444 49.4805 43.7444 50.8805 43.7444 52.6805V68.9805C43.7444 69.7805 43.8444 70.9805 43.9444 71.6805C43.9444 71.8805 44.5444 76.2805 45.9444 78.5805C47.3444 80.9805 49.3444 82.7805 51.8444 84.0805C54.3444 85.3805 57.0444 85.9805 60.0444 85.9805C63.0444 85.9805 65.8444 85.3805 68.3444 84.0805C70.8444 82.7805 72.8444 80.9805 74.2444 78.5805C75.6444 76.1805 76.2444 71.8805 76.2444 71.6805C76.3444 70.9805 76.4444 69.6805 76.4444 68.9805V43.9805C76.5444 43.1805 75.8444 42.3805 74.8444 42.3805Z" fill="#717071"/>
<rect x="0.244385" y="103.88" width="257" height="29" rx="14.5" fill="#717071"/>
<path d="M92.673 114.16V114.732H91.776V114.16H92.673ZM92.673 116.474H91.776V115.863H92.673V116.474ZM90.385 114.732H87.915V115.863H90.385V116.474H88.76V117.592H90.385V118.203H88.604V119.321H90.385V119.958H88.279V121.076H90.385V122.259H91.776V121.076H94.363V119.958H91.776V119.321H94.051V118.203H91.776V117.592H93.973V115.863H94.61V114.732H93.973V113.042H91.776V112.08H90.385V113.042H88.76V114.16H90.385V114.732ZM84.977 114.836C85.172 114.394 85.354 113.952 85.523 113.497V114.277H86.563C86.134 115.382 85.549 116.812 85.042 117.943L86.303 118.229L86.537 117.696H87.161C87.057 118.528 86.914 119.295 86.706 119.997C86.537 119.568 86.394 119.074 86.277 118.502L85.107 118.84C85.354 119.971 85.679 120.855 86.056 121.557C85.757 122.103 85.393 122.545 84.977 122.857V114.836ZM87.733 116.552L87.499 116.578H87.018C87.512 115.408 87.993 114.199 88.344 113.224L87.382 112.977L87.161 113.029H85.692C85.757 112.834 85.822 112.639 85.887 112.444L84.509 112.028C84.002 113.809 83.144 115.577 82.182 116.734C82.416 117.137 82.754 118.034 82.858 118.411C83.118 118.099 83.378 117.735 83.625 117.358V124.105H84.977V123.065C85.25 123.364 85.562 123.806 85.705 124.105C86.186 123.728 86.602 123.273 86.953 122.727C87.954 123.676 89.28 123.949 90.983 123.949H94.233C94.298 123.546 94.506 122.896 94.714 122.558C93.986 122.584 91.659 122.584 91.061 122.584C89.631 122.571 88.461 122.337 87.603 121.453C88.11 120.192 88.409 118.619 88.539 116.695L87.733 116.552ZM104.425 117.787H106.219V118.424H104.425V117.787ZM104.425 116.11H106.219V116.708H104.425V116.11ZM107.688 119.451V117.787H108.845V116.708H107.688V115.083H104.425V114.446H108.702V113.094H104.009V112.002H102.397V113.094H97.756V116.864C97.756 118.775 97.678 121.479 96.612 123.338C96.95 123.494 97.6 123.923 97.86 124.183C99.03 122.168 99.225 118.97 99.225 116.864V114.446H102.93V115.083H100.213V116.11H102.93V116.708H99.472V117.787H102.93V118.424H100.07V119.451H100.252L99.459 120.231C100.096 120.582 100.889 121.115 101.292 121.479L102.176 120.569C101.773 120.218 100.993 119.763 100.369 119.451H102.93V122.597C102.93 122.805 102.865 122.87 102.631 122.87C102.462 122.883 101.929 122.883 101.383 122.857C101.773 122.675 102.176 122.493 102.566 122.298L102.293 121.193C101.045 121.674 99.771 122.155 98.913 122.415L99.628 123.65C100.07 123.468 100.551 123.247 101.045 123.013C101.214 123.377 101.383 123.819 101.435 124.144C102.501 124.144 103.242 124.131 103.736 123.923C104.243 123.715 104.425 123.377 104.425 122.61V121.349C105.205 122.558 106.284 123.468 107.701 123.988C107.909 123.598 108.325 123.039 108.637 122.74C107.753 122.493 106.999 122.09 106.375 121.57C106.999 121.245 107.701 120.829 108.338 120.413L107.207 119.503C106.778 119.867 106.141 120.348 105.543 120.712C105.244 120.322 104.997 119.906 104.802 119.451H107.688ZM111.523 119.594C111.419 120.686 111.211 121.843 110.834 122.61C111.172 122.727 111.744 123 112.017 123.169C112.394 122.337 112.667 121.037 112.797 119.815L111.523 119.594ZM114.344 119.828C114.643 120.595 114.981 121.596 115.098 122.246L116.242 121.83C116.099 121.18 115.761 120.231 115.436 119.49L114.344 119.828ZM120.298 120.894H122.612V119.529H120.298V117.982H118.777V119.529H116.567V120.894H118.777V122.415H115.8V123.767H123.145V122.415H120.298V120.894ZM120.701 113.913C120.363 114.485 119.934 115.005 119.427 115.46C118.92 115.005 118.491 114.485 118.179 113.913H120.701ZM121.754 112.522L121.481 112.587H116.099V113.913H117.581L116.749 114.186C117.165 114.992 117.672 115.694 118.283 116.305C117.503 116.773 116.632 117.137 115.696 117.384C115.514 116.968 115.306 116.552 115.098 116.188L114.071 116.617C114.227 116.903 114.383 117.228 114.526 117.553L113.278 117.605C114.097 116.552 114.994 115.239 115.709 114.108L114.448 113.523C114.149 114.16 113.733 114.901 113.291 115.629C113.161 115.473 113.018 115.291 112.849 115.109C113.317 114.381 113.837 113.38 114.305 112.496L112.966 112.002C112.745 112.691 112.381 113.549 112.017 114.264C111.913 114.173 111.809 114.082 111.718 114.004L110.977 115.057C111.51 115.577 112.134 116.266 112.511 116.825C112.303 117.124 112.095 117.41 111.9 117.657L110.964 117.696L111.094 119.035L112.979 118.918V124.144H114.318V118.827L114.981 118.775C115.059 119.022 115.111 119.243 115.15 119.438L116.242 118.944C116.164 118.528 115.956 117.969 115.709 117.41C116.008 117.735 116.359 118.307 116.528 118.658C117.607 118.32 118.608 117.878 119.492 117.293C120.324 117.865 121.299 118.294 122.391 118.593C122.599 118.229 123.015 117.644 123.34 117.345C122.352 117.137 121.455 116.799 120.675 116.357C121.598 115.473 122.326 114.368 122.794 112.99L121.754 112.522ZM134.52 122.389H128.423V121.258H134.52V122.389ZM129.476 117.098H133.337V118.008H129.476V117.098ZM134.832 119.139V115.954H128.046V119.139H130.412C130.36 119.399 130.282 119.672 130.217 119.932H126.954V124.157H128.423V123.728H134.52V124.157H136.054V119.932H131.751C131.868 119.685 131.985 119.425 132.089 119.139H134.832ZM135.17 114.004C135.534 113.575 135.924 113.055 136.301 112.561L134.637 112.041C134.39 112.665 133.896 113.445 133.48 114.004H131.348L132.258 113.666C132.076 113.198 131.647 112.457 131.27 111.95L129.918 112.405C130.23 112.899 130.581 113.536 130.763 114.004H128.761L129.177 113.822C128.956 113.341 128.449 112.652 128.02 112.158L126.681 112.743C126.98 113.12 127.305 113.588 127.539 114.004H125.953V116.773H127.37V115.317H135.495V116.773H136.99V114.004H135.17ZM149.652 113.471C149.652 113.055 149.99 112.717 150.406 112.717C150.809 112.717 151.147 113.055 151.147 113.471C151.147 113.874 150.809 114.212 150.406 114.212C149.99 114.212 149.652 113.874 149.652 113.471ZM148.846 113.471C148.846 113.562 148.859 113.64 148.872 113.718C148.599 113.757 148.313 113.77 148.131 113.77H142.112C141.683 113.77 140.942 113.718 140.565 113.666V115.499C140.89 115.473 141.514 115.447 142.112 115.447H148.157C147.988 116.565 147.494 118.034 146.636 119.113C145.583 120.439 144.114 121.57 141.54 122.168L142.957 123.728C145.271 122.974 147.013 121.687 148.183 120.127C149.275 118.684 149.834 116.669 150.133 115.395C150.172 115.278 150.198 115.148 150.237 115.005C150.289 115.018 150.354 115.018 150.406 115.018C151.251 115.018 151.953 114.316 151.953 113.471C151.953 112.613 151.251 111.911 150.406 111.911C149.548 111.911 148.846 112.613 148.846 113.471ZM154.748 113.783C154.774 114.147 154.774 114.68 154.774 115.044V121.401C154.774 122.025 154.735 123.156 154.735 123.221H156.529C156.529 123.182 156.529 122.883 156.516 122.519H162.782C162.782 122.896 162.769 123.195 162.769 123.221H164.563C164.563 123.169 164.537 121.921 164.537 121.414V115.044C164.537 114.654 164.537 114.173 164.563 113.783C164.095 113.809 163.601 113.809 163.276 113.809H156.126C155.775 113.809 155.281 113.796 154.748 113.783ZM156.516 115.46H162.795V120.855H156.516V115.46ZM176.51 113.016L175.418 113.471C175.886 114.134 176.185 114.693 176.562 115.512L177.693 115.031C177.394 114.433 176.874 113.562 176.51 113.016ZM178.291 112.392L177.186 112.847C177.667 113.497 177.992 114.004 178.408 114.823L179.513 114.329C179.201 113.757 178.694 112.912 178.291 112.392ZM170.855 112.769L169.919 114.199C170.777 114.68 172.129 115.551 172.857 116.058L173.819 114.628C173.143 114.147 171.713 113.237 170.855 112.769ZM168.45 121.999L169.425 123.702C170.569 123.494 172.441 122.844 173.767 122.103C175.886 120.868 177.732 119.23 178.928 117.423L177.927 115.655C176.9 117.514 175.08 119.295 172.87 120.53C171.466 121.31 169.906 121.752 168.45 121.999ZM168.853 115.733L167.917 117.163C168.788 117.631 170.14 118.502 170.881 119.022L171.83 117.566C171.167 117.098 169.737 116.201 168.853 115.733ZM183.491 115.954V117.592C183.777 117.566 184.245 117.54 184.518 117.54H186.546V121.726H183.894C183.569 121.726 183.166 121.687 182.828 121.648V123.351C183.179 123.299 183.582 123.286 183.894 123.286H191.083C191.304 123.286 191.785 123.299 192.071 123.351V121.648C191.798 121.674 191.434 121.726 191.083 121.726H188.249V117.54H190.472C190.771 117.54 191.161 117.566 191.486 117.592V115.954C191.174 115.993 190.784 116.019 190.472 116.019H184.518C184.232 116.019 183.777 116.006 183.491 115.954ZM202.289 112.86L200.391 112.236C200.274 112.678 200.001 113.276 199.806 113.601C199.156 114.719 198.025 116.396 195.75 117.787L197.206 118.866C198.48 117.995 199.611 116.851 200.482 115.72H204.135C203.927 116.695 203.173 118.255 202.289 119.269C201.158 120.556 199.715 121.687 197.05 122.48L198.584 123.858C201.028 122.896 202.601 121.7 203.836 120.192C205.006 118.736 205.747 117.007 206.098 115.85C206.202 115.525 206.384 115.161 206.527 114.914L205.201 114.095C204.902 114.186 204.473 114.251 204.07 114.251H201.457C201.47 114.225 201.483 114.212 201.496 114.186C201.652 113.9 201.99 113.315 202.289 112.86ZM211.922 121.752C211.922 122.272 211.87 123.052 211.792 123.572H213.82C213.768 123.039 213.703 122.129 213.703 121.752V118.073C215.107 118.554 217.057 119.308 218.396 120.01L219.137 118.216C217.941 117.631 215.445 116.708 213.703 116.201V114.277C213.703 113.744 213.768 113.172 213.82 112.717H211.792C211.883 113.172 211.922 113.822 211.922 114.277V121.752Z" fill="white"/>
<path d="M37.92 124H39.9V119.365C39.9 118.3 39.765 116.725 39.645 115.66H39.705L40.77 118.33L42.84 122.995H44.115L46.155 118.33L47.235 115.66H47.31C47.19 116.725 47.04 118.3 47.04 119.365V124H49.065V112.855H46.605L44.4 118.105C44.13 118.78 43.845 119.515 43.56 120.235H43.485C43.215 119.515 42.915 118.78 42.66 118.105L40.365 112.855H37.92V124ZM55.29 121.03C55.29 120.28 55.815 119.725 56.505 119.215C57.3 120.07 58.245 120.895 59.19 121.69C58.62 122.2 57.99 122.5 57.36 122.5C56.16 122.5 55.29 122.005 55.29 121.03ZM56.37 115.435C56.37 114.595 56.82 114.13 57.54 114.13C58.2 114.13 58.575 114.565 58.575 115.225C58.575 116.02 57.915 116.575 57.075 117.1C56.64 116.515 56.37 115.96 56.37 115.435ZM63.585 122.47C63.18 122.245 62.52 121.84 61.785 121.315C62.46 120.235 62.91 119.095 63.165 117.805H61.215C61.08 118.765 60.795 119.53 60.39 120.22C59.595 119.605 58.755 118.915 58.05 118.21C59.19 117.475 60.255 116.605 60.255 115.15C60.255 113.605 59.175 112.675 57.48 112.675C55.845 112.675 54.6 113.755 54.6 115.51C54.6 116.365 54.96 117.19 55.53 118.015C54.375 118.75 53.325 119.62 53.325 121.09C53.325 122.905 54.66 124.18 57.165 124.18C58.65 124.18 59.715 123.685 60.585 122.845C61.365 123.46 61.965 123.82 62.61 124.18L63.585 122.47ZM67.8 124H70.02V120.055H71.865C74.565 120.055 76.605 118.885 76.605 116.365C76.605 113.74 74.61 112.855 71.775 112.855H67.8V124ZM70.02 118.3V114.61H71.625C73.41 114.61 74.43 115.03 74.43 116.365C74.43 117.67 73.515 118.3 71.7 118.3H70.02Z" fill="white"/>
<defs>
<linearGradient id="paint0_linear" x1="77.8401" y1="21.2713" x2="77.8401" y2="0.0978055" gradientUnits="userSpaceOnUse">
<stop stop-color="#D0E3A5"/>
<stop offset="0.6067" stop-color="#AADBF1"/>
</linearGradient>
</defs>
</svg>
