<svg width="261" height="91" viewBox="0 0 261 91" fill="none" xmlns="http://www.w3.org/2000/svg">
<path d="M89.6 7.99999C88.5 5.29999 86.4 3.29999 83.7 2.09999C82.9 1.79999 82.1 1.59999 81.3 1.79999C79.3 2.29999 80 6.09999 81.1 7.19999C82.1 8.29999 83 9.49999 82.3 11C81.8 12.1 80.7 12.8 79.6 12.8C78.5 12.8 77.3 12.1 76.9 11C76.3 9.49999 77.1 8.29999 78.1 7.19999C79.1 6.09999 79.9 2.29999 77.9 1.79999C77.1 1.59999 76.3 1.79999 75.5 2.09999C72.8 3.19999 70.8 5.29999 69.6 7.99999C68.5 10.7 68.5 13.6 69.6 16.3C70.7 19 72.8 21 75.5 22.1C76.8 22.7 78.2 22.9 79.6 22.9C81 22.9 82.4 22.6 83.7 22.1C86.4 21 88.5 18.9 89.6 16.3C90.7 13.7 90.7 10.7 89.6 7.99999Z" fill="url(#paint0_linear)"/>
<path d="M131.6 21.9C131.1 21.9 130.7 21.5 130.7 21V2.7H140.3C140.8 2.7 141.2 3.1 141.2 3.6C141.2 4.1 140.8 4.5 140.3 4.5H132.5V21C132.5 21.5 132.1 21.9 131.6 21.9ZM139 11.1C139 10.6 138.6 10.2 138.1 10.2H135.9C135.4 10.2 135 10.6 135 11.1C135 11.6 135.4 12 135.9 12H138.1C138.6 12 139 11.6 139 11.1ZM107.6 21C107.6 20.5 107.2 20.1 106.7 20.1H100V3.6C100 3.1 99.6001 2.7 99.1001 2.7C98.6001 2.7 98.2001 3.1 98.2001 3.6V21.8H106.7C107.2 21.9 107.6 21.5 107.6 21ZM192 21C192 20.5 191.6 20.1 191.1 20.1H184.4V3.6C184.4 3.1 184 2.7 183.5 2.7C183 2.7 182.6 3.1 182.6 3.6V21.8H191.1C191.6 21.9 192 21.5 192 21ZM171.4 21.7C172 21.6 172.6 21.4 173.2 21.1C173.8 20.9 174.3 20.6 174.8 20.2C175.3 19.9 175.8 19.5 176.2 19C176.6 18.6 177 18.1 177.4 17.6C177.7 17.1 178 16.5 178.3 16C178.5 15.4 178.7 14.8 178.9 14.2C179 13.7 178.7 13.2 178.2 13.1C177.7 13 177.2 13.3 177.1 13.8C177 14.3 176.8 14.8 176.6 15.3C176.4 15.8 176.2 16.2 175.9 16.6C175.6 17 175.3 17.4 175 17.7C174.6 18.1 174.3 18.4 173.9 18.6C173.5 18.9 173 19.1 172.6 19.3C172.1 19.5 171.6 19.6 171.1 19.8C170.1 20 169 20 168 19.8C167.5 19.7 167 19.5 166.5 19.3C166 19.1 165.6 18.9 165.2 18.6C164.8 18.3 164.4 18 164.1 17.7C163.7 17.3 163.4 17 163.2 16.6C162.9 16.2 162.7 15.7 162.5 15.3C162.3 14.8 162.2 14.3 162 13.8C161.9 13.3 161.4 13 160.9 13.1C160.4 13.2 160.1 13.7 160.2 14.2C160.3 14.8 160.5 15.4 160.8 16C161 16.6 161.3 17.1 161.7 17.6C162 18.1 162.4 18.6 162.9 19C163.3 19.4 163.8 19.8 164.3 20.2C164.8 20.5 165.4 20.8 165.9 21.1C166.5 21.3 167.1 21.5 167.7 21.7C168.3 21.8 169 21.9 169.6 21.9C170.2 21.9 170.8 21.8 171.4 21.7ZM178.1 11.4C178.6 11.3 178.9 10.8 178.8 10.3C178.7 9.7 178.5 9.1 178.2 8.5C178 7.9 177.7 7.4 177.3 6.9C177 6.4 176.6 5.9 176.1 5.5C175.7 5.1 175.2 4.7 174.7 4.3C174.2 4 173.6 3.7 173.1 3.4C172.5 3.2 171.9 3 171.3 2.8C170 2.5 168.7 2.5 167.4 2.8C166.8 2.9 166.2 3.1 165.6 3.4C165 3.6 164.5 3.9 164 4.3C163.5 4.6 163 5 162.6 5.5C162.2 5.9 162.2 6.4 162.6 6.8C163 7.2 163.5 7.2 163.9 6.8C164.3 6.4 164.6 6.1 165 5.9C165.4 5.6 165.9 5.4 166.3 5.2C166.8 5 167.3 4.9 167.8 4.7C168.8 4.5 169.9 4.5 170.9 4.7C171.4 4.8 171.9 5 172.4 5.2C172.9 5.4 173.3 5.6 173.7 5.9C174.1 6.2 174.5 6.5 174.8 6.8C175.2 7.2 175.5 7.5 175.7 7.9C176 8.3 176.2 8.8 176.4 9.2C176.6 9.7 176.7 10.2 176.9 10.7C177 11.1 177.4 11.4 177.8 11.4C178 11.5 178.1 11.4 178.1 11.4ZM160.8 11.4C161.3 11.3 161.6 10.8 161.5 10.3C161.4 9.7 161.2 9.1 160.9 8.5C160.7 7.9 160.4 7.4 160 6.9C159.7 6.4 159.3 5.9 158.8 5.5C158.4 5.1 157.9 4.7 157.4 4.3C156.9 4 156.3 3.7 155.8 3.4C155.2 3.2 154.6 3 154 2.8C152.7 2.5 151.4 2.5 150.1 2.8C149.5 2.9 148.9 3.1 148.3 3.4C147.7 3.6 147.2 3.9 146.7 4.3C146.2 4.6 145.7 5 145.3 5.5C144.9 5.9 144.5 6.4 144.1 6.9C143.8 7.4 143.5 8 143.2 8.5C143 9.1 142.8 9.7 142.6 10.3C142.5 10.8 142.8 11.3 143.3 11.4C143.8 11.5 144.3 11.2 144.4 10.7C144.5 10.2 144.7 9.7 144.9 9.2C145.1 8.7 145.3 8.3 145.6 7.9C145.9 7.5 146.2 7.1 146.5 6.8C146.9 6.4 147.2 6.1 147.6 5.9C148 5.6 148.5 5.4 148.9 5.2C149.4 5 149.9 4.9 150.4 4.7C151.4 4.5 152.5 4.5 153.5 4.7C154 4.8 154.5 5 155 5.2C155.5 5.4 155.9 5.6 156.3 5.9C156.7 6.2 157.1 6.5 157.4 6.8C157.8 7.2 158.1 7.5 158.3 7.9C158.6 8.3 158.8 8.8 159 9.2C159.2 9.7 159.3 10.2 159.5 10.7C159.6 11.1 160 11.4 160.4 11.4C160.7 11.5 160.7 11.4 160.8 11.4ZM154.1 21.7C154.7 21.6 155.3 21.4 155.9 21.1C156.5 20.9 157 20.6 157.5 20.2C158 19.9 158.5 19.5 158.9 19C159.3 18.6 159.3 18.1 158.9 17.7C158.5 17.3 158 17.3 157.6 17.7C157.2 18.1 156.9 18.4 156.5 18.6C156.1 18.9 155.6 19.1 155.2 19.3C154.7 19.5 154.2 19.6 153.7 19.8C152.7 20 151.6 20 150.6 19.8C150.1 19.7 149.6 19.5 149.1 19.3C148.6 19.1 148.2 18.9 147.8 18.6C147.4 18.3 147 18 146.7 17.7C146.3 17.3 146 17 145.8 16.6C145.5 16.2 145.3 15.7 145.1 15.3C144.9 14.8 144.8 14.3 144.6 13.8C144.5 13.3 144 13 143.5 13.1C143 13.2 142.7 13.7 142.8 14.2C142.9 14.8 143.1 15.4 143.4 16C143.6 16.6 143.9 17.1 144.3 17.6C144.6 18.1 145 18.6 145.5 19C145.9 19.4 146.4 19.8 146.9 20.2C147.4 20.5 148 20.8 148.5 21.1C149.1 21.3 149.7 21.5 150.3 21.7C150.9 21.8 151.6 21.9 152.2 21.9C152.8 21.9 153.4 21.8 154.1 21.7ZM120.7 16.5C120.7 16 120.3 15.6 119.8 15.6H117.6C117.1 15.6 116.7 16 116.7 16.5C116.7 17 117.1 17.4 117.6 17.4H119.8C120.3 17.4 120.7 17 120.7 16.5ZM111.8 21.5L118.5 6.8L125.6 21.5C125.8 21.9 126.4 22.1 126.8 21.9C127.2 21.7 127.4 21.1 127.2 20.7L118.4 2.5L110.1 20.7C109.9 21.2 110.1 21.7 110.5 21.9C110.6 22 110.7 22 110.9 22C111.3 22 111.7 21.8 111.8 21.5Z" fill="#717071"/>
<path d="M26.4001 66.8C25.3001 65.8 24.1001 65 22.8001 64.4C21.5001 63.8 20.2001 63.2 18.9001 62.7C17.4001 62.1 15.9001 61.5 14.5001 60.8C13.2001 60.2 12.0001 59.4 11.2001 58.5C10.4001 57.7 10.0001 56.6 10.0001 55.4C10.0001 53.7 10.6001 52.4 11.9001 51.4C13.2001 50.4 14.9001 49.9 17.1001 49.9C18.7001 49.9 20.4001 50.2 22.1001 50.7C23.8001 51.2 25.6001 52.1 25.6001 52.1C26.4001 52.5 27.5001 52.1 27.9001 51.3L28.9001 49.3C29.3001 48.5 29.0001 47.4 28.1001 47C28.0001 47 25.8001 45.8 23.7001 45.2C21.6001 44.5 19.1001 44.2 16.3001 44.2C13.8001 44.3 11.6001 44.8 9.70006 45.8C7.80006 46.8 6.20006 48.2 5.10006 49.9C4.00006 51.6 3.40006 53.6 3.40006 55.9C3.40006 57.8 3.80006 59.4 4.50006 60.8C5.20006 62.1 6.20006 63.3 7.40006 64.2C8.60006 65.1 9.90006 65.9 11.2001 66.5C12.6001 67.1 13.9001 67.7 15.3001 68.2C16.7001 68.7 18.1001 69.4 19.3001 70C20.5001 70.7 21.5001 71.5 22.2001 72.4C22.9001 73.3 23.3001 74.4 23.3001 75.8C23.3001 77.4 22.9001 78.7 22.1001 79.6C21.3001 80.6 20.2001 81.3 19.0001 81.7C16.6001 82.6 14.0001 82.6 11.3001 81.9C10.0001 81.5 8.80006 81 7.60006 80.4C6.40006 79.8 5.50006 79.2 5.50006 79.2C5.10006 79 4.70006 78.9 4.20006 79C3.80006 79.1 3.40006 79.4 3.20006 79.8L2.00006 81.9C1.50006 82.7 1.80006 83.8 2.60006 84.2C2.60006 84.2 3.90006 85 5.40006 85.7C6.90006 86.4 8.50006 87 10.2001 87.4C11.9001 87.8 13.7001 88 15.6001 88C18.5001 88 21.1001 87.5 23.2001 86.4C25.3001 85.3 27.0001 83.8 28.1001 81.9C29.2001 80 29.8001 77.9 29.8001 75.5C29.8001 73.5 29.5001 71.7 28.9001 70.3C28.3001 69 27.5001 67.8 26.4001 66.8Z" fill="#717071"/>
<path d="M115.9 70.3C115.8 70.3 115.8 70.3 115.9 70.3C117.3 69.5 118.5 68.5 119.5 67.4C120.6 66.1 121.5 64.5 122 62.9C122.5 61.3 122.8 59.6 122.8 57.9C122.8 55.7 122.4 53.8 121.6 52.1C120.8 50.4 119.7 49 118.3 47.8C116.9 46.7 115.3 45.8 113.4 45.2C111.6 44.6 108.8 44.4 108.7 44.4C108 44.3 106.7 44.3 106 44.3H97.4C96.5 44.3 95.7 45.1 95.7 46V85.8C95.7 86.7 96.5 87.5 97.4 87.5H100.4C101.3 87.5 102.1 86.7 102.1 85.8V73C102.1 72.5 102.5 72 103.1 72H106.7C107.4 72 108.4 72 109.2 71.9L118.5 86.3C119 87 120 87.6 120.9 87.6H124.8C125.3 87.6 125.7 87.4 125.8 87.1C126 86.8 125.9 86.4 125.7 85.9L115.9 70.3ZM116.1 58.2C116.1 59 116 59.9 115.7 60.7C115.4 61.6 115 62.4 114.4 63.1C113.8 63.9 113 64.5 111.9 65C110.9 65.5 109.2 65.6 109.2 65.6C108.5 65.7 107.3 65.7 106.5 65.7H103C102.5 65.7 102 65.3 102 64.7V51.6C102 51.1 102.4 50.6 103 50.6H106.9C107.6 50.6 108.8 50.7 109.5 50.7C109.5 50.7 110.9 50.8 111.8 51.3C112.8 51.8 113.6 52.4 114.2 53.2C114.8 54 115.3 54.8 115.6 55.6C115.9 56.5 116.1 57.3 116.1 58.2Z" fill="#717071"/>
<path d="M169.7 44.4H165.6C164.7 44.4 163.8 45.1 163.5 45.9L153.7 74.3L142.4 45.9C142.1 45.1 141.1 44.4 140.2 44.4H136.1C135.6 44.4 135.2 44.6 135 44.9C134.8 45.2 134.8 45.7 134.9 46.1L152.7 88.2C153 88.8 153.3 88.9 153.5 88.9C153.7 88.9 154.1 88.8 154.3 88.2L170.8 46.2C171 45.8 170.9 45.3 170.7 45C170.5 44.6 170.1 44.4 169.7 44.4Z" fill="#717071"/>
<path d="M258.9 44.9C258.7 44.6 258.3 44.4 257.8 44.4H253.5C252.6 44.4 251.6 45 251.2 45.8L240.5 65.9L229.7 45.8C229.3 45 228.3 44.4 227.4 44.4H223.1C222.6 44.4 222.2 44.6 222 44.9C221.8 45.2 221.8 45.7 222.1 46.1L236.6 72.1C236.9 72.7 237.2 73.8 237.2 74.4V85.9C237.2 86.8 238 87.6 238.9 87.6H241.9C242.8 87.6 243.6 86.8 243.6 85.9V74.4C243.6 73.7 243.9 72.6 244.2 72.1L258.8 46.1C259 45.7 259.1 45.2 258.9 44.9Z" fill="#717071"/>
<path d="M211.2 81.5H191.1C190.6 81.5 190.1 81.1 190.1 80.5V70C190.1 69.5 190.5 69 191.1 69H208C208.9 69 209.7 68.2 209.7 67.3V64.5C209.7 63.6 208.9 62.8 208 62.8H191.1C190.6 62.8 190.1 62.4 190.1 61.8V51.6C190.1 51.1 190.5 50.6 191.1 50.6H210.4C211.3 50.6 212.1 49.8 212.1 48.9V46.1C212.1 45.2 211.3 44.4 210.4 44.4H185.4C184.5 44.4 183.7 45.2 183.7 46.1V85.9C183.7 86.8 184.5 87.6 185.4 87.6H211.2C212.1 87.6 212.9 86.8 212.9 85.9V83.1C212.9 82.2 212.1 81.5 211.2 81.5Z" fill="#717071"/>
<path d="M48.9 48C50.7 48 52.0999 46.6 52.0999 44.8C52.0999 43 50.7 41.6 48.9 41.6C47.1 41.6 45.7 43 45.7 44.8C45.7 46.6 47.1 48 48.9 48Z" fill="#717071"/>
<path d="M76.6 44.1H73.6C72.7 44.1 71.9 44.9 71.9 45.8V70.6C71.9 71.3 71.8 72.5 71.7 73.2C71.7 73.2 71.4 75.5 70.6 76.9C69.8 78.3 68.6 79.5 67.1 80.3C65.6 81.1 63.8 81.6 61.9 81.6C60.1 81.6 58.4 81.2 56.9 80.4C55.4 79.6 54.2 78.4 53.3 77C52.4 75.6 52.1 73.3 52.1 73.3C52 72.6 51.9 71.4 51.9 70.7V54.4C51.9 52.6 50.5 51.2 48.7 51.2C46.9 51.2 45.5 52.6 45.5 54.4V70.7C45.5 71.5 45.6 72.7 45.7 73.4C45.7 73.6 46.3 78 47.7 80.3C49.1 82.7 51.1 84.5 53.6 85.8C56.1 87.1 58.8 87.7 61.8 87.7C64.8 87.7 67.6 87.1 70.1 85.8C72.6 84.5 74.6 82.7 76 80.3C77.4 77.9 78 73.6 78 73.4C78.1 72.7 78.2 71.4 78.2 70.7V45.7C78.3 44.9 77.6 44.1 76.6 44.1Z" fill="#717071"/>
<defs>
<linearGradient id="paint0_linear" x1="79.5957" y1="22.9908" x2="79.5957" y2="1.81729" gradientUnits="userSpaceOnUse">
<stop stop-color="#D0E3A5"/>
<stop offset="0.6067" stop-color="#AADBF1"/>
</linearGradient>
</defs>
</svg>
