<?xml version="1.0" encoding="utf-8"?>
<!-- Generator: Adobe Illustrator 27.9.0, SVG Export Plug-In . SVG Version: 6.00 Build 0)  -->
<svg version="1.1" id="レイヤー_1" xmlns="http://www.w3.org/2000/svg" xmlns:xlink="http://www.w3.org/1999/xlink" x="0px"
	 y="0px" viewBox="0 0 250 100" style="enable-background:new 0 0 250 100;" xml:space="preserve">
<style type="text/css">
	.st0{fill:#1E2C5B;}
	.st1{fill:#00B7DE;}
	.st2{fill:#727171;}
	.st3{fill:url(#SVGID_1_);}
	.st4{fill:url(#Q_00000089535270056157648850000002973445132033381272_);}
	.st5{fill:url(#O_00000022518907998178758860000008718662247787502238_);}
	.st6{fill:url(#L_00000026885642920075808760000004710780629488319414_);}
	.st7{fill:url(#I_00000170988107879739870850000004425824701139362711_);}
	.st8{fill:url(#M_00000052089287175540742780000017918451578724872377_);}
	.st9{fill:url(#SVGID_00000154416202811115557970000018131019685263964076_);}
	.st10{fill:url(#SVGID_00000177443808335402947290000013285705429609853057_);}
	.st11{fill:url(#SVGID_00000144316492377727680920000004844627368670804402_);}
	.st12{fill:url(#SVGID_00000176745921463360330670000017657808978717525145_);}
	.st13{fill:url(#SVGID_00000163053378989126679140000015212243180144959628_);}
	.st14{fill:url(#SVGID_00000049901521347448231060000007852185832506606268_);}
	.st15{fill:url(#SVGID_00000173865534708313531860000018293122598477798334_);}
	.st16{fill:url(#SVGID_00000038410325336574568890000002156165349264584368_);}
	.st17{fill:url(#SVGID_00000055708229320187475410000014670757406261585542_);}
	.st18{fill:url(#SVGID_00000097494789487302438160000003187639004834401456_);}
	.st19{fill:#FFB74D;}
	.st20{fill:url(#SVGID_00000134970740705950878580000005648641956628766909_);fill-opacity:0.5;}
	.st21{fill:url(#SVGID_00000106123753985041386120000009955821987473305785_);fill-opacity:0.5;}
	.st22{fill:#FFFFFF;}
	.st23{fill:#00BCD4;fill-opacity:0.8;}
	.st24{fill:url(#SVGID_00000070097065874107052030000001328619656573375874_);fill-opacity:0.56;}
	.st25{fill:url(#SVGID_00000003076680228040076030000016237232615909033895_);}
	.st26{fill:url(#Q_00000124840222705546558220000003033758342612441995_);}
	.st27{fill:url(#O_00000059272131274933386330000014998572050433975223_);}
	.st28{fill:url(#L_00000138535570967352242660000009026113984766035090_);}
	.st29{fill:url(#I_00000057840993542296357250000005643931056129704064_);}
	.st30{fill:url(#M_00000131347800792745417160000016320087156702345655_);}
	.st31{fill:url(#SVGID_00000123439900756367222650000017113799017168122759_);}
	.st32{fill:url(#SVGID_00000101095687393340911230000015407315218822371749_);}
	.st33{fill:url(#SVGID_00000026127757262469167290000015615230441325076865_);}
	.st34{fill:url(#SVGID_00000108300784549252860530000008033387382078954660_);}
	.st35{fill:url(#SVGID_00000149357844169349099660000007959029608048570546_);}
	.st36{fill:url(#SVGID_00000068640669184026799680000016529508561804620160_);}
	.st37{fill:url(#SVGID_00000137841646832708965110000011657987069855174821_);}
	.st38{fill:url(#SVGID_00000029738654191137450680000001250466409493968538_);}
	.st39{fill:url(#SVGID_00000010998530163805520650000013582850363628761527_);}
	.st40{fill:url(#SVGID_00000156559165424346922160000004278978671898165181_);}
	.st41{fill:url(#SVGID_00000118354792579810404190000017196043315556990371_);fill-opacity:0.5;}
	.st42{fill:url(#SVGID_00000100360874588276479810000002558321219613790631_);fill-opacity:0.5;}
	.st43{fill:url(#SVGID_00000055699553007636326600000008111426302197798573_);fill-opacity:0.56;}
	.st44{fill:url(#SVGID_00000136400002963946516370000000766122411570648211_);}
	.st45{fill:url(#Q_00000173158694857829489420000011694963453513930379_);}
	.st46{fill:url(#O_00000180364505779252168050000001151154282716893354_);}
	.st47{fill:url(#L_00000045616543553156730090000016597733131814364595_);}
	.st48{fill:url(#I_00000062882176831775777680000005839470520530888074_);}
	.st49{fill:url(#M_00000140719195302846519580000002071730894828206255_);}
	.st50{fill:url(#SVGID_00000175320401280059443600000009462882930010991003_);}
	.st51{fill:url(#SVGID_00000127041829332355654760000016074992760690882230_);}
	.st52{fill:url(#SVGID_00000106116053066909230450000006969824276810825639_);}
	.st53{fill:url(#SVGID_00000119090417715129522020000000686715936063410616_);}
	.st54{fill:url(#SVGID_00000048477146190140671480000001761403571584313515_);}
	.st55{fill:url(#SVGID_00000114052914441616281820000001950213292190530492_);}
	.st56{fill:url(#SVGID_00000137848244823026710030000008911785237090347441_);}
	.st57{fill:url(#SVGID_00000156585448106705086860000006052708609838638989_);}
	.st58{fill:url(#SVGID_00000013168402863759690150000015405767831710866306_);}
	.st59{fill:url(#SVGID_00000103962160071228911530000017549497683913160330_);}
	.st60{fill:url(#SVGID_00000000932880543343884950000003273850602771667133_);fill-opacity:0.5;}
	.st61{fill:url(#SVGID_00000181800933239723365170000000207713551665640849_);fill-opacity:0.5;}
	.st62{fill:url(#SVGID_00000146495266464102884410000004276378800424788382_);fill-opacity:0.56;}
	.st63{fill:#00B7DE;stroke:#00B7DE;stroke-width:0.25;stroke-miterlimit:10;}
	.st64{fill:none;}
	.st65{fill:url(#SVGID_00000015350741128397684240000000866205014593374093_);fill-opacity:0.5;}
	.st66{fill:url(#SVGID_00000073722674134735627740000013535093294458033581_);fill-opacity:0.5;}
	.st67{fill:url(#SVGID_00000168818423213076371270000008089485379791244192_);fill-opacity:0.56;}
	.st68{fill:url(#SVGID_00000076571682941572589560000007965957698018207631_);}
	.st69{fill:url(#SVGID_00000003793548841364475990000014843281550739302306_);fill-opacity:0.5;}
	.st70{fill:url(#SVGID_00000005269149674244944530000012239683592801344171_);fill-opacity:0.5;}
	.st71{fill:url(#SVGID_00000090976213723697124200000015618037133618869926_);fill-opacity:0.56;}
	.st72{fill:#00B7DE;stroke:#00B7DE;stroke-width:0.2851;stroke-miterlimit:10;}
	.st73{fill:#FF01FF;}
	.st74{fill:#BF1500;}
	.st75{fill:#00FF00;}
	.st76{fill:#FFFFFF;fill-opacity:0.5;}
	.st77{fill:#FFFFFF;fill-opacity:0.8;}
	.st78{fill:#FFFFFF;fill-opacity:0.56;}
</style>
<g>
	<g>
		<g>
			<path class="st2" d="M63.99,93.44h-0.87v-7.73h0.87v0.69c0.56-0.69,1.31-0.81,1.68-0.81c1.56,0,2.43,1.31,2.43,2.68
				c0,1.37-0.87,2.62-2.37,2.62c-0.81,0-1.37-0.37-1.74-0.81V93.44z M67.23,88.27c0-1.25-0.81-1.87-1.62-1.87s-1.68,0.69-1.68,1.87
				c0,1,0.62,1.87,1.68,1.87C66.6,90.07,67.23,89.2,67.23,88.27z"/>
			<path class="st2" d="M69.1,88.2c0-1.5,1.12-2.62,2.62-2.62c1.5,0,2.62,1.12,2.62,2.62c0,1.5-1.12,2.62-2.62,2.62
				C70.22,90.82,69.1,89.76,69.1,88.2z M69.97,88.2c0,1.25,0.87,1.87,1.74,1.87s1.74-0.62,1.74-1.87c0-1.25-0.81-1.87-1.74-1.87
				S69.97,87.02,69.97,88.2z"/>
			<path class="st2" d="M75.95,85.71l1.5,3.36L79,85.34l1.56,3.74L82,85.71h0.93l-2.49,5.3l-1.56-3.74l-1.56,3.74l-2.37-5.3H75.95z"
				/>
			<path class="st2" d="M88.29,89.45c-0.12,0.25-0.37,0.56-0.62,0.81c-0.44,0.44-1,0.62-1.68,0.62c-1.18,0-2.43-0.75-2.43-2.62
				c0-1.5,0.93-2.62,2.43-2.62c1,0,1.56,0.5,1.87,0.93c0.31,0.44,0.5,1.18,0.44,1.87h-3.86c0,1.06,0.75,1.68,1.56,1.68
				c0.44,0,0.75-0.12,1-0.37c0.25-0.19,0.44-0.44,0.5-0.69L88.29,89.45z M87.42,87.64c-0.12-0.75-0.75-1.31-1.43-1.31
				c-0.75,0-1.31,0.56-1.43,1.31H87.42z"/>
			<path class="st2" d="M89.6,85.71h0.87v0.56c0.06-0.12,0.44-0.69,1.12-0.69c0.25,0,0.56,0.12,0.75,0.19l-0.44,0.75
				c-0.19-0.12-0.37-0.19-0.5-0.19c-0.37,0-0.56,0.12-0.69,0.31c-0.12,0.19-0.31,0.5-0.31,1.37v2.68h-0.87L89.6,85.71L89.6,85.71z"
				/>
			<path class="st2" d="M97.26,89.45c-0.12,0.25-0.37,0.56-0.62,0.81c-0.44,0.44-1,0.62-1.68,0.62c-1.18,0-2.43-0.75-2.43-2.62
				c0-1.5,0.93-2.62,2.43-2.62c1,0,1.56,0.5,1.87,0.93c0.31,0.44,0.5,1.18,0.44,1.87H93.4c0,1.06,0.75,1.68,1.56,1.68
				c0.44,0,0.75-0.12,1-0.37c0.25-0.19,0.44-0.44,0.5-0.69L97.26,89.45z M96.45,87.64c-0.12-0.75-0.75-1.31-1.43-1.31
				c-0.75,0-1.31,0.56-1.43,1.31H96.45z"/>
			<path class="st2" d="M102.43,81.97h0.87v8.72h-0.87v-0.69c-0.31,0.37-0.81,0.81-1.68,0.81c-1.25,0-2.43-0.87-2.43-2.62
				c0-1.68,1.12-2.62,2.43-2.62c0.93,0,1.5,0.5,1.68,0.81V81.97z M99.19,88.2c0,1.06,0.62,1.87,1.62,1.87
				c1.06,0,1.68-0.87,1.68-1.87c0-1.31-0.87-1.87-1.68-1.87C100,86.4,99.19,87.02,99.19,88.2z"/>
			<path class="st2" d="M108.6,90.7h-0.87v-8.72h0.87v4.42c0.56-0.75,1.37-0.81,1.68-0.81c1.56,0,2.43,1.31,2.43,2.62
				c0,1.37-0.87,2.62-2.37,2.62c-0.81,0-1.37-0.37-1.74-0.81V90.7z M111.84,88.27c0-1.25-0.81-1.87-1.62-1.87
				c-0.81,0-1.68,0.69-1.68,1.87c0,1,0.62,1.87,1.68,1.87C111.22,90.07,111.84,89.2,111.84,88.27z"/>
			<path class="st2" d="M115.58,90.2l-2.31-4.49h1l1.74,3.55l1.62-3.55h0.93l-3.68,7.73h-0.93L115.58,90.2z"/>
		</g>
		
			<linearGradient id="SVGID_1_" gradientUnits="userSpaceOnUse" x1="130.7251" y1="1974.5498" x2="130.7251" y2="1962.0876" gradientTransform="matrix(1 0 0 1 0 -1881.3615)">
			<stop  offset="0" style="stop-color:#D0E4A6"/>
			<stop  offset="0.61" style="stop-color:#ABDCF1"/>
		</linearGradient>
		<path class="st3" d="M136.58,84.4c-0.62-1.56-1.87-2.8-3.43-3.43c-0.44-0.19-0.93-0.25-1.43-0.19c-1.18,0.31-0.75,2.49-0.12,3.18
			c0.62,0.62,1.12,1.37,0.75,2.24c-0.37,0.87-1.37,1.31-2.31,0.93c-0.44-0.19-0.75-0.5-0.93-0.93c-0.37-0.87,0.12-1.62,0.75-2.24
			c0.62-0.62,1.06-2.87-0.12-3.18c-0.5-0.12-1-0.06-1.43,0.19c-3.24,1.37-4.8,5.05-3.43,8.35c1.37,3.3,5.05,4.8,8.35,3.43
			C136.4,91.38,137.95,87.64,136.58,84.4z"/>
		<path class="st2" d="M161.32,92.5c-0.31,0-0.56-0.19-0.56-0.5l0,0V81.29h5.61c0.31,0,0.5,0.25,0.5,0.56c0,0.25-0.25,0.5-0.5,0.5
			h-4.55V92C161.82,92.25,161.57,92.5,161.32,92.5z M165.68,86.15c0-0.31-0.25-0.56-0.56-0.56l0,0h-1.25c-0.31,0-0.5,0.25-0.5,0.56
			c0,0.25,0.25,0.5,0.5,0.5h1.25C165.43,86.71,165.62,86.46,165.68,86.15L165.68,86.15z M147.18,92c0-0.31-0.25-0.56-0.56-0.56
			h-3.93v-9.66c0-0.31-0.25-0.5-0.56-0.5c-0.25,0-0.5,0.25-0.5,0.5V92.5h4.99C146.93,92.5,147.18,92.25,147.18,92L147.18,92
			L147.18,92z M196.9,92c0-0.31-0.25-0.56-0.56-0.56h-3.93v-9.66c0-0.31-0.25-0.5-0.56-0.5c-0.25,0-0.5,0.25-0.5,0.5V92.5h4.99
			C196.65,92.5,196.9,92.25,196.9,92L196.9,92L196.9,92z M184.75,92.38c0.37-0.06,0.69-0.19,1.06-0.31
			c0.69-0.31,1.25-0.69,1.81-1.18c0.25-0.25,0.5-0.5,0.69-0.81c0.19-0.31,0.37-0.62,0.5-0.93c0.12-0.31,0.25-0.69,0.31-1.06
			c0.06-0.31-0.12-0.56-0.44-0.62c-0.31-0.06-0.56,0.12-0.62,0.44c-0.12,0.56-0.37,1.12-0.69,1.62c-0.31,0.5-0.75,0.93-1.25,1.25
			c-0.25,0.19-0.5,0.31-0.75,0.44c-0.25,0.12-0.56,0.19-0.87,0.25c-0.62,0.12-1.25,0.12-1.87,0c-0.31-0.06-0.56-0.12-0.87-0.25
			c-0.56-0.25-1.06-0.56-1.43-1c-0.19-0.19-0.37-0.44-0.56-0.69c-0.31-0.5-0.56-1.06-0.69-1.62c-0.06-0.31-0.31-0.5-0.62-0.44
			c-0.31,0.06-0.5,0.31-0.44,0.62c0.06,0.37,0.19,0.75,0.31,1.06c0.12,0.31,0.31,0.69,0.5,0.93c0.19,0.31,0.44,0.56,0.69,0.81
			c0.25,0.25,0.5,0.5,0.81,0.69c0.31,0.19,0.62,0.37,0.93,0.5C182.44,92.5,183.63,92.63,184.75,92.38z M188.68,86.4
			c0.31-0.06,0.5-0.31,0.44-0.62c-0.06-0.37-0.19-0.75-0.31-1.06c-0.12-0.31-0.31-0.69-0.5-0.93c-0.62-0.87-1.5-1.62-2.49-2.06
			c-1.06-0.44-2.18-0.56-3.3-0.31c-0.75,0.12-1.43,0.44-1.99,0.87c-0.31,0.19-0.56,0.44-0.81,0.69c-0.19,0.25-0.19,0.56,0.06,0.75
			c0.19,0.19,0.5,0.19,0.69,0c0.19-0.19,0.44-0.37,0.69-0.56c0.25-0.19,0.5-0.31,0.75-0.44c0.87-0.37,1.81-0.44,2.68-0.25
			c0.31,0.06,0.56,0.12,0.87,0.25c0.25,0.12,0.56,0.25,0.75,0.44c0.25,0.19,0.5,0.37,0.69,0.56c0.19,0.19,0.37,0.44,0.56,0.69
			s0.31,0.5,0.44,0.75s0.19,0.56,0.25,0.87c0.06,0.25,0.25,0.44,0.5,0.44C188.61,86.4,188.68,86.4,188.68,86.4L188.68,86.4z
			 M178.52,86.4c0.31-0.06,0.5-0.31,0.44-0.62c-0.06-0.37-0.19-0.69-0.31-1.06c-0.12-0.31-0.31-0.69-0.5-0.93
			c-0.37-0.62-0.93-1.12-1.5-1.5c-0.62-0.44-1.31-0.69-1.99-0.87c-1.12-0.25-2.31-0.12-3.36,0.31c-0.31,0.12-0.69,0.31-0.93,0.5
			c-0.31,0.19-0.56,0.44-0.81,0.69c-0.25,0.25-0.5,0.5-0.69,0.81c-0.19,0.31-0.37,0.62-0.5,1c-0.12,0.31-0.25,0.69-0.31,1.06
			c-0.06,0.31,0.12,0.56,0.44,0.62c0.31,0.06,0.56-0.12,0.62-0.44s0.12-0.56,0.25-0.87c0.25-0.56,0.56-1.06,1-1.43
			c0.19-0.19,0.44-0.37,0.69-0.56c0.25-0.19,0.5-0.31,0.75-0.44c0.25-0.12,0.56-0.19,0.87-0.25c0.93-0.19,1.87-0.06,2.68,0.25
			c0.25,0.12,0.56,0.25,0.75,0.44c0.25,0.19,0.5,0.37,0.69,0.56c0.19,0.19,0.37,0.44,0.56,0.69c0.19,0.25,0.31,0.5,0.44,0.75
			c0.12,0.25,0.19,0.56,0.25,0.87C178.08,86.21,178.27,86.4,178.52,86.4C178.46,86.4,178.46,86.4,178.52,86.4L178.52,86.4z
			 M174.53,92.38c0.37-0.06,0.69-0.19,1.06-0.31c0.31-0.12,0.69-0.31,0.93-0.5c0.31-0.19,0.56-0.44,0.81-0.69
			c0.19-0.19,0.19-0.56,0-0.75c-0.19-0.19-0.56-0.19-0.75,0l0,0c-0.19,0.19-0.44,0.37-0.69,0.56c-0.5,0.31-1.06,0.56-1.62,0.69
			c-0.62,0.12-1.25,0.12-1.87,0c-0.31-0.06-0.56-0.12-0.87-0.25c-0.25-0.12-0.56-0.25-0.75-0.44c-0.5-0.31-0.93-0.75-1.25-1.25
			c-0.19-0.25-0.31-0.5-0.44-0.75c-0.12-0.25-0.19-0.56-0.25-0.87c-0.06-0.31-0.31-0.5-0.62-0.44c-0.31,0.06-0.5,0.31-0.44,0.62l0,0
			c0.06,0.37,0.19,0.75,0.31,1.06c0.12,0.31,0.31,0.69,0.5,0.93c0.19,0.31,0.44,0.56,0.69,0.81c0.5,0.5,1.12,0.93,1.81,1.18
			c0.37,0.12,0.69,0.25,1.06,0.37C173.04,92.57,173.78,92.57,174.53,92.38z M154.9,89.39c0-0.31-0.25-0.56-0.56-0.56l0,0h-1.25
			c-0.31,0-0.56,0.19-0.56,0.5s0.19,0.56,0.5,0.56h0.06h1.25C154.65,89.89,154.9,89.64,154.9,89.39L154.9,89.39z M149.67,92.25
			l3.93-8.66l4.17,8.66c0.12,0.25,0.44,0.37,0.69,0.25s0.37-0.44,0.25-0.69l-5.17-10.72l-4.86,10.72c-0.12,0.25,0,0.56,0.25,0.69
			l0,0c0.06,0.06,0.12,0.06,0.19,0.06C149.42,92.57,149.61,92.44,149.67,92.25L149.67,92.25z"/>
	</g>
	<g>
		<g id="ロゴ_xFF0B_ロゴタイプ_xFF08_英_xFF0B_カナ_xFF09__00000126315515886334448920000010383490909802693250_">
			<g id="ロゴタイプmono_xFF08_英_xFF09__00000008849576599943002350000002655976849122306214_">
				
					<linearGradient id="Q_00000061448130964416046400000007145717552252781993_" gradientUnits="userSpaceOnUse" x1="111.1132" y1="20.8965" x2="125.5505" y2="20.8965">
					<stop  offset="1.358113e-03" style="stop-color:#00B7DE"/>
					<stop  offset="1" style="stop-color:#00B7DE;stop-opacity:0.72"/>
				</linearGradient>
				
					<path id="Q_00000146501542878206810840000003795549278311372694_" style="fill:url(#Q_00000061448130964416046400000007145717552252781993_);" d="
					M118.33,6.56c-3.63,0-6.65,2.72-7.01,6.33c-0.14,1.35-0.21,3.04-0.21,4.64c0.01,1.73,0.08,3.37,0.21,4.63
					c0.3,2.91,2.32,5.25,5,6.04c0.01,3.88,3.16,7.03,7.04,7.03v-4.02c-1.66,0-3.01-1.35-3.02-3.01c2.68-0.79,4.7-3.12,5-6.04
					c0.13-1.26,0.2-2.9,0.21-4.63c0.01-1.6-0.07-3.29-0.21-4.64C124.98,9.28,121.96,6.56,118.33,6.56z M121.34,21.76
					c-0.16,1.55-1.45,2.71-3.01,2.71c-1.56,0-2.85-1.17-3.01-2.71c-0.11-1.13-0.18-2.63-0.19-4.24c0-1.47,0.06-3.01,0.19-4.22
					c0.16-1.55,1.45-2.71,3.01-2.71c1.56,0,2.85,1.17,3.01,2.71c0.12,1.22,0.19,2.76,0.19,4.22
					C121.52,19.12,121.45,20.63,121.34,21.76z"/>
				
					<linearGradient id="O_00000078012692011480647270000010699647178498957459_" gradientUnits="userSpaceOnUse" x1="129.2204" y1="17.5266" x2="143.6577" y2="17.5266">
					<stop  offset="1.358113e-03" style="stop-color:#00B7DE"/>
					<stop  offset="1" style="stop-color:#00B7DE;stop-opacity:0.72"/>
				</linearGradient>
				
					<path id="O_00000102537440427178062240000005897300791322261412_" style="fill:url(#O_00000078012692011480647270000010699647178498957459_);" d="
					M136.44,6.56c-3.63,0-6.65,2.72-7.01,6.33c-0.14,1.35-0.21,3.04-0.21,4.64c0.01,1.73,0.08,3.37,0.21,4.63
					c0.37,3.61,3.38,6.33,7.01,6.33c3.63,0,6.64-2.72,7.01-6.33c0.13-1.26,0.2-2.9,0.21-4.63c0.01-1.6-0.07-3.3-0.21-4.64
					C143.08,9.28,140.07,6.56,136.44,6.56z M139.45,21.76c-0.16,1.55-1.45,2.71-3.01,2.71s-2.85-1.17-3.01-2.71
					c-0.11-1.13-0.18-2.63-0.19-4.24c0-1.47,0.06-3.01,0.19-4.22c0.16-1.55,1.45-2.71,3.01-2.71s2.85,1.17,3.01,2.71
					c0.12,1.21,0.19,2.75,0.19,4.22C139.63,19.12,139.56,20.63,139.45,21.76z"/>
				
					<linearGradient id="L_00000160170739812615075700000008662930645158489473_" gradientUnits="userSpaceOnUse" x1="148.0078" y1="17.778" x2="161.0853" y2="17.778">
					<stop  offset="1.358113e-03" style="stop-color:#00B7DE"/>
					<stop  offset="1" style="stop-color:#00B7DE;stop-opacity:0.72"/>
				</linearGradient>
				
					<path id="L_00000122703721856191715230000012466002109984685463_" style="fill:url(#L_00000160170739812615075700000008662930645158489473_);" d="
					M152.03,21.55V7.47h-4.02v15.09c0,3.05,2.48,5.53,5.53,5.53h7.54v-4.02h-6.54C153.16,24.07,152.03,22.94,152.03,21.55z"/>
				
					<linearGradient id="I_00000065049370410995104050000010246582100293074618_" gradientUnits="userSpaceOnUse" x1="165.5394" y1="19.5386" x2="168.4674" y2="19.5386">
					<stop  offset="1.358113e-03" style="stop-color:#00B7DE"/>
					<stop  offset="1" style="stop-color:#00B7DE;stop-opacity:0.72"/>
				</linearGradient>
				
					<path id="I_00000039114312654179836320000013338906418125450917_" style="fill:url(#I_00000065049370410995104050000010246582100293074618_);" d="
					M167.99,28.49h-1.97V15.97h1.97V28.49z M167,10.58c-0.81,0-1.46,0.66-1.46,1.46s0.66,1.46,1.46,1.46c0.81,0,1.46-0.66,1.46-1.46
					S167.81,10.58,167,10.58z"/>
				
					<linearGradient id="M_00000111183711438554082440000000719499850429146272_" gradientUnits="userSpaceOnUse" x1="187.376" y1="19.7385" x2="203.4666" y2="19.7385">
					<stop  offset="1.358113e-03" style="stop-color:#00B7DE"/>
					<stop  offset="1" style="stop-color:#00B7DE;stop-opacity:0.72"/>
				</linearGradient>
				
					<path id="M_00000022533128816479067760000004591309336731621802_" style="fill:url(#M_00000111183711438554082440000000719499850429146272_);" d="
					M203.47,28.49h-2V15.64c0-1.34-1.08-2.47-2.4-2.53c-0.7-0.03-1.39,0.25-1.9,0.76c-0.48,0.48-0.74,1.11-0.74,1.77v12.85h-2V15.64
					c0-1.34-1.08-2.47-2.4-2.53c-0.7-0.03-1.39,0.25-1.9,0.76c-0.48,0.48-0.74,1.11-0.74,1.77v12.85h-2V15.64
					c0-1.25,0.49-2.42,1.36-3.3c0.9-0.91,2.13-1.4,3.37-1.34c1.33,0.06,2.52,0.74,3.31,1.75c0.11-0.14,0.23-0.28,0.36-0.41
					c0.9-0.91,2.13-1.4,3.37-1.34c2.38,0.11,4.31,2.19,4.31,4.64V28.49z"/>
				
					<linearGradient id="SVGID_00000158710513670700767240000001869435906426170803_" gradientUnits="userSpaceOnUse" x1="172.5315" y1="19.7425" x2="183.312" y2="19.7425">
					<stop  offset="1.358113e-03" style="stop-color:#00B7DE"/>
					<stop  offset="1" style="stop-color:#00B7DE;stop-opacity:0.72"/>
				</linearGradient>
				<path style="fill:url(#SVGID_00000158710513670700767240000001869435906426170803_);" d="M177.92,28.49
					c-2.97,0-5.39-2.23-5.39-4.98h2.12c0,1.55,1.47,2.82,3.27,2.82c1.81,0,3.27-1.26,3.27-2.82c0-0.52-0.17-1.02-0.48-1.46
					c-0.42-0.58-1.11-0.98-1.92-1.1l-2.05-0.29c-1.37-0.19-2.59-0.91-3.34-1.97c-0.58-0.81-0.88-1.76-0.88-2.73
					c0-2.74,2.42-4.98,5.39-4.98s5.39,2.23,5.39,4.98h-2.12c0-1.55-1.47-2.82-3.27-2.82c-1.81,0-3.27,1.26-3.27,2.82
					c0,0.52,0.16,1.02,0.48,1.46c0.42,0.58,1.11,0.98,1.92,1.1l2.05,0.29c1.37,0.19,2.59,0.91,3.34,1.97
					c0.58,0.81,0.88,1.76,0.88,2.73C183.31,26.26,180.89,28.49,177.92,28.49z"/>
			</g>
			
				<linearGradient id="SVGID_00000112606714242856036770000004746677729188341643_" gradientUnits="userSpaceOnUse" x1="67.6802" y1="20.8965" x2="105.906" y2="20.8965">
				<stop  offset="1.358113e-03" style="stop-color:#00B7DE"/>
				<stop  offset="1" style="stop-color:#00B7DE;stop-opacity:0.72"/>
			</linearGradient>
			<path style="fill:url(#SVGID_00000112606714242856036770000004746677729188341643_);" d="M97.38,6.56c-4.7,0-8.53,3.82-8.53,8.53
				c0,4.7,3.82,8.53,8.53,8.53c4.7,0,8.52-3.82,8.52-8.53C105.91,10.39,102.08,6.56,97.38,6.56z M97.38,20.02
				c-2.72,0-4.94-2.21-4.94-4.94c0-2.72,2.21-4.94,4.94-4.94c0.49,0,0.95,0.09,1.4,0.23c-0.74,0.04-1.47,0.34-2.03,0.9
				c-1.23,1.23-1.23,3.22,0,4.44c1.23,1.23,3.22,1.23,4.44,0c0.57-0.57,0.86-1.29,0.9-2.03c0.13,0.45,0.23,0.91,0.23,1.4
				C102.32,17.81,100.1,20.02,97.38,20.02z M82.39,23.81c0.35,0.35,0.81,0.53,1.27,0.53c0.46,0,0.92-0.18,1.27-0.53
				c0.7-0.7,0.7-1.84,0-2.54l-1.56-1.56c0.86-1.33,1.37-2.92,1.37-4.62c0-4.7-3.82-8.53-8.52-8.53c-4.7,0-8.53,3.82-8.53,8.53
				c0,4.7,3.82,8.53,8.53,8.53c1.7,0,3.29-0.51,4.62-1.37L82.39,23.81z M71.27,15.09c0-2.72,2.21-4.94,4.94-4.94
				c0.49,0,0.95,0.09,1.4,0.23c-0.74,0.04-1.47,0.34-2.03,0.9c-1.23,1.23-1.23,3.22,0,4.44c1.23,1.23,3.22,1.23,4.44,0
				c0.57-0.57,0.86-1.29,0.9-2.03c0.13,0.45,0.23,0.91,0.23,1.4c0,2.72-2.21,4.94-4.94,4.94C73.48,20.02,71.27,17.81,71.27,15.09z
				 M94.14,27.31c0.7,0.7,0.7,1.84,0,2.54l-3.81,3.81c-1.05,1.05-2.43,1.57-3.81,1.57c-1.38,0-2.76-0.52-3.81-1.57l-2.54-2.54
				c-0.7-0.7-0.7-1.84,0-2.54c0.7-0.7,1.84-0.7,2.54,0l2.54,2.54c0.7,0.7,1.84,0.7,2.54,0l3.81-3.81
				C92.3,26.61,93.44,26.61,94.14,27.31z"/>
			<g id="ロゴ_xFF08_カナ_xFF09__00000114772252888897842910000012379243837820448914_">
				<g>
					
						<linearGradient id="SVGID_00000088098527464550808210000017373753891690242704_" gradientUnits="userSpaceOnUse" x1="174.3413" y1="33.1379" x2="178.3494" y2="33.1379">
						<stop  offset="1.358113e-03" style="stop-color:#00B7DE"/>
						<stop  offset="1" style="stop-color:#00B7DE;stop-opacity:0.72"/>
					</linearGradient>
					<path style="fill:url(#SVGID_00000088098527464550808210000017373753891690242704_);" d="M174.58,34
						c-0.06,0-0.12-0.02-0.16-0.06c-0.05-0.04-0.07-0.1-0.08-0.16c0-0.06,0.02-0.12,0.06-0.16c0.04-0.05,0.1-0.07,0.16-0.08
						l1.5-0.05c0.03,0,0.04-0.01,0.04-0.04l-0.09-1.06c0-0.03-0.01-0.04-0.04-0.04l-1.19,0.04c-0.06,0-0.12-0.02-0.16-0.06
						c-0.05-0.04-0.07-0.1-0.08-0.16c0-0.06,0.02-0.12,0.06-0.16c0.04-0.05,0.1-0.07,0.16-0.08l1.17-0.04
						c0.03,0,0.04-0.01,0.04-0.04l-0.04-0.49c-0.01-0.08,0.02-0.14,0.07-0.2s0.11-0.09,0.18-0.09c0.07-0.01,0.14,0.02,0.2,0.07
						c0.06,0.05,0.09,0.11,0.09,0.18l0.04,0.51c0,0.03,0.01,0.04,0.04,0.04l1.36-0.04c0.07,0,0.12,0.02,0.17,0.06
						c0.05,0.04,0.07,0.1,0.07,0.16c0,0.07-0.02,0.12-0.06,0.17c-0.05,0.05-0.1,0.07-0.16,0.08l-1.34,0.04
						c-0.03,0-0.04,0.01-0.04,0.04l0.09,1.06c0,0.03,0.01,0.04,0.04,0.04l1.43-0.04c0.06,0,0.12,0.02,0.16,0.06
						c0.05,0.04,0.07,0.1,0.08,0.16c0,0.06-0.02,0.12-0.06,0.16c-0.04,0.05-0.1,0.07-0.16,0.08l-1.4,0.04
						c-0.03,0-0.04,0.01-0.04,0.04l0.08,0.96c0.01,0.07-0.01,0.14-0.06,0.2c-0.05,0.06-0.11,0.09-0.18,0.09
						c-0.07,0.01-0.14-0.02-0.2-0.07c-0.06-0.05-0.09-0.11-0.09-0.18l-0.08-0.98c0-0.03-0.01-0.04-0.04-0.04L174.58,34z"/>
				</g>
				<g>
					
						<linearGradient id="SVGID_00000013159720011764202870000007648580166480853183_" gradientUnits="userSpaceOnUse" x1="179.6977" y1="33.5289" x2="183.0015" y2="33.5289">
						<stop  offset="1.358113e-03" style="stop-color:#00B7DE"/>
						<stop  offset="1" style="stop-color:#00B7DE;stop-opacity:0.72"/>
					</linearGradient>
					<path style="fill:url(#SVGID_00000013159720011764202870000007648580166480853183_);" d="M179.92,34.9
						c-0.06,0-0.11-0.02-0.16-0.06c-0.04-0.04-0.06-0.09-0.06-0.15c0-0.06,0.02-0.11,0.06-0.16c0.04-0.04,0.09-0.06,0.16-0.06h1.74
						c0.03,0,0.04-0.01,0.04-0.04l0.13-1.79c0-0.03-0.01-0.04-0.04-0.04h-1.47c-0.06,0-0.11-0.02-0.16-0.06
						c-0.04-0.04-0.06-0.09-0.06-0.16c0-0.06,0.02-0.11,0.06-0.15c0.04-0.04,0.09-0.06,0.16-0.06h1.79c0.07,0,0.14,0.03,0.19,0.08
						c0.05,0.05,0.07,0.12,0.07,0.19l-0.13,1.99c0,0.03,0.01,0.04,0.04,0.04h0.5c0.06,0,0.11,0.02,0.16,0.06
						c0.04,0.04,0.06,0.09,0.06,0.16c0,0.06-0.02,0.11-0.06,0.15c-0.04,0.04-0.09,0.06-0.16,0.06H179.92z"/>
				</g>
				<g>
					
						<linearGradient id="SVGID_00000142165539225470115050000001483539639767030418_" gradientUnits="userSpaceOnUse" x1="184.4042" y1="33.001" x2="188.4115" y2="33.001">
						<stop  offset="1.358113e-03" style="stop-color:#00B7DE"/>
						<stop  offset="1" style="stop-color:#00B7DE;stop-opacity:0.72"/>
					</linearGradient>
					<path style="fill:url(#SVGID_00000142165539225470115050000001483539639767030418_);" d="M184.63,32.21
						c-0.07,0-0.12-0.02-0.16-0.06c-0.04-0.04-0.06-0.1-0.06-0.16c0-0.06,0.02-0.12,0.06-0.16c0.04-0.04,0.1-0.06,0.16-0.06h2.19
						c0.03,0,0.04-0.01,0.04-0.04v-0.46c0-0.07,0.03-0.13,0.08-0.18c0.05-0.05,0.11-0.08,0.18-0.08s0.13,0.03,0.18,0.08
						c0.05,0.05,0.07,0.11,0.07,0.18v0.46c0,0.03,0.01,0.04,0.04,0.04h0.78c0.07,0,0.12,0.02,0.16,0.06
						c0.04,0.04,0.06,0.1,0.06,0.16c0,0.07-0.02,0.12-0.06,0.16c-0.04,0.04-0.1,0.06-0.16,0.06h-0.78c-0.03,0-0.04,0.01-0.04,0.04
						v2.05c0,0.31-0.04,0.51-0.12,0.59c-0.08,0.08-0.28,0.12-0.59,0.12c-0.21,0-0.4-0.01-0.59-0.02c-0.07-0.01-0.12-0.03-0.16-0.08
						c-0.04-0.05-0.06-0.11-0.06-0.17c0-0.06,0.03-0.11,0.08-0.16c0.05-0.04,0.11-0.06,0.17-0.05c0.21,0.02,0.37,0.03,0.51,0.03
						c0.11,0,0.18-0.01,0.21-0.04c0.03-0.03,0.04-0.1,0.04-0.22v-1.51c0-0.01,0-0.01-0.01-0.01c-0.01,0-0.01,0-0.01,0
						c-0.63,0.62-1.3,1.14-2,1.57c-0.06,0.03-0.11,0.04-0.17,0.02c-0.06-0.02-0.11-0.05-0.14-0.11c-0.03-0.06-0.04-0.11-0.02-0.18
						c0.02-0.06,0.05-0.11,0.11-0.14c0.76-0.45,1.46-1.01,2.1-1.68c0.01-0.01,0.01-0.01,0-0.02c0-0.01-0.01-0.01-0.02-0.01H184.63z"
						/>
				</g>
				<g>
					
						<linearGradient id="SVGID_00000158709229574638543840000014052687704905865100_" gradientUnits="userSpaceOnUse" x1="189.8433" y1="32.3193" x2="190.381" y2="32.3193">
						<stop  offset="1.358113e-03" style="stop-color:#00B7DE"/>
						<stop  offset="1" style="stop-color:#00B7DE;stop-opacity:0.72"/>
					</linearGradient>
					<path style="fill:url(#SVGID_00000158709229574638543840000014052687704905865100_);" d="M190.11,33.41
						c-0.07,0-0.13-0.03-0.19-0.08c-0.05-0.05-0.08-0.12-0.08-0.19V31.5c0-0.08,0.03-0.14,0.08-0.19c0.05-0.05,0.11-0.08,0.19-0.08
						c0.07,0,0.14,0.03,0.19,0.08c0.05,0.05,0.08,0.12,0.08,0.19v1.64c0,0.07-0.03,0.13-0.08,0.19
						C190.25,33.38,190.18,33.41,190.11,33.41z"/>
					
						<linearGradient id="SVGID_00000001653349107959930060000000451032165170824883_" gradientUnits="userSpaceOnUse" x1="190.3709" y1="33.1833" x2="192.8929" y2="33.1833">
						<stop  offset="1.358113e-03" style="stop-color:#00B7DE"/>
						<stop  offset="1" style="stop-color:#00B7DE;stop-opacity:0.72"/>
					</linearGradient>
					<path style="fill:url(#SVGID_00000001653349107959930060000000451032165170824883_);" d="M192.43,31.31
						c0.05-0.05,0.12-0.08,0.19-0.08s0.14,0.03,0.19,0.08c0.05,0.05,0.08,0.12,0.08,0.19v1.02c0,0.79-0.18,1.39-0.53,1.8
						c-0.35,0.41-0.92,0.68-1.69,0.8c-0.07,0.01-0.13-0.01-0.19-0.05c-0.06-0.04-0.09-0.1-0.11-0.16c-0.01-0.06,0-0.12,0.04-0.18
						c0.04-0.05,0.09-0.09,0.15-0.1c0.66-0.12,1.12-0.33,1.39-0.65c0.26-0.31,0.39-0.8,0.39-1.46v-1.04
						C192.35,31.43,192.37,31.37,192.43,31.31z"/>
				</g>
				<g>
					
						<linearGradient id="SVGID_00000026842645009412375390000008627022160342365065_" gradientUnits="userSpaceOnUse" x1="194.4272" y1="32.9463" x2="198.1564" y2="32.9463">
						<stop  offset="1.358113e-03" style="stop-color:#00B7DE"/>
						<stop  offset="1" style="stop-color:#00B7DE;stop-opacity:0.72"/>
					</linearGradient>
					<path style="fill:url(#SVGID_00000026842645009412375390000008627022160342365065_);" d="M198.08,34.58
						c0.05,0.05,0.07,0.11,0.07,0.18s-0.02,0.13-0.07,0.18c-0.05,0.05-0.11,0.07-0.18,0.07c-0.07,0-0.13-0.03-0.18-0.08
						c-0.44-0.45-0.84-0.84-1.19-1.16c-0.02-0.02-0.04-0.02-0.06,0c-0.49,0.46-1.05,0.85-1.69,1.18c-0.06,0.03-0.12,0.04-0.18,0.02
						c-0.06-0.02-0.11-0.06-0.14-0.12c-0.03-0.06-0.04-0.12-0.02-0.18c0.02-0.06,0.06-0.11,0.12-0.14c0.63-0.34,1.17-0.73,1.63-1.18
						c0.46-0.45,0.82-0.93,1.07-1.43c0.01-0.02,0-0.03-0.02-0.03h-2.23c-0.07,0-0.12-0.02-0.17-0.07c-0.05-0.05-0.07-0.1-0.07-0.17
						s0.02-0.12,0.07-0.17c0.05-0.05,0.1-0.07,0.17-0.07h2.51c0.01,0,0.02,0,0.02-0.01c0-0.01,0.01-0.02,0-0.02
						c-0.01-0.02-0.03-0.05-0.05-0.09c-0.02-0.04-0.04-0.08-0.05-0.1c-0.03-0.05-0.03-0.1-0.01-0.15c0.02-0.05,0.05-0.09,0.1-0.12
						c0.05-0.03,0.11-0.03,0.16-0.01s0.09,0.05,0.12,0.1c0.11,0.21,0.18,0.33,0.2,0.36c0.03,0.05,0.03,0.1,0.01,0.16
						c-0.02,0.06-0.05,0.1-0.1,0.12h0l-0.01,0c-0.03,0.01-0.04,0.03-0.04,0.05c-0.01,0.15-0.04,0.29-0.1,0.41
						c-0.21,0.43-0.51,0.85-0.88,1.27c-0.02,0.02-0.01,0.04,0,0.06C197.33,33.84,197.73,34.22,198.08,34.58z"/>
					
						<linearGradient id="SVGID_00000035495593633732590470000009116428411936053439_" gradientUnits="userSpaceOnUse" x1="198.1068" y1="31.2027" x2="198.7317" y2="31.2027">
						<stop  offset="1.358113e-03" style="stop-color:#00B7DE"/>
						<stop  offset="1" style="stop-color:#00B7DE;stop-opacity:0.72"/>
					</linearGradient>
					<path style="fill:url(#SVGID_00000035495593633732590470000009116428411936053439_);" d="M198.5,30.92
						c0.09,0.16,0.16,0.29,0.21,0.37c0.03,0.05,0.03,0.1,0.01,0.16c-0.02,0.05-0.05,0.09-0.1,0.12c-0.05,0.02-0.11,0.03-0.16,0.01
						c-0.06-0.02-0.1-0.05-0.12-0.11c-0.04-0.08-0.11-0.2-0.2-0.37c-0.03-0.05-0.03-0.1-0.02-0.16c0.01-0.06,0.05-0.09,0.1-0.12
						c0.05-0.03,0.11-0.03,0.16-0.01C198.43,30.84,198.47,30.87,198.5,30.92z"/>
				</g>
				<g>
					
						<linearGradient id="SVGID_00000129886280031204415060000006991284978389726131_" gradientUnits="userSpaceOnUse" x1="199.2945" y1="33.098" x2="203.4666" y2="33.098">
						<stop  offset="1.358113e-03" style="stop-color:#00B7DE"/>
						<stop  offset="1" style="stop-color:#00B7DE;stop-opacity:0.72"/>
					</linearGradient>
					<path style="fill:url(#SVGID_00000129886280031204415060000006991284978389726131_);" d="M199.53,34.91
						c-0.06,0-0.12-0.02-0.16-0.06c-0.05-0.04-0.07-0.1-0.07-0.16c0-0.07,0.02-0.12,0.06-0.17c0.05-0.05,0.1-0.07,0.16-0.08
						c0.05,0,0.13-0.01,0.24-0.01c0.03,0,0.04-0.01,0.05-0.04c0-0.01,0.01-0.01,0.01-0.02c0-0.01,0-0.01,0-0.02
						c0.34-0.89,0.64-1.86,0.89-2.91c0.02-0.07,0.06-0.13,0.12-0.17c0.07-0.04,0.13-0.05,0.21-0.04c0.07,0.01,0.13,0.05,0.17,0.11
						c0.04,0.06,0.05,0.13,0.03,0.2c-0.23,0.95-0.51,1.89-0.86,2.81c-0.01,0.03,0,0.04,0.02,0.04c0.74-0.06,1.47-0.14,2.19-0.24
						c0.03-0.01,0.03-0.02,0.02-0.04c-0.09-0.2-0.24-0.51-0.44-0.92c-0.03-0.07-0.04-0.13-0.01-0.2s0.07-0.11,0.13-0.14
						c0.07-0.03,0.13-0.04,0.2-0.01c0.07,0.03,0.12,0.07,0.15,0.14c0.26,0.53,0.53,1.08,0.79,1.65c0.03,0.07,0.03,0.13,0,0.2
						c-0.03,0.07-0.07,0.11-0.14,0.14c-0.07,0.03-0.14,0.03-0.2,0c-0.07-0.03-0.11-0.08-0.14-0.14c-0.01-0.02-0.03-0.05-0.05-0.09
						c-0.02-0.04-0.04-0.07-0.05-0.1c-0.01-0.03-0.03-0.04-0.06-0.03C201.65,34.76,200.56,34.87,199.53,34.91z"/>
				</g>
			</g>
		</g>
		<g>
			<path class="st19" d="M36.38,39.06h13.34c0.48,0,0.86-0.38,0.86-0.85v-2.85c0-0.47-0.38-0.85-0.86-0.85h-2.4
				c0-1.14-0.96-2-2.02-2h-4.51c-1.15,0-2.02,0.95-2.02,2h-2.4c-0.48,0-0.86,0.38-0.86,0.85v2.85c-0.09,0.47,0.29,0.85,0.86,0.85
				H36.38z M43,34.03c0.67,0,1.24,0.57,1.24,1.23c0,0.67-0.58,1.23-1.24,1.23c-0.66,0-1.24-0.57-1.24-1.23
				C41.76,34.6,42.34,34.03,43,34.03z"/>
			
				<linearGradient id="SVGID_00000175299675483451657620000017718928622065966527_" gradientUnits="userSpaceOnUse" x1="47.5818" y1="424.1852" x2="37.5413" y2="435.4447" gradientTransform="matrix(1 0 0 -1 0 466.11)">
				<stop  offset="0" style="stop-color:#FFE0B2"/>
				<stop  offset="1" style="stop-color:#FFFFFF;stop-opacity:0"/>
			</linearGradient>
			<path style="fill:url(#SVGID_00000175299675483451657620000017718928622065966527_);fill-opacity:0.5;" d="M36.38,39.06h13.34
				c0.48,0,0.86-0.38,0.86-0.85v-2.85c0-0.47-0.38-0.85-0.86-0.85h-2.4c0-1.14-0.96-2-2.02-2h-4.51c-1.15,0-2.02,0.95-2.02,2h-2.4
				c-0.48,0-0.86,0.38-0.86,0.85v2.85c-0.09,0.47,0.29,0.85,0.86,0.85H36.38z M43,34.03c0.67,0,1.24,0.57,1.24,1.23
				c0,0.67-0.58,1.23-1.24,1.23c-0.66,0-1.24-0.57-1.24-1.23C41.76,34.6,42.34,34.03,43,34.03z"/>
			<path class="st19" d="M40.3,61.41c-0.46,0-0.84-0.37-0.84-0.82s0.37-0.82,0.84-0.82h5.29c0.16-1.27,0.56-2.46,1.13-3.54H40.3
				c-0.46,0-0.84-0.37-0.84-0.82s0.37-0.82,0.84-0.82h7.48c1.96-2.49,5.02-4.1,8.45-4.1V36.86c0-0.82-0.65-1.45-1.49-1.45h-3.16
				v2.55c0,1.1-0.93,2.09-2.14,2.09H36.71c-1.12,0-2.14-0.91-2.14-2.09v-2.63h-3.25c-0.84,0-1.49,0.73-1.49,1.55v27.91
				c0,0.82,0.65,1.45,1.49,1.45h15.45c-0.78-1.44-1.23-3.08-1.27-4.81h-5.19L40.3,61.41z M40.3,44.22h11c0.46,0,0.84,0.37,0.84,0.82
				c0,0.45-0.37,0.82-0.84,0.82h-11c-0.46,0-0.84-0.37-0.84-0.82C39.47,44.59,39.84,44.22,40.3,44.22z M40.3,49.41h11
				c0.46,0,0.84,0.37,0.84,0.82c0,0.45-0.37,0.82-0.84,0.82h-11c-0.46,0-0.84-0.37-0.84-0.82C39.47,49.77,39.84,49.41,40.3,49.41z
				 M36.69,61.3c0,0.36-0.29,0.66-0.66,0.66h-1.45c-0.36,0-0.66-0.29-0.66-0.66v-1.44c0-0.36,0.29-0.66,0.66-0.66h1.45
				c0.36,0,0.66,0.29,0.66,0.66V61.3z M36.69,56.12c0,0.36-0.29,0.66-0.66,0.66h-1.45c-0.36,0-0.66-0.29-0.66-0.66v-1.44
				c0-0.36,0.29-0.66,0.66-0.66h1.45c0.36,0,0.66,0.29,0.66,0.66V56.12z M36.69,50.94c0,0.36-0.29,0.66-0.66,0.66h-1.45
				c-0.36,0-0.66-0.29-0.66-0.66V49.5c0-0.36,0.29-0.66,0.66-0.66h1.45c0.36,0,0.66,0.29,0.66,0.66V50.94z M36.69,45.76
				c0,0.36-0.29,0.66-0.66,0.66h-1.45c-0.36,0-0.66-0.29-0.66-0.66v-1.44c0-0.36,0.29-0.66,0.66-0.66h1.45
				c0.36,0,0.66,0.29,0.66,0.66V45.76z"/>
			
				<linearGradient id="SVGID_00000076605192255851583710000014942813777757985672_" gradientUnits="userSpaceOnUse" x1="60.0719" y1="408.2039" x2="26.2789" y2="422.2599" gradientTransform="matrix(1 0 0 -1 0 466.11)">
				<stop  offset="0" style="stop-color:#FFE0B2"/>
				<stop  offset="1" style="stop-color:#FFFFFF;stop-opacity:0"/>
			</linearGradient>
			<path style="fill:url(#SVGID_00000076605192255851583710000014942813777757985672_);fill-opacity:0.5;" d="M40.3,61.41
				c-0.46,0-0.84-0.37-0.84-0.82s0.37-0.82,0.84-0.82h5.29c0.16-1.27,0.56-2.46,1.13-3.54H40.3c-0.46,0-0.84-0.37-0.84-0.82
				s0.37-0.82,0.84-0.82h7.48c1.96-2.49,5.02-4.1,8.45-4.1V36.86c0-0.82-0.65-1.45-1.49-1.45h-3.16v2.55c0,1.1-0.93,2.09-2.14,2.09
				H36.71c-1.12,0-2.14-0.91-2.14-2.09v-2.63h-3.25c-0.84,0-1.49,0.73-1.49,1.55v27.91c0,0.82,0.65,1.45,1.49,1.45h15.45
				c-0.78-1.44-1.23-3.08-1.27-4.81h-5.19L40.3,61.41z M40.3,44.22h11c0.46,0,0.84,0.37,0.84,0.82c0,0.45-0.37,0.82-0.84,0.82h-11
				c-0.46,0-0.84-0.37-0.84-0.82C39.47,44.59,39.84,44.22,40.3,44.22z M40.3,49.41h11c0.46,0,0.84,0.37,0.84,0.82
				c0,0.45-0.37,0.82-0.84,0.82h-11c-0.46,0-0.84-0.37-0.84-0.82C39.47,49.77,39.84,49.41,40.3,49.41z M36.69,61.3
				c0,0.36-0.29,0.66-0.66,0.66h-1.45c-0.36,0-0.66-0.29-0.66-0.66v-1.44c0-0.36,0.29-0.66,0.66-0.66h1.45
				c0.36,0,0.66,0.29,0.66,0.66V61.3z M36.69,56.12c0,0.36-0.29,0.66-0.66,0.66h-1.45c-0.36,0-0.66-0.29-0.66-0.66v-1.44
				c0-0.36,0.29-0.66,0.66-0.66h1.45c0.36,0,0.66,0.29,0.66,0.66V56.12z M36.69,50.94c0,0.36-0.29,0.66-0.66,0.66h-1.45
				c-0.36,0-0.66-0.29-0.66-0.66V49.5c0-0.36,0.29-0.66,0.66-0.66h1.45c0.36,0,0.66,0.29,0.66,0.66V50.94z M36.69,45.76
				c0,0.36-0.29,0.66-0.66,0.66h-1.45c-0.36,0-0.66-0.29-0.66-0.66v-1.44c0-0.36,0.29-0.66,0.66-0.66h1.45
				c0.36,0,0.66,0.29,0.66,0.66V45.76z"/>
			<path class="st22" d="M56.23,52.23c-4.97,0-9,4-9,8.94s4.03,8.94,9,8.94c4.97,0,9-4,9-8.94S61.2,52.23,56.23,52.23z M61.51,59.61
				l-5.75,5.71c-0.22,0.22-0.51,0.33-0.82,0.33s-0.6-0.13-0.82-0.33l-3.07-3.05c-0.45-0.45-0.45-1.18,0-1.63
				c0.45-0.45,1.19-0.45,1.64,0l2.24,2.23l4.93-4.89c0.45-0.45,1.19-0.45,1.64,0c0.45,0.45,0.45,1.18,0,1.63H61.51z"/>
			<path class="st23" d="M56.23,52.23c-4.97,0-9,4-9,8.94s4.03,8.94,9,8.94c4.97,0,9-4,9-8.94S61.2,52.23,56.23,52.23z M61.51,59.61
				l-5.75,5.71c-0.22,0.22-0.51,0.33-0.82,0.33s-0.6-0.13-0.82-0.33l-3.07-3.05c-0.45-0.45-0.45-1.18,0-1.63
				c0.45-0.45,1.19-0.45,1.64,0l2.24,2.23l4.93-4.89c0.45-0.45,1.19-0.45,1.64,0c0.45,0.45,0.45,1.18,0,1.63H61.51z"/>
			
				<linearGradient id="SVGID_00000045582364202933588990000018370826492821074832_" gradientUnits="userSpaceOnUse" x1="65.5274" y1="404.6182" x2="46.9348" y2="405.2483" gradientTransform="matrix(1 0 0 -1 0 466.11)">
				<stop  offset="0" style="stop-color:#BBDEFB"/>
				<stop  offset="1" style="stop-color:#FFFFFF;stop-opacity:0"/>
			</linearGradient>
			<path style="fill:url(#SVGID_00000045582364202933588990000018370826492821074832_);fill-opacity:0.56;" d="M56.23,52.23
				c-4.97,0-9,4-9,8.94s4.03,8.94,9,8.94c4.97,0,9-4,9-8.94S61.2,52.23,56.23,52.23z M61.51,59.61l-5.75,5.71
				c-0.22,0.22-0.51,0.33-0.82,0.33s-0.6-0.13-0.82-0.33l-3.07-3.05c-0.45-0.45-0.45-1.18,0-1.63c0.45-0.45,1.19-0.45,1.64,0
				l2.24,2.23l4.93-4.89c0.45-0.45,1.19-0.45,1.64,0c0.45,0.45,0.45,1.18,0,1.63H61.51z"/>
		</g>
		<g>
			<path class="st1" d="M104.77,61.19c3.89-1,6.07-3.11,6.55-6.31h-9.14v-1.32h9.2l0.54-0.18l1.08,0.66c0.24,0.2,0.2,0.38-0.12,0.54
				c-0.64,4.01-2.99,6.62-7.04,7.82L104.77,61.19z M111.57,51.44h-8.3v-1.32h8.3V51.44z"/>
			<path class="st1" d="M119.15,60.16c5.01-1.16,7.64-3.83,7.88-8H118v-1.32h9.14l0.84-0.18l0.66,0.6
				c-0.16,5.33-2.97,8.74-8.42,10.22L119.15,60.16z"/>
			<path class="st1" d="M131.77,56.2v-1.32h13.41v1.32H131.77z"/>
			<path class="st1" d="M147.17,61.01c2-1.92,3.01-4.31,3.01-7.16v-2.71h1.26c0.36,0.08,0.4,0.24,0.12,0.48v2.17
				c0,3.37-1.06,6.03-3.19,8L147.17,61.01z M155.23,59.38c1.76-0.68,3.39-2.04,4.87-4.09l0.84,1.14c-1.52,2.08-3.45,3.59-5.77,4.51
				l-0.48,0.24l-0.96-0.72l0.12-0.3v-9.68h1.26c0.36,0.08,0.4,0.24,0.12,0.48V59.38z"/>
			<path class="st1" d="M172.49,53.13h3.55v1.32h-3.49v1.14c0,3.01-1.58,5.15-4.75,6.43l-0.96-1.08c2.89-0.96,4.33-2.71,4.33-5.23
				v-1.26h-3.97l0.06,3.07h-1.32l-0.06-3.07h-3.37v-1.32h3.37l-0.06-3.19h1.26c0.4,0.04,0.42,0.24,0.06,0.6l0.06,2.59h3.91v-3.67
				h1.32c0.4,0.04,0.42,0.24,0.06,0.6V53.13z"/>
			<path class="st1" d="M177.96,56.2v-1.32h13.41v1.32H177.96z"/>
			<path class="st1" d="M206.83,58.18l-1.32,1.2c-2.09-1.92-4.05-3.73-5.89-5.41c-0.36-0.32-0.6-0.48-0.72-0.48
				c-0.2,0-0.44,0.16-0.72,0.48c-1.16,1.36-2.29,2.63-3.37,3.79l-1.14-1.32c1.56-1.52,3.05-2.97,4.45-4.33
				c0.24-0.24,0.52-0.36,0.84-0.36c0.32,0,0.6,0.1,0.84,0.3C201.63,53.69,203.98,55.74,206.83,58.18z M202.14,50.24
				c0.64,0.52,1.32,1.16,2.04,1.92l-0.72,0.72c-0.8-0.8-1.48-1.42-2.04-1.86L202.14,50.24z M205.56,50.84l-0.72,0.72
				c-0.76-0.84-1.42-1.48-1.98-1.92l0.72-0.72C204.26,49.44,204.92,50.08,205.56,50.84z"/>
			<path class="st1" d="M209.29,56.74c4.21-1.76,7.4-4.25,9.56-7.46l1.14,0.96c0.32,0.24,0.18,0.42-0.42,0.54
				c-0.76,1-1.74,2.03-2.95,3.07v8.18h-1.38v-7.04c-1.4,1.08-3.05,2.07-4.93,2.95L209.29,56.74z"/>
		</g>
	</g>
</g>
</svg>
