<svg width="230" height="115" viewBox="0 0 230 115" fill="none" xmlns="http://www.w3.org/2000/svg">
<path d="M79.4111 7.0498C78.4418 4.67049 76.5912 2.90804 74.2119 1.85057C73.5069 1.5862 72.8019 1.40996 72.0969 1.5862C70.3345 2.02682 70.9513 5.37547 71.9207 6.34482C72.8019 7.31417 73.595 8.37164 72.9782 9.69349C72.5375 10.6628 71.5682 11.2797 70.5988 11.2797C69.6295 11.2797 68.572 10.6628 68.2195 9.69349C67.6908 8.37164 68.3958 7.31417 69.277 6.34482C70.1582 5.37547 70.8632 2.02682 69.1008 1.5862C68.3958 1.40996 67.6908 1.5862 66.9858 1.85057C64.6065 2.81992 62.8441 4.67049 61.7866 7.0498C60.8172 9.42912 60.8172 11.9847 61.7866 14.364C62.7559 16.7433 64.6065 18.5058 66.9858 19.4751C68.1314 20.0038 69.3651 20.1801 70.5988 20.1801C71.8326 20.1801 73.0663 19.9157 74.2119 19.4751C76.5912 18.5058 78.4418 16.6552 79.4111 14.364C80.3805 12.0728 80.3805 9.42912 79.4111 7.0498Z" fill="#212134"/>
<path d="M116.422 19.2988C115.982 19.2988 115.629 18.9464 115.629 18.5057V2.37931H124.089C124.529 2.37931 124.882 2.7318 124.882 3.17241C124.882 3.61303 124.529 3.96552 124.089 3.96552H117.215V18.5057C117.215 18.9464 116.863 19.2988 116.422 19.2988ZM122.943 9.78161C122.943 9.341 122.591 8.9885 122.15 8.9885H120.211C119.771 8.9885 119.418 9.341 119.418 9.78161C119.418 10.2222 119.771 10.5747 120.211 10.5747H122.15C122.591 10.5747 122.943 10.2222 122.943 9.78161ZM95.2727 18.5057C95.2727 18.0651 94.9202 17.7126 94.4796 17.7126H88.5754V3.17241C88.5754 2.7318 88.223 2.37931 87.7824 2.37931C87.3417 2.37931 86.9893 2.7318 86.9893 3.17241V19.2107H94.4796C94.9202 19.2988 95.2727 18.9464 95.2727 18.5057ZM169.648 18.5057C169.648 18.0651 169.296 17.7126 168.855 17.7126H162.951V3.17241C162.951 2.7318 162.598 2.37931 162.158 2.37931C161.717 2.37931 161.365 2.7318 161.365 3.17241V19.2107H168.855C169.296 19.2988 169.648 18.9464 169.648 18.5057ZM151.495 19.1226C152.024 19.0345 152.552 18.8582 153.081 18.5939C153.61 18.4176 154.05 18.1533 154.491 17.8008C154.932 17.5364 155.372 17.1839 155.725 16.7433C156.077 16.3908 156.43 15.9502 156.782 15.5096C157.047 15.069 157.311 14.5402 157.575 14.0996C157.752 13.5709 157.928 13.0421 158.104 12.5134C158.192 12.0728 157.928 11.6322 157.487 11.5441C157.047 11.4559 156.606 11.7203 156.518 12.1609C156.43 12.6015 156.254 13.0421 156.077 13.4828C155.901 13.9234 155.725 14.2759 155.46 14.6284C155.196 14.9808 154.932 15.3333 154.667 15.5977C154.315 15.9502 154.05 16.2146 153.698 16.3908C153.345 16.6552 152.905 16.8314 152.552 17.0077C152.112 17.1839 151.671 17.272 151.231 17.4483C150.349 17.6245 149.38 17.6245 148.499 17.4483C148.058 17.3602 147.618 17.1839 147.177 17.0077C146.736 16.8314 146.384 16.6552 146.031 16.3908C145.679 16.1264 145.326 15.8621 145.062 15.5977C144.709 15.2452 144.445 14.9808 144.269 14.6284C144.004 14.2759 143.828 13.8352 143.652 13.4828C143.476 13.0421 143.388 12.6015 143.211 12.1609C143.123 11.7203 142.683 11.4559 142.242 11.5441C141.801 11.6322 141.537 12.0728 141.625 12.5134C141.713 13.0421 141.89 13.5709 142.154 14.0996C142.33 14.6284 142.595 15.069 142.947 15.5096C143.211 15.9502 143.564 16.3908 144.004 16.7433C144.357 17.0958 144.798 17.4483 145.238 17.8008C145.679 18.0651 146.208 18.3295 146.648 18.5939C147.177 18.7701 147.706 18.9464 148.234 19.1226C148.763 19.2107 149.38 19.2988 149.909 19.2988C150.437 19.2988 150.966 19.2107 151.495 19.1226ZM157.399 10.046C157.84 9.95785 158.104 9.51724 158.016 9.07663C157.928 8.54789 157.752 8.01916 157.487 7.49042C157.311 6.96168 157.047 6.52107 156.694 6.08046C156.43 5.63985 156.077 5.19923 155.637 4.84674C155.284 4.49425 154.844 4.14176 154.403 3.78927C153.962 3.5249 153.434 3.26054 152.993 2.99617C152.464 2.81992 151.936 2.64368 151.407 2.46743C150.261 2.20306 149.116 2.20306 147.97 2.46743C147.441 2.55555 146.913 2.7318 146.384 2.99617C145.855 3.17241 145.414 3.43678 144.974 3.78927C144.533 4.05364 144.093 4.40613 143.74 4.84674C143.388 5.19923 143.388 5.63985 143.74 5.99234C144.093 6.34483 144.533 6.34483 144.886 5.99234C145.238 5.63985 145.503 5.37548 145.855 5.19923C146.208 4.93486 146.648 4.75862 147.001 4.58237C147.441 4.40613 147.882 4.31801 148.323 4.14176C149.204 3.96552 150.173 3.96552 151.054 4.14176C151.495 4.22988 151.936 4.40613 152.376 4.58237C152.817 4.75862 153.169 4.93486 153.522 5.19923C153.874 5.4636 154.227 5.72797 154.491 5.99234C154.844 6.34483 155.108 6.60919 155.284 6.96168C155.549 7.31418 155.725 7.75479 155.901 8.10728C156.077 8.54789 156.165 8.9885 156.342 9.42912C156.43 9.78161 156.782 10.046 157.135 10.046C157.311 10.1341 157.399 10.046 157.399 10.046ZM142.154 10.046C142.595 9.95785 142.859 9.51724 142.771 9.07663C142.683 8.54789 142.506 8.01916 142.242 7.49042C142.066 6.96168 141.801 6.52107 141.449 6.08046C141.185 5.63985 140.832 5.19923 140.391 4.84674C140.039 4.49425 139.598 4.14176 139.158 3.78927C138.717 3.5249 138.188 3.26054 137.748 2.99617C137.219 2.81992 136.69 2.64368 136.162 2.46743C135.016 2.20306 133.87 2.20306 132.725 2.46743C132.196 2.55555 131.667 2.7318 131.139 2.99617C130.61 3.17241 130.169 3.43678 129.729 3.78927C129.288 4.05364 128.847 4.40613 128.495 4.84674C128.142 5.19923 127.79 5.63985 127.437 6.08046C127.173 6.52107 126.909 7.04981 126.644 7.49042C126.468 8.01916 126.292 8.54789 126.116 9.07663C126.027 9.51724 126.292 9.95785 126.732 10.046C127.173 10.1341 127.614 9.86973 127.702 9.42912C127.79 8.9885 127.966 8.54789 128.142 8.10728C128.319 7.66667 128.495 7.31418 128.759 6.96168C129.024 6.60919 129.288 6.2567 129.552 5.99234C129.905 5.63985 130.169 5.37548 130.522 5.19923C130.874 4.93486 131.315 4.75862 131.667 4.58237C132.108 4.40613 132.549 4.31801 132.989 4.14176C133.87 3.96552 134.84 3.96552 135.721 4.14176C136.162 4.22988 136.602 4.40613 137.043 4.58237C137.483 4.75862 137.836 4.93486 138.188 5.19923C138.541 5.4636 138.893 5.72797 139.158 5.99234C139.51 6.34483 139.775 6.60919 139.951 6.96168C140.215 7.31418 140.391 7.75479 140.568 8.10728C140.744 8.54789 140.832 8.9885 141.008 9.42912C141.096 9.78161 141.449 10.046 141.801 10.046C142.066 10.1341 142.066 10.046 142.154 10.046ZM136.25 19.1226C136.778 19.0345 137.307 18.8582 137.836 18.5939C138.365 18.4176 138.805 18.1533 139.246 17.8008C139.686 17.5364 140.127 17.1839 140.48 16.7433C140.832 16.3908 140.832 15.9502 140.48 15.5977C140.127 15.2452 139.686 15.2452 139.334 15.5977C138.982 15.9502 138.717 16.2146 138.365 16.3908C138.012 16.6552 137.572 16.8314 137.219 17.0077C136.778 17.1839 136.338 17.272 135.897 17.4483C135.016 17.6245 134.047 17.6245 133.165 17.4483C132.725 17.3602 132.284 17.1839 131.844 17.0077C131.403 16.8314 131.05 16.6552 130.698 16.3908C130.345 16.1264 129.993 15.8621 129.729 15.5977C129.376 15.2452 129.112 14.9808 128.936 14.6284C128.671 14.2759 128.495 13.8352 128.319 13.4828C128.142 13.0421 128.054 12.6015 127.878 12.1609C127.79 11.7203 127.349 11.4559 126.909 11.5441C126.468 11.6322 126.204 12.0728 126.292 12.5134C126.38 13.0421 126.556 13.5709 126.821 14.0996C126.997 14.6284 127.261 15.069 127.614 15.5096C127.878 15.9502 128.231 16.3908 128.671 16.7433C129.024 17.0958 129.464 17.4483 129.905 17.8008C130.345 18.0651 130.874 18.3295 131.315 18.5939C131.844 18.7701 132.372 18.9464 132.901 19.1226C133.43 19.2107 134.047 19.2988 134.575 19.2988C135.104 19.2988 135.633 19.2107 136.25 19.1226ZM106.817 14.5402C106.817 14.0996 106.464 13.7471 106.024 13.7471H104.085C103.644 13.7471 103.292 14.0996 103.292 14.5402C103.292 14.9808 103.644 15.3333 104.085 15.3333H106.024C106.464 15.3333 106.817 14.9808 106.817 14.5402ZM98.9738 18.9464L104.878 5.99234L111.135 18.9464C111.311 19.2988 111.84 19.4751 112.192 19.2988C112.545 19.1226 112.721 18.5939 112.545 18.2414L104.79 2.20306L97.4758 18.2414C97.2995 18.682 97.4758 19.1226 97.8282 19.2988C97.9164 19.387 98.0045 19.387 98.1807 19.387C98.5332 19.387 98.8857 19.2107 98.9738 18.9464Z" fill="#212134"/>
<path d="M23.7174 58.866C22.748 57.9847 21.6905 57.2798 20.5449 56.751C19.3994 56.2223 18.2538 55.6936 17.1082 55.2529C15.7863 54.7242 14.4645 54.1955 13.2308 53.5786C12.0852 53.0499 11.0277 52.3449 10.3227 51.5518C9.61775 50.8468 9.26525 49.8775 9.26525 48.82C9.26525 47.3219 9.79399 46.1763 10.9396 45.2951C12.0852 44.4139 13.5833 43.9732 15.522 43.9732C16.9319 43.9732 18.43 44.2376 19.9281 44.6782C21.4262 45.1188 23.0124 45.9119 23.0124 45.9119C23.7174 46.2644 24.6867 45.9119 25.0392 45.207L25.9204 43.4445C26.2729 42.7395 26.0085 41.7702 25.2154 41.4177C25.1273 41.4177 23.1886 40.3602 21.3381 39.8315C19.4875 39.2146 17.2844 38.9503 14.817 38.9503C12.6139 39.0384 10.6752 39.479 9.00085 40.3602C7.32652 41.2414 5.91656 42.4752 4.94721 43.9732C3.97786 45.4713 3.44913 47.2338 3.44913 49.2606C3.44913 50.9349 3.80162 52.3449 4.41848 53.5786C5.03533 54.7242 5.91656 55.7817 6.97403 56.5748C8.0315 57.3679 9.1771 58.0729 10.3227 58.6016C11.5564 59.1303 12.702 59.6591 13.9358 60.0997C15.1695 60.5403 16.4032 61.1572 17.4607 61.6859C18.5181 62.3027 19.3994 63.0077 20.0162 63.8008C20.6331 64.5939 20.9856 65.5633 20.9856 66.797C20.9856 68.207 20.6331 69.3526 19.9281 70.1457C19.2231 71.0269 18.2538 71.6437 17.1963 71.9962C15.0813 72.7893 12.7902 72.7893 10.4108 72.1725C9.26525 71.82 8.20775 71.3794 7.15028 70.8506C6.09281 70.3219 5.2997 69.7932 5.2997 69.7932C4.94721 69.6169 4.59472 69.5288 4.15411 69.6169C3.80162 69.705 3.44913 69.9694 3.27288 70.3219L2.21541 72.1725C1.7748 72.8775 2.03917 73.8468 2.74415 74.1993C2.74415 74.1993 3.88974 74.9043 5.21158 75.5211C6.53342 76.138 7.94338 76.6667 9.4415 77.0192C10.9396 77.3717 12.5258 77.548 14.2001 77.548C16.7557 77.548 19.0469 77.1073 20.8974 76.138C22.748 75.1686 24.2461 73.8468 25.2154 72.1725C26.1848 70.4981 26.7135 68.6476 26.7135 66.5326C26.7135 64.7702 26.4492 63.184 25.9204 61.9503C25.3917 60.8047 24.6867 59.7472 23.7174 58.866Z" fill="#212134"/>
<path d="M102.587 61.9502C102.499 61.9502 102.499 61.9502 102.587 61.9502C103.821 61.2452 104.878 60.364 105.759 59.3947C106.729 58.2491 107.522 56.8391 107.962 55.4291C108.403 54.0192 108.667 52.5211 108.667 51.023C108.667 49.0843 108.315 47.41 107.61 45.9119C106.905 44.4138 105.936 43.1801 104.702 42.1226C103.468 41.1533 102.058 40.3602 100.384 39.8314C98.7976 39.3027 96.3302 39.1265 96.2421 39.1265C95.6252 39.0383 94.4796 39.0383 93.8628 39.0383H86.2842C85.4911 39.0383 84.7861 39.7433 84.7861 40.5364V75.6092C84.7861 76.4023 85.4911 77.1073 86.2842 77.1073H88.9279C89.721 77.1073 90.426 76.4023 90.426 75.6092V64.3295C90.426 63.8889 90.7785 63.4483 91.3072 63.4483H94.4796C95.0965 63.4483 95.9777 63.4483 96.6827 63.3602L104.878 76.0498C105.319 76.6667 106.2 77.1954 106.993 77.1954H110.43C110.87 77.1954 111.223 77.0192 111.311 76.7548C111.487 76.4904 111.399 76.138 111.223 75.6973L102.587 61.9502ZM102.763 51.2874C102.763 51.9924 102.675 52.7855 102.411 53.4904C102.146 54.2835 101.794 54.9885 101.265 55.6054C100.736 56.3104 100.031 56.8391 99.062 57.2797C98.1808 57.7203 96.6827 57.8084 96.6827 57.8084C96.0658 57.8966 95.0084 57.8966 94.3034 57.8966H91.2191C90.7785 57.8966 90.3379 57.5441 90.3379 57.0153V45.4713C90.3379 45.0307 90.6904 44.5901 91.2191 44.5901H94.6559C95.2727 44.5901 96.3302 44.6782 96.9471 44.6782C96.9471 44.6782 98.1808 44.7663 98.9739 45.2069C99.8551 45.6475 100.56 46.1763 101.089 46.8812C101.618 47.5862 102.058 48.2912 102.323 48.9962C102.587 49.7893 102.763 50.4943 102.763 51.2874Z" fill="#212134"/>
<path d="M149.997 39.1265H146.384C145.591 39.1265 144.798 39.7433 144.533 40.4483L135.897 65.4751L125.94 40.4483C125.675 39.7433 124.794 39.1265 124.001 39.1265H120.388C119.947 39.1265 119.595 39.3027 119.418 39.5671C119.242 39.8314 119.242 40.2721 119.33 40.6245L135.016 77.7242C135.281 78.2529 135.545 78.341 135.721 78.341C135.897 78.341 136.25 78.2529 136.426 77.7242L150.966 40.7127C151.143 40.3602 151.054 39.9196 150.878 39.6552C150.702 39.3027 150.35 39.1265 149.997 39.1265Z" fill="#212134"/>
<path d="M228.603 39.5671C228.427 39.3027 228.074 39.1265 227.634 39.1265H223.844C223.051 39.1265 222.17 39.6552 221.818 40.3602L212.388 58.0728L202.871 40.3602C202.519 39.6552 201.637 39.1265 200.844 39.1265H197.055C196.614 39.1265 196.262 39.3027 196.086 39.5671C195.909 39.8314 195.909 40.2721 196.174 40.6245L208.952 63.5364C209.216 64.0652 209.48 65.0345 209.48 65.5632V75.6973C209.48 76.4905 210.185 77.1954 210.978 77.1954H213.622C214.415 77.1954 215.12 76.4905 215.12 75.6973V65.5632C215.12 64.9464 215.385 63.977 215.649 63.5364L228.515 40.6245C228.691 40.2721 228.779 39.8314 228.603 39.5671Z" fill="#212134"/>
<path d="M186.568 71.82H168.855C168.414 71.82 167.974 71.4675 167.974 70.9387V61.6859C167.974 61.2452 168.326 60.8046 168.855 60.8046H183.748C184.541 60.8046 185.246 60.0996 185.246 59.3065V56.8391C185.246 56.046 184.541 55.341 183.748 55.341H168.855C168.414 55.341 167.974 54.9885 167.974 54.4598V45.4713C167.974 45.0307 168.326 44.5901 168.855 44.5901H185.863C186.656 44.5901 187.361 43.8851 187.361 43.092V40.6245C187.361 39.8314 186.656 39.1265 185.863 39.1265H163.832C163.039 39.1265 162.334 39.8314 162.334 40.6245V75.6973C162.334 76.4905 163.039 77.1954 163.832 77.1954H186.568C187.361 77.1954 188.066 76.4905 188.066 75.6973V73.2299C188.066 72.4368 187.361 71.82 186.568 71.82Z" fill="#212134"/>
<path d="M43.5445 42.2988C45.1307 42.2988 46.3644 41.0651 46.3644 39.4789C46.3644 37.8927 45.1307 36.659 43.5445 36.659C41.9583 36.659 40.7246 37.8927 40.7246 39.4789C40.7246 41.0651 41.9583 42.2988 43.5445 42.2988Z" fill="#212134"/>
<path d="M67.955 38.8621H65.3113C64.5182 38.8621 63.8132 39.567 63.8132 40.3601V62.2146C63.8132 62.8314 63.7251 63.8889 63.6369 64.5057C63.6369 64.5057 63.3726 66.5326 62.6676 67.7663C61.9626 69 60.9051 70.0575 59.5833 70.7624C58.2615 71.4674 56.6753 71.908 55.0009 71.908C53.4147 71.908 51.9166 71.5555 50.5948 70.8506C49.273 70.1456 48.2155 69.0881 47.4224 67.8544C46.6293 66.6207 46.3649 64.5939 46.3649 64.5939C46.2768 63.977 46.1887 62.9195 46.1887 62.3027V47.9387C46.1887 46.3525 44.955 45.1188 43.3688 45.1188C41.7825 45.1188 40.5488 46.3525 40.5488 47.9387V62.3027C40.5488 63.0077 40.637 64.0651 40.7251 64.682C40.7251 64.8582 41.2538 68.7356 42.4875 70.7624C43.7212 72.8774 45.4837 74.4636 47.6868 75.6092C49.8898 76.7548 52.2691 77.2835 54.9128 77.2835C57.5565 77.2835 60.0239 76.7548 62.227 75.6092C64.4301 74.4636 66.1925 72.8774 67.4262 70.7624C68.6599 68.6475 69.1887 64.8582 69.1887 64.682C69.2768 64.0651 69.3649 62.9195 69.3649 62.3027V40.272C69.453 39.567 68.8362 38.8621 67.955 38.8621Z" fill="#212134"/>
<path d="M59.9764 111.133C59.2681 111.133 58.6593 110.996 58.1499 110.723C57.657 110.446 57.2456 110.1 56.9156 109.684C56.8948 109.658 56.8897 109.623 56.9015 109.591C56.9394 109.491 57.0875 109.519 57.0875 109.625V110.645C57.0875 110.801 56.9608 110.928 56.8046 110.928H55.5C55.2239 110.928 55 110.704 55 110.428V96.8898C55 96.6137 55.2239 96.3898 55.5 96.3898H56.5688C56.845 96.3898 57.0688 96.6137 57.0688 96.8898V104.665L57.055 104.127C57.0519 104.005 57.0916 103.885 57.1761 103.798C57.4746 103.49 57.8676 103.239 58.3549 103.044C58.914 102.808 59.5415 102.689 60.2373 102.689C60.9456 102.689 61.5855 102.857 62.1571 103.193C62.7411 103.528 63.2008 104.007 63.5363 104.628C63.8842 105.237 64.0582 105.976 64.0582 106.846C64.0582 107.728 63.8718 108.492 63.499 109.138C63.1262 109.784 62.623 110.281 61.9893 110.629C61.368 110.965 60.6971 111.133 59.9764 111.133ZM59.5291 109.362C59.9764 109.362 60.3802 109.256 60.7406 109.045C61.1133 108.821 61.4053 108.517 61.6166 108.132C61.8402 107.747 61.952 107.312 61.952 106.827C61.952 106.355 61.8402 105.933 61.6166 105.56C61.4053 105.187 61.1133 104.889 60.7406 104.665C60.3802 104.441 59.9764 104.33 59.5291 104.33C59.1315 104.33 58.7649 104.404 58.4294 104.553C58.1064 104.69 57.8268 104.883 57.5907 105.131C57.3843 105.349 57.2255 105.609 57.1143 105.912C57.0958 105.962 57.0875 106.016 57.0875 106.07V107.629C57.0875 107.69 57.0983 107.751 57.1221 107.808C57.2434 108.096 57.4058 108.353 57.6093 108.579C57.833 108.828 58.1064 109.02 58.4294 109.157C58.7525 109.294 59.119 109.362 59.5291 109.362Z" fill="#212134"/>
<path d="M68.828 114.711C68.4653 114.711 68.2233 114.337 68.3718 114.006L73.1603 103.339C73.2409 103.159 73.4195 103.044 73.6164 103.044H74.4303C74.7907 103.044 75.0327 103.413 74.8887 103.743L70.2365 114.411C70.1571 114.593 69.9771 114.711 69.7782 114.711H68.828ZM70.5642 110.667C70.3117 110.835 69.9697 110.741 69.8378 110.468L66.5946 103.761C66.434 103.429 66.6759 103.044 67.0447 103.044H68.2726C68.4694 103.044 68.6479 103.159 68.7286 103.338L71.5157 109.534C71.6162 109.757 71.5401 110.02 71.3359 110.156L70.5642 110.667Z" fill="#212134"/>
<path d="M87.5289 94.8437C87.5289 94.5676 87.7527 94.3437 88.0289 94.3437H97.0976C97.3738 94.3437 97.5976 94.5676 97.5976 94.8437V96.3951C97.5976 96.6712 97.3738 96.8951 97.0976 96.8951H90.6941C90.418 96.8951 90.1941 97.119 90.1941 97.3951V101.065C90.1941 101.341 90.418 101.565 90.6941 101.565H96.1409C96.417 101.565 96.6409 101.789 96.6409 102.065V103.594C96.6409 103.87 96.417 104.094 96.1409 104.094H90.6941C90.418 104.094 90.1941 104.317 90.1941 104.594V110.428C90.1941 110.704 89.9703 110.928 89.6941 110.928H88.0289C87.7527 110.928 87.5289 110.704 87.5289 110.428V94.8437Z" fill="#212134"/>
<path d="M101.174 102.658C101.174 101.504 101.394 100.418 101.834 99.4009C102.275 98.3834 102.882 97.4798 103.657 96.6901C104.431 95.9004 105.327 95.2853 106.345 94.8449C107.377 94.3893 108.479 94.1615 109.648 94.1615C110.802 94.1615 111.888 94.3893 112.905 94.8449C113.938 95.2853 114.842 95.9004 115.616 96.6901C116.406 97.4798 117.021 98.3834 117.461 99.4009C117.917 100.418 118.145 101.504 118.145 102.658C118.145 103.828 117.917 104.929 117.461 105.962C117.021 106.979 116.406 107.875 115.616 108.65C114.842 109.424 113.938 110.032 112.905 110.472C111.888 110.897 110.802 111.11 109.648 111.11C108.463 111.11 107.362 110.897 106.345 110.472C105.327 110.032 104.431 109.432 103.657 108.672C102.882 107.898 102.275 107.002 101.834 105.984C101.394 104.952 101.174 103.843 101.174 102.658ZM103.907 102.658C103.907 103.479 104.052 104.245 104.34 104.959C104.644 105.673 105.062 106.303 105.593 106.85C106.125 107.381 106.74 107.799 107.438 108.103C108.137 108.407 108.896 108.558 109.716 108.558C110.506 108.558 111.243 108.407 111.926 108.103C112.624 107.799 113.232 107.381 113.748 106.85C114.265 106.303 114.667 105.673 114.956 104.959C115.259 104.245 115.411 103.479 115.411 102.658C115.411 101.823 115.259 101.049 114.956 100.335C114.652 99.6211 114.242 98.9909 113.726 98.4441C113.209 97.8974 112.602 97.4722 111.903 97.1685C111.205 96.8647 110.453 96.7129 109.648 96.7129C108.843 96.7129 108.091 96.8647 107.393 97.1685C106.694 97.4722 106.079 97.8974 105.548 98.4441C105.031 98.9909 104.629 99.6287 104.34 100.358C104.052 101.071 103.907 101.838 103.907 102.658Z" fill="#212134"/>
<path d="M127.723 94.3437C128.634 94.3437 129.47 94.4652 130.229 94.7082C130.988 94.936 131.634 95.2777 132.165 95.7333C132.697 96.1889 133.107 96.7508 133.395 97.419C133.699 98.0721 133.851 98.8238 133.851 99.6743C133.851 100.327 133.752 100.98 133.555 101.633C133.357 102.286 133.031 102.879 132.575 103.41C132.135 103.927 131.55 104.352 130.821 104.686C130.092 105.005 129.189 105.164 128.11 105.164H126.218C125.942 105.164 125.718 105.388 125.718 105.664V110.428C125.718 110.704 125.495 110.928 125.218 110.928H123.553C123.277 110.928 123.053 110.704 123.053 110.428V94.8437C123.053 94.5676 123.277 94.3437 123.553 94.3437H127.723ZM128.088 102.613C128.68 102.613 129.173 102.522 129.568 102.34C129.963 102.142 130.267 101.899 130.479 101.611C130.707 101.322 130.867 101.018 130.958 100.699C131.064 100.365 131.117 100.054 131.117 99.7654C131.117 99.492 131.072 99.1959 130.981 98.877C130.89 98.5428 130.73 98.2315 130.502 97.943C130.29 97.6392 129.994 97.3887 129.614 97.1912C129.234 96.9938 128.756 96.8951 128.179 96.8951H126.218C125.942 96.8951 125.718 97.119 125.718 97.3951V102.113C125.718 102.389 125.942 102.613 126.218 102.613H128.088ZM130.675 104.191C130.85 104.187 131.015 104.276 131.109 104.425L134.714 110.162C134.923 110.495 134.684 110.928 134.29 110.928H132.391C132.222 110.928 132.064 110.842 131.972 110.7L128.279 105.006C128.066 104.677 128.297 104.242 128.688 104.234L130.675 104.191Z" fill="#212134"/>
<path d="M140.362 94.3437C140.566 94.3437 140.75 94.4679 140.826 94.6573L145.574 106.476C145.722 106.844 145.404 107.229 145.015 107.153L144.976 107.146C144.671 107.087 144.493 106.766 144.604 106.476L149.142 94.6644C149.217 94.4712 149.402 94.3437 149.609 94.3437H151.629C151.987 94.3437 152.229 94.7105 152.088 95.0404L145.42 110.628C145.247 111.032 144.673 111.032 144.5 110.628L137.832 95.0404C137.691 94.7105 137.933 94.3437 138.292 94.3437H140.362Z" fill="#212134"/>
<path d="M153.731 110.928C153.373 110.928 153.131 110.562 153.271 110.232L160.279 93.7337C160.298 93.6892 160.342 93.6603 160.39 93.6603C160.439 93.6603 160.482 93.6892 160.501 93.7337L167.51 110.232C167.65 110.562 167.408 110.928 167.05 110.928H165.094C164.888 110.928 164.703 110.802 164.628 110.61L159.751 98.1793C159.665 97.9613 159.742 97.7132 159.937 97.5822L160.124 97.456C160.534 97.1791 161.054 97.6029 160.866 98.0607L155.7 110.618C155.623 110.805 155.44 110.928 155.237 110.928H153.731ZM157.46 105.089C157.53 104.888 157.719 104.754 157.932 104.754H162.911C163.115 104.754 163.299 104.879 163.375 105.068L163.886 106.346C164.018 106.675 163.776 107.032 163.422 107.032H157.484C157.14 107.032 156.899 106.692 157.013 106.367L157.46 105.089Z" fill="#212134"/>
<path d="M172.002 94.8437C172.002 94.5676 172.226 94.3437 172.502 94.3437H174.167C174.443 94.3437 174.667 94.5676 174.667 94.8437V107.876C174.667 108.152 174.891 108.376 175.167 108.376H182.322C182.598 108.376 182.822 108.6 182.822 108.876V110.428C182.822 110.704 182.598 110.928 182.322 110.928H172.502C172.226 110.928 172.002 110.704 172.002 110.428V94.8437Z" fill="#212134"/>
</svg>
