<?xml version="1.0" encoding="utf-8"?>
<!-- Generator: Adobe Illustrator 23.1.1, SVG Export Plug-In . SVG Version: 6.00 Build 0)  -->
<svg version="1.1" id="レイヤー_1" xmlns="http://www.w3.org/2000/svg" xmlns:xlink="http://www.w3.org/1999/xlink" x="0px"
	 y="0px" viewBox="0 0 122.46 38.94" style="enable-background:new 0 0 122.46 38.94;" xml:space="preserve">
<style type="text/css">
	.st0{fill:none;}
	.st1{fill:#595757;}
	.st2{fill:#333333;}
	.st3{clip-path:url(#SVGID_2_);fill:#595757;}
	.st4{fill:url(#SVGID_3_);}
	.st5{fill:url(#SVGID_4_);}
	.st6{opacity:0.8;fill:url(#SVGID_5_);}
	.st7{opacity:0.4;fill:#00A0E9;}
	.st8{opacity:0.7;fill:#DAE000;}
	.st9{opacity:0.8;fill:url(#SVGID_6_);}
	.st10{opacity:0.8;fill:url(#SVGID_7_);}
</style>
<rect class="st0" width="122.46" height="38.94"/>
<g>
	<g>
		<path class="st1" d="M79.54,20.14c0,0.43,0.1,0.79,0.28,1.05c0.21,0.3,0.48,0.44,0.84,0.44h14.11c0.39,0,0.67-0.13,0.89-0.41
			c0.21-0.25,0.31-0.59,0.31-0.97c0-0.4-0.11-0.76-0.33-1.1c-0.24-0.33-0.54-0.5-0.87-0.5h-5.3v-7.01h4.35c0.4,0,0.73-0.17,0.99-0.5
			c0.22-0.31,0.33-0.66,0.33-1.08c0-0.36-0.12-0.68-0.36-0.98c-0.24-0.25-0.56-0.38-0.96-0.38H81.74c-0.39,0-0.66,0.12-0.88,0.38
			c-0.22,0.29-0.33,0.6-0.33,0.98c0,0.45,0.1,0.79,0.32,1.09c0.23,0.34,0.51,0.5,0.89,0.5h4.27v7.01h-5.34
			c-0.33,0-0.58,0.13-0.79,0.42C79.65,19.39,79.54,19.75,79.54,20.14z"/>
		<path class="st1" d="M105.64,8.17c-0.32-0.22-0.72-0.34-1.22-0.34c-0.47,0-0.89,0.13-1.25,0.38c-0.33,0.24-0.47,0.73-0.47,1.15
			v3.26c0,2.11-0.21,3.86-0.63,5.21c-0.22,0.69-0.55,1.36-0.98,1.98c-0.46,0.67-0.5,0.92-0.5,0.98c0,0.56,0.15,1,0.46,1.36
			c0.33,0.39,0.72,0.58,1.25,0.58c0.4,0,0.79-0.1,1.15-0.29c0.78-0.43,1.42-1.52,1.9-3.23v0c0.51-1.78,0.77-4,0.77-6.59V9.36
			C106.13,8.94,105.97,8.42,105.64,8.17z"/>
		<g>
			<g>
				<path class="st2" d="M111.15,7.46c-0.28-0.22-0.68-0.33-1.19-0.33c-0.45,0-0.85,0.13-1.13,0.36c-0.32,0.25-0.48,0.74-0.48,1.15
					V20.3c0,0.67,0.2,1.19,0.61,1.61c0.42,0.44,0.97,0.65,1.68,0.65c2.71,0,5.09-2.18,7.09-6.47c0.12-0.28,0.18-0.54,0.18-0.82
					c0-0.48-0.17-0.87-0.52-1.17c-0.33-0.27-0.57-0.37-1.07-0.37c-0.69,0-1.07,0.29-1.57,1.07c-0.16,0.25-0.45,0.71-0.71,1.11
					c-0.33,0.5-0.73,1.2-1.43,1.92c-0.14,0.12-0.32,0.25-0.5,0.38l-0.51,0.29V8.64C111.62,8.22,111.47,7.71,111.15,7.46z"/>
			</g>
		</g>
		<path class="st1" d="M42.17,22.09h10.24c0.71,0,1.31-0.23,1.83-0.7c0.47-0.44,0.71-1.04,0.71-1.77v-8.62
			c0-0.78-0.21-1.4-0.64-1.86c-0.44-0.46-1.07-0.68-1.93-0.68H42.29c-0.39,0-0.68,0.14-0.89,0.42c-0.26,0.31-0.38,0.65-0.38,1.07
			c0,0.52,0.11,0.92,0.32,1.23c0.23,0.39,0.53,0.57,0.94,0.57h9.15v6.92h-9.26c-0.39,0-0.68,0.16-0.89,0.48
			c-0.23,0.33-0.33,0.7-0.33,1.18c0,0.49,0.11,0.88,0.33,1.22C41.51,21.92,41.79,22.09,42.17,22.09z"/>
		<path class="st1" d="M61.71,22.09h10.24c0.71,0,1.31-0.23,1.83-0.7c0.47-0.44,0.71-1.04,0.71-1.77v-8.62
			c0-0.78-0.21-1.4-0.64-1.86c-0.44-0.46-1.07-0.68-1.93-0.68H61.82c-0.39,0-0.68,0.14-0.89,0.42c-0.26,0.31-0.38,0.65-0.38,1.07
			c0,0.52,0.11,0.92,0.32,1.23c0.23,0.39,0.53,0.57,0.94,0.57h9.15v6.92h-9.26c-0.39,0-0.68,0.16-0.89,0.48
			c-0.23,0.33-0.33,0.7-0.33,1.18c0,0.49,0.11,0.88,0.33,1.22C61.05,21.92,61.33,22.09,61.71,22.09z"/>
	</g>
	<g>
		<g>
			<g>
				<defs>
					<path id="SVGID_1_" d="M75.79,29.4c-0.53,0.13-0.35,1.15-0.05,1.44c0.27,0.29,0.51,0.61,0.32,1.02
						c-0.13,0.29-0.43,0.48-0.72,0.48c-0.29,0-0.61-0.19-0.72-0.48c-0.16-0.4,0.05-0.72,0.32-1.02c0.27-0.29,0.48-1.31-0.05-1.44
						c-0.21-0.05-0.43,0-0.64,0.08c-0.72,0.29-1.26,0.85-1.58,1.58c-0.29,0.72-0.29,1.5,0,2.22c0.29,0.72,0.85,1.26,1.58,1.55
						c0.35,0.16,0.72,0.21,1.1,0.21c0.37,0,0.75-0.08,1.1-0.21c0.72-0.29,1.28-0.85,1.58-1.55c0.29-0.69,0.29-1.5,0-2.22
						c-0.29-0.72-0.85-1.26-1.58-1.58c-0.15-0.06-0.31-0.1-0.46-0.1C75.91,29.38,75.85,29.39,75.79,29.4"/>
				</defs>
				<use xlink:href="#SVGID_1_"  style="overflow:visible;fill:#595757;"/>
				<clipPath id="SVGID_2_">
					<use xlink:href="#SVGID_1_"  style="overflow:visible;"/>
				</clipPath>
				<rect x="72.37" y="29.35" class="st3" width="5.93" height="5.69"/>
			</g>
			<path class="st1" d="M89.23,34.77c-0.13,0-0.24-0.11-0.24-0.24v-4.89h2.56c0.13,0,0.24,0.11,0.24,0.24
				c0,0.13-0.11,0.24-0.24,0.24h-2.08v4.41C89.47,34.66,89.36,34.77,89.23,34.77 M91.21,31.89c0-0.13-0.11-0.24-0.24-0.24h-0.59
				c-0.13,0-0.24,0.11-0.24,0.24c0,0.13,0.11,0.24,0.24,0.24h0.59C91.1,32.13,91.21,32.02,91.21,31.89 M82.82,34.53
				c0-0.13-0.11-0.24-0.24-0.24h-1.79v-4.41c0-0.13-0.11-0.24-0.24-0.24c-0.13,0-0.24,0.11-0.24,0.24v4.86h2.27
				C82.71,34.77,82.82,34.66,82.82,34.53 M105.36,34.53c0-0.13-0.11-0.24-0.24-0.24h-1.79v-4.41c0-0.13-0.11-0.24-0.24-0.24
				c-0.13,0-0.24,0.11-0.24,0.24v4.86h2.27C105.26,34.77,105.36,34.66,105.36,34.53 M99.86,34.72c0.16-0.03,0.32-0.08,0.48-0.16
				c0.16-0.05,0.29-0.13,0.43-0.24c0.13-0.08,0.27-0.19,0.37-0.32c0.11-0.11,0.21-0.24,0.32-0.37c0.08-0.13,0.16-0.29,0.24-0.43
				l0.16-0.48c0.03-0.13-0.05-0.27-0.19-0.29c-0.13-0.03-0.27,0.05-0.29,0.19c-0.03,0.13-0.08,0.27-0.13,0.4
				c-0.05,0.13-0.11,0.24-0.19,0.35c-0.08,0.11-0.16,0.21-0.24,0.29c-0.11,0.11-0.19,0.19-0.29,0.24c-0.11,0.08-0.24,0.13-0.35,0.19
				c-0.13,0.05-0.27,0.08-0.4,0.13c-0.27,0.05-0.56,0.05-0.83,0c-0.13-0.03-0.27-0.08-0.4-0.13c-0.13-0.05-0.24-0.11-0.35-0.19
				c-0.11-0.08-0.21-0.16-0.29-0.24c-0.11-0.11-0.19-0.19-0.24-0.29c-0.08-0.11-0.13-0.24-0.19-0.35c-0.05-0.13-0.08-0.27-0.13-0.4
				c-0.03-0.13-0.16-0.21-0.29-0.19c-0.13,0.03-0.21,0.16-0.19,0.29c0.03,0.16,0.08,0.32,0.16,0.48c0.05,0.16,0.13,0.29,0.24,0.43
				c0.08,0.13,0.19,0.27,0.32,0.37c0.11,0.11,0.24,0.21,0.37,0.32c0.13,0.08,0.29,0.16,0.43,0.24c0.16,0.05,0.32,0.11,0.48,0.16
				c0.16,0.03,0.35,0.05,0.51,0.05C99.54,34.77,99.7,34.74,99.86,34.72 M101.65,31.97c0.13-0.03,0.21-0.16,0.19-0.29
				c-0.03-0.16-0.08-0.32-0.16-0.48c-0.05-0.16-0.13-0.29-0.24-0.43c-0.08-0.13-0.19-0.27-0.32-0.37c-0.11-0.11-0.24-0.21-0.37-0.32
				c-0.13-0.08-0.29-0.16-0.43-0.24c-0.16-0.05-0.32-0.11-0.48-0.16c-0.35-0.08-0.69-0.08-1.04,0c-0.16,0.03-0.32,0.08-0.48,0.16
				c-0.16,0.05-0.29,0.13-0.43,0.24c-0.13,0.08-0.27,0.19-0.37,0.32c-0.11,0.11-0.11,0.24,0,0.35c0.11,0.11,0.24,0.11,0.35,0
				c0.11-0.11,0.19-0.19,0.29-0.24c0.11-0.08,0.24-0.13,0.35-0.19c0.13-0.05,0.27-0.08,0.4-0.13c0.27-0.05,0.56-0.05,0.83,0
				c0.13,0.03,0.27,0.08,0.4,0.13c0.13,0.05,0.24,0.11,0.35,0.19c0.11,0.08,0.21,0.16,0.29,0.24c0.11,0.11,0.19,0.19,0.24,0.29
				c0.08,0.11,0.13,0.24,0.19,0.35c0.05,0.13,0.08,0.27,0.13,0.4c0.03,0.11,0.13,0.19,0.24,0.19
				C101.62,31.99,101.65,31.97,101.65,31.97 M97.03,31.97c0.13-0.03,0.21-0.16,0.19-0.29c-0.03-0.16-0.08-0.32-0.16-0.48
				c-0.05-0.16-0.13-0.29-0.24-0.43c-0.08-0.13-0.19-0.27-0.32-0.37c-0.11-0.11-0.24-0.21-0.37-0.32c-0.13-0.08-0.29-0.16-0.43-0.24
				c-0.16-0.05-0.32-0.11-0.48-0.16c-0.35-0.08-0.69-0.08-1.04,0c-0.16,0.03-0.32,0.08-0.48,0.16c-0.16,0.05-0.29,0.13-0.43,0.24
				c-0.13,0.08-0.27,0.19-0.37,0.32c-0.11,0.11-0.21,0.24-0.32,0.37c-0.08,0.13-0.16,0.29-0.24,0.43c-0.05,0.16-0.11,0.32-0.16,0.48
				c-0.03,0.13,0.05,0.27,0.19,0.29c0.13,0.03,0.27-0.05,0.29-0.19c0.03-0.13,0.08-0.27,0.13-0.4c0.05-0.13,0.11-0.24,0.19-0.35
				c0.08-0.11,0.16-0.21,0.24-0.29c0.11-0.11,0.19-0.19,0.29-0.24c0.11-0.08,0.24-0.13,0.35-0.19c0.13-0.05,0.27-0.08,0.4-0.13
				c0.27-0.05,0.56-0.05,0.83,0c0.13,0.03,0.27,0.08,0.4,0.13c0.13,0.05,0.24,0.11,0.35,0.19c0.11,0.08,0.21,0.16,0.29,0.24
				c0.11,0.11,0.19,0.19,0.24,0.29c0.08,0.11,0.13,0.24,0.19,0.35c0.05,0.13,0.08,0.27,0.13,0.4c0.03,0.11,0.13,0.19,0.24,0.19
				C97,31.99,97,31.97,97.03,31.97 M95.24,34.72c0.16-0.03,0.32-0.08,0.48-0.16c0.16-0.05,0.29-0.13,0.43-0.24
				c0.13-0.08,0.27-0.19,0.37-0.32c0.11-0.11,0.11-0.24,0-0.35c-0.11-0.11-0.24-0.11-0.35,0c-0.11,0.11-0.19,0.19-0.29,0.24
				c-0.11,0.08-0.24,0.13-0.35,0.19c-0.13,0.05-0.27,0.08-0.4,0.13c-0.27,0.05-0.56,0.05-0.83,0c-0.13-0.03-0.27-0.08-0.4-0.13
				c-0.13-0.05-0.24-0.11-0.35-0.19c-0.11-0.08-0.21-0.16-0.29-0.24c-0.11-0.11-0.19-0.19-0.24-0.29c-0.08-0.11-0.13-0.24-0.19-0.35
				c-0.05-0.13-0.08-0.27-0.13-0.4c-0.03-0.13-0.16-0.21-0.29-0.19c-0.13,0.03-0.21,0.16-0.19,0.29c0.03,0.16,0.08,0.32,0.16,0.48
				c0.05,0.16,0.13,0.29,0.24,0.43c0.08,0.13,0.19,0.27,0.32,0.37c0.11,0.11,0.24,0.21,0.37,0.32c0.13,0.08,0.29,0.16,0.43,0.24
				c0.16,0.05,0.32,0.11,0.48,0.16c0.16,0.03,0.35,0.05,0.51,0.05C94.89,34.77,95.05,34.74,95.24,34.72 M86.32,33.33
				c0-0.13-0.11-0.24-0.24-0.24h-0.59c-0.13,0-0.24,0.11-0.24,0.24c0,0.13,0.11,0.24,0.24,0.24h0.59
				C86.21,33.57,86.32,33.46,86.32,33.33 M83.94,34.66l1.79-3.93l1.9,3.93c0.05,0.11,0.21,0.16,0.32,0.11
				c0.11-0.05,0.16-0.21,0.11-0.32l-2.35-4.86l-2.22,4.86c-0.05,0.13,0,0.27,0.11,0.32c0.03,0.03,0.05,0.03,0.11,0.03
				C83.81,34.8,83.91,34.74,83.94,34.66"/>
		</g>
		<g>
			<path class="st1" d="M41.26,31.92c0.2-0.36,0.54-0.56,0.99-0.56c0.69,0,1.18,0.59,1.18,1.48c0,1.07-0.62,1.56-1.26,1.56
				c-0.38,0-0.7-0.18-0.87-0.46h-0.01v1.59h-0.44v-3.16c0-0.38-0.01-0.67-0.02-0.94h0.4l0.03,0.5H41.26z M41.29,33.17
				c0,0.56,0.42,0.86,0.81,0.86c0.57,0,0.88-0.49,0.88-1.18c0-0.6-0.3-1.13-0.87-1.13c-0.5,0-0.83,0.48-0.83,0.9V33.17z"/>
			<path class="st1" d="M46.56,32.85c0,1.08-0.71,1.54-1.36,1.54c-0.75,0-1.32-0.56-1.32-1.5c0-0.99,0.62-1.54,1.36-1.54
				C46.04,31.36,46.56,31.96,46.56,32.85z M45.23,31.7c-0.63,0-0.89,0.62-0.89,1.18c0,0.64,0.36,1.17,0.88,1.17
				c0.53,0,0.89-0.52,0.89-1.18C46.11,32.35,45.86,31.7,45.23,31.7z"/>
			<path class="st1" d="M50.96,31.42l-0.92,2.91h-0.39l-0.46-1.46c-0.11-0.33-0.19-0.62-0.26-0.96h-0.02
				c-0.07,0.35-0.16,0.65-0.27,0.96l-0.48,1.45h-0.4l-0.86-2.91h0.46l0.4,1.52c0.08,0.33,0.16,0.62,0.22,0.92h0.02
				c0.06-0.29,0.16-0.6,0.26-0.92l0.48-1.53h0.38l0.46,1.5c0.1,0.34,0.19,0.65,0.26,0.94h0.02c0.05-0.29,0.13-0.59,0.23-0.94
				l0.43-1.51H50.96z"/>
			<path class="st1" d="M53.55,34.21c-0.17,0.08-0.47,0.18-0.91,0.18c-0.85,0-1.35-0.6-1.35-1.46c0-0.91,0.51-1.57,1.29-1.57
				c0.89,0,1.12,0.82,1.12,1.33c0,0.1-0.01,0.18-0.01,0.25h-1.98c0.01,0.8,0.46,1.11,0.99,1.11c0.36,0,0.58-0.07,0.76-0.15
				L53.55,34.21z M53.27,32.6c0.01-0.39-0.16-0.91-0.73-0.91c-0.53,0-0.77,0.51-0.81,0.91H53.27z"/>
			<path class="st1" d="M55.69,31.8c-0.05,0-0.1-0.01-0.16-0.01c-0.48,0-0.72,0.47-0.72,0.96v1.58h-0.44v-2.03
				c0-0.31-0.01-0.59-0.02-0.87h0.39l0.02,0.56h0.02c0.13-0.36,0.43-0.62,0.79-0.62c0.05,0,0.09,0.01,0.13,0.02V31.8z"/>
			<path class="st1" d="M58.26,34.21c-0.17,0.08-0.47,0.18-0.91,0.18c-0.85,0-1.35-0.6-1.35-1.46c0-0.91,0.51-1.57,1.29-1.57
				c0.89,0,1.12,0.82,1.12,1.33c0,0.1-0.01,0.18-0.01,0.25h-1.98c0.01,0.8,0.46,1.11,0.99,1.11c0.36,0,0.58-0.07,0.76-0.15
				L58.26,34.21z M57.98,32.6c0.01-0.39-0.16-0.91-0.73-0.91c-0.53,0-0.77,0.51-0.81,0.91H57.98z"/>
			<path class="st1" d="M61.41,33.61c0,0.23,0.01,0.52,0.02,0.72h-0.39l-0.02-0.5H61c-0.15,0.3-0.48,0.56-0.95,0.56
				c-0.67,0-1.19-0.58-1.19-1.48c0-0.98,0.58-1.55,1.25-1.55c0.43,0,0.71,0.21,0.85,0.45h0.01v-1.74h0.44V33.61z M60.97,32.59
				c0-0.58-0.41-0.87-0.78-0.87c-0.55,0-0.87,0.51-0.87,1.18c0,0.61,0.29,1.13,0.86,1.13c0.48,0,0.8-0.42,0.8-0.88V32.59z"/>
			<path class="st1" d="M63.98,31.89c0.18-0.34,0.51-0.54,0.96-0.54c0.69,0,1.17,0.59,1.17,1.49c0,1.05-0.64,1.55-1.25,1.55
				c-0.42,0-0.73-0.17-0.94-0.54h-0.02l-0.03,0.48H63.5c0.01-0.19,0.02-0.48,0.02-0.72v-3.54h0.44v1.83H63.98z M63.97,33.19
				c0,0.43,0.33,0.84,0.81,0.84c0.56,0,0.88-0.48,0.88-1.17c0-0.61-0.3-1.14-0.86-1.14c-0.51,0-0.83,0.47-0.83,0.9V33.19z"/>
			<path class="st1" d="M68.97,31.43l-0.77,2.06c-0.35,0.94-0.59,1.49-0.95,1.83c-0.24,0.22-0.48,0.31-0.59,0.34l-0.12-0.37
				c0.68-0.25,0.94-0.99,0.94-1.04c0-0.03-0.01-0.07-0.03-0.12l-1.03-2.68h0.48l0.63,1.76c0.07,0.2,0.14,0.43,0.19,0.61h0.02
				c0.05-0.18,0.12-0.39,0.19-0.62l0.59-1.75H68.97z"/>
		</g>
	</g>
	<g>
		<g>
			<linearGradient id="SVGID_3_" gradientUnits="userSpaceOnUse" x1="16.7047" y1="9.6218" x2="30.3708" y2="9.6218">
				<stop  offset="0" style="stop-color:#7BB7E4"/>
				<stop  offset="1" style="stop-color:#3E90CF"/>
			</linearGradient>
			<path class="st4" d="M19.62,15.96L30.37,5.2l-1.2-1.2c-0.94-0.94-2.47-0.94-3.41,0l-9.05,9.06L19.62,15.96z"/>
			<linearGradient id="SVGID_4_" gradientUnits="userSpaceOnUse" x1="11.5151" y1="16.4084" x2="34.4375" y2="16.4084">
				<stop  offset="0" style="stop-color:#7BB7E4"/>
				<stop  offset="1" style="stop-color:#3E90CF"/>
			</linearGradient>
			<path class="st5" d="M33.73,8.55L32.78,7.6L19.62,20.77l-5.32-5.32l-2.78,2.78l6.27,6.27c0.94,0.94,2.47,0.94,3.41,0l12.53-12.54
				C34.67,11.02,34.67,9.49,33.73,8.55z"/>
		</g>
		<linearGradient id="SVGID_5_" gradientUnits="userSpaceOnUse" x1="4.5366" y1="14.253" x2="26.9431" y2="14.253">
			<stop  offset="0" style="stop-color:#A0D6D5"/>
			<stop  offset="1" style="stop-color:#67C3C7"/>
		</linearGradient>
		<path class="st6" d="M24.81,15.58l-5.19,5.19l-9.31-9.3c-0.44-0.44-0.58-1.05-0.44-1.61c0.07-0.29,0.22-0.57,0.44-0.79
			c0.23-0.23,0.5-0.37,0.79-0.44c0.56-0.14,1.18,0,1.61,0.44l6.9,6.9l2.78-2.78L13.22,4c-0.94-0.94-2.47-0.94-3.41,0L5.24,8.56
			c-0.94,0.94-0.94,2.47,0,3.41l12.54,12.53c0.94,0.94,2.47,0.94,3.41,0l5.38-5.38c0.49-0.49,0.49-1.29,0-1.78L24.81,15.58z"/>
		<g>
			<path class="st7" d="M12.72,9.06l6.9,6.9l1.3-1.3l-7.93-7.92L11.1,8.62C11.66,8.48,12.28,8.63,12.72,9.06z"/>
			<path class="st7" d="M19.62,20.77l-9.31-9.3c-0.44-0.44-0.58-1.05-0.44-1.61L6.5,13.23l11.29,11.28c0.94,0.94,2.47,0.94,3.41,0
				l4.79-4.79l-2.66-2.66L19.62,20.77z"/>
		</g>
		<g>
			
				<rect x="17.28" y="10.33" transform="matrix(0.7068 -0.7074 0.7074 0.7068 -1.339 19.4524)" class="st8" width="11.03" height="2.02"/>
			<path class="st8" d="M19.62,20.77l-3.84-3.84L13,19.72l4.79,4.79c0.94,0.94,2.47,0.94,3.41,0l11.28-11.29l-2.66-2.66L19.62,20.77
				z"/>
		</g>
		<linearGradient id="SVGID_6_" gradientUnits="userSpaceOnUse" x1="15.2988" y1="20.1921" x2="27.8755" y2="20.1921">
			<stop  offset="0" style="stop-color:#F3C159"/>
			<stop  offset="1" style="stop-color:#FCCF50"/>
		</linearGradient>
		<path class="st9" d="M19.62,20.77l-1.54-1.54l-2.78,2.78l2.49,2.49c0.94,0.94,2.47,0.94,3.41,0l6.68-6.68l-2.66-2.66L19.62,20.77z
			"/>
		<linearGradient id="SVGID_7_" gradientUnits="userSpaceOnUse" x1="11.1045" y1="20.1307" x2="23.6843" y2="20.1307">
			<stop  offset="0" style="stop-color:#EA697D"/>
			<stop  offset="1" style="stop-color:#ED778A"/>
		</linearGradient>
		<path class="st10" d="M19.62,20.77l-5.73-5.73l-2.78,2.78l6.68,6.68c0.94,0.94,2.47,0.94,3.41,0l2.49-2.49l-2.66-2.66L19.62,20.77
			z"/>
	</g>
</g>
</svg>
