<?xml version="1.0" encoding="utf-8"?>
<!-- Generator: Adobe Illustrator 25.4.1, SVG Export Plug-In . SVG Version: 6.00 Build 0)  -->
<svg version="1.1" id="レイヤー_1" xmlns="http://www.w3.org/2000/svg" xmlns:xlink="http://www.w3.org/1999/xlink" x="0px"
	 y="0px" width="625.9px" height="171.3px" viewBox="0 0 625.9 171.3" style="enable-background:new 0 0 625.9 171.3;"
	 xml:space="preserve">
<style type="text/css">
	.st0{fill:#FF6141;}
	.st1{fill:#FFB99B;}
	.st2{fill:#CB2405;}
	.st3{fill:#E84F31;}
	.st4{fill:#727171;}
	.st5{fill:url(#SVGID_1_);}
</style>
<g>
	<g>
		<g>
			<path class="st0" d="M52,4.1c-1-1.7-4.4-1.7-5.3-0.1L0.4,93.9c-1.4,2.7,0.6,6,3.7,6h18l0,0l38.7-78.3L52,4.1z"/>
			<path class="st1" d="M69.9,92.9c-0.2-0.4-3.3-7.1-7.6-16.3c-4.6-2.3-9.4-4.6-11.9-5.8c-1.2-0.6-2.8-0.6-4.1,0
				c-2.8,1.3-7.7,3.6-12.8,5.9L22.1,99.9c0,0,18.2-9.9,24.3-13c1.3-0.7,2.8-0.7,4.1,0c4.7,2.5,19.2,8.8,23.7,10.7l0,0
				C72.3,96.3,71.1,94.8,69.9,92.9z"/>
			<path class="st2" d="M109.8,98.5c-7.4-3.6-13.9-8.7-18.8-16.6c-1.2-2-2.5-3.9-3.5-6L63.8,27.7l-12.5,25c3.8,8.3,7.8,16.9,11,24
				c4.2,9.2,7.3,15.9,7.6,16.3c1.2,1.9,2.4,3.4,4.2,4.6l0,0c2.1,1.4,5,2.2,7.6,2.4c0.2,0,0.4,0,0.7,0h27.1
				C110.3,99.9,110.6,98.8,109.8,98.5z"/>
		</g>
		<g>
			<path class="st3" d="M197.5,44.9c-2.4,0.9-5.1,1.4-8,1.4c-4.6,0-8.6-1-12-3c-3.4-2-6-4.7-7.8-8.1c-1.8-3.4-2.7-7.1-2.7-11.1
				c0-4.4,0.9-8.4,2.7-11.9s4.3-6.2,7.5-8.1c3.2-1.9,7-2.9,11.2-2.9c2.7,0,5.1,0.4,7.4,1.1s4.3,1.6,6,2.7l-3.4,8.2
				c-3.1-2.4-6.4-3.6-9.7-3.6c-2.2,0-4.3,0.6-6.3,1.9c-2,1.2-3.5,2.9-4.7,5.1s-1.7,4.5-1.7,7.1c0,2.8,0.5,5.3,1.6,7.5s2.6,3.8,4.6,5
				s4.3,1.8,7,1.8c2.1,0,4.1-0.4,5.8-1.1s3.1-1.5,4.1-2.5l3.6,7.8C201.7,43.1,200,44,197.5,44.9z"/>
			<path class="st3" d="M239.7,1.7v8.4H229v35.7h-8.7V10.1H210V1.7H239.7z"/>
			<path class="st3" d="M259.5,1.7v44.1h-8.7V1.7H259.5z"/>
			<path class="st3" d="M308.8,1.7l-20.1,46.1L268.6,1.7H279l10.1,24.9l9.5-24.9H308.8z"/>
			<path class="st3" d="M345.6,1.7v8.4h-21.4v9.4h18.9v8.4h-18.9v9.5h22.2v8.4h-30.9V1.7L345.6,1.7L345.6,1.7z"/>
			<path class="st3" d="M415,45.8h-8.7V27.9h-19.7v17.9h-8.7V1.7h8.7v17.8h19.7V1.7h8.7V45.8z"/>
			<path class="st3" d="M457.9,1.7v8.4h-21.4v9.4h18.9v8.4h-18.9v9.5h22.2v8.4h-30.9V1.7L457.9,1.7L457.9,1.7z"/>
			<path class="st3" d="M523.5,1.7v35.7h20.7v8.4h-29.4V1.7L523.5,1.7L523.5,1.7z"/>
			<path class="st3" d="M579,1.7v8.4h-10.7v35.7h-8.7V10.1h-10.3V1.7H579z"/>
			<path class="st3" d="M625.9,45.8h-8.7V27.9h-19.7v17.9h-8.7V1.7h8.7v17.8h19.7V1.7h8.7V45.8z"/>
			<path class="st3" d="M493.9,37.2l-7.2-0.1l-7.4,0.1l-3.8,8.6h-8.4L487,0h0.5l19.9,45.8h-9.8L493.9,37.2z M491,29.9l-4.2-10.7
				l-4.4,10.7h4.3H491z"/>
			<path class="st3" d="M150.9,37.2l-7.2-0.1l-7.4,0.1l-3.8,8.6h-8.4L144,0h0.5l19.9,45.8h-9.8L150.9,37.2z M148,29.9l-4.2-10.7
				l-4.4,10.7h4.3H148z"/>
		</g>
	</g>
	<g>
		<path class="st2" d="M389.9,98.1c-1.7,0-3.2-0.1-4.7-0.3c-1.5-0.2-2.8-0.5-4.2-1l0.5-5.2c0.7,0.2,1.3,0.4,2.1,0.6s1.5,0.4,2.2,0.5
			c0.7,0.1,1.5,0.2,2.2,0.3c0.7,0.1,1.4,0.1,2.1,0.1c1.2,0,2.2-0.1,3-0.3s1.5-0.5,2-0.9s0.9-0.8,1.1-1.3s0.3-1,0.2-1.5
			c-0.1-0.6-0.3-1.2-0.7-1.6c-0.4-0.5-0.9-0.9-1.5-1.2s-1.3-0.7-2-1.1s-1.5-0.7-2.3-1c-0.8-0.4-1.5-0.7-2.3-1.1s-1.4-0.9-2-1.5
			s-1.1-1.2-1.5-2c-0.4-0.7-0.7-1.6-0.8-2.6c-0.1-1.2,0-2.4,0.4-3.5c0.4-1.1,1.1-2.1,2-3c1-0.9,2.2-1.6,3.8-2.1
			c1.6-0.5,3.5-0.8,5.7-0.8c0.6,0,1.3,0,2,0.1c0.7,0,1.3,0.1,1.9,0.2c0.6,0.1,1.2,0.2,1.8,0.3c0.6,0.1,1.1,0.2,1.5,0.4l-0.5,4.9
			c-0.5-0.1-1-0.3-1.5-0.4s-1.1-0.2-1.8-0.3c-0.6-0.1-1.2-0.2-1.8-0.2c-0.6,0-1.2-0.1-1.7-0.1c-1.1,0-2,0.1-2.7,0.3
			s-1.3,0.4-1.8,0.8c-0.5,0.3-0.8,0.7-1,1.1s-0.3,0.9-0.2,1.4c0.1,0.6,0.3,1.1,0.7,1.5c0.4,0.4,0.9,0.8,1.5,1.2s1.3,0.7,2,1
			c0.8,0.3,1.5,0.7,2.3,1s1.6,0.8,2.3,1.2c0.8,0.4,1.5,0.9,2.1,1.5s1.1,1.2,1.6,2s0.7,1.6,0.8,2.6c0.2,1.5,0,2.9-0.6,4.1
			c-0.5,1.2-1.3,2.3-2.5,3.2c-1.1,0.9-2.5,1.5-4.1,2C393.8,97.9,391.9,98.1,389.9,98.1z"/>
		<path class="st2" d="M447,87.2c-0.2,1.9-0.6,3.5-1.2,4.9c-0.6,1.4-1.4,2.5-2.3,3.4c-1,0.9-2.2,1.5-3.5,2c-1.4,0.4-2.9,0.6-4.7,0.6
			c-1.6,0-3-0.2-4.2-0.5c-1.2-0.4-2.2-0.9-3-1.5c-0.8-0.7-1.4-1.5-1.8-2.4c-0.4-1-0.7-2-0.8-3.2c-0.1-1-0.1-2.1,0.1-3.2l1.9-19.1
			h5.5l-1.9,19.2c-0.1,0.9-0.1,1.8,0,2.5c0.1,0.6,0.2,1.2,0.4,1.6c0.2,0.5,0.5,0.9,0.8,1.2s0.8,0.5,1.4,0.7s1.2,0.2,2,0.2
			c0.9,0,1.7-0.1,2.4-0.4s1.3-0.6,1.8-1.1c0.5-0.5,0.9-1.2,1.2-2c0.3-0.8,0.5-1.8,0.6-2.9l2-19h5.6L447,87.2z"/>
		<path class="st2" d="M485.3,97.6l-2.5-7.4c-0.3-1-0.7-1.8-1-2.4c-0.3-0.6-0.7-1.1-1.1-1.5s-0.8-0.6-1.3-0.7s-1-0.2-1.5-0.2H477
			l-1.2,12.2h-5.5l3-29.5h8.5c1.4,0,2.7,0.1,3.8,0.4c1.2,0.2,2.2,0.6,3,1.1s1.5,1.2,2.1,2c0.5,0.8,0.8,1.8,1,3
			c0.1,1.2,0,2.3-0.2,3.3s-0.7,2-1.3,2.8c-0.6,0.8-1.4,1.5-2.3,2s-2,0.9-3.2,1.2c0.4,0.2,0.8,0.5,1.1,0.8c0.3,0.3,0.7,0.7,1,1.2
			c0.3,0.5,0.7,1.1,1,1.8c0.3,0.7,0.7,1.6,1.1,2.5l2.8,7.3L485.3,97.6L485.3,97.6z M479.5,81.1c1.1,0,2-0.1,2.9-0.4
			c0.8-0.2,1.5-0.6,2.1-1c0.6-0.5,1-1,1.2-1.7c0.3-0.7,0.3-1.4,0.3-2.3c-0.1-1-0.5-1.8-1.3-2.3c-0.8-0.5-2-0.7-3.5-0.7h-2.7
			l-0.8,8.3L479.5,81.1L479.5,81.1z"/>
		<path class="st2" d="M527.6,97.6h-7.3l-6-29.5h6l3.3,17.7l1,5.8l2.3-6.1l6.6-17.4h6.2L527.6,97.6z"/>
		<path class="st2" d="M560.2,97.6l3-29.5h17.7l-0.5,4.7h-12.1l-0.8,7.3h11.5l-0.4,4.6h-11.5l-0.8,8.2h12.1l-0.5,4.7H560.2z"/>
		<path class="st2" d="M613.3,87.2l-1,10.4h-5.6l1.1-10.4l-7.7-19.1h5.8l3.4,9.1l1.5,4.5l2.5-4.6l5.3-9h6.3L613.3,87.2z"/>
	</g>
	<g>
		<g>
			<path class="st4" d="M259.9,171.3h-2.4V150h2.4v1.9c1.6-1.9,3.6-2.2,4.6-2.2c4.3,0,6.7,3.6,6.7,7.4c0,3.8-2.4,7.2-6.5,7.2
				c-2.2,0-3.8-1-4.8-2.2L259.9,171.3L259.9,171.3z M268.8,157.1c0-3.4-2.2-5.1-4.5-5.1c-2.2,0-4.6,1.9-4.6,5.1
				c0,2.7,1.7,5.1,4.6,5.1C267.1,162,268.8,159.6,268.8,157.1z"/>
			<path class="st4" d="M274,156.9c0-4.1,3.1-7.2,7.2-7.2c4.1,0,7.2,3.1,7.2,7.2c0,4.1-3.1,7.2-7.2,7.2
				C277.1,164.1,274,161.2,274,156.9z M276.4,156.9c0,3.4,2.4,5.1,4.8,5.1c2.4,0,4.8-1.7,4.8-5.1c0-3.4-2.2-5.1-4.8-5.1
				S276.4,153.6,276.4,156.9z"/>
			<path class="st4" d="M292.8,150l4.1,9.3l4.3-10.3l4.3,10.3l3.9-9.3h2.6l-6.9,14.6l-4.3-10.3l-4.3,10.3l-6.5-14.6H292.8z"/>
			<path class="st4" d="M326.8,160.3c-0.3,0.7-1,1.6-1.7,2.2c-1.2,1.2-2.7,1.7-4.6,1.7c-3.3,0-6.7-2.1-6.7-7.2
				c0-4.1,2.6-7.2,6.7-7.2c2.7,0,4.3,1.4,5.1,2.6c0.9,1.2,1.4,3.3,1.2,5.1h-10.6c0,2.9,2.1,4.6,4.3,4.6c1.2,0,2.1-0.3,2.7-1
				c0.7-0.5,1.2-1.2,1.4-1.9L326.8,160.3z M324.4,155.4c-0.3-2.1-2.1-3.6-3.9-3.6c-2.1,0-3.6,1.6-3.9,3.6H324.4z"/>
			<path class="st4" d="M330.4,150h2.4v1.6c0.2-0.3,1.2-1.9,3.1-1.9c0.7,0,1.6,0.3,2.1,0.5l-1.2,2.1c-0.5-0.3-1-0.5-1.4-0.5
				c-1,0-1.6,0.3-1.9,0.9c-0.3,0.5-0.9,1.4-0.9,3.8v7.4h-2.4L330.4,150L330.4,150z"/>
			<path class="st4" d="M351.5,160.3c-0.3,0.7-1,1.6-1.7,2.2c-1.2,1.2-2.7,1.7-4.6,1.7c-3.3,0-6.7-2.1-6.7-7.2
				c0-4.1,2.6-7.2,6.7-7.2c2.7,0,4.3,1.4,5.1,2.6c0.9,1.2,1.4,3.3,1.2,5.1h-10.6c0,2.9,2.1,4.6,4.3,4.6c1.2,0,2.1-0.3,2.7-1
				c0.7-0.5,1.2-1.2,1.4-1.9L351.5,160.3z M349.3,155.4c-0.3-2.1-2.1-3.6-3.9-3.6c-2.1,0-3.6,1.6-3.9,3.6H349.3z"/>
			<path class="st4" d="M365.7,139.7h2.4v24h-2.4v-1.9c-0.9,1-2.2,2.2-4.6,2.2c-3.4,0-6.7-2.4-6.7-7.2c0-4.6,3.1-7.2,6.7-7.2
				c2.6,0,4.1,1.4,4.6,2.2V139.7z M356.8,156.9c0,2.9,1.7,5.1,4.5,5.1c2.9,0,4.6-2.4,4.6-5.1c0-3.6-2.4-5.1-4.6-5.1
				C359.1,151.9,356.8,153.6,356.8,156.9z"/>
			<path class="st4" d="M382.7,163.8h-2.4v-24h2.4v12.2c1.6-2.1,3.8-2.2,4.6-2.2c4.3,0,6.7,3.6,6.7,7.2c0,3.8-2.4,7.2-6.5,7.2
				c-2.2,0-3.8-1-4.8-2.2L382.7,163.8L382.7,163.8z M391.7,157.1c0-3.4-2.2-5.1-4.5-5.1s-4.6,1.9-4.6,5.1c0,2.7,1.7,5.1,4.6,5.1
				C389.9,162,391.7,159.6,391.7,157.1z"/>
			<path class="st4" d="M401.9,162.4l-6.3-12.3h2.7l4.8,9.8l4.5-9.8h2.6l-10.1,21.3h-2.6L401.9,162.4z"/>
		</g>
		
			<linearGradient id="SVGID_1_" gradientUnits="userSpaceOnUse" x1="443.6372" y1="-1658.8545" x2="443.6372" y2="-1624.549" gradientTransform="matrix(1 0 0 -1 0 -1488.2312)">
			<stop  offset="0" style="stop-color:#D0E4A6"/>
			<stop  offset="0.61" style="stop-color:#ABDCF1"/>
		</linearGradient>
		<path class="st5" d="M459.8,146.4c-1.7-4.3-5.1-7.7-9.4-9.4c-1.2-0.5-2.6-0.7-3.9-0.5c-3.3,0.9-2.1,6.9-0.3,8.8
			c1.7,1.7,3.1,3.8,2.1,6.2s-3.8,3.6-6.3,2.6c-1.2-0.5-2.1-1.4-2.6-2.6c-1-2.4,0.3-4.5,2.1-6.2c1.7-1.7,2.9-7.9-0.3-8.8
			c-1.4-0.3-2.7-0.2-3.9,0.5c-8.9,3.8-13.2,13.9-9.4,23c3.8,9.1,13.9,13.2,23,9.4C459.2,165.7,463.5,155.4,459.8,146.4z"/>
		<path class="st4" d="M527.8,168.7c-0.9,0-1.6-0.5-1.6-1.4l0,0v-29.5h15.4c0.9,0,1.4,0.7,1.4,1.6c0,0.7-0.7,1.4-1.4,1.4h-12.5v26.6
			C529.2,168,528.5,168.7,527.8,168.7z M539.9,151.2c0-0.9-0.7-1.6-1.6-1.6l0,0h-3.4c-0.9,0-1.4,0.7-1.4,1.6c0,0.7,0.7,1.4,1.4,1.4
			h3.4C539.2,152.8,539.7,152.1,539.9,151.2L539.9,151.2z M488.9,167.4c0-0.9-0.7-1.6-1.6-1.6h-10.8v-26.6c0-0.9-0.7-1.4-1.6-1.4
			c-0.7,0-1.4,0.7-1.4,1.4v29.5h13.7C488.2,168.7,488.9,168,488.9,167.4L488.9,167.4L488.9,167.4z M625.8,167.4
			c0-0.9-0.7-1.6-1.6-1.6h-10.8v-26.6c0-0.9-0.7-1.4-1.6-1.4c-0.7,0-1.4,0.7-1.4,1.4v29.5h13.7C625.1,168.7,625.8,168,625.8,167.4
			L625.8,167.4L625.8,167.4z M592.3,168.4c1-0.2,1.9-0.5,2.9-0.9c1.9-0.9,3.4-1.9,5-3.3c0.7-0.7,1.4-1.4,1.9-2.2
			c0.5-0.9,1-1.7,1.4-2.6s0.7-1.9,0.9-2.9c0.2-0.9-0.3-1.6-1.2-1.7c-0.9-0.2-1.6,0.3-1.7,1.2c-0.3,1.6-1,3.1-1.9,4.5
			c-0.9,1.4-2.1,2.6-3.4,3.4c-0.7,0.5-1.4,0.9-2.1,1.2c-0.7,0.3-1.6,0.5-2.4,0.7c-1.7,0.3-3.4,0.3-5.1,0c-0.9-0.2-1.6-0.3-2.4-0.7
			c-1.6-0.7-2.9-1.6-3.9-2.7c-0.5-0.5-1-1.2-1.6-1.9c-0.9-1.4-1.6-2.9-1.9-4.5c-0.2-0.9-0.9-1.4-1.7-1.2c-0.9,0.2-1.4,0.9-1.2,1.7
			c0.2,1,0.5,2.1,0.9,2.9c0.3,0.9,0.9,1.9,1.4,2.6c0.5,0.9,1.2,1.6,1.9,2.2c0.7,0.7,1.4,1.4,2.2,1.9c0.9,0.5,1.7,1,2.6,1.4
			C586,168.7,589.3,169.1,592.3,168.4z M603.2,151.9c0.9-0.2,1.4-0.9,1.2-1.7c-0.2-1-0.5-2.1-0.9-2.9s-0.9-1.9-1.4-2.6
			c-1.7-2.4-4.1-4.5-6.9-5.7c-2.9-1.2-6-1.6-9.1-0.9c-2.1,0.3-3.9,1.2-5.5,2.4c-0.9,0.5-1.6,1.2-2.2,1.9c-0.5,0.7-0.5,1.6,0.2,2.1
			c0.5,0.5,1.4,0.5,1.9,0c0.5-0.5,1.2-1,1.9-1.6c0.7-0.5,1.4-0.9,2.1-1.2c2.4-1,5-1.2,7.4-0.7c0.9,0.2,1.6,0.3,2.4,0.7
			c0.7,0.3,1.6,0.7,2.1,1.2c0.7,0.5,1.4,1,1.9,1.6c0.5,0.5,1,1.2,1.6,1.9c0.5,0.7,0.9,1.4,1.2,2.1c0.3,0.7,0.5,1.6,0.7,2.4
			c0.2,0.7,0.7,1.2,1.4,1.2C603,151.9,603.2,151.9,603.2,151.9L603.2,151.9z M575.2,151.9c0.9-0.2,1.4-0.9,1.2-1.7
			c-0.2-1-0.5-1.9-0.9-2.9c-0.3-0.9-0.9-1.9-1.4-2.6c-1-1.7-2.6-3.1-4.1-4.1c-1.7-1.2-3.6-1.9-5.5-2.4c-3.1-0.7-6.3-0.3-9.3,0.9
			c-0.9,0.3-1.9,0.9-2.6,1.4c-0.9,0.5-1.6,1.2-2.2,1.9c-0.7,0.7-1.4,1.4-1.9,2.2s-1,1.7-1.4,2.7c-0.3,0.9-0.7,1.9-0.9,2.9
			c-0.2,0.9,0.3,1.6,1.2,1.7c0.9,0.2,1.6-0.3,1.7-1.2c0.2-0.9,0.3-1.6,0.7-2.4c0.7-1.6,1.6-2.9,2.7-3.9c0.5-0.5,1.2-1,1.9-1.6
			s1.4-0.9,2.1-1.2c0.7-0.3,1.6-0.5,2.4-0.7c2.6-0.5,5.1-0.2,7.4,0.7c0.7,0.3,1.6,0.7,2.1,1.2c0.7,0.5,1.4,1,1.9,1.6
			c0.5,0.5,1,1.2,1.6,1.9c0.5,0.7,0.9,1.4,1.2,2.1c0.3,0.7,0.5,1.6,0.7,2.4C574,151.4,574.5,151.9,575.2,151.9
			C575,151.9,575,151.9,575.2,151.9L575.2,151.9z M564.2,168.4c1-0.2,1.9-0.5,2.9-0.9c0.9-0.3,1.9-0.9,2.6-1.4
			c0.9-0.5,1.6-1.2,2.2-1.9c0.5-0.5,0.5-1.6,0-2.1c-0.5-0.5-1.6-0.5-2.1,0l0,0c-0.5,0.5-1.2,1-1.9,1.6c-1.4,0.9-2.9,1.6-4.5,1.9
			c-1.7,0.3-3.4,0.3-5.1,0c-0.9-0.2-1.6-0.3-2.4-0.7c-0.7-0.3-1.6-0.7-2.1-1.2c-1.4-0.9-2.6-2.1-3.4-3.4c-0.5-0.7-0.9-1.4-1.2-2.1
			c-0.3-0.7-0.5-1.6-0.7-2.4c-0.2-0.8-0.9-1.4-1.7-1.2c-0.9,0.2-1.4,0.9-1.2,1.7l0,0c0.2,1,0.5,2.1,0.9,2.9s0.9,1.9,1.4,2.6
			c0.5,0.9,1.2,1.6,1.9,2.2c1.4,1.4,3.1,2.6,5,3.3c1,0.3,1.9,0.7,2.9,1C560.1,168.9,562.2,168.9,564.2,168.4z M510.2,160.2
			c0-0.9-0.7-1.6-1.6-1.6l0,0h-3.4c-0.9,0-1.6,0.5-1.6,1.4c0,0.9,0.5,1.6,1.4,1.6h0.2h3.4C509.5,161.5,510.2,160.8,510.2,160.2
			L510.2,160.2z M495.8,168l10.8-23.9l11.5,23.9c0.3,0.7,1.2,1,1.9,0.7c0.7-0.3,1-1.2,0.7-1.9l-14.2-29.5l-13.4,29.5
			c-0.3,0.7,0,1.6,0.7,1.9l0,0c0.2,0.2,0.3,0.2,0.5,0.2C495.1,168.9,495.6,168.6,495.8,168L495.8,168z"/>
	</g>
</g>
</svg>
