<?xml version="1.0" encoding="utf-8"?>
<!-- Generator: Adobe Illustrator 24.3.0, SVG Export Plug-In . SVG Version: 6.00 Build 0)  -->
<svg version="1.1" id="レイヤー_1" xmlns="http://www.w3.org/2000/svg" xmlns:xlink="http://www.w3.org/1999/xlink" x="0px"
	 y="0px" viewBox="0 0 232.35 124.01" style="enable-background:new 0 0 232.35 124.01;" xml:space="preserve">
<style type="text/css">
	.st0{fill:#FFFFFF;}
	.st1{fill:#717171;}
	.st2{fill:#EB76A1;}
	.st3{fill:#221714;}
	.st4{fill-rule:evenodd;clip-rule:evenodd;fill:#FFFFFF;stroke:#BBA294;stroke-width:0.4475;stroke-miterlimit:10;}
	.st5{fill-rule:evenodd;clip-rule:evenodd;fill:#353637;}
	.st6{fill:#353637;}
	.st7{fill-rule:evenodd;clip-rule:evenodd;fill:#C71936;}
	.st8{fill-rule:evenodd;clip-rule:evenodd;fill:#C0805F;}
	.st9{fill-rule:evenodd;clip-rule:evenodd;fill:#FFFFFF;}
	.st10{fill-rule:evenodd;clip-rule:evenodd;fill:#FFFFFF;stroke:#353637;stroke-width:0.6497;stroke-miterlimit:10;}
	.st11{clip-path:url(#SVGID_1_);}
	.st12{fill-rule:evenodd;clip-rule:evenodd;fill:#FFFFFF;stroke:#BBA294;stroke-width:0.458;stroke-miterlimit:10;}
	.st13{clip-path:url(#SVGID_2_);}
	.st14{fill-rule:evenodd;clip-rule:evenodd;fill:#FFFFFF;stroke:#BBA294;stroke-width:3.4347;stroke-miterlimit:10;}
	.st15{fill-rule:evenodd;clip-rule:evenodd;fill:#FFFFFF;stroke:#BBA294;stroke-width:0.559;stroke-miterlimit:10;}
	.st16{fill:url(#SVGID_3_);}
	.st17{fill:#727171;}
	.st18{fill:url(#SVGID_4_);}
</style>
<g>
	<g>
		<path class="st1" d="M33.72,112.85c0.25-0.48,0.69-0.81,1.43-0.81c1.32,0,2.2,1.14,2.2,3.14v0.93c0,1.83-0.72,3.17-2.2,3.17
			c-0.76,0-1.15-0.27-1.43-0.73v3.28H32.6v-9.69h1.12V112.85z M36.23,116.1v-0.93c0-1.33-0.42-2.13-1.26-2.13
			c-0.77,0-1.25,0.77-1.25,2.04v1.02c0,1.21,0.32,2.16,1.25,2.16C35.85,118.27,36.23,117.3,36.23,116.1z"/>
		<path class="st1" d="M42.98,116.1c0,2.01-0.86,3.17-2.37,3.17c-1.52,0-2.36-1.17-2.36-3.17v-0.93c0-2.01,0.84-3.14,2.36-3.14
			c1.52,0,2.37,1.14,2.37,3.14V116.1z M41.86,116.1v-0.93c0-1.32-0.28-2.13-1.25-2.13s-1.24,0.81-1.24,2.13v0.93
			c0,1.21,0.27,2.16,1.24,2.16S41.86,117.31,41.86,116.1z"/>
		<path class="st1" d="M46.17,119.16h-0.94l-1.68-7.02h1.21l1,4.93l1.26-4.93h1.07l1.28,4.97l0.98-4.97h1.19l-1.66,7.02h-0.95
			l-1.38-5.15L46.17,119.16z"/>
		<path class="st1" d="M56.52,118.11c-0.38,0.83-1.01,1.17-2.01,1.17c-1.61,0-2.43-1.22-2.43-3.17v-0.93c0-1.99,0.8-3.14,2.25-3.14
			c1.53,0,2.26,0.97,2.26,3.14v0.73h-3.38v0.2c0,1.21,0.34,2.16,1.29,2.16c0.67,0,0.91-0.27,1.19-0.73L56.52,118.11z M53.21,114.92
			h2.26c0-1.46-0.34-1.88-1.14-1.88C53.48,113.04,53.21,113.67,53.21,114.92z"/>
		<path class="st1" d="M60.94,113.65c-0.24-0.41-0.49-0.58-0.87-0.58c-0.63,0-1.04,0.53-1.04,1.7v4.39h-1.12v-7.02h1.12v0.69
			c0.21-0.45,0.63-0.8,1.28-0.8c0.66,0,1.15,0.32,1.5,0.95L60.94,113.65z"/>
		<path class="st1" d="M66.58,118.11c-0.38,0.83-1.01,1.17-2.01,1.17c-1.61,0-2.43-1.22-2.43-3.17v-0.93c0-1.99,0.8-3.14,2.25-3.14
			c1.53,0,2.26,0.97,2.26,3.14v0.73h-3.38v0.2c0,1.21,0.34,2.16,1.29,2.16c0.67,0,0.91-0.27,1.19-0.73L66.58,118.11z M63.27,114.92
			h2.26c0-1.46-0.34-1.88-1.14-1.88C63.54,113.04,63.27,113.67,63.27,114.92z"/>
		<path class="st1" d="M71.33,109.48h1.12v9.69h-1.12v-0.62c-0.28,0.46-0.67,0.73-1.43,0.73c-1.49,0-2.2-1.35-2.2-3.17v-0.93
			c0-2.01,0.88-3.14,2.2-3.14c0.74,0,1.18,0.34,1.43,0.81V109.48z M71.33,116.1v-1.02c0-1.26-0.48-2.04-1.25-2.04
			c-0.84,0-1.26,0.8-1.26,2.13v0.93c0,1.19,0.38,2.16,1.26,2.16C71,118.27,71.33,117.31,71.33,116.1z"/>
		<path class="st1" d="M77.84,112.85c0.25-0.48,0.69-0.81,1.43-0.81c1.32,0,2.2,1.14,2.2,3.14v0.93c0,1.83-0.72,3.17-2.2,3.17
			c-0.76,0-1.15-0.27-1.43-0.73v0.62h-1.12v-9.69h1.12V112.85z M80.35,116.1v-0.93c0-1.33-0.42-2.13-1.26-2.13
			c-0.77,0-1.25,0.77-1.25,2.04v1.02c0,1.21,0.32,2.16,1.25,2.16C79.97,118.27,80.35,117.3,80.35,116.1z"/>
		<path class="st1" d="M84.15,119.23l-2.18-7.09h1.21l1.31,4.52l0.21,0.74l1.3-5.26h1.17l-1.94,7.24c-0.46,1.68-0.81,2.44-2.5,2.44
			v-1.09c0.67,0,1.04-0.17,1.36-1.31L84.15,119.23z"/>
	</g>
</g>
<g>
	<path class="st2" d="M9.92,76.12c-5.7-2.88-8.58-6.37-8.58-10.85c0-5.56,4.69-10.25,11.52-10.25c4.62,0,8.84,2.08,11.73,5.9
		l-5.49,5.56c-2.01-2.01-4.02-3.28-6.16-3.28c-1.81,0-3.22,0.74-3.22,2.14c0,1.34,1.27,1.94,3.22,2.95l3.28,1.67
		c5.9,3.01,9.05,6.1,9.05,11.39c0,6.37-5.03,11.12-12.8,11.12c-5.16,0-9.38-2.08-12.46-6.1l5.49-6.03c2.08,2.41,5.09,4.15,7.44,4.15
		c2.21,0,3.95-1.27,3.95-2.88c0-1.54-1.47-2.68-3.95-3.95L9.92,76.12z"/>
	<path class="st2" d="M39.06,55.95h8.91v18.56c0,6.37,2.01,9.72,6.7,9.72c4.76,0,6.7-3.28,6.7-9.31V55.95h8.91v16.42
		c0,6.57-0.4,11.39-4.15,15.54c-2.81,3.15-6.5,4.49-11.46,4.49c-8.58,0-13.87-4.36-15.28-12.66c-0.47-2.88-0.33-4.56-0.33-7.5V55.95
		z"/>
	<path class="st2" d="M91.52,60.44c1.67-3.68,4.56-5.43,7.5-5.43c1.88,0,3.01,0.54,3.89,0.94l-2.75,7.64
		c-0.67-0.33-1.67-0.74-2.61-0.74c-2.55,0-4.56,2.95-4.76,8.17c-0.07,1.94-0.07,4.15-0.07,6.1v14.41h-8.91V55.95h7.71V60.44z"/>
	<path class="st2" d="M110.21,55.95h9.11l8.98,20.97l8.98-20.97h9.04l-15.14,35.58h-5.76L110.21,55.95z"/>
	<path class="st2" d="M186.26,84.63c-3.82,5.43-8.84,7.84-16.35,7.84c-11.32,0-18.63-8.31-18.63-18.76
		c0-9.71,7.04-18.69,18.49-18.69c11.26,0,18.89,8.04,18.89,19.3c0,0.8-0.07,1.21-0.07,2.01h-28.68c0.87,5.29,4.89,8.24,9.98,8.24
		c3.82,0,6.37-1.07,8.84-3.48L186.26,84.63z M179.69,69.29c-1.21-4.15-5.03-6.7-9.78-6.7c-4.42,0-7.84,2.21-9.58,6.7H179.69z"/>
	<path class="st2" d="M194.57,55.95h9.11l9.25,22.31l10.25-22.31h9.18l-22.38,48.58h-9.18l7.3-15.68L194.57,55.95z"/>
</g>
<g>
	<g>
		<path class="st3" d="M88.07,17.3c-3.37,0-6.62,1.65-7.83,2.34v-1.55c0-0.95,0-1.52,0-1.86c0-0.45,0.16-0.59,0.07-0.61
			c0.42-1.83,0.1-3.3-0.64-4.41c-0.97-1.47-2.57-1.73-2.64-1.74l-0.2-0.03L77.39,13c-0.18-0.03-0.35-0.05-0.53-0.05
			c-1.24,0-2.69,0.5-3.46,2.08c-0.26,0.53-0.65,1.01-0.88,1.54c-0.1,0.03-0.19,0.06-0.28,0.09c-1.12,0.33-2.09,0.13-2.09,1.15
			c0,1.31,1.1,2.75,2.76,2.64c0.54,0.41,1.23,0.79,1.85,0.98c0.57,0.18,1.19,0.37,1.7,0.66c-0.01,1.11,0,2.26,0,4.09
			c-1.39,0.75-3.96,2.34-5.63,3.4c-0.47,0.29-0.86,0.54-1.14,0.72l-0.48,0.39l1.62,2.54l0.56-0.28c1.72-0.85,3.48-1.81,5.08-2.8
			c0.02,1.84,0,6.66,0,6.66h3.6c0,0-0.03-11.75,0-12.92c1.06-0.7,2.69-1.5,3.39-1.86c2.07-1.03,3.35-1.17,4.33-1.17
			c1.75,0,2.59,0.67,3.22,1.4c0.91,1.03,1.09,1.92,1.09,3.03c0,2.89-1.24,5.42-4.15,8.46l-0.52,0.55l2.51,2.02l0.53-0.46
			c0.52-0.45,1.6-1.37,2.95-3.19c1.55-2.1,2.58-4.12,2.58-7.17C95.99,20.12,92,17.3,88.07,17.3z"/>
		<g>
			<path class="st3" d="M118.52,20.75c-0.15,0-0.4,0-0.55-0.02c-0.02-0.08-0.04-0.23-0.04-0.49v-2.12c0-0.24,0.02-0.37,0.04-0.43
				c0.08-0.02,0.24-0.04,0.58-0.04h2.08c2.62,0,2.69-1.56,2.69-1.74c0-1.6-1.86-1.77-2.66-1.77h-2.12c-0.12,0-0.41,0-0.6-0.02
				c-0.01-0.1-0.02-0.26-0.02-0.52v-0.86c0-1.46-0.74-2.44-1.83-2.44c-1.08,0-1.8,0.98-1.8,2.44v0.86c0,0.14,0,0.35-0.01,0.51
				c-0.11,0.01-0.29,0.03-0.58,0.03h-1.16c-0.94,0-2.53,0.23-2.53,1.74c0,0.84,0.66,1.74,2.53,1.74h1.16c0.32,0,0.49,0.03,0.57,0.05
				c0.02,0.13,0.02,0.36,0.02,0.45v2.36c0,0.49-0.04,0.65-0.06,0.69c-0.1,0.08-0.52,0.22-0.66,0.27c-3.87,1.28-5.9,5.05-5.9,8.1
				c0,1.92,0.79,3.82,2.17,5.2c1.47,1.47,3.51,2.28,5.75,2.28c0.64,0,2.33,0,2.33-2.51v-9.7c0-0.21,0.01-0.33,0.02-0.39
				c0.11-0.03,0.39-0.08,1.06-0.08c2.2,0,5.91,0.98,5.91,4.65c0,1.66-0.64,2.97-2.35,4.83c-1.24,1.31-1.42,1.64-1.42,2.08
				c0,0.66,0.54,1.15,1.27,1.15c1.9,0,6.23-3.05,6.23-8.06C128.66,25.23,126.01,20.82,118.52,20.75z M111.38,29.45
				c0-2.3,2.12-4,2.96-4.41c0,0.03,0,0.05,0,0.08v7.8c0,0.09,0,0.17-0.01,0.24C113.31,32.99,111.38,31.86,111.38,29.45z"/>
			<path class="st3" d="M129.11,12c-0.87,0-1.9,0.65-1.9,2.48c0,1.56,0.72,3.18,1.93,3.18c1.13,0,1.86-1.26,1.86-3.21
				C131.01,12.17,129.55,12,129.11,12z"/>
			<path class="st3" d="M163.02,28.21l-0.05,0c-0.85,0.03-1.25,0.77-1.75,1.71l-0.01,0.02c-1.24,2.27-2.09,2.49-2.85,2.51
				c-0.09,0-0.18,0.01-0.26,0.01c-0.16,0.01-0.31,0.01-0.46,0.01c-0.62,0-1.22-0.12-3.33-1.72c-3.36-2.54-4.41-3.34-7.11-3.36
				l5.69-12.35l0.04-0.1c0.17-0.41,0.36-0.88,0.34-1.34c-0.04-1.07-0.93-1.71-1.77-1.71c-0.02,0-0.04,0-0.05,0
				c-1.17,0.04-1.83,1.27-2,1.65l-8.82,19.08l-0.01,0.02c-0.15,0.34-0.39,0.99-0.37,1.54c0.03,0.95,0.67,1.59,1.58,1.59
				c0.02,0,0.05,0,0.07,0c1.26-0.04,1.88-1.25,2.07-1.63l1.55-2.9l0.01-0.03c0.1-0.2,0.54-0.34,1.12-0.36
				c1.79-0.07,3.22,1.06,4.9,2.37c2.87,2.22,4.4,2.9,6.55,2.9c0.14,0,0.27,0,0.42-0.01c4.83-0.17,5.84-5.71,5.81-6.49
				C164.27,28.25,163.15,28.21,163.02,28.21z"/>
		</g>
	</g>
	<g>
		<path class="st2" d="M198.01,24.31c-0.03-0.27-0.07-0.49-0.1-0.65c-0.15-0.76-0.39-1.13-0.72-1.13c-0.2,0-0.39,0.22-0.57,0.65
			c-0.04,0.09-0.14,0.39-0.3,0.91l-0.23,0.73c-0.01,0.02-0.07,0.19-0.19,0.51l-0.09,0.24l-0.12,0.3c0.27-0.41,0.72-0.62,1.37-0.62
			c0.62,0,1.01,0.18,1.15,0.54l-0.09-0.59C198.1,25.05,198.06,24.75,198.01,24.31z"/>
		<path class="st2" d="M200.66,10.13c-14.58,0-26.39,5.82-26.39,12.99c0,7.18,11.82,12.99,26.39,12.99
			c14.58,0,26.39-5.82,26.39-12.99C227.05,15.95,215.23,10.13,200.66,10.13z M191.57,22.29c-0.18,1.62-0.56,3.02-1.12,4.2
			c-0.64,1.33-1.36,1.99-2.17,1.99c-0.34,0-0.67-0.19-1-0.57c-0.46-0.52-0.77-1.22-0.94-2.09c-0.57,1.77-1.21,2.65-1.93,2.65
			c-0.37,0-0.71-0.14-1.02-0.43c-0.29-0.26-0.49-0.59-0.62-0.97c-0.13-0.39-0.21-0.67-0.24-0.83c-0.05-0.27-0.1-0.67-0.14-1.2
			c-0.04-0.49-0.02-1.06,0.05-1.69c0.19-1.69,0.63-3.05,1.3-4.06c0.33-0.5,0.74-0.75,1.22-0.75c0.19,0,0.33,0.07,0.42,0.22
			c0.09,0.14,0.13,0.31,0.1,0.51l-0.11,0.7l-0.1,0.54c-0.03,0.33-0.04,0.65-0.04,0.97c0,0.63,0.06,1.22,0.17,1.77
			c0.07,0.32,0.14,0.51,0.22,0.55c0.12,0,0.24-0.14,0.35-0.41l0.51-1.31c0.1-0.28,0.27-0.7,0.49-1.25c0.09-0.22,0.28-0.33,0.57-0.33
			c0.3,0,0.48,0.14,0.53,0.41l0.4,1.99c0.12,0.63,0.24,0.94,0.34,0.94c0.21-0.09,0.44-0.6,0.68-1.53c0.04-0.14,0.08-0.35,0.14-0.64
			c0.1-0.54,0.16-1.12,0.16-1.73c0-0.13,0-0.26-0.01-0.39c0.08-0.65,0.37-0.97,0.86-0.97c0.47,0,0.76,0.26,0.86,0.77
			c0.02,0.06,0.04,0.15,0.07,0.28C191.7,20.25,191.7,21.14,191.57,22.29z M201.03,26.7c0,0.03-0.01,0.14-0.03,0.31
			c-0.1,0.96-0.61,1.44-1.51,1.44c-0.26,0-0.46-0.08-0.61-0.23c-0.15-0.12-0.25-0.3-0.32-0.54l-0.07-0.37
			c-0.04-0.18-0.06-0.29-0.07-0.32c0-0.26-0.02-0.53-0.08-0.79c-0.02,0.29-0.2,0.51-0.53,0.68c-0.28,0.14-0.58,0.21-0.91,0.21
			c-0.4,0-0.71-0.08-0.92-0.23c-0.17-0.1-0.28-0.23-0.31-0.4c-0.02-0.08-0.02-0.14-0.01-0.18c-0.3,1.46-0.8,2.19-1.48,2.19
			c-0.2,0-0.34-0.03-0.42-0.1c-0.08-0.07-0.14-0.2-0.18-0.4c-0.02-0.12-0.04-0.26-0.04-0.41c0-0.06,0-0.13,0.01-0.2l0.16-0.73
			l0.09-0.38c0.23-0.93,0.52-1.93,0.87-2.99c1.02-3.08,2.16-4.63,3.41-4.63c0.58,0,1.07,0.3,1.47,0.91
			c0.44,0.67,0.74,1.41,0.91,2.21l0.3,1.45c0.05,0.21,0.1,0.56,0.15,1.04c0.02,0.18,0.06,0.53,0.11,1.04
			C201.04,25.83,201.05,26.29,201.03,26.7z M210.95,22.74c0,0.03-0.03,0.26-0.07,0.68c-0.2,2.03-0.89,3.46-2.08,4.29
			c-0.71,0.49-1.4,0.73-2.07,0.73c-0.72,0-1.35-0.2-1.87-0.59c-0.57-0.43-0.92-0.99-1.05-1.69l-0.04-0.21
			c-0.14-0.78-0.18-1.45-0.12-2.03c0.13-1.21,0.58-2.37,1.34-3.46c0.87-1.24,1.86-1.87,2.96-1.87c0.4,0,0.79,0.09,1.16,0.26
			c0.25,0.12,0.4,0.29,0.45,0.53c0.01,0.06,0.01,0.14,0,0.26c-0.04,0.42-0.27,0.68-0.69,0.78c-0.08,0-0.26-0.05-0.52-0.14
			c-0.26-0.1-0.46-0.14-0.6-0.14c-0.71,0-1.28,0.48-1.7,1.43c-0.2,0.46-0.32,0.85-0.36,1.16c-0.03,0.26,0,0.65,0.11,1.17
			c0.12,0.35,0.29,0.61,0.49,0.77c0.2,0.15,0.48,0.25,0.85,0.3c0.35,0,0.69-0.12,1.01-0.35c0.56-0.42,0.89-1.06,0.99-1.94
			c0.01-0.1,0.02-0.27,0.03-0.5l-0.08-0.88c0.03-0.27,0.12-0.5,0.27-0.69c0.17-0.18,0.36-0.26,0.54-0.26c0.46,0,0.79,0.49,1,1.47
			C210.95,22.09,210.97,22.4,210.95,22.74z M219.74,21.67l-0.33,2.74c-0.07,0.57-0.2,1.29-0.4,2.15c-0.29,1.26-0.7,1.89-1.22,1.89
			c-0.6,0-1.11-0.54-1.52-1.63c-0.19-0.49-0.4-1.29-0.62-2.39c-0.12-0.6-0.28-0.91-0.47-0.95c-0.08,0-0.15,0.02-0.21,0.05l-0.1,0.15
			l-0.07,0.28l-0.08,0.46c-0.02,0.1-0.05,0.29-0.09,0.57c0,0.12-0.01,0.54-0.03,1.25c-0.01,0.58-0.03,1.04-0.06,1.36
			c-0.06,0.58-0.31,0.87-0.77,0.87c-0.3,0-0.5-0.25-0.6-0.74c-0.07-0.36-0.1-0.75-0.08-1.15c0.07-1.36,0.16-2.46,0.25-3.29
			c0.16-1.47,0.37-2.57,0.62-3.29l0.21-0.6l0.2-0.45c0.17-0.24,0.41-0.35,0.71-0.35c0.3,0,0.61,0.18,0.94,0.55
			c0.19,0.21,0.34,0.4,0.47,0.59c0.11,0.17,0.26,0.43,0.44,0.78c0.51,0.97,0.87,1.99,1.09,3.04c0.08-0.28,0.14-0.69,0.16-1.22
			c0-0.23,0.02-0.65,0.04-1.26l0.08-1.36c0.04-0.77,0.31-1.16,0.82-1.16c0.27,0,0.45,0.21,0.54,0.63c0.11,0.55,0.17,0.99,0.16,1.33
			c-0.01,0.12-0.02,0.39-0.04,0.79C219.76,21.38,219.76,21.5,219.74,21.67z"/>
	</g>
</g>
<g>
	<g>
		<g>
			<g>
				<path class="st15" d="M33.5,8.22c0,0-6.53,0.27-7.48,0.45c-0.94,0.18-0.94,0.18-0.94,0.18s-1.62-2.23-2.73-2.41
					c-1.11-0.18-2.97-0.45-4.87,0.8c-1.88,1.26-3.76,6.17,0.09,8.32c-0.34,0.18-2.34,2-2.64,3.24c-1.92,7.76,2.9,14.01,3.5,16.33
					c0.6,2.32,0.86,3.12,2.56,3.66c1.7,0.53,1.86,0.14,2.56-0.27c1.37-0.81,0.77-2.06,0.68-2.42c-0.08-0.36-1.11-0.98-1.11-0.98
					l-1.18-0.63c0,0-0.5-3.53,0.33-4.38c0.3-0.31,1.36-2.19,1.36-2.19s3.44,6.96,11.78,6.06c0,0,1.37,8.64,1.89,9.36
					c0.51,0.71,1.59,1.05,2.99,1.34c1.71,0.36,2.22-1.07,1.79-1.87c-0.42-0.82-1.88-1.62-1.88-1.62l-0.09-7.96
					c0,0,4.87,0.18,6.49-2.41c0,0,0.09,5.18,0.17,5.45c0.09,0.27,1.37,1.87,2.14,2.15c0.77,0.27,2.13,0.04,2.57-0.81
					c0.68-1.34,0-1.87,0-1.87l-1.36-0.72c0,0,0.77-5.36,0.77-6.16c0-0.81,0.86-7.42,0.25-8.23C50.54,19.83,33.5,8.22,33.5,8.22z"/>
				<path class="st5" d="M52.4,21.16c0.45,2.09-3.51,4.81-8.86,6.09c-5.34,1.27-10.04,0.61-10.5-1.48
					c-0.45-2.09,3.51-4.82,8.85-6.09C47.23,18.41,51.94,19.07,52.4,21.16z"/>
				<path class="st5" d="M29.06,8.05c0.13-0.1,0.31-3.32,6.59-5.74C45.3-1.4,48.94,2.61,49.51,3.25c0.57,0.63,2.26,3.5,2.14,5.28
					c-0.11,1.79,1.13,4.12,1.13,4.12s2.97,4.35-1.49,9.2c-4.46,4.84-12.75,5.28-14.17,4.97c-1.42-0.3-5.79-0.45-7.53-1.93
					c-2.71-2.3-1.56-7.57-1.56-7.57s-1.01-0.85-1.09-1.78C26.86,14.59,27.12,9.52,29.06,8.05z"/>
				<path class="st15" d="M27.93,7.54c0.14-0.11,0.15-3.22,6.5-5.66c9.76-3.75,14.86,0.18,15.43,0.82c0.58,0.64,2.3,3.53,2.18,5.34
					c-0.12,1.81,1.14,4.16,1.14,4.16s4.57,4.84-1.51,9.29c-5.32,3.9-12.88,5.34-14.31,5.03c-1.42-0.31-5.34-0.76-7.11-2.26
					c-2.73-2.32-2.07-7.34-2.07-7.34s-1.01-0.85-1.1-1.8C27,14.17,25.97,9.03,27.93,7.54z"/>
				<g>
					<path class="st6" d="M44.22,10.21c-0.16,0-0.31-0.11-0.36-0.28L43.8,9.71c-0.29-1.15-0.7-2.72-0.03-3.86
						c0.4-0.68,1.04-1.09,1.77-1.12c0.82-0.04,1.64,0.38,2.17,1.12c0.12,0.17,0.09,0.42-0.08,0.55c-0.16,0.13-0.39,0.09-0.52-0.08
						c-0.38-0.53-0.97-0.85-1.54-0.81c-0.49,0.02-0.91,0.29-1.18,0.75c-0.5,0.86-0.14,2.24,0.12,3.25l0.06,0.22
						c0.05,0.21-0.06,0.42-0.26,0.48C44.28,10.21,44.25,10.21,44.22,10.21z"/>
					<path class="st6" d="M42.13,10.17c-0.16,0-0.32-0.12-0.36-0.29c-0.06-0.25-0.6-2.51-0.64-2.74c-0.04-0.21,0.09-0.41,0.29-0.45
						c0.2-0.04,0.39,0.09,0.44,0.3c0.03,0.15,0.4,1.7,0.63,2.7c0.05,0.21-0.07,0.42-0.27,0.47C42.19,10.16,42.16,10.17,42.13,10.17z
						"/>
					<path class="st6" d="M40.22,12.96c-0.15,0-0.28-0.09-0.35-0.24c-0.07-0.18-0.66-1.73-0.7-2.39c-0.09-1.27-0.62-2.17-1.5-2.55
						c-0.96-0.41-2.17-0.1-3.17,0.81c-0.28,0.26-0.62,0.9-0.74,1.36c-0.05,0.21-0.25,0.34-0.45,0.28c-0.19-0.05-0.31-0.26-0.27-0.47
						c0.15-0.63,0.57-1.4,0.97-1.75c1.22-1.11,2.73-1.48,3.95-0.95c1.13,0.49,1.85,1.66,1.95,3.22c0.03,0.46,0.48,1.72,0.65,2.16
						c0.08,0.2-0.02,0.43-0.2,0.5C40.31,12.96,40.26,12.96,40.22,12.96z"/>
					<path class="st6" d="M36.01,4.86c-0.07,0-0.14-0.02-0.21-0.07c-0.17-0.12-0.21-0.36-0.1-0.54c0.05-0.08,1.32-1.94,4.7-0.31
						c0.55,0.27,0.72,0.04,0.87-0.16c0.03-0.04,0.07-0.13,0.12-0.24c0.2-0.44,0.53-1.18,1.16-1.32c0.67-0.15,1.54-0.19,1.8,0.21
						c0.11,0.18,0.07,0.42-0.1,0.55c-0.15,0.1-0.34,0.07-0.46-0.04c-0.1-0.04-0.46-0.1-1.07,0.05c-0.28,0.07-0.51,0.59-0.65,0.89
						c-0.08,0.17-0.14,0.3-0.21,0.4c-0.17,0.22-0.69,0.9-1.77,0.38c-2.77-1.35-3.74-0.01-3.77,0.04C36.25,4.8,36.13,4.86,36.01,4.86
						z"/>
				</g>
				<path class="st6" d="M21.31,15.02c-1.13,0-1.9-0.53-2.37-1c-0.7-0.71-1.13-1.76-1.1-2.67c0.07-1.91,1.7-2.6,2.55-2.7
					c0.12-0.01,0.23,0.05,0.3,0.15c0.07,0.1,0.07,0.24,0.01,0.35c-0.21,0.38-0.55,1.3-0.27,1.66c0.52,0.67,1.38-0.02,1.42-0.05
					c0.15-0.11,0.35-0.08,0.45,0.06c0.11,0.14,0.08,0.36-0.06,0.47c-0.48,0.39-1.57,0.89-2.31-0.05c-0.39-0.5-0.26-1.23-0.07-1.76
					c-0.57,0.22-1.34,0.73-1.39,1.9c-0.03,0.6,0.25,1.5,0.91,2.17c0.41,0.41,1.1,0.88,2.16,0.8c1.43-0.1,2.56-0.64,3.14-1.52
					c0.53-0.8,0.64-1.83,0.31-3.07c-0.05-0.18,0.05-0.36,0.22-0.41c0.17-0.05,0.35,0.05,0.4,0.23c0.38,1.42,0.24,2.68-0.41,3.63
					c-0.7,1.04-1.98,1.68-3.62,1.8C21.5,15.02,21.4,15.02,21.31,15.02z"/>
				<g>
					<g>
						<path class="st7" d="M44.65,24.93c0,0-0.01,0-0.01,0c-0.02-0.02-0.05-0.03-0.07-0.06c-0.01,0.01-0.03,0.01-0.03,0.01
							c-0.02-0.01-0.03-0.03-0.05-0.04c-0.01,0-0.02,0-0.03,0.01c-0.01-0.01-0.02-0.02-0.03-0.03c-0.02,0-0.03,0.01-0.03,0.01
							c-0.02-0.02-0.04-0.03-0.05-0.05c-0.01,0.01-0.02,0.01-0.04,0.01c-0.01-0.01-0.02-0.02-0.02-0.03c-0.02,0-0.04,0-0.06,0
							c0-0.01,0-0.01-0.01-0.02c-0.01,0.01-0.02,0.01-0.03,0.01c-0.01-0.01-0.02-0.02-0.03-0.03c-0.02,0-0.04,0-0.06,0
							c0-0.01,0-0.02,0-0.02c-0.03,0-0.05,0-0.07,0c-0.01-0.01-0.02-0.02-0.03-0.03c-0.02,0-0.05,0-0.07,0
							c-0.01-0.01-0.02-0.02-0.02-0.03c-0.03,0-0.05,0-0.08,0c-0.01-0.01-0.02-0.02-0.03-0.03c-0.01,0-0.02,0-0.03,0.01
							c0,0-0.01-0.01-0.01-0.01c-0.01,0-0.02,0-0.03,0.01c-0.01-0.01-0.02-0.02-0.03-0.03c-0.01,0-0.03,0.01-0.04,0.01l-0.04-0.02
							c-0.01,0-0.02,0-0.03,0.01c0,0,0-0.01,0-0.02c-0.01,0.01-0.03,0.01-0.04,0.01c-0.01-0.01-0.02-0.02-0.03-0.03
							c-0.01,0-0.02,0.01-0.03,0.01l-0.04-0.03c-0.02,0-0.03,0.01-0.04,0.01c0-0.01,0-0.01,0-0.02c-0.01,0-0.02,0.01-0.03,0.02
							c0-0.01,0-0.02,0-0.02c-0.01,0-0.02,0.01-0.03,0.01c0,0,0-0.01,0-0.02c-0.01,0-0.03,0.01-0.03,0.01c0-0.01,0-0.01,0-0.02
							c-0.01,0.01-0.03,0.01-0.04,0.01c0-0.01,0-0.02,0-0.02c-0.01,0-0.03,0-0.03,0.01c0-0.01-0.01-0.01-0.01-0.02
							c-0.01,0-0.02,0.01-0.03,0.01c0,0,0-0.01-0.01-0.01c-0.01,0-0.02,0-0.03,0.01c0-0.01,0-0.01,0-0.02
							c-0.01,0-0.04,0.01-0.05,0.02c-0.01-0.01-0.02-0.02-0.03-0.03c-0.01,0-0.03,0.01-0.05,0.01c0,0,0-0.01,0-0.01
							c-0.03,0-0.05,0-0.07,0c0-0.01,0-0.01,0-0.02c-0.01,0-0.04,0.01-0.05,0.01c0,0,0-0.01,0-0.02c-0.03,0-0.05,0-0.08,0
							c0,0,0-0.01,0-0.01c-0.02,0-0.04,0.01-0.05,0.01c0,0,0-0.01,0-0.02c-0.02,0-0.02,0.01-0.03,0.01c0-0.01-0.01-0.01-0.01-0.02
							c-0.03,0-0.06,0-0.09,0.01c0-0.01,0-0.01,0-0.02c-0.04,0.01-0.07,0.01-0.11,0.01c0,0-0.01-0.01-0.01-0.02
							c-0.01,0-0.02,0.01-0.03,0.01c0-0.01,0-0.02-0.01-0.02c-0.02,0-0.04,0.01-0.07,0.02c0-0.01,0-0.01,0-0.02
							c-0.02,0-0.02,0.01-0.03,0.01c0-0.01,0-0.01-0.01-0.02c-0.02,0-0.03,0.01-0.06,0.02c0-0.01,0-0.01-0.01-0.02
							c-0.02,0-0.04,0.01-0.05,0.02c0-0.01,0-0.02,0-0.02c-0.02,0-0.04,0.01-0.05,0.02c0-0.01-0.01-0.02-0.01-0.02
							c-0.02,0-0.05,0.01-0.07,0.02c0-0.01,0-0.01,0-0.02c-0.02,0-0.04,0.01-0.05,0.02c0-0.01,0-0.02-0.01-0.02
							c-0.02,0.01-0.04,0.01-0.07,0.02c0,0,0-0.01,0-0.02c-0.03,0.01-0.05,0.02-0.08,0.03c0,0,0-0.01,0-0.02
							c-0.02,0.01-0.05,0.01-0.05,0.02c0,0,0-0.01,0-0.02c-0.04,0.01-0.08,0.03-0.12,0.04c0-0.01,0-0.01-0.01-0.02
							c-0.02,0-0.05,0.01-0.07,0.02c0-0.01,0-0.01,0-0.02c-0.05,0.02-0.09,0.03-0.14,0.04c0,0,0-0.01-0.01-0.01
							c-0.08,0.02-0.17,0.05-0.26,0.08c0,0,0-0.01,0-0.02c-0.04,0.02-0.08,0.02-0.12,0.04c-0.05,0.08-0.1,0.17-0.15,0.26
							c0.01,0.01,0.01,0.02,0.01,0.04c-0.02,0.02-0.04,0.05-0.06,0.07c0,0.01,0,0.02,0.01,0.04c-0.01,0-0.02,0.01-0.02,0.03
							c0,0.01,0,0.02,0.01,0.03c-0.01,0.01-0.02,0.02-0.03,0.03c0,0.01,0,0.02,0.01,0.03c-0.01,0.01-0.02,0.02-0.03,0.03
							c0,0.01,0.01,0.03,0.01,0.04c-0.01,0.01-0.02,0.02-0.03,0.03c0,0.02,0,0.05,0.01,0.07c-0.01,0.01-0.02,0.02-0.03,0.03
							c0,0.03,0,0.06,0,0.09c0,0.01-0.02,0.02-0.02,0.03c0,0.01,0.01,0.02,0.01,0.04c-0.01,0-0.01,0-0.02,0
							c0.01,0.02,0.01,0.04,0.02,0.05c-0.01,0-0.01,0-0.02,0c0,0.01,0.01,0.02,0.01,0.03c-0.01,0-0.01,0-0.02,0
							c0,0.03,0,0.05,0,0.08c0,0-0.01,0.01-0.01,0.01c0,0.03,0.01,0.08,0.01,0.11c0,0,0,0-0.01,0c0.01,0.03,0.01,0.04,0.01,0.06
							c0,0-0.01,0-0.01,0c0.01,0.02,0.01,0.04,0.01,0.06c0,0-0.01,0-0.02,0c0,0.02,0.01,0.04,0.02,0.06c0,0-0.01,0-0.02,0
							c0.01,0.03,0.02,0.05,0.02,0.07c-0.02,0.4,0.13,1.23,0.39,1.64c0.01,0.05,0.02,0.1,0.04,0.14c0,0,0.01,0,0.01,0
							c0.02,0.05,0.05,0.1,0.06,0.15c0.01,0,0.01,0,0.02-0.01c0.01,0.03,0.01,0.06,0.02,0.07c0.01,0,0.02,0,0.02,0
							c0.01,0.02,0.02,0.05,0.02,0.07c0,0,0.01,0,0.02-0.01c0,0.03,0.02,0.05,0.02,0.08c0,0,0.01,0,0.01,0
							c0,0.02,0.01,0.03,0.02,0.06c0.01,0,0.01,0,0.01-0.01c0.01,0.02,0.01,0.04,0.01,0.05c0.01,0,0.02-0.01,0.02-0.01
							c0,0.02,0.01,0.04,0.02,0.05c0,0,0,0,0.01,0c0.01,0.03,0.04,0.07,0.05,0.1c0,0,0.01,0,0.01,0c0.01,0.01,0.01,0.03,0.02,0.03
							c0,0,0,0,0.01,0c0,0.02,0.01,0.04,0.02,0.05c0,0,0.01,0,0.01,0c0.01,0.02,0.02,0.05,0.04,0.07l0.01,0
							c0.01,0.02,0.01,0.04,0.02,0.06c0,0,0.01-0.01,0.01-0.01c0.03,0.03,0.05,0.07,0.07,0.1c0,0,0.01,0,0.01,0
							c0.02,0.02,0.03,0.04,0.04,0.07c0.02,0,0.03,0,0.04,0.01c0,0.01,0,0.02,0.01,0.03c0.01,0,0.02,0,0.02-0.01
							c0,0.02,0,0.02,0,0.04l0.05,0.02c0,0.01,0.01,0.02,0.01,0.04c0.02,0,0.03,0,0.04,0.01c0,0.01,0,0.02,0.01,0.04
							c0.02,0.01,0.04,0.01,0.06,0.02c0,0.01,0.01,0.03,0.01,0.04c0.02,0,0.02,0.01,0.04,0.01c0,0.01,0,0.02,0.01,0.04
							c0.03,0.01,0.06,0.02,0.08,0.03c0,0.01,0.01,0.03,0.01,0.04c0.01,0,0.03,0.01,0.04,0.01c0.05,0.03,0.09,0.06,0.14,0.09
							c0.36-0.12,0.63-0.25,0.86-0.43c0.03-0.01,0.05-0.02,0.08-0.02c0-0.01,0-0.01,0-0.02c0.01-0.01,0.03-0.01,0.03-0.01
							c0-0.01,0-0.01,0-0.02c0.04-0.01,0.07-0.04,0.1-0.05c0-0.01,0-0.01,0-0.02c0.02,0,0.02-0.01,0.04-0.01c0,0,0-0.01,0-0.01
							c0.02,0,0.05-0.01,0.07-0.02c0,0,0-0.01-0.01-0.02c0.02,0,0.03,0,0.04-0.01c0,0,0-0.01,0-0.01c0.03-0.02,0.06-0.04,0.09-0.05
							c0,0,0-0.01-0.01-0.01c0.01,0,0.03-0.01,0.04-0.01c0,0,0-0.01-0.01-0.02c0.02,0,0.04-0.01,0.05-0.01c0-0.01,0-0.01,0-0.02
							c0.02,0,0.03,0,0.04-0.01c0-0.01-0.01-0.01-0.01-0.01c0.02-0.01,0.04-0.01,0.06-0.02c0-0.01,0-0.01,0-0.02
							c0.02-0.01,0.04-0.02,0.07-0.04c0,0-0.01-0.01-0.01-0.02c0.02,0,0.04,0,0.05-0.01c0-0.01,0-0.01,0-0.02
							c0.02-0.01,0.04-0.03,0.06-0.04c0-0.01,0-0.01,0-0.02c0.02-0.01,0.04-0.01,0.05-0.02c0-0.01,0-0.03,0-0.04
							c0.02-0.01,0.06-0.03,0.09-0.05c-0.01,0-0.01-0.01-0.01-0.02c0.01,0,0.03,0,0.04-0.01c0,0,0-0.01,0-0.01
							c0.01-0.01,0.02-0.01,0.03-0.01c0-0.01-0.01-0.02-0.01-0.02c0.01-0.01,0.03-0.01,0.04-0.01c0-0.01-0.01-0.01-0.01-0.02
							c0.01,0,0.02,0,0.04-0.01c0-0.01,0-0.01-0.01-0.02c0.01,0,0.03-0.01,0.04-0.01c0-0.01,0-0.01-0.01-0.02
							c0.01,0,0.02,0,0.03-0.01c-0.01,0-0.01-0.01-0.01-0.02c0.03-0.02,0.06-0.04,0.09-0.07c0-0.01,0-0.03,0.01-0.04
							c0.01-0.01,0.02-0.01,0.04-0.01l0.02-0.04c0.01-0.01,0.02-0.01,0.04-0.01c0-0.01,0-0.01,0-0.02c0.01,0,0.02-0.01,0.03-0.01
							c0,0,0-0.01-0.01-0.02c0.01,0,0.03-0.01,0.03-0.02c0,0,0-0.02,0.01-0.03c0.03-0.02,0.06-0.05,0.09-0.07c0-0.01,0-0.03,0-0.04
							c0.01,0,0.03,0,0.04-0.01c0,0,0-0.01-0.01-0.02c0.01,0,0.02,0,0.04-0.01c0-0.02,0-0.03,0-0.04c0.01-0.01,0.03-0.02,0.04-0.03
							c0-0.01,0-0.01,0-0.02c0.02-0.01,0.05-0.03,0.06-0.04c0-0.02,0-0.03,0.01-0.04c0.02-0.01,0.03-0.02,0.05-0.03
							c0,0,0-0.01,0-0.02c0.02-0.01,0.04-0.03,0.06-0.04c0-0.01,0.01-0.03,0.01-0.04c0.01,0,0.02,0,0.03-0.01
							c0.01-0.02,0.02-0.04,0.02-0.07c0.01,0,0.03,0,0.04-0.01c0-0.01,0-0.02,0-0.04c0.01,0,0.03-0.01,0.04-0.01
							c0.01-0.02,0.01-0.04,0.02-0.06c0.01-0.01,0.02-0.01,0.03-0.01c0.01-0.01,0.01-0.03,0.01-0.04c0.01,0,0.02,0,0.03-0.01
							c0-0.02,0-0.03,0-0.04c0.02-0.01,0.03-0.02,0.05-0.03c0-0.01,0-0.01,0-0.02c0.02-0.03,0.02-0.06,0.07-0.08
							c-0.05-0.04-0.08-0.08-0.12-0.12C44.98,26.04,44.82,25.49,44.65,24.93z M50.52,25.24c0.01,0,0.02,0,0.03-0.01
							c-0.01-0.03-0.02-0.06-0.03-0.09c0.01,0,0.02,0,0.02,0c-0.01-0.01-0.01-0.03-0.01-0.04c0,0,0.01,0,0.02,0
							c-0.01-0.03-0.03-0.07-0.03-0.1c0,0,0.01,0,0.02,0c-0.01-0.03-0.02-0.05-0.03-0.08c0.01,0,0.01,0,0.02,0
							c-0.01-0.03-0.01-0.06-0.02-0.09c0,0,0.01-0.01,0.02-0.01c-0.02-0.08-0.04-0.17-0.06-0.25c0,0,0.01,0,0.02,0
							c-0.02-0.03-0.03-0.07-0.05-0.1c0,0,0.01,0,0.02,0c-0.02-0.06-0.03-0.12-0.05-0.18c0-0.06-0.04-0.28-0.08-0.35
							c0,0-0.01,0-0.02,0c-0.02-0.06-0.04-0.13-0.06-0.2c0,0-0.01,0-0.02,0c-0.01-0.02,0.02-0.03,0-0.07c0,0-0.01,0-0.01,0.01
							c-0.03-0.08-0.07-0.17-0.1-0.25c0,0-0.01,0-0.01,0c0-0.03-0.01-0.06-0.03-0.08c-0.01,0-0.01,0-0.01,0
							c-0.01-0.02-0.02-0.05-0.02-0.07c0,0-0.01,0-0.02,0c-0.01-0.03-0.02-0.06-0.02-0.09c-0.01,0-0.01,0-0.02,0
							c-0.02-0.04-0.04-0.08-0.05-0.12c0,0-0.02,0-0.02,0.01c0-0.02-0.01-0.04-0.01-0.06c0,0-0.01,0-0.03,0c0-0.02,0-0.03-0.01-0.05
							c-0.01,0-0.01,0-0.02,0c-0.01-0.02-0.02-0.04-0.02-0.07c-0.01,0-0.01,0-0.02,0.01c0-0.01,0-0.02,0-0.04
							c-0.01,0-0.01,0-0.02,0.01c-0.01-0.01-0.01-0.04-0.01-0.05c-0.01,0-0.02,0-0.02,0c-0.01-0.02-0.02-0.05-0.04-0.07
							c-0.01,0-0.01,0-0.02,0c0-0.01,0-0.03-0.01-0.05c0,0-0.01,0-0.01,0c-0.02-0.03-0.05-0.06-0.07-0.09c0,0-0.01,0-0.02,0
							c0-0.01,0-0.03-0.01-0.04c-0.01,0-0.01,0-0.02,0.01c-0.02-0.03-0.04-0.06-0.07-0.09c-0.01-0.01-0.02-0.01-0.04-0.01
							c-0.01-0.02-0.03-0.04-0.04-0.06c-0.01,0-0.02,0-0.04,0c0-0.01,0-0.03-0.01-0.04c-0.01,0-0.03-0.01-0.06-0.02
							c-0.01-0.01-0.01-0.02-0.01-0.03c-0.01,0-0.03-0.01-0.04-0.01c0-0.01,0-0.02-0.01-0.04c-0.03,0-0.06-0.02-0.08-0.03
							c0-0.01,0-0.02-0.01-0.04c-0.01,0-0.02,0-0.04,0c-0.06-0.03-0.11-0.07-0.16-0.11c-0.02,0-0.03,0.01-0.03,0.01
							c-0.07-0.03-0.19,0.06-0.26,0.08c-0.19,0.06-0.35,0.16-0.48,0.25c-0.05,0.02-0.1,0.04-0.14,0.07c0,0,0,0.01,0.01,0.01
							c-0.01,0-0.03,0.01-0.04,0.01c0,0,0.01,0.01,0.01,0.02c-0.03,0-0.06,0.02-0.08,0.02c0,0,0,0.01,0,0.02c-0.01,0-0.02,0-0.04,0
							c0,0.01,0,0.01,0,0.02c-0.05,0.03-0.1,0.06-0.16,0.09c0,0,0,0.01,0,0.02c-0.01,0.01-0.03,0.01-0.05,0.01
							c0,0,0.01,0.01,0.01,0.02c-0.01,0-0.02,0-0.04,0.01c0,0,0,0.01,0.01,0.01c-0.03,0.02-0.07,0.03-0.09,0.06c0,0,0,0.01,0,0.01
							c-0.01,0-0.02,0.01-0.03,0.01c0,0.01,0,0.01,0,0.02c-0.02,0.01-0.04,0.01-0.05,0.02c0,0,0,0.01,0.01,0.02
							c-0.01,0-0.02,0-0.03,0.01c0,0,0,0.01,0,0.02c-0.03,0.01-0.06,0.03-0.1,0.05c0,0.01,0,0.01,0.01,0.02
							c-0.01,0-0.03,0.01-0.04,0.01c0,0,0,0.01,0,0.02c-0.01,0.01-0.02,0.01-0.03,0.01c0,0.01,0,0.02,0,0.02c-0.01,0-0.02,0-0.03,0
							c0,0,0,0.01,0.01,0.02c-0.02,0-0.04,0.01-0.06,0.01c0,0,0.01,0.01,0.01,0.02c-0.03,0.02-0.06,0.05-0.09,0.07
							c0,0,0.01,0.01,0.01,0.01c-0.01,0-0.03,0.01-0.04,0.01c0,0.01,0,0.01,0,0.02c-0.01,0-0.03,0-0.03,0c0,0,0,0.01,0,0.02
							c-0.02,0-0.03,0.01-0.05,0.01c0,0.02,0,0.03-0.01,0.04c-0.01,0.01-0.03,0.01-0.05,0.02c0,0.01,0,0.02-0.01,0.03
							c-0.02,0.02-0.04,0.03-0.06,0.04c0,0,0,0.01,0.01,0.02c-0.01,0.01-0.02,0.01-0.04,0.01c0,0.01,0.01,0.01,0.01,0.02
							c-0.01,0-0.03,0-0.04,0.01c0,0,0,0.01,0,0.01c0,0-0.02,0.01-0.03,0.01l-0.03,0.04c-0.01,0-0.03,0.01-0.03,0.01
							c0,0.02,0,0.03,0,0.04c-0.03,0.02-0.06,0.04-0.1,0.07c0,0.01-0.01,0.03-0.01,0.05c-0.02,0.01-0.03,0.02-0.06,0.04
							c0,0.01,0,0.02,0,0.04c-0.01,0-0.02,0-0.04,0.01c0.01,0,0.01,0.01,0.01,0.02c-0.01,0-0.02,0.01-0.04,0.01
							c0,0.01,0,0.03-0.01,0.04c-0.01,0.01-0.02,0.02-0.04,0.04c0,0,0,0.01,0,0.01c-0.02,0.01-0.04,0.03-0.06,0.04
							c-0.01,0.01-0.01,0.03-0.01,0.04c-0.02,0-0.02,0-0.03,0.01c0,0.01,0,0.03,0,0.04c-0.02,0-0.03,0-0.03,0.01
							c-0.01,0.02-0.02,0.04-0.03,0.06c-0.01,0-0.02,0.01-0.04,0.01c0,0.01-0.01,0.02,0,0.04c-0.01,0-0.02,0-0.03,0.01
							c0,0.01,0,0.01,0.01,0.02c-0.02,0.03-0.05,0.05-0.07,0.08c0.17,0.61,0.35,1.21,0.52,1.81c-0.01,0-0.01,0.01-0.02,0.01
							c0,0.01,0.01,0.02,0.01,0.03c0,0-0.01,0-0.02,0c0,0.03,0,0.04,0,0.06c-0.04,0.03-0.03,0.04-0.08,0.06
							c0.03,0.04,0.02,0.03,0.05,0.04c0,0.01,0,0.01,0,0.02c0.01-0.01,0.03-0.01,0.04-0.01c0.02,0.01,0.03,0.02,0.05,0.04
							c0.01,0,0.03-0.01,0.03-0.01c0.01,0.01,0.02,0.02,0.03,0.03c0.01,0,0.02,0,0.04-0.01c0.01,0.01,0.03,0.03,0.05,0.04
							c0.01,0,0.02,0,0.03-0.01c0.01,0.01,0.02,0.02,0.03,0.04c0.01,0,0.03,0,0.05,0c0,0.01,0,0.01,0,0.02
							c0.02-0.01,0.03-0.01,0.04-0.01c0.01,0,0.02,0.01,0.02,0.03c0.01-0.01,0.02-0.01,0.04-0.02c0.01,0.01,0.02,0.02,0.02,0.03
							c0.01,0,0.03,0,0.03,0c0.01,0,0.02,0.02,0.03,0.03c0.02,0,0.04,0,0.06,0c0,0.01,0,0.01,0,0.02c0.01,0,0.03-0.01,0.04-0.01
							c0,0,0,0.01,0.01,0.01c0.01,0,0.02,0,0.03-0.01c0.01,0.01,0.02,0.02,0.03,0.03c0.03,0,0.05,0,0.08,0
							c0,0.01,0.02,0.02,0.02,0.03c0.01,0,0.02,0,0.04-0.01c0,0,0,0.01,0.01,0.02c0.01,0,0.02-0.01,0.03-0.01
							c0.01,0.01,0.02,0.01,0.03,0.03c0.01,0,0.02,0,0.03-0.01l0.05,0.02c0.01,0,0.02-0.01,0.03-0.01c0,0.01,0.01,0.01,0.01,0.02
							c0.01,0,0.03-0.01,0.03-0.01c0.46,0.14,0.98,0.17,1.5,0.2c0.02-0.01,0.04-0.01,0.06-0.02c0,0,0,0.01,0.01,0.02
							c0.02-0.01,0.03-0.01,0.05-0.02c0,0,0,0.01,0,0.02c0.03-0.01,0.05-0.01,0.07-0.02c0,0,0.01,0.01,0.01,0.02
							c0.03-0.01,0.05-0.02,0.09-0.03c0,0,0,0.01,0,0.02c0.02,0,0.03-0.01,0.05-0.02c0,0.01,0,0.01,0,0.02
							c0.07-0.02,0.13-0.03,0.2-0.04c0,0,0,0.01,0,0.02c0.05,0,0.11-0.05,0.15-0.03c0.11-0.03,0.21-0.07,0.32-0.1
							c0.01-0.04,0.04-0.09,0.06-0.13c0,0,0-0.01,0.01-0.01c0-0.01-0.01-0.02-0.01-0.03c0.02-0.03,0.04-0.07,0.06-0.1
							c0-0.01-0.01-0.02-0.01-0.04c0.01-0.01,0.02-0.02,0.03-0.03c0,0,0-0.02,0-0.03c0.01-0.01,0.03-0.03,0.04-0.05
							c0-0.02,0-0.05,0-0.08c0-0.01,0.01-0.01,0.02-0.02c0-0.02,0-0.04,0-0.06c0.01,0,0.01,0,0.01-0.01c0-0.01,0-0.02,0-0.03
							l0.02-0.05c0-0.01-0.01-0.02-0.01-0.03c0.01,0,0.01,0,0.02,0c-0.01-0.01-0.01-0.02-0.01-0.04c0.01,0,0.02-0.02,0.03-0.03
							c-0.01-0.01-0.01-0.04-0.02-0.05c0,0,0.01,0,0.02,0c0-0.01,0-0.02-0.01-0.04c0.01,0,0.02,0,0.02,0c0-0.04,0-0.08,0-0.12
							c0.01,0,0.01,0,0.01,0c0-0.02-0.01-0.04-0.01-0.06c0,0,0.01,0,0.02,0c-0.01-0.02-0.01-0.03-0.02-0.04c0.01,0,0.02,0,0.02,0
							c0-0.04-0.02-0.07-0.02-0.11c0.01,0,0.02,0,0.02,0c0-0.01,0-0.02-0.01-0.04c0.01,0,0.02,0,0.02,0c0-0.02-0.01-0.04-0.03-0.07
							c0.01,0,0.01,0,0.02,0c0-0.02-0.01-0.04-0.01-0.06c0,0,0.01,0,0.02,0C50.53,25.27,50.53,25.25,50.52,25.24z"/>
					</g>
				</g>
				<path class="st5" d="M44.78,24.72c0.41-0.13,0.87-0.3,1.26-0.38c0.04,0.04,0.05,0.01,0.08,0.03c0,0.01,0.01,0.03,0.01,0.04
					c0.01,0,0.01,0,0.02,0c0.02,0.01,0.02,0.03,0.05,0.04c0.14,0.47,0.28,0.93,0.41,1.4c0.05,0.18,0.15,0.41,0.03,0.49
					c-0.05,0.09-0.23,0.13-0.36,0.17c-0.29,0.09-0.59,0.18-0.88,0.28c-0.05,0-0.09-0.02-0.14-0.01c-0.04-0.04-0.07-0.08-0.1-0.11
					c-0.05-0.18-0.1-0.36-0.16-0.55c-0.12-0.4-0.24-0.84-0.34-1.23c0.03-0.04,0.01-0.06,0.03-0.08c0.01,0,0.03-0.01,0.04-0.01
					c0-0.01,0-0.03,0.01-0.04c0.02,0,0.03-0.01,0.05-0.01C44.78,24.73,44.78,24.72,44.78,24.72z"/>
				<path class="st5" d="M52.09,14.91c-1.62-1.87-1.38-1.69-1.38-1.69s0.84-1.4,0.81-2.23c-0.09-2.77-1.34-5.18-4.09-4.46
					c-1.52,0.4-2.4,2.38-3.6,2.72c-0.64,0.18-1.81-0.13-2.85,0.45c-1.54,0.85-2.43,2.27-2.43,2.27s-0.68-1.63-1.32-2.05
					c-3.26-2.18-6.52,3.68-5.05,7.22c0.85,2.05,3.21,0.54,3.21,0.54s-1.08,4.95,2.93,5.17c4,0.23,5.15-3.37,5.45-4.32
					c0.08-0.26,0.6-0.73,0.9-0.87c-0.2-1.09-0.48-2.54-0.64-2.84l0.3-0.16c0.23,0.44,0.52,2.11,0.66,2.88
					c0.37-0.03,0.83,0.09,1.29,0.28c0.68,0.29,3.14,1.9,4.56,1.25C51.76,18.63,53.72,16.78,52.09,14.91z"/>
				<path class="st0" d="M36.92,13.5c0-1.15-0.82-2.08-1.85-2.08c-1.01,0-1.9,0.89-1.96,2.22c-0.06,1.19,0.95,1.95,1.96,1.95
					C36.1,15.59,36.92,14.66,36.92,13.5z"/>
				<path class="st5" d="M36.88,12.99c0-0.85-0.69-1.54-1.53-1.54c-0.85,0-1.53,0.69-1.53,1.54c0,0.85,0.68,1.54,1.53,1.54
					C36.19,14.53,36.88,13.84,36.88,12.99z"/>
				<path class="st0" d="M50.62,10.38c0-1.15-0.82-2.08-1.84-2.08s-1.84,0.93-1.84,2.08c0,1.15,0.82,2.09,1.84,2.09
					S50.62,11.53,50.62,10.38z"/>
				<path class="st5" d="M50.58,9.95c0-0.85-0.69-1.54-1.53-1.54c-0.84,0-1.53,0.69-1.53,1.54c0,0.85,0.69,1.54,1.53,1.54
					C49.89,11.49,50.58,10.79,50.58,9.95z"/>
				<path class="st8" d="M44.47,15.63c-0.27,0.11-0.59,0.09-0.75-0.19c-0.12-0.21-0.11-0.97-0.45-1.18
					c-0.34-0.21-0.17-0.27-0.34-0.21c-0.2,0.07-0.37,0.36,0.07,0.42c0.32,0.05,0.41,0.86-0.18,0.88c-0.66,0.03-1.17-0.61-1.24-1.26
					c-0.17-1.57,2.09-2.1,3.21-2.1c0.87,0,1.51,1.94,0.7,2.39c-0.28,0.15-0.2,0.02-0.36-0.09c-0.17-0.12-0.11-0.57-0.09-0.67
					c0.02-0.09-0.15-0.25-0.3-0.14c-0.29,0.21-0.01,0.35,0.02,0.42c0.15,0.36,0.34,0.95,0.16,1.33
					C44.84,15.4,44.66,15.55,44.47,15.63z"/>
				<path class="st5" d="M42.6,22.01c0,0,4.59-0.49,6.51-2.23c-1.28-0.36-4.02-2.84-4.85-0.67C43.92,20.01,43.09,21.84,42.6,22.01z"
					/>
				<g>
					<path class="st5" d="M49.36,1.22c0,0-1.48,0.3-0.99,0.75c0.5,0.45,2.05,1.26,3.68,6.8c0.04,0.13,2.04,1.52,2.19,1.06
						C55.46,6.34,53.89-0.55,49.36,1.22z"/>
				</g>
				<path class="st5" d="M28.94,5.55c0,0,1.79-0.09,1.53,1.87c-0.1,0.76-0.58,7.41-1.23,8.5c-3.43,5.67-5.2-5.75-5.56-7.49
					c-0.32-1.52,0.77-1.85,1.09-2.16C25.79,5.28,28.94,5.55,28.94,5.55z"/>
			</g>
		</g>
	</g>
</g>
<g id="レイヤー_2_1_">
	<g id="レイヤー_1-2">
		
			<linearGradient id="SVGID_1_" gradientUnits="userSpaceOnUse" x1="103.3383" y1="250.0523" x2="103.3383" y2="266.3742" gradientTransform="matrix(1 0 0 -1 0 374)">
			<stop  offset="0" style="stop-color:#D0E4A6"/>
			<stop  offset="0.61" style="stop-color:#ABDCF1"/>
		</linearGradient>
		<path style="fill:url(#SVGID_1_);" d="M111.04,112.42c-0.84-2.05-2.46-3.67-4.51-4.51c-0.58-0.28-1.23-0.35-1.86-0.22
			c-1.55,0.38-0.99,3.28-0.19,4.12c0.8,0.85,1.44,1.8,0.96,2.92c-0.48,1.16-1.82,1.72-2.98,1.23c-0.56-0.23-1-0.68-1.23-1.23
			c-0.48-1.12,0.18-2.1,0.96-2.92c0.78-0.82,1.36-3.74-0.19-4.12c-0.63-0.13-1.28-0.05-1.86,0.22c-4.25,1.77-6.27,6.64-4.5,10.9
			c1.77,4.25,6.64,6.27,10.9,4.5C110.78,121.54,112.8,116.67,111.04,112.42z"/>
		<path class="st17" d="M143.41,123.07c-0.38,0.01-0.7-0.29-0.72-0.67c0-0.01,0-0.02,0-0.03v-14.05h7.37
			c0.38,0.03,0.67,0.36,0.65,0.75c-0.02,0.35-0.3,0.62-0.65,0.65h-5.97v12.66C144.09,122.75,143.79,123.06,143.41,123.07z
			 M149.11,114.76c0-0.38-0.31-0.69-0.69-0.69c0,0,0,0,0,0h-1.67c-0.38,0.03-0.67,0.36-0.65,0.75c0.02,0.35,0.3,0.62,0.65,0.65h1.67
			c0.38-0.01,0.69-0.32,0.69-0.7H149.11z M124.91,122.37c0-0.38-0.31-0.69-0.7-0.69h-5.16v-12.66c-0.03-0.38-0.36-0.67-0.75-0.65
			c-0.35,0.02-0.62,0.3-0.65,0.65v14.05h6.54c0.39,0,0.7-0.31,0.7-0.7c0,0,0,0,0,0H124.91z M190,122.37c0-0.38-0.31-0.69-0.7-0.69
			h-5.15v-12.66c-0.03-0.38-0.36-0.67-0.75-0.65c-0.35,0.02-0.62,0.3-0.65,0.65v14.05h6.54C189.68,123.07,190,122.76,190,122.37
			C190,122.37,190,122.37,190,122.37L190,122.37z M174.09,122.91c0.47-0.1,0.94-0.24,1.38-0.43c0.88-0.37,1.67-0.91,2.34-1.58
			c0.33-0.33,0.64-0.69,0.9-1.08c0.27-0.39,0.5-0.81,0.68-1.25c0.19-0.45,0.33-0.91,0.43-1.38c0.08-0.38-0.16-0.74-0.54-0.82
			s-0.74,0.16-0.82,0.54c-0.16,0.76-0.46,1.49-0.9,2.14c-0.43,0.64-0.98,1.19-1.62,1.61c-0.32,0.22-0.66,0.4-1.01,0.55
			c-0.36,0.16-0.74,0.28-1.12,0.36c-0.8,0.16-1.62,0.16-2.41,0c-0.38-0.08-0.76-0.2-1.12-0.36c-0.71-0.3-1.35-0.74-1.9-1.28
			c-0.27-0.27-0.51-0.57-0.72-0.88c-0.44-0.65-0.74-1.37-0.9-2.14c-0.08-0.38-0.45-0.62-0.82-0.54c-0.38,0.08-0.62,0.45-0.54,0.82
			c0.1,0.47,0.24,0.94,0.43,1.38c0.19,0.44,0.41,0.86,0.68,1.25c0.26,0.39,0.56,0.75,0.9,1.08c0.33,0.33,0.69,0.64,1.08,0.9
			c0.4,0.27,0.82,0.49,1.26,0.68C171.12,123.06,172.63,123.21,174.09,122.91z M179.29,115.03c0.38-0.08,0.62-0.44,0.54-0.82
			c-0.1-0.47-0.24-0.94-0.43-1.38c-0.18-0.44-0.41-0.86-0.68-1.26c-0.8-1.18-1.92-2.11-3.24-2.67c-1.37-0.58-2.89-0.73-4.36-0.43
			c-0.94,0.2-1.84,0.57-2.64,1.11c-0.39,0.27-0.75,0.57-1.08,0.9c-0.26,0.29-0.24,0.73,0.05,0.99c0.27,0.24,0.67,0.24,0.94,0
			c0.27-0.27,0.57-0.51,0.88-0.72c0.32-0.22,0.66-0.4,1.01-0.55c1.11-0.48,2.35-0.6,3.54-0.36c0.38,0.08,0.76,0.2,1.12,0.36
			c0.36,0.15,0.7,0.34,1.01,0.55c0.32,0.21,0.62,0.45,0.89,0.72c0.27,0.27,0.51,0.57,0.72,0.88c0.22,0.32,0.4,0.66,0.55,1.01
			c0.16,0.36,0.28,0.74,0.36,1.12c0.07,0.32,0.35,0.56,0.68,0.56C179.2,115.04,179.25,115.04,179.29,115.03L179.29,115.03z
			 M165.93,115.03c0.38-0.08,0.62-0.44,0.54-0.82c-0.09-0.47-0.23-0.92-0.41-1.36c-0.18-0.44-0.41-0.86-0.68-1.26
			c-0.53-0.78-1.2-1.46-1.99-1.99c-0.8-0.54-1.7-0.92-2.64-1.11c-1.46-0.32-2.99-0.18-4.37,0.4c-0.44,0.19-0.86,0.41-1.25,0.68
			c-0.39,0.27-0.75,0.57-1.08,0.9c-0.33,0.33-0.63,0.69-0.9,1.08c-0.27,0.41-0.5,0.84-0.69,1.3c-0.19,0.44-0.33,0.9-0.42,1.37
			c-0.08,0.38,0.17,0.74,0.54,0.82c0.38,0.08,0.74-0.17,0.82-0.54c0.08-0.38,0.2-0.76,0.36-1.12c0.3-0.71,0.74-1.35,1.28-1.9
			c0.27-0.27,0.57-0.51,0.89-0.72c0.32-0.22,0.66-0.4,1.01-0.55c0.36-0.16,0.74-0.28,1.12-0.36c1.19-0.24,2.42-0.12,3.54,0.36
			c0.36,0.15,0.69,0.34,1.01,0.55c0.32,0.21,0.61,0.45,0.88,0.72c0.27,0.27,0.51,0.57,0.72,0.88c0.21,0.32,0.4,0.66,0.55,1.01
			c0.16,0.36,0.28,0.74,0.36,1.12c0.07,0.32,0.35,0.56,0.68,0.56C165.85,115.05,165.89,115.04,165.93,115.03L165.93,115.03z
			 M160.74,122.91c0.47-0.1,0.93-0.24,1.37-0.42c0.44-0.19,0.86-0.41,1.26-0.68c0.39-0.27,0.75-0.57,1.08-0.9
			c0.27-0.27,0.27-0.71,0-0.98c-0.27-0.27-0.71-0.27-0.98,0l0,0c-0.27,0.27-0.57,0.51-0.89,0.72c-0.65,0.44-1.37,0.74-2.14,0.9
			c-0.8,0.16-1.62,0.16-2.41,0c-0.39-0.08-0.76-0.2-1.12-0.36c-0.36-0.15-0.69-0.33-1.01-0.55c-0.64-0.43-1.19-0.98-1.62-1.61
			c-0.22-0.32-0.4-0.66-0.55-1.02c-0.16-0.36-0.28-0.74-0.36-1.12c-0.08-0.38-0.45-0.62-0.82-0.54s-0.62,0.45-0.54,0.82l0,0
			c0.1,0.47,0.24,0.94,0.43,1.38c0.19,0.44,0.41,0.86,0.68,1.25c0.26,0.39,0.56,0.75,0.9,1.08c0.67,0.67,1.47,1.21,2.34,1.58
			c0.46,0.2,0.94,0.35,1.42,0.46C158.75,123.12,159.76,123.12,160.74,122.91z M135,118.93c0-0.38-0.31-0.69-0.69-0.69c0,0,0,0,0,0
			h-1.67c-0.38-0.03-0.72,0.26-0.75,0.65s0.26,0.72,0.65,0.75c0.03,0,0.07,0,0.1,0h1.67C134.69,119.63,135,119.32,135,118.93
			C135,118.94,135,118.93,135,118.93z M128.17,122.75l5.14-11.35l5.47,11.36c0.17,0.35,0.58,0.49,0.93,0.32
			c0.35-0.17,0.49-0.58,0.32-0.93l-6.76-14.03l-6.37,14.05c-0.16,0.35,0,0.76,0.36,0.92c0,0,0,0,0,0c0.09,0.04,0.19,0.06,0.28,0.06
			C127.82,123.17,128.06,123,128.17,122.75L128.17,122.75z"/>
	</g>
</g>
</svg>
