<svg width="229" height="133" viewBox="0 0 229 133" fill="none" xmlns="http://www.w3.org/2000/svg">
<g clip-path="url(#clip0_401_596)">
<path d="M81.35 3.35107e-05C80.7936 -0.0124722 80.2407 0.0912663 79.7267 0.304614C79.2127 0.517962 78.7489 0.836219 78.3649 1.23905C77.9808 1.64187 77.6851 2.1204 77.4966 2.64403C77.3081 3.16766 77.2309 3.72487 77.27 4.28003V19.7C74.8336 17.4496 71.6367 16.203 68.32 16.21C57.32 16.21 51.57 26.21 51.57 36.08C51.57 45.95 57.32 55.95 68.32 55.95C72.32 55.95 75.32 54.81 77.43 52.6C77.5469 53.5471 78.014 54.4162 78.7395 55.0362C79.465 55.6562 80.3962 55.9822 81.35 55.95C81.9056 55.9611 82.4573 55.8563 82.9702 55.6424C83.483 55.4284 83.9456 55.1099 84.3285 54.7072C84.7114 54.3046 85.0062 53.8265 85.1942 53.3036C85.3821 52.7807 85.459 52.2243 85.42 51.67V4.28003C85.459 3.72573 85.3821 3.16939 85.1942 2.64646C85.0062 2.12353 84.7114 1.64549 84.3285 1.24282C83.9456 0.840142 83.483 0.521655 82.9702 0.307681C82.4573 0.093707 81.9056 -0.0110616 81.35 3.35107e-05V3.35107e-05ZM68.81 48.64C62.09 48.64 59.71 41.88 59.71 36.08C59.71 30.28 62.09 23.52 68.81 23.52C75.53 23.52 77.9 30.28 77.9 36.08C77.9 41.88 75.52 48.64 68.81 48.64ZM179.36 23.52C180.885 23.4859 182.393 23.855 183.73 24.59C184.662 25.1205 185.709 25.4157 186.78 25.45C187.715 25.4266 188.603 25.0394 189.257 24.3708C189.911 23.7022 190.278 22.805 190.28 21.87C190.28 18.48 185.89 16.21 179.36 16.21C167.17 16.21 161.71 26.21 161.71 36.08C161.71 45.95 167.17 55.95 179.36 55.95C186.36 55.95 190.08 53.03 190.08 50.14C190.12 49.6769 190.061 49.2106 189.908 48.7717C189.755 48.3328 189.511 47.9313 189.192 47.5933C188.872 47.2553 188.486 46.9885 188.056 46.8105C187.627 46.6324 187.165 46.5471 186.7 46.56C185.754 46.615 184.839 46.9111 184.04 47.42C182.621 48.2461 181.002 48.668 179.36 48.64C171.85 48.64 169.85 40.74 169.85 36.08C169.85 31.42 171.85 23.52 179.36 23.52ZM33.79 7.84003C33.17 6.23003 32.03 3.28003 28.51 3.28003C24.99 3.28003 23.91 6.08003 23.25 7.76003C23.25 7.81003 17.42 23.37 12.87 35.59H4.13C1.13 35.59 0 37.51 0 39.16C0 40.81 1.09 42.72 4.13 42.72H10.22L7.52 49.93C7.17938 50.7602 6.98648 51.6435 6.95001 52.54C6.95152 53.0172 7.05112 53.4889 7.24265 53.9259C7.43417 54.3629 7.71351 54.7559 8.06332 55.0804C8.41313 55.4048 8.82595 55.6539 9.27609 55.8122C9.72624 55.9704 10.2041 56.0343 10.68 56C13.25 56 14.09 54.31 14.68 53.08L14.82 52.81L18.08 43.96C18.08 43.96 18.26 43.41 18.51 42.72H28.59C31.65 42.72 32.74 40.88 32.74 39.16C32.74 37.44 31.65 35.59 28.59 35.59H21.15C23.09 30.29 26.58 20.8 28.51 15.59C30.57 21.2 37.27 39.44 37.28 39.45L38.92 43.98L42.15 52.77C42.56 53.84 43.4 56.04 46.33 56.04C46.8072 56.0757 47.2866 56.0128 47.7385 55.8554C48.1903 55.6979 48.605 55.4492 48.9567 55.1247C49.3084 54.8002 49.5896 54.4069 49.7828 53.9691C49.9761 53.5314 50.0772 53.0585 50.08 52.58C50.0346 51.6676 49.8281 50.7704 49.47 49.93L33.79 7.93003V7.84003ZM147.04 23.61C148.566 23.5745 150.073 23.9437 151.41 24.68C152.342 25.2094 153.389 25.5045 154.46 25.54C155.395 25.5166 156.283 25.1294 156.937 24.4608C157.591 23.7922 157.958 22.895 157.96 21.96C157.96 18.57 153.58 16.3 147.04 16.3C134.85 16.3 129.4 26.3 129.4 36.17C129.4 46.04 134.85 56.04 147.04 56.04C154.09 56.04 157.77 53.12 157.77 50.23C157.81 49.766 157.751 49.2989 157.597 48.8593C157.443 48.4197 157.198 48.0176 156.878 47.6794C156.558 47.3413 156.17 47.0748 155.739 46.8973C155.309 46.7199 154.845 46.6356 154.38 46.65C153.438 46.705 152.525 47.0011 151.73 47.51C150.306 48.3341 148.685 48.7558 147.04 48.73C139.54 48.73 137.54 40.83 137.54 36.17C137.54 31.51 139.54 23.61 147.04 23.61V23.61ZM211.26 16.3C199.94 16.3 194.02 26.3 194.02 36.17C194.02 46.04 199.94 56.04 211.26 56.04C222.58 56.04 228.49 46.04 228.49 36.17C228.49 26.3 222.57 16.3 211.26 16.3ZM211.26 48.73C204.55 48.73 202.17 41.97 202.17 36.17C202.17 30.37 204.55 23.61 211.26 23.61C217.97 23.61 220.36 30.37 220.36 36.17C220.36 41.97 217.98 48.73 211.26 48.73ZM125.15 35.27C125.15 25.94 118.83 16.27 108.25 16.27C96.72 16.27 90.68 26.27 90.68 36.14C90.68 45.31 95.37 56.01 108.6 56.01C115.82 56.01 124.38 51.36 124.38 47.44C124.422 46.9803 124.371 46.5168 124.23 46.0774C124.088 45.638 123.859 45.2318 123.556 44.8833C123.254 44.5347 122.884 44.2511 122.468 44.0495C122.053 43.8478 121.601 43.7324 121.14 43.71C120 43.71 119.06 44.45 117.95 45.31C115.395 47.5703 112.08 48.7812 108.67 48.7C103.11 48.7 99.32 45.04 98.89 39.51H120.72C123.72 39.51 125.15 38.15 125.15 35.24V35.27ZM98.89 32.91C99.21 29.7 100.8 23.3 108.22 23.58C114.17 23.58 116.58 28.83 116.93 32.91H98.89Z" fill="#E62310"/>
<path d="M21.8898 102.35H5.58984V99.3499H12.3298V89.0499H6.66983V86.1699H20.6698V89.0499H15.1798V99.3499H21.8398L21.8898 102.35Z" fill="#231815"/>
<path d="M32.52 89.5399L30.99 92.2099C30.14 91.5299 29.39 90.9499 28.73 90.4899C28.07 90.0299 26.59 89.0599 24.29 87.6099L25.64 85.1499C28.0422 86.4352 30.3423 87.9029 32.52 89.5399ZM39.52 92.1599C38.3809 95.1574 36.4821 97.8074 34.01 99.8499C31.499 101.707 28.5292 102.844 25.42 103.14L24.34 100.14C25.9531 99.979 27.5372 99.6023 29.05 99.0199C30.2565 98.5265 31.3693 97.8298 32.34 96.9599C33.2216 96.1728 34.0283 95.3057 34.75 94.3699C35.6085 93.1427 36.3359 91.8289 36.92 90.4499L39.52 92.1599Z" fill="#231815"/>
<path d="M53.6702 91.2399C53.6084 94.1971 52.699 97.0743 51.0502 99.5299C49.5502 101.53 47.2102 102.82 44.0502 103.39L43.1302 100.62C45.2393 100.289 47.1649 99.2271 48.5702 97.6199C49.8211 95.7292 50.4983 93.5169 50.5202 91.2499H46.7802C45.7217 93.1657 44.2659 94.833 42.5102 96.1399L40.6802 93.9199C43.662 91.4228 45.5877 87.8892 46.0702 84.0299L49.0702 84.4099C48.841 85.7671 48.5067 87.1045 48.0702 88.4099H57.9502V91.2399H53.6702ZM55.4402 87.4499L53.9102 87.9999C53.4802 86.9999 52.9902 85.8899 52.4102 84.7799L53.9302 84.2399C54.5902 85.5199 55.1002 86.5899 55.4402 87.4499V87.4499ZM58.6802 87.1399L57.1402 87.7099C56.6002 86.3799 56.1402 85.2999 55.7102 84.4699L57.1802 83.9299C57.7337 84.9741 58.2343 86.0454 58.6802 87.1399V87.1399Z" fill="#231815"/>
<path d="M76.8701 95.57H61.0801V92.76H76.8701V95.57Z" fill="#231815"/>
<path d="M88.7501 92.96L87.5801 95.67C86.3101 94.97 85.2601 94.4499 84.4401 94.0999C83.6201 93.7499 82.2501 93.2399 80.3301 92.5599L81.3301 90.0299C82.4361 90.2964 83.5249 90.6304 84.5901 91.0299C85.5601 91.4699 86.9901 92.09 88.7501 92.96ZM96.4401 92.1199C95.2571 95.1746 93.2829 97.8598 90.7201 99.9C88.2052 101.75 85.2374 102.887 82.1301 103.19L81.2801 100.31C83.8981 100.01 86.4072 99.0913 88.6001 97.6299C90.9392 95.8545 92.7563 93.4812 93.8601 90.7599L96.4401 92.1199ZM90.4401 87.7L89.2201 90.3799C88.6001 90.0299 87.9601 89.6799 87.2901 89.3799C86.6201 89.0799 86.0801 88.7799 85.6701 88.6199L82.0601 87.17L83.0601 84.6899C85.5987 85.4706 88.062 86.478 90.4201 87.7H90.4401ZM93.4401 88.65L91.9001 89.2C91.4801 88.2 90.9801 87.09 90.4101 85.99L91.9201 85.4399C92.6001 86.7599 93.1001 87.76 93.4501 88.65H93.4401ZM96.6701 88.3399L95.1301 88.9099C94.6001 87.5899 94.1301 86.51 93.7001 85.68L95.1801 85.1299C95.6801 86.0699 96.1801 87.1399 96.6801 88.3399H96.6701Z" fill="#231815"/>
<path d="M112.91 84.88C112.51 88.0473 111.577 91.1241 110.15 93.98C111.662 95.3429 113.104 96.7814 114.47 98.29L112.47 100.77C111.306 99.2654 110.007 97.8697 108.59 96.6C106.712 99.6875 103.884 102.084 100.53 103.43L98.9102 100.76C100.303 100.203 101.599 99.4306 102.75 98.47C104.066 97.3916 105.171 96.0796 106.01 94.6C105.13 93.7667 103.48 92.4333 101.06 90.6L102.58 88.31C104.47 89.65 106.11 90.91 107.48 92.1C108.657 89.7165 109.434 87.1557 109.78 84.52L112.91 84.88Z" fill="#231815"/>
<path d="M125.63 89.5399L124.06 92.2099C123.21 91.5299 122.45 90.9499 121.8 90.4899C121.15 90.0299 119.66 89.0599 117.36 87.6099L118.71 85.1499C121.124 86.4358 123.438 87.9034 125.63 89.5399V89.5399ZM132.63 92.1599C131.487 95.1555 129.589 97.8046 127.12 99.8499C124.605 101.707 121.632 102.844 118.52 103.14L117.45 100.14C119.059 99.9779 120.64 99.6013 122.15 99.0199C123.361 98.529 124.477 97.832 125.45 96.9599C126.331 96.1754 127.135 95.308 127.85 94.3699C128.716 93.1458 129.447 91.8315 130.03 90.4499L132.63 92.1599Z" fill="#231815"/>
<path d="M149.87 95.2501L148.25 97.7601C146.023 95.8306 143.539 94.2187 140.87 92.9701V103.45H137.73V84.1001H140.9V89.8301C144.097 91.2692 147.109 93.089 149.87 95.2501V95.2501Z" fill="#231815"/>
<path d="M164.82 89.04H167.74V91.85H164.82V93.85C164.82 96.89 163.947 99.2234 162.2 100.85C160.45 102.48 157.9 103.33 154.53 103.41L154.17 100.59C157.05 100.46 159.04 99.79 160.17 98.59C161.327 97.2939 161.931 95.5958 161.85 93.86V91.86H157.18V97.08H154.18V91.86H151.18V89.05H154.18V84.61H157.18V89.05H161.85V84.3H164.85L164.82 89.04Z" fill="#231815"/>
<path d="M186.37 95.57H170.58V92.76H186.37V95.57Z" fill="#231815"/>
<path d="M206.39 98.9601L204.82 102.18C202.95 99.6101 201.41 97.5501 200.22 96.0001C199.03 94.4501 198.22 93.3701 197.8 92.7501C197.38 92.1301 196.8 91.3401 196.08 90.3801C196.028 90.3665 195.973 90.3665 195.92 90.3801H195.87C195.87 90.3801 195.63 90.7701 195.19 91.5201C194.75 92.2701 194.19 93.2701 193.54 94.5201L190.87 99.3701L188.99 97.0701C191.89 91.8034 193.577 88.8401 194.05 88.1801C194.251 87.8702 194.527 87.6159 194.852 87.4411C195.177 87.2663 195.541 87.1765 195.91 87.1801C196.223 87.1788 196.532 87.24 196.82 87.3601C197.094 87.4746 197.344 87.6372 197.56 87.8401C198.095 88.4169 198.599 89.021 199.07 89.6501L201.89 93.2601C202.86 94.5101 204.38 96.4101 206.39 98.9601ZM203.39 89.8801L201.86 90.4201C201.44 89.4201 200.94 88.3201 200.37 87.2101L201.88 86.6601C202.56 87.9501 203.06 89.0201 203.4 89.8801H203.39ZM206.63 89.5701L205.09 90.1301C204.55 88.8101 204.09 87.7301 203.66 86.9001L205.13 86.3501C205.64 87.2901 206.14 88.3601 206.64 89.5701H206.63Z" fill="#231815"/>
<path d="M218.71 103.29H215.64V93.55C213.424 94.9583 211.02 96.0457 208.5 96.78L207.71 93.97C210.601 93.1429 213.314 91.7866 215.71 89.97C217.863 88.3706 219.644 86.3236 220.93 83.97L223.71 85.16C223.007 86.5245 222.173 87.8173 221.22 89.02C220.466 89.9222 219.64 90.7616 218.75 91.53L218.71 103.29Z" fill="#231815"/>
<path d="M38.9902 132.15H37.9902V123.34H38.9902V124.12C39.2217 123.836 39.5128 123.606 39.8429 123.447C40.1729 123.288 40.5339 123.204 40.9002 123.2C41.2865 123.207 41.6672 123.293 42.0191 123.452C42.371 123.611 42.6868 123.841 42.947 124.126C43.2072 124.412 43.4065 124.747 43.5325 125.113C43.6586 125.478 43.7089 125.865 43.6802 126.25C43.7117 126.627 43.6657 127.006 43.5451 127.364C43.4245 127.723 43.2317 128.053 42.9788 128.334C42.7258 128.615 42.418 128.841 42.0743 128.999C41.7306 129.156 41.3583 129.242 40.9802 129.25C40.5981 129.257 40.2192 129.178 39.8726 129.016C39.526 128.855 39.2208 128.617 38.9802 128.32L38.9902 132.15ZM42.6802 126.25C42.7109 125.986 42.6863 125.719 42.6079 125.465C42.5295 125.212 42.3991 124.977 42.225 124.777C42.051 124.576 41.837 124.415 41.5969 124.301C41.3567 124.188 41.0956 124.126 40.8302 124.12C40.5631 124.13 40.3007 124.194 40.0585 124.307C39.8164 124.42 39.5994 124.581 39.4204 124.779C39.2414 124.978 39.104 125.21 39.0164 125.463C38.9288 125.716 38.8927 125.983 38.9102 126.25C38.8913 126.518 38.9263 126.786 39.0133 127.04C39.1003 127.294 39.2374 127.527 39.4166 127.727C39.5957 127.927 39.8132 128.088 40.056 128.202C40.2989 128.316 40.5622 128.38 40.8302 128.39C41.3504 128.339 41.83 128.087 42.1664 127.687C42.5028 127.287 42.6693 126.771 42.6302 126.25H42.6802Z" fill="#727171"/>
<path d="M44.7604 126.18C44.7604 125.587 44.9364 125.007 45.266 124.513C45.5957 124.02 46.0642 123.635 46.6124 123.408C47.1605 123.181 47.7637 123.122 48.3457 123.238C48.9276 123.353 49.4622 123.639 49.8817 124.059C50.3013 124.478 50.587 125.013 50.7028 125.595C50.8185 126.177 50.7591 126.78 50.5321 127.328C50.305 127.876 49.9205 128.345 49.4271 128.674C48.9338 129.004 48.3538 129.18 47.7604 129.18C47.3619 129.197 46.9642 129.131 46.5926 128.986C46.2209 128.841 45.8834 128.621 45.6013 128.339C45.3193 128.057 45.0989 127.719 44.9542 127.348C44.8094 126.976 44.7434 126.578 44.7604 126.18V126.18ZM45.7604 126.18C45.7604 126.71 45.9711 127.219 46.3462 127.594C46.7213 127.969 47.23 128.18 47.7604 128.18C48.2909 128.18 48.7996 127.969 49.1746 127.594C49.5497 127.219 49.7604 126.71 49.7604 126.18C49.7877 125.905 49.7558 125.626 49.6667 125.364C49.5777 125.102 49.4336 124.863 49.2441 124.661C49.0547 124.459 48.8243 124.3 48.5684 124.195C48.3125 124.089 48.037 124.04 47.7604 124.05C47.4865 124.049 47.2153 124.105 46.9638 124.214C46.7123 124.322 46.4857 124.481 46.2982 124.681C46.1107 124.881 45.9662 125.117 45.8737 125.375C45.7812 125.632 45.7426 125.907 45.7604 126.18Z" fill="#727171"/>
<path d="M52.5802 123.34L54.2902 127.18L56.0702 122.91L57.8402 127.18L59.4802 123.34H60.5402L57.7002 129.34L55.9202 125.08L54.1502 129.34L51.4502 123.34H52.5802Z" fill="#727171"/>
<path d="M66.6601 127.6C66.4657 127.94 66.2269 128.253 65.9501 128.53C65.6958 128.774 65.3941 128.962 65.0638 129.084C64.7335 129.207 64.3817 129.26 64.0301 129.24C63.6426 129.252 63.257 129.181 62.8993 129.032C62.5416 128.882 62.2201 128.658 61.9566 128.373C61.6931 128.089 61.4937 127.751 61.3718 127.383C61.2499 127.015 61.2084 126.625 61.2501 126.24C61.215 125.856 61.2611 125.469 61.3854 125.104C61.5097 124.738 61.7094 124.403 61.9716 124.121C62.2338 123.838 62.5525 123.613 62.9072 123.461C63.2618 123.31 63.6444 123.234 64.0301 123.24C64.4451 123.227 64.8569 123.317 65.2287 123.502C65.6004 123.687 65.9204 123.961 66.1601 124.3C66.5542 124.94 66.7297 125.691 66.6601 126.44H62.2501C62.2337 126.685 62.2675 126.93 62.3494 127.161C62.4312 127.392 62.5594 127.604 62.7261 127.784C62.8927 127.964 63.0944 128.107 63.3186 128.207C63.5428 128.306 63.7849 128.358 64.0301 128.36C64.2379 128.37 64.4456 128.337 64.64 128.263C64.8345 128.189 65.0115 128.076 65.1601 127.93C65.4331 127.742 65.6341 127.467 65.7301 127.15L66.6601 127.6ZM65.6601 125.54C65.6046 125.141 65.4114 124.773 65.1138 124.501C64.8161 124.229 64.4328 124.07 64.0301 124.05C63.6225 124.057 63.2314 124.212 62.9296 124.486C62.6279 124.76 62.4361 125.135 62.3901 125.54H65.6601Z" fill="#727171"/>
<path d="M68.1501 123.34H69.1501V123.98C69.2786 123.751 69.4638 123.559 69.688 123.422C69.9122 123.286 70.1677 123.209 70.4301 123.2C70.7253 123.228 71.0149 123.299 71.2901 123.41L70.7901 124.26C70.6223 124.14 70.4255 124.068 70.2201 124.05C70.0694 124.031 69.9164 124.054 69.7784 124.118C69.6405 124.182 69.5233 124.283 69.4401 124.41C69.1502 124.876 69.0235 125.424 69.0801 125.97V129.03H68.0801L68.1501 123.34Z" fill="#727171"/>
<path d="M76.89 127.6C76.6989 127.942 76.4598 128.256 76.18 128.53C75.9257 128.774 75.624 128.962 75.2938 129.085C74.9635 129.207 74.6116 129.26 74.26 129.24C73.8729 129.253 73.4876 129.182 73.1303 129.032C72.7731 128.882 72.4522 128.658 72.1894 128.373C71.9267 128.089 71.7282 127.751 71.6075 127.383C71.4869 127.015 71.4468 126.625 71.49 126.24C71.455 125.857 71.5008 125.47 71.6245 125.106C71.7482 124.742 71.9471 124.407 72.2082 124.124C72.4693 123.842 72.7868 123.617 73.1402 123.464C73.4937 123.312 73.8752 123.236 74.26 123.24C74.6754 123.224 75.0882 123.313 75.4604 123.498C75.8326 123.683 76.1523 123.959 76.39 124.3C76.789 124.938 76.9648 125.691 76.89 126.44H72.48C72.4651 126.684 72.4999 126.929 72.5823 127.16C72.6647 127.39 72.7929 127.601 72.9593 127.781C73.1257 127.96 73.3268 128.104 73.5503 128.204C73.7739 128.303 74.0153 128.357 74.26 128.36C74.4693 128.37 74.6786 128.337 74.8747 128.263C75.0708 128.19 75.2496 128.076 75.4 127.93C75.6703 127.74 75.8706 127.466 75.97 127.15L76.89 127.6ZM75.97 125.54C75.9124 125.14 75.7171 124.772 75.4178 124.5C75.1186 124.228 74.7339 124.069 74.33 124.05C73.9241 124.06 73.5355 124.216 73.2358 124.49C72.9362 124.764 72.7458 125.137 72.7 125.54H75.97Z" fill="#727171"/>
<path d="M82.7901 119.07H83.7901V129.07H82.7901V128.28C82.5661 128.576 82.2754 128.814 81.9417 128.975C81.608 129.137 81.2408 129.218 80.8701 129.21C80.0745 129.21 79.3114 128.894 78.7488 128.331C78.1862 127.769 77.8701 127.006 77.8701 126.21C77.8701 125.414 78.1862 124.651 78.7488 124.089C79.3114 123.526 80.0745 123.21 80.8701 123.21C81.2415 123.191 81.6117 123.265 81.947 123.426C82.2823 123.587 82.5721 123.829 82.7901 124.13V119.07ZM79.0901 126.18C79.061 126.443 79.0867 126.71 79.1657 126.963C79.2447 127.216 79.3751 127.45 79.5489 127.65C79.7227 127.85 79.936 128.012 80.1754 128.126C80.4149 128.239 80.6752 128.302 80.9401 128.31C81.2073 128.3 81.4697 128.236 81.7118 128.123C81.954 128.01 82.171 127.849 82.35 127.651C82.529 127.452 82.6663 127.22 82.754 126.967C82.8416 126.714 82.8777 126.447 82.8601 126.18C82.8897 125.911 82.8621 125.638 82.779 125.381C82.6958 125.123 82.5591 124.886 82.3777 124.685C82.1964 124.483 81.9746 124.323 81.7268 124.213C81.479 124.104 81.2109 124.048 80.9401 124.05C80.4128 124.089 79.9222 124.334 79.5756 124.733C79.2289 125.132 79.0544 125.653 79.0901 126.18V126.18Z" fill="#727171"/>
<path d="M89.8301 129.03H88.8301V119.03H89.8301V124.08C90.0556 123.787 90.3469 123.551 90.6805 123.391C91.014 123.231 91.3804 123.152 91.7501 123.16C92.1318 123.166 92.5084 123.249 92.8569 123.405C93.2055 123.561 93.5187 123.786 93.7777 124.067C94.0367 124.347 94.2361 124.677 94.3637 125.037C94.4913 125.397 94.5445 125.779 94.5201 126.16C94.5516 126.537 94.5056 126.916 94.3849 127.274C94.2643 127.633 94.0716 127.963 93.8186 128.244C93.5657 128.525 93.2579 128.751 92.9142 128.909C92.5704 129.066 92.1981 129.152 91.8201 129.16C91.4379 129.168 91.0591 129.088 90.7125 128.926C90.3659 128.765 90.0606 128.527 89.8201 128.23L89.8301 129.03ZM93.5201 126.25C93.5507 125.987 93.5263 125.721 93.4485 125.468C93.3708 125.215 93.2413 124.981 93.0683 124.781C92.8953 124.58 92.6825 124.418 92.4436 124.304C92.2046 124.191 91.9446 124.128 91.6801 124.12C91.4129 124.13 91.1505 124.194 90.9084 124.307C90.6662 124.42 90.4492 124.581 90.2702 124.78C90.0912 124.978 89.9538 125.211 89.8662 125.463C89.7786 125.716 89.7425 125.983 89.7601 126.25C89.7411 126.518 89.7762 126.786 89.8632 127.04C89.9501 127.294 90.0873 127.527 90.2664 127.727C90.4456 127.927 90.663 128.088 90.9059 128.202C91.1487 128.316 91.412 128.38 91.6801 128.39C92.2074 128.349 92.6971 128.101 93.0419 127.7C93.3868 127.299 93.5587 126.778 93.5201 126.25Z" fill="#727171"/>
<path d="M97.7901 128.46L95.1602 123.34H96.3001L98.3001 127.39L100.14 123.34H101.21L96.9901 132.15H95.9901L97.7901 128.46Z" fill="#727171"/>
<path d="M121.74 121.85C121.388 120.967 120.86 120.165 120.187 119.493C119.515 118.82 118.713 118.292 117.83 117.94C117.317 117.72 116.753 117.644 116.2 117.72C114.85 118.08 115.34 120.57 116.06 121.35C116.454 121.632 116.749 122.032 116.902 122.492C117.055 122.952 117.058 123.448 116.91 123.91C116.807 124.153 116.658 124.373 116.47 124.558C116.282 124.742 116.06 124.888 115.815 124.987C115.571 125.085 115.31 125.134 115.046 125.132C114.783 125.129 114.522 125.074 114.28 124.97C113.799 124.77 113.415 124.389 113.21 123.91C113.064 123.447 113.068 122.95 113.223 122.49C113.377 122.03 113.674 121.631 114.07 121.35C114.78 120.64 115.27 118.08 113.92 117.72C113.369 117.574 112.783 117.654 112.29 117.94C110.953 118.484 109.807 119.414 108.999 120.611C108.192 121.808 107.758 123.218 107.754 124.662C107.75 126.106 108.175 127.518 108.976 128.72C109.776 129.922 110.916 130.858 112.251 131.41C113.585 131.962 115.053 132.105 116.469 131.82C117.884 131.536 119.183 130.837 120.201 129.812C121.218 128.787 121.907 127.483 122.182 126.065C122.456 124.647 122.302 123.18 121.74 121.85V121.85Z" fill="url(#paint0_linear_401_596)"/>
<path d="M149.99 131.09C149.91 131.098 149.829 131.09 149.752 131.065C149.675 131.04 149.605 131 149.544 130.946C149.484 130.893 149.436 130.827 149.402 130.754C149.369 130.68 149.351 130.601 149.35 130.52V118.29H155.75C155.83 118.292 155.909 118.311 155.982 118.345C156.055 118.379 156.12 118.427 156.173 118.487C156.226 118.547 156.267 118.617 156.292 118.694C156.318 118.77 156.327 118.85 156.32 118.93C156.311 119.078 156.248 119.218 156.143 119.323C156.038 119.428 155.898 119.491 155.75 119.5H150.56V130.5C150.553 130.651 150.492 130.794 150.387 130.903C150.282 131.011 150.141 131.078 149.99 131.09ZM154.99 123.84C154.99 123.67 154.923 123.508 154.803 123.388C154.683 123.267 154.52 123.2 154.35 123.2H152.92C152.84 123.202 152.762 123.221 152.69 123.255C152.618 123.289 152.553 123.338 152.501 123.398C152.448 123.458 152.408 123.528 152.384 123.604C152.36 123.68 152.352 123.761 152.36 123.84C152.369 123.987 152.431 124.125 152.534 124.23C152.637 124.334 152.774 124.398 152.92 124.41H154.35C154.65 124.48 154.86 124.19 154.99 123.84ZM133.88 130.52C133.88 130.35 133.813 130.188 133.693 130.068C133.573 129.948 133.41 129.88 133.24 129.88H128.76V118.88C128.758 118.8 128.739 118.721 128.705 118.648C128.671 118.576 128.623 118.511 128.563 118.457C128.503 118.404 128.433 118.363 128.357 118.338C128.281 118.313 128.2 118.303 128.12 118.31C127.972 118.319 127.833 118.383 127.728 118.487C127.623 118.592 127.56 118.732 127.55 118.88V131.11H133.24C133.393 131.099 133.536 131.033 133.645 130.924C133.753 130.816 133.819 130.673 133.83 130.52H133.88ZM190.6 130.52C190.6 130.35 190.533 130.188 190.413 130.068C190.293 129.948 190.13 129.88 189.96 129.88H185.48V118.88C185.478 118.8 185.459 118.721 185.425 118.648C185.391 118.576 185.343 118.511 185.283 118.457C185.223 118.404 185.153 118.363 185.077 118.338C185.001 118.313 184.92 118.303 184.84 118.31C184.692 118.319 184.553 118.383 184.448 118.487C184.343 118.592 184.28 118.732 184.27 118.88V131.11H189.96C190.113 131.099 190.256 131.033 190.365 130.924C190.473 130.816 190.539 130.673 190.55 130.52H190.6ZM176.74 130.94C177.149 130.856 177.55 130.739 177.94 130.59C178.697 130.251 179.395 129.795 180.01 129.24C180.304 128.96 180.566 128.648 180.79 128.31C181.003 127.97 181.194 127.616 181.36 127.25C181.518 126.86 181.636 126.454 181.71 126.04C181.738 125.88 181.701 125.715 181.607 125.582C181.514 125.448 181.371 125.358 181.21 125.33C181.05 125.302 180.885 125.339 180.752 125.433C180.619 125.527 180.528 125.67 180.5 125.83C180.35 126.484 180.086 127.107 179.72 127.67C179.361 128.248 178.875 128.737 178.3 129.1C178.031 129.287 177.747 129.451 177.45 129.59C177.132 129.733 176.795 129.83 176.45 129.88C175.747 130.02 175.023 130.02 174.32 129.88C173.977 129.821 173.642 129.723 173.32 129.59C172.7 129.338 172.144 128.952 171.69 128.46C171.46 128.211 171.246 127.947 171.05 127.67C170.685 127.107 170.421 126.484 170.27 125.83C170.242 125.67 170.152 125.527 170.019 125.433C169.886 125.339 169.721 125.302 169.56 125.33C169.4 125.358 169.257 125.448 169.163 125.582C169.069 125.715 169.032 125.88 169.06 126.04C169.135 126.454 169.252 126.86 169.41 127.25C169.562 127.623 169.753 127.978 169.98 128.31C170.205 128.648 170.466 128.96 170.76 129.24C171.037 129.537 171.35 129.799 171.69 130.02C172.031 130.239 172.389 130.43 172.76 130.59C174.01 131.081 175.374 131.203 176.69 130.94H176.74ZM181.21 124.12C181.292 124.111 181.371 124.085 181.441 124.043C181.512 124.001 181.573 123.945 181.62 123.878C181.667 123.811 181.7 123.734 181.715 123.654C181.731 123.573 181.729 123.49 181.71 123.41C181.636 122.996 181.518 122.59 181.36 122.2C181.209 121.827 181.018 121.472 180.79 121.14C180.058 120.098 179.055 119.275 177.89 118.76C176.705 118.253 175.391 118.127 174.13 118.4C173.3 118.541 172.517 118.885 171.85 119.4C171.513 119.621 171.204 119.883 170.93 120.18C170.875 120.238 170.832 120.308 170.805 120.384C170.778 120.46 170.768 120.54 170.774 120.621C170.781 120.701 170.804 120.779 170.843 120.85C170.882 120.92 170.936 120.982 171 121.03C171.051 121.083 171.111 121.125 171.178 121.153C171.245 121.182 171.317 121.197 171.39 121.197C171.463 121.197 171.535 121.182 171.602 121.153C171.669 121.125 171.73 121.083 171.78 121.03C172.028 120.803 172.289 120.589 172.56 120.39C172.831 120.201 173.119 120.037 173.42 119.9C174.382 119.487 175.448 119.385 176.47 119.61C176.812 119.674 177.147 119.771 177.47 119.9C177.776 120.021 178.062 120.186 178.32 120.39C178.592 120.589 178.852 120.803 179.1 121.03C179.333 121.277 179.547 121.541 179.74 121.82C179.936 122.085 180.104 122.37 180.24 122.67C180.376 122.99 180.47 123.326 180.52 123.67C180.543 123.806 180.612 123.93 180.716 124.022C180.82 124.113 180.952 124.165 181.09 124.17C181.095 124.155 181.104 124.142 181.117 124.133C181.129 124.124 181.145 124.119 181.16 124.12H181.21ZM169.63 124.12C169.711 124.109 169.789 124.082 169.859 124.04C169.929 123.998 169.989 123.942 170.036 123.875C170.083 123.808 170.116 123.732 170.132 123.652C170.148 123.572 170.148 123.49 170.13 123.41C170.038 122.999 169.918 122.595 169.77 122.2C169.623 121.826 169.431 121.47 169.2 121.14C168.766 120.452 168.185 119.869 167.5 119.43C166.802 118.971 166.031 118.633 165.22 118.43C163.933 118.158 162.594 118.283 161.38 118.79C161.006 118.938 160.65 119.129 160.32 119.36C159.98 119.581 159.667 119.843 159.39 120.14C159.094 120.414 158.832 120.723 158.61 121.06C158.164 121.781 157.852 122.577 157.69 123.41C157.672 123.491 157.67 123.574 157.684 123.656C157.699 123.738 157.73 123.815 157.776 123.884C157.822 123.953 157.881 124.012 157.951 124.058C158.02 124.103 158.098 124.134 158.18 124.148C158.261 124.163 158.345 124.16 158.425 124.141C158.506 124.122 158.582 124.086 158.648 124.037C158.715 123.988 158.771 123.925 158.812 123.853C158.854 123.782 158.88 123.702 158.89 123.62C158.959 123.279 159.056 122.945 159.18 122.62C159.432 121.995 159.822 121.434 160.32 120.98C160.566 120.75 160.827 120.537 161.1 120.34C161.368 120.151 161.652 119.987 161.95 119.85C162.269 119.708 162.605 119.61 162.95 119.56C163.958 119.375 164.997 119.475 165.95 119.85C166.259 119.971 166.549 120.136 166.81 120.34C167.09 120.56 167.37 120.77 167.59 120.98C167.818 121.232 168.031 121.495 168.23 121.77C168.422 122.036 168.586 122.321 168.72 122.62C168.864 122.938 168.961 123.275 169.01 123.62C169.033 123.756 169.102 123.88 169.206 123.972C169.31 124.063 169.442 124.115 169.58 124.12H169.63ZM164.99 130.94C165.402 130.856 165.807 130.739 166.2 130.59C166.575 130.442 166.931 130.251 167.26 130.02C167.601 129.799 167.913 129.537 168.19 129.24C168.292 129.122 168.348 128.971 168.348 128.815C168.348 128.659 168.292 128.508 168.19 128.39C168.073 128.283 167.919 128.224 167.76 128.224C167.601 128.224 167.448 128.283 167.33 128.39C167.084 128.62 166.824 128.834 166.55 129.03C165.981 129.39 165.356 129.653 164.7 129.81C163.997 129.95 163.273 129.95 162.57 129.81C162.227 129.751 161.892 129.654 161.57 129.52C161.261 129.399 160.972 129.234 160.71 129.03C160.14 128.661 159.655 128.173 159.29 127.6C159.099 127.332 158.932 127.047 158.79 126.75C158.655 126.43 158.561 126.094 158.51 125.75C158.482 125.59 158.392 125.447 158.259 125.353C158.126 125.259 157.961 125.222 157.8 125.25C157.64 125.278 157.497 125.368 157.403 125.502C157.309 125.635 157.272 125.8 157.3 125.96C157.378 126.375 157.499 126.78 157.66 127.17C157.968 127.922 158.428 128.603 159.01 129.17C159.593 129.761 160.296 130.221 161.07 130.52L162.28 130.94C163.17 131.162 164.101 131.162 164.99 130.94V130.94ZM142.6 127.53C142.6 127.36 142.533 127.198 142.413 127.078C142.293 126.957 142.13 126.89 141.96 126.89H140.54C140.391 126.899 140.25 126.962 140.144 127.068C140.038 127.173 139.974 127.314 139.966 127.464C139.957 127.613 140.004 127.761 140.097 127.878C140.19 127.995 140.323 128.074 140.47 128.1H141.99C142.151 128.106 142.308 128.05 142.428 127.944C142.549 127.838 142.625 127.69 142.64 127.53H142.6ZM136.6 130.8L141.08 120.92L145.84 130.8C145.908 130.94 146.026 131.048 146.172 131.102C146.317 131.156 146.478 131.152 146.62 131.09C146.761 131.021 146.869 130.9 146.921 130.752C146.973 130.604 146.966 130.442 146.9 130.3L141.01 118.08L135.46 130.3C135.398 130.444 135.393 130.606 135.447 130.753C135.501 130.9 135.61 131.021 135.75 131.09C135.778 131.116 135.811 131.136 135.847 131.149C135.884 131.161 135.922 131.165 135.96 131.16C136.38 131.16 136.6 131.02 136.67 130.76L136.6 130.8Z" fill="#727171"/>
</g>
<defs>
<linearGradient id="paint0_linear_401_596" x1="115.06" y1="131.87" x2="115.06" y2="117.65" gradientUnits="userSpaceOnUse">
<stop stop-color="#D0E4A6"/>
<stop offset="0.61" stop-color="#ABDCF1"/>
</linearGradient>
<clipPath id="clip0_401_596">
<rect width="228.49" height="132.15" fill="white"/>
</clipPath>
</defs>
</svg>
