<?xml version="1.0" encoding="utf-8"?>
<!-- Generator: Adobe Illustrator 25.4.1, SVG Export Plug-In . SVG Version: 6.00 Build 0)  -->
<svg version="1.1" id="レイヤー_1" xmlns="http://www.w3.org/2000/svg" xmlns:xlink="http://www.w3.org/1999/xlink" x="0px"
	 y="0px" width="310.9px" height="89.3px" viewBox="0 0 310.9 89.3" style="enable-background:new 0 0 310.9 89.3;"
	 xml:space="preserve">
<style type="text/css">
	.st0{fill:#8AB928;}
	.st1{fill:#DEE7CD;}
	.st2{fill:#666565;}
	.st3{fill:#727171;}
	.st4{fill:url(#SVGID_1_);}
</style>
<g>
	<g id="LePEcF_9_">
		<g>
			<g>
				<path class="st0" d="M0,37.5c0-0.3,0-0.5,0-0.8c0.1-0.5,0.1-0.9,0.1-1.4c0-0.6,0.2-1.1,0.8-1.5c0.5-0.3,0.8-0.7,1.2-1.1
					c0.2-0.1,0.3-0.3,0.2-0.5c-0.1-0.7,0.2-1.3,0.3-1.9c0.2-0.7,0.5-1.4,1.2-1.8c0.5-0.2,0.9-0.5,1.3-0.9c0.6-0.6,1.4-1,2-1.6
					c0,0,0.1-0.1,0.2-0.1c0.5-0.4,1-0.9,1.6-1.3L9,24.5c0.1-0.4,0.5-0.6,0.9-0.7c0.2,0,0.2-0.1,0.4-0.2s0.3-0.3,0.5-0.4
					c1-0.4,2-0.8,3.1-1.1c0.1-0.2,0.4-0.2,0.6-0.2c0.5,0,0.9,0,1.2-0.4c0-0.1,0.2-0.1,0.3-0.1c0.7-0.3,1.4-0.6,2.1-0.6
					c0.2,0,0.4-0.1,0.6-0.2c0.5-0.2,0.9-0.4,1.4-0.5s1.1-0.2,1.5-0.5c0.8-0.6,1.7-1,2.6-1.3c0.6-0.2,1.1-0.6,1.6-0.7
					c0.9-0.1,1.6-0.5,2.4-0.7c0.2,0,0.4-0.1,0.5-0.2c0.5-0.4,1-0.5,1.6-0.6c0.3-0.1,0.6-0.1,0.8-0.3c0.4-0.3,0.8-0.4,1.3-0.4
					c0.4,0,0.9,0.1,1.3,0c1.3-0.3,2.7-0.6,3.9-1.2c0.5-0.2,1.1-0.4,1.7-0.3c0.8,0.1,1.7,0.1,2.5,0.4c0.1,0,0.2,0,0.2,0
					c0.6,0.1,1.1,0.1,1.6,0.5c0.2,0.1,0.4,0.1,0.6,0.1c1.4,0.1,2.9,0.1,4.3,0c0.6,0,1.3,0,1.8-0.2c1.1-0.4,2-0.4,2.9,0.3
					c0.3,0.2,0.7,0.4,1.1,0.3c0.3-0.1,0.6,0,0.9,0.1c0.2,0.1,0.3,0.1,0.5,0.1c0.4,0,0.7,0.1,1.1,0.2c0.4,0.1,0.7,0.2,1.1,0.1
					c0.6-0.1,1.1-0.2,1.7-0.1c1,0.2,2.1,0.2,3.1,0.3c0.7,0.1,1.5,0.3,2.2,0.3c1,0,2.1,0,3.1,0.2c1.1,0.2,2.3,0.3,3.4,0.5
					c1,0.2,2,0.4,3,0.2c0.4-0.1,0.9,0,1.3,0.1c1,0.3,2.1,0.6,3.2,0.3c0.2,0,0.4,0,0.6,0.2c0.5,0.5,1.1,0.7,1.8,0.6
					c0.3,0,0.6,0,0.9,0.2c0.5,0.3,1.1,0.5,1.7,0.6c1,0.2,2,0.3,2.9,0.7c1.1,0.5,2.3,0.9,3.3,1.6c0.1,0.1,0.3,0.1,0.4,0.1
					c0.4-0.1,0.7,0.1,1,0.3c0.6,0.4,0.9,1,1.5,1.5c0.4,0.3,0.8,0.8,0.8,1.4c0,0.2,0.2,0.4,0.4,0.4c0.6,0.3,1,0.9,1.6,1.3
					c0.1,0,0.1,0.1,0.1,0.2c0.4,1,1.2,1.8,1.2,2.9c0,0.1,0.1,0.2,0.1,0.3c0,0.1,0,0.3,0,0.4c-0.4,0.9-0.4,1.8-0.2,2.7
					c0.1,0.3,0,0.5,0,0.8c-0.2,0.9-0.8,1.7-1,2.7c-0.1,0.2-0.2,0.4-0.3,0.6c-0.3,0.5-0.5,1.1-0.9,1.4c-0.5,0.4-0.9,0.9-1.5,1.2
					c-0.2,0.1-0.4,0.3-0.5,0.5c-0.6,0.7-1.2,1.2-2.1,1.2c-0.3,0-0.7,0.1-0.9,0.3c-0.4,0.3-0.9,0.4-1.3,0.5c-1.1,0.2-2.2,0.3-3.2,0.5
					c-0.4,0.1-0.8,0.1-1.2,0c-0.9-0.1-1.7,0-2.6,0c-1.5,0-3,0.2-4.5,0.2c-0.8,0-1.7-0.1-2.4,0.3c-0.1,0.1-0.3,0-0.4,0
					c-0.5,0-0.8-0.3-1.2-0.4c-1.2-0.2-2.4-0.3-3.6-0.3c-0.8,0-1.5-0.2-2.3-0.2c-0.5,0-1-0.1-1.5-0.3c-0.3-0.1-0.6-0.1-0.8-0.1
					c-0.3,0.1-0.6,0-0.8-0.1c-0.5-0.2-1.1-0.3-1.6-0.4c-0.5-0.1-0.9-0.2-1.2-0.4c-0.2-0.1-0.3-0.1-0.5-0.2c-1.1-0.4-2.3-0.6-3.4-1
					c-0.1,0-0.2-0.1-0.3-0.1c-1.2-0.1-2.4-0.4-3.6-0.8c-0.3-0.1-0.7-0.2-1-0.2c-0.7,0-1.3,0-1.9-0.2c-0.5-0.1-0.9,0.1-1.1,0.5
					c-0.1,0.2-0.1,0.4-0.1,0.6c-0.1,1.4,0.3,2.9-0.1,4.3c-0.2,0.8-0.5,1.4-1.3,1.7c-0.2,0.1-0.4,0.2-0.7,0.4
					c-0.6,0.4-1.4,0.3-1.8-0.3c-0.3-0.4-0.5-0.8-0.8-1.2c-0.2-0.3-0.2-0.6-0.2-0.9c0.1-0.5,0.1-0.9,0.4-1.3c0.1-0.3,0.1-0.5,0-0.8
					c-0.2-0.3-0.2-0.6-0.2-0.9c0.1-0.7,0.1-1.4,0.1-2.1c0-0.6,0-0.6-0.6-0.9c-0.6-0.3-1.2-0.4-1.9-0.2c-1.5,0.4-3,0.6-4.6,0.9
					c-0.5,0.1-1,0.3-1.4,0.6c-0.3,0.3-0.7,0.5-1.2,0.6c-0.6,0.1-1.2,0.1-1.7,0.3c-2.1,0.6-4.3,1-6.4,1.6c-1.7,0.5-3.4,1.1-5.1,1.7
					c-0.3,0.1-0.7,0.2-1.1,0.2c-0.7,0-1.3,0.1-1.9,0.2c-0.5,0.1-1,0.1-1.4,0.1c-0.3,0-0.7,0-0.9,0.3c-0.6,0-0.8,0-1.1,0
					c-1.2,0-2.4,0.2-3.5,0.3c-0.5,0.1-1,0.1-1.4,0c-0.8,0-1.7-0.2-2.5,0c-0.4,0.1-0.8,0-1.1-0.3c-0.1-0.1-0.2-0.1-0.4-0.1
					c-0.2,0-0.4-0.1-0.7-0.1C5,43.5,4.4,43,3.6,42.8S2,42.3,1.4,41.7C1.2,41.5,1,41.4,1,41.1s-0.1-0.7-0.2-1c-0.3-0.5-0.6-1-0.6-1.6
					C0.1,38.2,0.2,37.8,0,37.5z"/>
			</g>
		</g>
	</g>
	<path class="st1" d="M221.1,45.9c10.8-7.9,15.3-16.7,15.8-17.7c1.7-3.4,2.5-6.9,2.5-10.2c0-3.7-1-7.2-3-10.3c-1.7-2.6-4.1-4.7-7-6
		c-2.8-1.3-6-1.9-9.2-1.7c-4,0.3-7.5,1.8-10,4.4c-2.6-2.6-6-4.2-10-4.4c-3.2-0.2-6.4,0.4-9.2,1.7c-2.8,1.4-5.2,3.4-7,6
		c-2.1,3.1-3.1,6.6-3,10.3c0,3.3,0.9,6.8,2.5,10.2c0.5,1,4.9,9.7,15.6,17.7c-8,2.5-18.4,4.8-24.8,5.5l7.8,8.6
		c9.7-1.8,22.1-5,27.9-7.6l0.2,0.1h0.1c5.7,2.6,18.1,5.9,27.8,7.7l7.8-8.6C239.3,50.7,229,48.3,221.1,45.9z M210.1,41.3
		c-6.4-3.6-10.8-7.8-13.4-10.9c-3.1-3.6-4.4-6.3-4.5-6.6l-0.1-0.1c-1.1-2.1-1.6-4.2-1.6-6c0-1.7,0.5-3.2,1.4-4.5
		c1.6-2.4,4.4-3.7,7.5-3.5c2.3,0.2,3.8,1.1,4.8,2.9c0.6,1,0.8,2,1,2.6c0.1,0.5,0.4,1,0.8,1.3c0,0,0,0,0.1,0c2.4,1.9,5.7,1.9,8.1,0
		l0,0c0.4-0.3,0.7-0.8,0.8-1.3c0.1-0.7,0.4-1.7,1-2.6c1-1.8,2.6-2.7,4.8-2.9c3-0.2,5.8,1.1,7.5,3.5c0.9,1.4,1.4,3,1.4,4.8
		c0,1.8-0.5,3.8-1.6,5.8v0.1c-0.1,0.2-1.5,3-4.5,6.6C219.1,35.6,214.1,39.1,210.1,41.3z"/>
	<g>
		<path class="st2" d="M121,31.8c-1.8,3.9-4.9,7.1-9.3,9.5l-2.4-2.6c2.7-1.4,4.9-3,6.6-5s2.7-4.1,3.1-6.3h-9.1v-3.3h9.2v-5.3h3.4
			v5.3h9.7v3.3H123c1.2,4.5,4.5,8.3,9.9,11.4l-2.6,2.5C125.8,38.6,122.7,35.4,121,31.8z"/>
		<path class="st2" d="M137.4,31.9c-0.6,1.3-1.2,2.6-1.8,3.8l-1.3-3.7c1.2-2.2,2.2-4.4,3.1-6.7h-2.6v-3h2.6v-3.9h3v3.9h1.9v-2.2h2.8
			v-1.7h3.1v1.7h2.7v2.8h-2.7v1.2h2.2v2.7h-7.6v-2.7h2.4v-1.2h-2.8v2.4h-1.9v0.8c0.6,1.1,1.3,2.4,2.2,3.8v-2.3h7.7v0.7l2-0.6
			c0.6,1.6,1.1,3.3,1.4,5.2v-6.8h-3.1v-3.2h3v-4.2h3.1v4.2h1.6v3.2h-1.6v11.5c0,1.5-0.2,2.5-0.7,3c-0.3,0.3-1.1,0.5-2.2,0.5h-2
			l-0.8-3.2h1.4c0.6,0,1-0.1,1.1-0.3s0.1-0.5,0.1-1.2v-3.1l-2.3,0.8c-0.3-1.7-0.7-3.3-1.2-4.9v4.3h-2.6l2.4,0.7
			c-0.2,0.9-0.5,1.8-0.8,2.6c0.4-0.1,0.9-0.2,1.4-0.4v3.1c-2.8,0.7-5.6,1.2-8.2,1.5l-0.9-3.1c0.4,0,1-0.1,2-0.2
			c-0.4-1.4-0.8-2.5-1.1-3.3l2.1-0.9h-2V30l-1.1,3.1c-0.4-0.5-0.7-1.2-1.1-1.8v10h-3L137.4,31.9L137.4,31.9z M143.8,37.8
			c0.7-0.1,1.6-0.2,2.6-0.3c0.4-1.3,0.8-2.6,1-3.8h-2.1c0.4,0.8,0.7,1.9,1.1,3.1L143.8,37.8z M147.6,31.3V30h-2.4v1.3H147.6z"/>
		<path class="st2" d="M169.7,21.2c0,10-2.9,16.5-8.5,19.5v-4.1c3.2-3.1,4.8-8.2,4.8-15.3v-1.6h3.8v1.5H169.7z M182.7,40.7
			c-5.7-3-8.5-9.5-8.5-19.4v-1.6h3.8v1.6c0,7.1,1.6,12.2,4.8,15.3L182.7,40.7L182.7,40.7z"/>
		<path class="st2" d="M207.9,30.5H187V27h20.9V30.5z"/>
		<path class="st2" d="M232.9,32.9c-4.4-1.2-9.1-2.3-14-3.3v11.1h-3.8V19.1h3.8V26c5.9,1.2,10.6,2.2,14,3.2V32.9z"/>
		<path class="st2" d="M259.1,39.4h-21.4V36h8.6V24.1h-7.2v-3.4h18.6v3.4h-7.6v12h9V39.4L259.1,39.4z"/>
		<path class="st2" d="M284.3,30.5h-20.9V27h20.9V30.5z"/>
		<path class="st2" d="M295.7,26.3c0,4.2-0.6,7.6-1.9,10c-1,2-2.6,3.6-4.8,4.9V37c1-1,1.8-2.1,2.2-3.4c0.6-1.7,0.9-4.1,0.9-7v-6.9
			h3.6L295.7,26.3L295.7,26.3z M310.9,26.2c-0.4,8.9-4.6,13.7-12.5,14.3V19.7h3.5v16.2c1.7-0.5,3-1.7,3.9-3.6
			c0.9-1.7,1.4-3.7,1.5-6.1C307.3,26.2,310.9,26.2,310.9,26.2z"/>
	</g>
	<g>
		<g>
			<path class="st3" d="M74.7,89.3h-1.1v-9.4h1.1v0.8c0.7-0.8,1.6-0.9,2.1-0.9c1.9,0,2.9,1.6,2.9,3.3s-1.1,3.2-2.9,3.2
				c-0.9,0-1.6-0.5-2.1-0.9C74.7,85.1,74.7,89.3,74.7,89.3z M78.7,82.9c0-1.5-0.9-2.2-2-2.2c-0.9,0-2.1,0.8-2.1,2.2
				c0,1.2,0.7,2.2,2.1,2.2C78,85.1,78.7,84.1,78.7,82.9z"/>
			<path class="st3" d="M81,82.8c0-1.9,1.4-3.2,3.2-3.2c1.8,0,3.2,1.4,3.2,3.2S85.9,86,84.2,86C82.4,86,81,84.7,81,82.8z M82.1,82.8
				c0,1.5,1.1,2.2,2.1,2.2c1.1,0,2.1-0.8,2.1-2.2s-0.9-2.2-2.1-2.2C83,80.6,82.1,81.4,82.1,82.8z"/>
			<path class="st3" d="M89.4,79.7l1.9,4.1l1.9-4.6l1.9,4.6l1.8-4.1h1.2l-3.1,6.5L93,81.6l-1.9,4.6l-2.9-6.5H89.4z"/>
			<path class="st3" d="M104.4,84.3c-0.1,0.4-0.5,0.7-0.7,0.9c-0.5,0.5-1.2,0.8-2.1,0.8c-1.4,0-2.9-0.9-2.9-3.2
				c0-1.9,1.2-3.2,2.9-3.2c1.2,0,1.9,0.6,2.2,1.2c0.4,0.5,0.6,1.4,0.5,2.2h-4.7c0,1.3,0.9,2.1,1.9,2.1c0.5,0,0.9-0.1,1.2-0.5
				c0.4-0.2,0.5-0.5,0.6-0.8L104.4,84.3z M103.3,82.1c-0.1-0.9-0.9-1.6-1.8-1.6c-0.9,0-1.6,0.7-1.8,1.6H103.3z"/>
			<path class="st3" d="M106,79.7h1.1v0.7c0.1-0.1,0.5-0.8,1.4-0.8c0.4,0,0.7,0.1,0.9,0.2l-0.5,0.9c-0.2-0.1-0.5-0.2-0.6-0.2
				c-0.5,0-0.7,0.1-0.8,0.4c-0.1,0.2-0.4,0.6-0.4,1.6v3.3h-1.1L106,79.7L106,79.7z"/>
			<path class="st3" d="M115.4,84.3c-0.1,0.4-0.5,0.7-0.7,0.9c-0.5,0.5-1.2,0.8-2.1,0.8c-1.4,0-2.9-0.9-2.9-3.2
				c0-1.9,1.2-3.2,2.9-3.2c1.2,0,1.9,0.6,2.2,1.2c0.4,0.5,0.6,1.4,0.5,2.2h-4.7c0,1.3,0.9,2.1,1.9,2.1c0.5,0,0.9-0.1,1.2-0.5
				c0.4-0.2,0.5-0.5,0.6-0.8L115.4,84.3z M114.4,82.1c-0.1-0.9-0.9-1.6-1.8-1.6c-0.9,0-1.6,0.7-1.8,1.6H114.4z"/>
			<path class="st3" d="M121.7,75.2h1.1v10.7h-1.1V85c-0.4,0.5-0.9,0.9-2.1,0.9c-1.5,0-2.9-1.1-2.9-3.2c0-2.1,1.4-3.2,2.9-3.2
				c1.2,0,1.9,0.6,2.1,0.9V75.2z M117.8,82.8c0,1.3,0.7,2.2,2,2.2c1.3,0,2.1-1.1,2.1-2.2c0-1.6-1.1-2.2-2.1-2.2
				C118.7,80.6,117.8,81.4,117.8,82.8z"/>
			<path class="st3" d="M129.3,85.9h-1.1V75.2h1.1v5.4c0.7-0.9,1.6-0.9,2.1-0.9c1.9,0,2.9,1.6,2.9,3.2c0,1.6-1.1,3.2-2.9,3.2
				c-0.9,0-1.6-0.5-2.1-0.9C129.3,85,129.3,85.9,129.3,85.9z M133.2,82.9c0-1.5-0.9-2.2-2-2.2s-2.1,0.8-2.1,2.2
				c0,1.2,0.7,2.2,2.1,2.2C132.5,85.1,133.2,84.1,133.2,82.9z"/>
			<path class="st3" d="M137.8,85.3l-2.8-5.5h1.2l2.1,4.3l2-4.3h1.2l-4.5,9.4h-1.2L137.8,85.3z"/>
		</g>
		
			<linearGradient id="SVGID_1_" gradientUnits="userSpaceOnUse" x1="156.341" y1="3645.6038" x2="156.341" y2="3630.365" gradientTransform="matrix(1 0 0 1 0 -3556.698)">
			<stop  offset="0" style="stop-color:#CBDEA3"/>
			<stop  offset="0.61" style="stop-color:#A9D6EA"/>
		</linearGradient>
		<path class="st4" d="M163.5,78.2c-0.7-1.9-2.2-3.4-4.2-4.2c-0.5-0.2-1.2-0.4-1.8-0.2c-1.4,0.4-0.9,3.1-0.1,3.9
			c0.7,0.8,1.4,1.6,0.9,2.7s-1.6,1.6-2.8,1.2c-0.5-0.2-0.9-0.6-1.2-1.2c-0.5-1.1,0.1-2,0.9-2.7c0.7-0.8,1.3-3.5-0.1-3.9
			c-0.6-0.1-1.2-0.1-1.8,0.2c-4,1.6-5.9,6.1-4.2,10.2c1.6,4,6.1,5.9,10.2,4.2C163.3,86.7,165.2,82.1,163.5,78.2z"/>
		<path class="st3" d="M193.7,88.1c-0.4,0-0.7-0.2-0.7-0.6l0,0V74.3h6.8c0.4,0,0.6,0.4,0.6,0.7s-0.4,0.6-0.6,0.6h-5.5v11.9
			C194.3,87.7,194.1,88.1,193.7,88.1z M199.1,80.3c0-0.4-0.4-0.7-0.7-0.7l0,0h-1.5c-0.4,0-0.6,0.4-0.6,0.7c0,0.4,0.4,0.6,0.6,0.6
			h1.5C198.8,81,199,80.7,199.1,80.3L199.1,80.3z M176.4,87.5c0-0.4-0.4-0.7-0.7-0.7h-4.8V74.9c0-0.4-0.4-0.6-0.7-0.6
			c-0.4,0-0.6,0.4-0.6,0.6v13.2h6.1C176.1,88.1,176.4,87.7,176.4,87.5L176.4,87.5L176.4,87.5z M237.2,87.5c0-0.4-0.4-0.7-0.7-0.7
			h-4.8V74.9c0-0.4-0.4-0.6-0.7-0.6c-0.4,0-0.6,0.4-0.6,0.6v13.2h6.1C237,88.1,237.2,87.7,237.2,87.5L237.2,87.5L237.2,87.5z
			 M222.4,88c0.5-0.1,0.8-0.2,1.3-0.4c0.8-0.4,1.5-0.8,2.2-1.4c0.4-0.4,0.6-0.6,0.8-0.9c0.2-0.4,0.5-0.8,0.6-1.2
			c0.1-0.4,0.4-0.8,0.4-1.3c0.1-0.4-0.1-0.7-0.6-0.8c-0.4-0.1-0.7,0.1-0.7,0.5c-0.1,0.7-0.5,1.4-0.8,2c-0.4,0.6-0.9,1.2-1.5,1.5
			c-0.4,0.2-0.6,0.4-0.9,0.5s-0.7,0.2-1.1,0.4c-0.7,0.1-1.5,0.1-2.2,0c-0.4-0.1-0.7-0.1-1.1-0.4c-0.7-0.4-1.3-0.7-1.8-1.2
			c-0.2-0.2-0.5-0.5-0.7-0.8c-0.4-0.6-0.7-1.3-0.8-2c-0.1-0.4-0.4-0.6-0.7-0.5c-0.4,0.1-0.6,0.4-0.5,0.8c0.1,0.5,0.2,0.9,0.4,1.3
			c0.1,0.4,0.4,0.8,0.6,1.2c0.2,0.4,0.5,0.7,0.8,0.9c0.4,0.4,0.6,0.6,0.9,0.8c0.4,0.2,0.7,0.5,1.2,0.6C219.6,88.1,221,88.2,222.4,88
			z M227.2,80.6c0.4-0.1,0.6-0.4,0.6-0.8c-0.1-0.5-0.2-0.9-0.4-1.3c-0.1-0.4-0.4-0.8-0.6-1.2c-0.7-1.1-1.9-2-3.1-2.5
			c-1.3-0.5-2.7-0.7-4-0.4c-0.9,0.1-1.8,0.5-2.5,1.1c-0.4,0.2-0.7,0.5-0.9,0.8c-0.2,0.4-0.2,0.7,0.1,0.9c0.2,0.2,0.6,0.2,0.8,0
			c0.2-0.2,0.5-0.5,0.8-0.7c0.4-0.2,0.6-0.4,0.9-0.5c1.1-0.5,2.2-0.5,3.3-0.4c0.4,0.1,0.7,0.1,1.1,0.4c0.4,0.1,0.7,0.4,0.9,0.5
			c0.4,0.2,0.6,0.5,0.8,0.7c0.2,0.2,0.5,0.5,0.7,0.8c0.2,0.4,0.4,0.6,0.6,0.9c0.2,0.4,0.2,0.7,0.4,1.1
			C226.6,80.4,226.8,80.7,227.2,80.6C227.1,80.6,227.2,80.6,227.2,80.6L227.2,80.6z M214.7,80.6c0.4-0.1,0.6-0.4,0.5-0.8
			c-0.1-0.5-0.2-0.8-0.4-1.3c-0.1-0.4-0.4-0.8-0.6-1.2c-0.5-0.8-1.2-1.4-1.9-1.9c-0.7-0.5-1.6-0.8-2.5-1.1c-1.4-0.4-2.8-0.1-4.1,0.4
			c-0.4,0.1-0.8,0.4-1.2,0.6c-0.4,0.2-0.7,0.5-0.9,0.8c-0.2,0.4-0.6,0.6-0.8,0.9c-0.2,0.4-0.5,0.8-0.6,1.2c-0.1,0.4-0.4,0.8-0.4,1.3
			c-0.1,0.4,0.1,0.7,0.5,0.8s0.7-0.1,0.7-0.5c0.1-0.4,0.1-0.7,0.4-1.1c0.4-0.7,0.7-1.3,1.2-1.8c0.2-0.2,0.5-0.5,0.8-0.7
			s0.6-0.4,0.9-0.5c0.4-0.1,0.7-0.2,1.1-0.4c1.2-0.2,2.2-0.1,3.3,0.4c0.4,0.1,0.7,0.4,0.9,0.5c0.4,0.2,0.6,0.5,0.8,0.7
			c0.2,0.2,0.5,0.5,0.7,0.8s0.4,0.6,0.5,0.9c0.1,0.4,0.2,0.7,0.4,1.1C214.3,80.3,214.5,80.6,214.7,80.6L214.7,80.6L214.7,80.6z
			 M209.9,88c0.5-0.1,0.8-0.2,1.3-0.4c0.4-0.1,0.8-0.4,1.2-0.6s0.7-0.5,0.9-0.8c0.2-0.2,0.2-0.7,0-0.9c-0.2-0.2-0.7-0.2-0.9,0l0,0
			c-0.2,0.2-0.5,0.5-0.8,0.7c-0.6,0.4-1.3,0.7-2,0.8c-0.7,0.1-1.5,0.1-2.2,0c-0.4-0.1-0.7-0.1-1.1-0.4c-0.4-0.1-0.7-0.4-0.9-0.5
			c-0.6-0.4-1.2-0.9-1.5-1.5c-0.2-0.4-0.4-0.6-0.5-0.9c-0.1-0.4-0.2-0.7-0.4-1.1c-0.1-0.4-0.4-0.6-0.7-0.5c-0.4,0.1-0.6,0.4-0.5,0.8
			l0,0c0.1,0.5,0.2,0.9,0.4,1.3s0.4,0.8,0.6,1.2c0.2,0.4,0.5,0.7,0.8,0.9c0.6,0.6,1.4,1.2,2.2,1.4c0.5,0.1,0.8,0.4,1.3,0.5
			C208,88.2,209,88.2,209.9,88z M185.8,84.2c0-0.4-0.4-0.7-0.7-0.7l0,0h-1.5c-0.4,0-0.7,0.2-0.7,0.6c0,0.4,0.2,0.7,0.6,0.7h0.1h1.5
			C185.6,84.9,185.8,84.6,185.8,84.2L185.8,84.2z M179.5,87.7l4.8-10.6l5.1,10.6c0.1,0.4,0.5,0.5,0.8,0.4c0.4-0.1,0.5-0.5,0.4-0.8
			l-6.3-13.2l-6,13.2c-0.1,0.4,0,0.7,0.4,0.8l0,0c0.1,0.1,0.1,0.1,0.2,0.1C179.1,88.2,179.4,88,179.5,87.7L179.5,87.7z"/>
	</g>
</g>
</svg>
