<svg xmlns="http://www.w3.org/2000/svg" xmlns:xlink="http://www.w3.org/1999/xlink" width="181" zoomAndPan="magnify" viewBox="0 0 135.75 37.5" height="50" preserveAspectRatio="xMidYMid meet" version="1.0"><defs><g/><clipPath id="6c3bf3c317"><path d="M 78.105469 24 L 81 24 L 81 27.207031 L 78.105469 27.207031 Z M 78.105469 24 " clip-rule="nonzero"/></clipPath><clipPath id="03805c47e2"><path d="M 89 23.507812 L 92 23.507812 L 92 27 L 89 27 Z M 89 23.507812 " clip-rule="nonzero"/></clipPath><clipPath id="149553c71d"><path d="M 92 23.507812 L 95 23.507812 L 95 27 L 92 27 Z M 92 23.507812 " clip-rule="nonzero"/></clipPath><clipPath id="faeab8193a"><path d="M 94 24 L 96 24 L 96 27.207031 L 94 27.207031 Z M 94 24 " clip-rule="nonzero"/></clipPath><clipPath id="ceb37c2fd1"><path d="M 97 23.507812 L 102 23.507812 L 102 27.207031 L 97 27.207031 Z M 97 23.507812 " clip-rule="nonzero"/></clipPath><clipPath id="604d18860e"><path d="M 101.632812 24.578125 C 101.4375 24.125 101.046875 23.761719 100.558594 23.582031 C 100.421875 23.527344 100.265625 23.507812 100.109375 23.527344 C 99.738281 23.617188 99.875 24.25 100.070312 24.449219 C 100.265625 24.632812 100.421875 24.851562 100.304688 25.105469 C 100.1875 25.359375 99.875 25.484375 99.582031 25.375 C 99.445312 25.320312 99.347656 25.230469 99.289062 25.105469 C 99.171875 24.851562 99.328125 24.632812 99.523438 24.449219 C 99.71875 24.269531 99.855469 23.617188 99.484375 23.527344 C 99.328125 23.488281 99.171875 23.507812 99.03125 23.582031 C 98.015625 23.980469 97.527344 25.050781 97.957031 26.011719 C 98.386719 26.972656 99.542969 27.40625 100.578125 27.007812 C 101.574219 26.609375 102.0625 25.519531 101.632812 24.578125 Z M 101.632812 24.578125 " clip-rule="nonzero"/></clipPath><linearGradient x1="108.500999" gradientTransform="matrix(0.195447, 0, 0, -0.181405, 78.589388, -121.863099)" y1="-821.761366" x2="108.500999" gradientUnits="userSpaceOnUse" y2="-801.361367" id="88ed8723d0"><stop stop-opacity="1" stop-color="rgb(81.599426%, 89.399719%, 65.098572%)" offset="0"/><stop stop-opacity="1" stop-color="rgb(81.599426%, 89.399719%, 65.098572%)" offset="0.015625"/><stop stop-opacity="1" stop-color="rgb(81.552124%, 89.389038%, 65.19165%)" offset="0.0234375"/><stop stop-opacity="1" stop-color="rgb(81.411743%, 89.358521%, 65.478516%)" offset="0.03125"/><stop stop-opacity="1" stop-color="rgb(81.222534%, 89.318848%, 65.863037%)" offset="0.0390625"/><stop stop-opacity="1" stop-color="rgb(81.033325%, 89.277649%, 66.246033%)" offset="0.046875"/><stop stop-opacity="1" stop-color="rgb(80.844116%, 89.237976%, 66.630554%)" offset="0.0546875"/><stop stop-opacity="1" stop-color="rgb(80.654907%, 89.196777%, 67.015076%)" offset="0.0625"/><stop stop-opacity="1" stop-color="rgb(80.464172%, 89.155579%, 67.398071%)" offset="0.0703125"/><stop stop-opacity="1" stop-color="rgb(80.274963%, 89.115906%, 67.782593%)" offset="0.078125"/><stop stop-opacity="1" stop-color="rgb(80.085754%, 89.074707%, 68.167114%)" offset="0.0859375"/><stop stop-opacity="1" stop-color="rgb(79.896545%, 89.035034%, 68.551636%)" offset="0.09375"/><stop stop-opacity="1" stop-color="rgb(79.707336%, 88.993835%, 68.934631%)" offset="0.101562"/><stop stop-opacity="1" stop-color="rgb(79.518127%, 88.954163%, 69.319153%)" offset="0.109375"/><stop stop-opacity="1" stop-color="rgb(79.328918%, 88.912964%, 69.703674%)" offset="0.117188"/><stop stop-opacity="1" stop-color="rgb(79.138184%, 88.873291%, 70.08667%)" offset="0.125"/><stop stop-opacity="1" stop-color="rgb(78.948975%, 88.832092%, 70.471191%)" offset="0.132812"/><stop stop-opacity="1" stop-color="rgb(78.759766%, 88.792419%, 70.855713%)" offset="0.140625"/><stop stop-opacity="1" stop-color="rgb(78.570557%, 88.751221%, 71.240234%)" offset="0.148437"/><stop stop-opacity="1" stop-color="rgb(78.381348%, 88.711548%, 71.62323%)" offset="0.15625"/><stop stop-opacity="1" stop-color="rgb(78.192139%, 88.670349%, 72.007751%)" offset="0.164062"/><stop stop-opacity="1" stop-color="rgb(78.00293%, 88.62915%, 72.392273%)" offset="0.171875"/><stop stop-opacity="1" stop-color="rgb(77.813721%, 88.589478%, 72.775269%)" offset="0.179687"/><stop stop-opacity="1" stop-color="rgb(77.622986%, 88.548279%, 73.15979%)" offset="0.1875"/><stop stop-opacity="1" stop-color="rgb(77.433777%, 88.508606%, 73.544312%)" offset="0.195312"/><stop stop-opacity="1" stop-color="rgb(77.244568%, 88.467407%, 73.927307%)" offset="0.203125"/><stop stop-opacity="1" stop-color="rgb(77.055359%, 88.427734%, 74.311829%)" offset="0.210937"/><stop stop-opacity="1" stop-color="rgb(76.86615%, 88.386536%, 74.69635%)" offset="0.21875"/><stop stop-opacity="1" stop-color="rgb(76.676941%, 88.346863%, 75.080872%)" offset="0.226562"/><stop stop-opacity="1" stop-color="rgb(76.487732%, 88.305664%, 75.463867%)" offset="0.234375"/><stop stop-opacity="1" stop-color="rgb(76.296997%, 88.265991%, 75.848389%)" offset="0.242188"/><stop stop-opacity="1" stop-color="rgb(76.107788%, 88.224792%, 76.23291%)" offset="0.25"/><stop stop-opacity="1" stop-color="rgb(75.918579%, 88.18512%, 76.615906%)" offset="0.257812"/><stop stop-opacity="1" stop-color="rgb(75.72937%, 88.143921%, 77.000427%)" offset="0.265625"/><stop stop-opacity="1" stop-color="rgb(75.540161%, 88.102722%, 77.384949%)" offset="0.273438"/><stop stop-opacity="1" stop-color="rgb(75.350952%, 88.063049%, 77.767944%)" offset="0.28125"/><stop stop-opacity="1" stop-color="rgb(75.161743%, 88.021851%, 78.152466%)" offset="0.289062"/><stop stop-opacity="1" stop-color="rgb(74.971008%, 87.982178%, 78.536987%)" offset="0.296875"/><stop stop-opacity="1" stop-color="rgb(74.781799%, 87.940979%, 78.921509%)" offset="0.304687"/><stop stop-opacity="1" stop-color="rgb(74.59259%, 87.901306%, 79.304504%)" offset="0.3125"/><stop stop-opacity="1" stop-color="rgb(74.403381%, 87.860107%, 79.689026%)" offset="0.320312"/><stop stop-opacity="1" stop-color="rgb(74.214172%, 87.820435%, 80.073547%)" offset="0.328125"/><stop stop-opacity="1" stop-color="rgb(74.024963%, 87.779236%, 80.456543%)" offset="0.335937"/><stop stop-opacity="1" stop-color="rgb(73.835754%, 87.739563%, 80.841064%)" offset="0.34375"/><stop stop-opacity="1" stop-color="rgb(73.64502%, 87.698364%, 81.225586%)" offset="0.351562"/><stop stop-opacity="1" stop-color="rgb(73.455811%, 87.658691%, 81.608582%)" offset="0.359375"/><stop stop-opacity="1" stop-color="rgb(73.266602%, 87.617493%, 81.993103%)" offset="0.367187"/><stop stop-opacity="1" stop-color="rgb(73.077393%, 87.576294%, 82.377625%)" offset="0.375"/><stop stop-opacity="1" stop-color="rgb(72.888184%, 87.536621%, 82.762146%)" offset="0.382812"/><stop stop-opacity="1" stop-color="rgb(72.698975%, 87.495422%, 83.145142%)" offset="0.390625"/><stop stop-opacity="1" stop-color="rgb(72.509766%, 87.45575%, 83.529663%)" offset="0.398437"/><stop stop-opacity="1" stop-color="rgb(72.319031%, 87.414551%, 83.914185%)" offset="0.40625"/><stop stop-opacity="1" stop-color="rgb(72.129822%, 87.374878%, 84.29718%)" offset="0.414062"/><stop stop-opacity="1" stop-color="rgb(71.940613%, 87.333679%, 84.681702%)" offset="0.421875"/><stop stop-opacity="1" stop-color="rgb(71.751404%, 87.294006%, 85.066223%)" offset="0.429687"/><stop stop-opacity="1" stop-color="rgb(71.562195%, 87.252808%, 85.450745%)" offset="0.4375"/><stop stop-opacity="1" stop-color="rgb(71.372986%, 87.213135%, 85.83374%)" offset="0.445312"/><stop stop-opacity="1" stop-color="rgb(71.183777%, 87.171936%, 86.218262%)" offset="0.453125"/><stop stop-opacity="1" stop-color="rgb(70.994568%, 87.130737%, 86.602783%)" offset="0.460937"/><stop stop-opacity="1" stop-color="rgb(70.803833%, 87.091064%, 86.985779%)" offset="0.46875"/><stop stop-opacity="1" stop-color="rgb(70.614624%, 87.049866%, 87.3703%)" offset="0.476562"/><stop stop-opacity="1" stop-color="rgb(70.425415%, 87.010193%, 87.754822%)" offset="0.484375"/><stop stop-opacity="1" stop-color="rgb(70.236206%, 86.968994%, 88.137817%)" offset="0.492187"/><stop stop-opacity="1" stop-color="rgb(70.046997%, 86.929321%, 88.522339%)" offset="0.5"/><stop stop-opacity="1" stop-color="rgb(69.857788%, 86.888123%, 88.90686%)" offset="0.507812"/><stop stop-opacity="1" stop-color="rgb(69.668579%, 86.84845%, 89.291382%)" offset="0.515625"/><stop stop-opacity="1" stop-color="rgb(69.477844%, 86.807251%, 89.674377%)" offset="0.523438"/><stop stop-opacity="1" stop-color="rgb(69.288635%, 86.767578%, 90.058899%)" offset="0.53125"/><stop stop-opacity="1" stop-color="rgb(69.099426%, 86.726379%, 90.44342%)" offset="0.539062"/><stop stop-opacity="1" stop-color="rgb(68.910217%, 86.686707%, 90.826416%)" offset="0.546875"/><stop stop-opacity="1" stop-color="rgb(68.721008%, 86.645508%, 91.210938%)" offset="0.554687"/><stop stop-opacity="1" stop-color="rgb(68.531799%, 86.604309%, 91.595459%)" offset="0.5625"/><stop stop-opacity="1" stop-color="rgb(68.34259%, 86.564636%, 91.978455%)" offset="0.570312"/><stop stop-opacity="1" stop-color="rgb(68.151855%, 86.523438%, 92.362976%)" offset="0.578125"/><stop stop-opacity="1" stop-color="rgb(67.962646%, 86.483765%, 92.747498%)" offset="0.585938"/><stop stop-opacity="1" stop-color="rgb(67.773438%, 86.442566%, 93.132019%)" offset="0.59375"/><stop stop-opacity="1" stop-color="rgb(67.584229%, 86.402893%, 93.515015%)" offset="0.601562"/><stop stop-opacity="1" stop-color="rgb(67.39502%, 86.361694%, 93.899536%)" offset="0.609375"/><stop stop-opacity="1" stop-color="rgb(67.205811%, 86.322021%, 94.284058%)" offset="0.617188"/><stop stop-opacity="1" stop-color="rgb(67.105103%, 86.300659%, 94.487%)" offset="0.625"/><stop stop-opacity="1" stop-color="rgb(67.098999%, 86.299133%, 94.499207%)" offset="0.75"/><stop stop-opacity="1" stop-color="rgb(67.098999%, 86.299133%, 94.499207%)" offset="1"/></linearGradient><clipPath id="24f702710a"><path d="M 103 23.507812 L 121 23.507812 L 121 27 L 103 27 Z M 103 23.507812 " clip-rule="nonzero"/></clipPath></defs><g clip-path="url(#6c3bf3c317)"><path fill="#727171" d="M 78.863281 27.207031 L 78.589844 27.207031 L 78.589844 24.957031 L 78.863281 24.957031 L 78.863281 25.160156 C 79.039062 24.957031 79.273438 24.921875 79.390625 24.921875 C 79.878906 24.921875 80.152344 25.304688 80.152344 25.703125 C 80.152344 26.101562 79.878906 26.464844 79.410156 26.464844 C 79.15625 26.464844 78.980469 26.355469 78.863281 26.230469 C 78.863281 26.230469 78.863281 27.207031 78.863281 27.207031 Z M 79.878906 25.703125 C 79.878906 25.339844 79.625 25.160156 79.371094 25.160156 C 79.117188 25.160156 78.84375 25.359375 78.84375 25.703125 C 78.84375 25.992188 79.039062 26.246094 79.371094 26.246094 C 79.683594 26.230469 79.878906 25.976562 79.878906 25.703125 Z M 79.878906 25.703125 " fill-opacity="1" fill-rule="nonzero"/></g><path fill="#727171" d="M 80.464844 25.683594 C 80.464844 25.25 80.816406 24.921875 81.285156 24.921875 C 81.753906 24.921875 82.109375 25.25 82.109375 25.683594 C 82.109375 26.121094 81.753906 26.445312 81.285156 26.445312 C 80.816406 26.445312 80.464844 26.136719 80.464844 25.683594 Z M 80.738281 25.683594 C 80.738281 26.046875 81.011719 26.230469 81.285156 26.230469 C 81.558594 26.230469 81.832031 26.046875 81.832031 25.683594 C 81.832031 25.320312 81.578125 25.140625 81.285156 25.140625 C 80.992188 25.140625 80.738281 25.339844 80.738281 25.683594 Z M 80.738281 25.683594 " fill-opacity="1" fill-rule="nonzero"/><path fill="#727171" d="M 82.617188 24.957031 L 83.085938 25.9375 L 83.574219 24.851562 L 84.0625 25.9375 L 84.511719 24.957031 L 84.804688 24.957031 L 84.023438 26.5 L 83.535156 25.414062 L 83.046875 26.5 L 82.304688 24.957031 Z M 82.617188 24.957031 " fill-opacity="1" fill-rule="nonzero"/><path fill="#727171" d="M 86.484375 26.046875 C 86.445312 26.121094 86.367188 26.210938 86.289062 26.28125 C 86.152344 26.410156 85.976562 26.464844 85.761719 26.464844 C 85.390625 26.464844 85 26.246094 85 25.703125 C 85 25.265625 85.292969 24.941406 85.761719 24.941406 C 86.074219 24.941406 86.25 25.085938 86.347656 25.214844 C 86.445312 25.339844 86.503906 25.558594 86.484375 25.757812 L 85.273438 25.757812 C 85.273438 26.066406 85.507812 26.246094 85.761719 26.246094 C 85.898438 26.246094 85.996094 26.210938 86.074219 26.136719 C 86.152344 26.082031 86.210938 26.011719 86.230469 25.9375 Z M 86.210938 25.519531 C 86.171875 25.304688 85.976562 25.140625 85.761719 25.140625 C 85.527344 25.140625 85.351562 25.304688 85.3125 25.519531 Z M 86.210938 25.519531 " fill-opacity="1" fill-rule="nonzero"/><path fill="#727171" d="M 86.894531 24.957031 L 87.167969 24.957031 L 87.167969 25.121094 C 87.1875 25.085938 87.304688 24.921875 87.519531 24.921875 C 87.597656 24.921875 87.695312 24.957031 87.753906 24.976562 L 87.617188 25.195312 C 87.558594 25.160156 87.5 25.140625 87.460938 25.140625 C 87.34375 25.140625 87.285156 25.175781 87.246094 25.230469 C 87.207031 25.285156 87.148438 25.375 87.148438 25.628906 L 87.148438 26.410156 L 86.875 26.410156 Z M 86.894531 24.957031 " fill-opacity="1" fill-rule="nonzero"/><path fill="#727171" d="M 89.300781 26.046875 C 89.261719 26.121094 89.183594 26.210938 89.105469 26.28125 C 88.96875 26.410156 88.792969 26.464844 88.578125 26.464844 C 88.207031 26.464844 87.816406 26.246094 87.816406 25.703125 C 87.816406 25.265625 88.109375 24.941406 88.578125 24.941406 C 88.890625 24.941406 89.066406 25.085938 89.164062 25.214844 C 89.261719 25.339844 89.320312 25.558594 89.300781 25.757812 L 88.089844 25.757812 C 88.089844 26.066406 88.324219 26.246094 88.578125 26.246094 C 88.714844 26.246094 88.8125 26.210938 88.890625 26.136719 C 88.96875 26.082031 89.027344 26.011719 89.046875 25.9375 Z M 89.046875 25.519531 C 89.007812 25.304688 88.8125 25.140625 88.597656 25.140625 C 88.363281 25.140625 88.1875 25.304688 88.148438 25.519531 Z M 89.046875 25.519531 " fill-opacity="1" fill-rule="nonzero"/><g clip-path="url(#03805c47e2)"><path fill="#727171" d="M 90.921875 23.871094 L 91.195312 23.871094 L 91.195312 26.410156 L 90.921875 26.410156 L 90.921875 26.210938 C 90.824219 26.320312 90.667969 26.445312 90.394531 26.445312 C 90.003906 26.445312 89.632812 26.191406 89.632812 25.683594 C 89.632812 25.195312 89.984375 24.921875 90.394531 24.921875 C 90.6875 24.921875 90.863281 25.066406 90.921875 25.160156 Z M 89.90625 25.683594 C 89.90625 25.992188 90.101562 26.230469 90.414062 26.230469 C 90.746094 26.230469 90.941406 25.976562 90.941406 25.683594 C 90.941406 25.304688 90.667969 25.140625 90.414062 25.140625 C 90.160156 25.160156 89.90625 25.339844 89.90625 25.683594 Z M 89.90625 25.683594 " fill-opacity="1" fill-rule="nonzero"/></g><g clip-path="url(#149553c71d)"><path fill="#727171" d="M 92.855469 26.410156 L 92.582031 26.410156 L 92.582031 23.871094 L 92.855469 23.871094 L 92.855469 25.160156 C 93.03125 24.941406 93.285156 24.921875 93.382812 24.921875 C 93.875 24.921875 94.148438 25.304688 94.148438 25.683594 C 94.148438 26.082031 93.875 26.445312 93.402344 26.445312 C 93.148438 26.445312 92.972656 26.335938 92.855469 26.210938 C 92.855469 26.210938 92.855469 26.410156 92.855469 26.410156 Z M 93.875 25.703125 C 93.875 25.339844 93.621094 25.160156 93.363281 25.160156 C 93.109375 25.160156 92.835938 25.359375 92.835938 25.703125 C 92.835938 25.992188 93.03125 26.246094 93.363281 26.246094 C 93.679688 26.230469 93.875 25.976562 93.875 25.703125 Z M 93.875 25.703125 " fill-opacity="1" fill-rule="nonzero"/></g><g clip-path="url(#faeab8193a)"><path fill="#727171" d="M 95.046875 26.265625 L 94.324219 24.957031 L 94.636719 24.957031 L 95.183594 25.992188 L 95.691406 24.957031 L 95.984375 24.957031 L 94.832031 27.207031 L 94.539062 27.207031 Z M 95.046875 26.265625 " fill-opacity="1" fill-rule="nonzero"/></g><g clip-path="url(#ceb37c2fd1)"><g clip-path="url(#604d18860e)"><path fill="url(#88ed8723d0)" d="M 97.527344 27.207031 L 97.527344 23.507812 L 102.0625 23.507812 L 102.0625 27.207031 Z M 97.527344 27.207031 " fill-rule="nonzero"/></g></g><g clip-path="url(#24f702710a)"><path fill="#727171" d="M 109.390625 26.9375 C 109.292969 26.9375 109.214844 26.882812 109.214844 26.792969 L 109.214844 23.671875 L 110.976562 23.671875 C 111.074219 23.671875 111.132812 23.742188 111.132812 23.835938 C 111.132812 23.90625 111.054688 23.980469 110.976562 23.980469 L 109.546875 23.980469 L 109.546875 26.792969 C 109.546875 26.863281 109.46875 26.9375 109.390625 26.9375 Z M 110.761719 25.085938 C 110.761719 24.996094 110.683594 24.921875 110.585938 24.921875 L 110.191406 24.921875 C 110.09375 24.921875 110.035156 24.996094 110.035156 25.085938 C 110.035156 25.160156 110.113281 25.230469 110.191406 25.230469 L 110.585938 25.230469 C 110.683594 25.25 110.742188 25.175781 110.761719 25.085938 Z M 104.957031 26.792969 C 104.957031 26.699219 104.878906 26.628906 104.78125 26.628906 L 103.546875 26.628906 L 103.546875 23.816406 C 103.546875 23.726562 103.46875 23.671875 103.371094 23.671875 C 103.292969 23.671875 103.214844 23.742188 103.214844 23.816406 L 103.214844 26.9375 L 104.78125 26.9375 C 104.878906 26.9375 104.957031 26.863281 104.957031 26.792969 Z M 120.550781 26.792969 C 120.550781 26.699219 120.472656 26.628906 120.375 26.628906 L 119.144531 26.628906 L 119.144531 23.816406 C 119.144531 23.726562 119.066406 23.671875 118.96875 23.671875 C 118.890625 23.671875 118.8125 23.742188 118.8125 23.816406 L 118.8125 26.9375 L 120.375 26.9375 C 120.472656 26.9375 120.550781 26.863281 120.550781 26.792969 Z M 116.742188 26.898438 C 116.859375 26.882812 116.957031 26.84375 117.074219 26.808594 C 117.289062 26.71875 117.464844 26.609375 117.640625 26.464844 C 117.71875 26.390625 117.796875 26.320312 117.855469 26.230469 C 117.914062 26.136719 117.972656 26.046875 118.011719 25.957031 C 118.050781 25.867188 118.089844 25.757812 118.109375 25.648438 C 118.128906 25.558594 118.070312 25.484375 117.972656 25.46875 C 117.875 25.449219 117.796875 25.503906 117.777344 25.59375 C 117.738281 25.757812 117.660156 25.921875 117.5625 26.066406 C 117.464844 26.210938 117.328125 26.335938 117.171875 26.429688 C 117.09375 26.484375 117.015625 26.519531 116.9375 26.554688 C 116.859375 26.589844 116.761719 26.609375 116.664062 26.628906 C 116.46875 26.664062 116.273438 26.664062 116.074219 26.628906 C 115.976562 26.609375 115.898438 26.589844 115.800781 26.554688 C 115.625 26.484375 115.46875 26.390625 115.351562 26.265625 C 115.292969 26.210938 115.234375 26.136719 115.175781 26.066406 C 115.078125 25.921875 115 25.757812 114.960938 25.59375 C 114.941406 25.503906 114.863281 25.449219 114.765625 25.46875 C 114.667969 25.484375 114.609375 25.558594 114.628906 25.648438 C 114.648438 25.757812 114.6875 25.867188 114.726562 25.957031 C 114.765625 26.046875 114.824219 26.15625 114.882812 26.230469 C 114.941406 26.320312 115.019531 26.390625 115.097656 26.464844 C 115.175781 26.539062 115.253906 26.609375 115.351562 26.664062 C 115.449219 26.71875 115.546875 26.773438 115.644531 26.808594 C 116.015625 26.9375 116.390625 26.972656 116.742188 26.898438 Z M 117.972656 25.160156 C 118.070312 25.140625 118.128906 25.066406 118.109375 24.976562 C 118.089844 24.867188 118.050781 24.757812 118.011719 24.667969 C 117.972656 24.578125 117.914062 24.46875 117.855469 24.398438 C 117.660156 24.144531 117.386719 23.925781 117.074219 23.796875 C 116.742188 23.671875 116.390625 23.632812 116.035156 23.707031 C 115.800781 23.742188 115.585938 23.835938 115.410156 23.960938 C 115.3125 24.015625 115.234375 24.089844 115.15625 24.160156 C 115.097656 24.234375 115.097656 24.324219 115.175781 24.378906 C 115.234375 24.433594 115.332031 24.433594 115.390625 24.378906 C 115.449219 24.324219 115.527344 24.269531 115.605469 24.214844 C 115.683594 24.160156 115.761719 24.125 115.839844 24.089844 C 116.117188 23.980469 116.410156 23.960938 116.683594 24.015625 C 116.78125 24.035156 116.859375 24.050781 116.957031 24.089844 C 117.035156 24.125 117.132812 24.160156 117.191406 24.214844 C 117.269531 24.269531 117.347656 24.324219 117.40625 24.378906 C 117.464844 24.433594 117.523438 24.503906 117.582031 24.578125 C 117.640625 24.652344 117.679688 24.722656 117.71875 24.796875 C 117.757812 24.867188 117.777344 24.957031 117.796875 25.050781 C 117.816406 25.121094 117.875 25.175781 117.953125 25.175781 C 117.953125 25.160156 117.972656 25.160156 117.972656 25.160156 Z M 114.785156 25.160156 C 114.882812 25.140625 114.941406 25.066406 114.921875 24.976562 C 114.902344 24.867188 114.863281 24.777344 114.824219 24.667969 C 114.785156 24.578125 114.726562 24.46875 114.667969 24.398438 C 114.550781 24.214844 114.375 24.070312 114.199219 23.960938 C 114.003906 23.835938 113.789062 23.761719 113.574219 23.707031 C 113.222656 23.632812 112.851562 23.671875 112.519531 23.796875 C 112.421875 23.835938 112.304688 23.886719 112.226562 23.941406 C 112.128906 23.996094 112.050781 24.070312 111.972656 24.144531 C 111.894531 24.214844 111.816406 24.289062 111.757812 24.378906 C 111.699219 24.46875 111.640625 24.558594 111.601562 24.667969 C 111.5625 24.757812 111.523438 24.867188 111.503906 24.976562 C 111.484375 25.066406 111.542969 25.140625 111.640625 25.160156 C 111.738281 25.175781 111.816406 25.121094 111.835938 25.03125 C 111.855469 24.941406 111.875 24.867188 111.914062 24.777344 C 111.992188 24.613281 112.089844 24.46875 112.226562 24.359375 C 112.285156 24.304688 112.363281 24.25 112.441406 24.195312 C 112.519531 24.144531 112.597656 24.105469 112.675781 24.070312 C 112.753906 24.035156 112.851562 24.015625 112.949219 23.996094 C 113.242188 23.941406 113.535156 23.980469 113.789062 24.070312 C 113.867188 24.105469 113.964844 24.144531 114.023438 24.195312 C 114.101562 24.25 114.179688 24.304688 114.238281 24.359375 C 114.296875 24.414062 114.355469 24.488281 114.414062 24.558594 C 114.472656 24.632812 114.511719 24.703125 114.550781 24.777344 C 114.589844 24.851562 114.609375 24.941406 114.628906 25.03125 C 114.648438 25.105469 114.707031 25.160156 114.785156 25.160156 C 114.765625 25.160156 114.765625 25.160156 114.785156 25.160156 Z M 113.535156 26.898438 C 113.652344 26.882812 113.75 26.84375 113.867188 26.808594 C 113.964844 26.773438 114.082031 26.71875 114.160156 26.664062 C 114.257812 26.609375 114.335938 26.539062 114.414062 26.464844 C 114.472656 26.410156 114.472656 26.300781 114.414062 26.246094 C 114.355469 26.191406 114.238281 26.191406 114.179688 26.246094 C 114.121094 26.300781 114.042969 26.355469 113.964844 26.410156 C 113.808594 26.5 113.632812 26.574219 113.457031 26.609375 C 113.261719 26.644531 113.066406 26.644531 112.871094 26.609375 C 112.773438 26.589844 112.695312 26.574219 112.597656 26.539062 C 112.519531 26.5 112.421875 26.464844 112.363281 26.410156 C 112.207031 26.320312 112.070312 26.191406 111.972656 26.046875 C 111.914062 25.976562 111.875 25.902344 111.835938 25.828125 C 111.796875 25.757812 111.777344 25.667969 111.757812 25.574219 C 111.738281 25.484375 111.660156 25.429688 111.5625 25.449219 C 111.464844 25.46875 111.40625 25.539062 111.425781 25.628906 C 111.445312 25.738281 111.484375 25.847656 111.523438 25.9375 C 111.5625 26.027344 111.621094 26.136719 111.679688 26.210938 C 111.738281 26.300781 111.816406 26.375 111.894531 26.445312 C 112.050781 26.589844 112.246094 26.71875 112.460938 26.792969 C 112.578125 26.828125 112.675781 26.863281 112.792969 26.898438 C 113.066406 26.953125 113.300781 26.953125 113.535156 26.898438 Z M 107.378906 26.027344 C 107.378906 25.9375 107.300781 25.867188 107.203125 25.867188 L 106.8125 25.867188 C 106.714844 25.867188 106.636719 25.921875 106.636719 26.011719 C 106.636719 26.101562 106.695312 26.175781 106.792969 26.175781 L 107.203125 26.175781 C 107.300781 26.175781 107.378906 26.101562 107.378906 26.027344 Z M 105.738281 26.863281 L 106.96875 24.34375 L 108.277344 26.863281 C 108.316406 26.9375 108.414062 26.972656 108.492188 26.9375 C 108.570312 26.898438 108.609375 26.808594 108.570312 26.738281 L 106.949219 23.617188 L 105.425781 26.738281 C 105.386719 26.808594 105.425781 26.898438 105.503906 26.9375 C 105.523438 26.953125 105.542969 26.953125 105.5625 26.953125 C 105.660156 26.953125 105.71875 26.917969 105.738281 26.863281 Z M 105.738281 26.863281 " fill-opacity="1" fill-rule="nonzero"/></g><g fill="#005bac" fill-opacity="1"><g transform="translate(29.99789, 20.012743)"><g><path d="M 4.53125 -8.921875 L 6.15625 -8.921875 C 6.15625 -8.722656 6.144531 -8.476562 6.125 -8.1875 C 6.113281 -7.894531 6.097656 -7.609375 6.078125 -7.328125 C 6.054688 -7.046875 6.03125 -6.816406 6 -6.640625 C 6.132812 -5.953125 6.382812 -5.289062 6.75 -4.65625 C 7.113281 -4.019531 7.554688 -3.457031 8.078125 -2.96875 C 8.609375 -2.476562 9.1875 -2.097656 9.8125 -1.828125 C 9.769531 -1.753906 9.734375 -1.691406 9.703125 -1.640625 C 9.671875 -1.597656 9.648438 -1.566406 9.640625 -1.546875 L 8.953125 -0.515625 C 8.941406 -0.503906 8.925781 -0.484375 8.90625 -0.453125 C 8.894531 -0.421875 8.867188 -0.375 8.828125 -0.3125 C 8.066406 -0.71875 7.394531 -1.242188 6.8125 -1.890625 C 6.238281 -2.546875 5.773438 -3.296875 5.421875 -4.140625 C 5.097656 -3.328125 4.632812 -2.582031 4.03125 -1.90625 C 3.425781 -1.238281 2.726562 -0.691406 1.9375 -0.265625 C 1.863281 -0.398438 1.789062 -0.523438 1.71875 -0.640625 C 1.65625 -0.753906 1.566406 -0.890625 1.453125 -1.046875 C 1.335938 -1.210938 1.175781 -1.4375 0.96875 -1.71875 C 1.28125 -1.851562 1.53125 -1.976562 1.71875 -2.09375 C 1.90625 -2.207031 2.109375 -2.359375 2.328125 -2.546875 C 3.367188 -3.410156 4.023438 -4.488281 4.296875 -5.78125 C 4.378906 -6.15625 4.441406 -6.554688 4.484375 -6.984375 C 4.523438 -7.410156 4.546875 -7.835938 4.546875 -8.265625 Z M 6.671875 -9.4375 L 7.296875 -8.828125 C 7.429688 -8.679688 7.5 -8.492188 7.5 -8.265625 C 7.5 -7.941406 7.484375 -7.582031 7.453125 -7.1875 C 7.429688 -6.800781 7.40625 -6.425781 7.375 -6.0625 C 7.375 -6.039062 7.375 -6.019531 7.375 -6 C 7.375 -5.988281 7.375 -5.984375 7.375 -5.984375 L 7.390625 -5.953125 C 7.472656 -5.535156 7.640625 -5.085938 7.890625 -4.609375 C 8.140625 -4.140625 8.429688 -3.71875 8.765625 -3.34375 C 8.898438 -3.21875 9.0625 -3.09375 9.25 -2.96875 C 9.4375 -2.84375 9.609375 -2.742188 9.765625 -2.671875 C 9.878906 -2.617188 9.960938 -2.578125 10.015625 -2.546875 C 10.078125 -2.515625 10.125 -2.492188 10.15625 -2.484375 C 10.207031 -2.453125 10.269531 -2.398438 10.34375 -2.328125 L 10.953125 -1.734375 C 11.085938 -1.597656 11.15625 -1.425781 11.15625 -1.21875 C 11.15625 -1.125 11.132812 -1.019531 11.09375 -0.90625 C 11.050781 -0.800781 10.972656 -0.675781 10.859375 -0.53125 C 10.753906 -0.375 10.648438 -0.21875 10.546875 -0.0625 C 10.441406 0.09375 10.351562 0.21875 10.28125 0.3125 C 10.21875 0.414062 10.1875 0.472656 10.1875 0.484375 C 10.132812 0.597656 10.085938 0.675781 10.046875 0.71875 C 10.015625 0.769531 9.976562 0.816406 9.9375 0.859375 C 9.789062 0.984375 9.632812 1.046875 9.46875 1.046875 C 9.375 1.046875 9.28125 1.03125 9.1875 1 C 9.101562 0.96875 8.988281 0.90625 8.84375 0.8125 C 8.59375 0.664062 8.304688 0.46875 7.984375 0.21875 C 7.660156 -0.03125 7.375 -0.28125 7.125 -0.53125 L 6.515625 -1.15625 C 6.410156 -1.257812 6.3125 -1.363281 6.21875 -1.46875 C 6.125 -1.570312 6.035156 -1.675781 5.953125 -1.78125 C 5.722656 -1.457031 5.515625 -1.179688 5.328125 -0.953125 C 5.140625 -0.722656 4.941406 -0.507812 4.734375 -0.3125 C 4.523438 -0.125 4.273438 0.0703125 3.984375 0.28125 C 3.609375 0.5625 3.304688 0.765625 3.078125 0.890625 C 2.859375 1.015625 2.679688 1.078125 2.546875 1.078125 C 2.347656 1.078125 2.175781 1.003906 2.03125 0.859375 L 1.421875 0.234375 C 1.378906 0.203125 1.34375 0.164062 1.3125 0.125 C 1.289062 0.0820312 1.242188 -0.00390625 1.171875 -0.140625 C 1.109375 -0.253906 1.03125 -0.378906 0.9375 -0.515625 C 0.84375 -0.648438 0.734375 -0.800781 0.609375 -0.96875 C 0.460938 -1.15625 0.363281 -1.300781 0.3125 -1.40625 C 0.257812 -1.507812 0.234375 -1.613281 0.234375 -1.71875 C 0.234375 -1.914062 0.296875 -2.078125 0.421875 -2.203125 C 0.472656 -2.265625 0.523438 -2.3125 0.578125 -2.34375 C 0.628906 -2.375 0.765625 -2.441406 0.984375 -2.546875 C 1.296875 -2.679688 1.609375 -2.882812 1.921875 -3.15625 C 2.242188 -3.4375 2.53125 -3.75 2.78125 -4.09375 C 3.03125 -4.4375 3.21875 -4.773438 3.34375 -5.109375 C 3.425781 -5.359375 3.5 -5.648438 3.5625 -5.984375 C 3.632812 -6.328125 3.691406 -6.679688 3.734375 -7.046875 C 3.773438 -7.410156 3.796875 -7.75 3.796875 -8.0625 L 3.796875 -8.9375 C 3.796875 -9.125 3.863281 -9.289062 4 -9.4375 C 4.144531 -9.582031 4.320312 -9.65625 4.53125 -9.65625 L 6.15625 -9.65625 C 6.351562 -9.65625 6.523438 -9.582031 6.671875 -9.4375 Z M 10.65625 -1.421875 L 10.03125 -2.03125 C 10.007812 -2.0625 9.976562 -2.085938 9.9375 -2.109375 C 9.894531 -2.128906 9.78125 -2.1875 9.59375 -2.28125 C 9.238281 -2.445312 8.863281 -2.695312 8.46875 -3.03125 C 7.65625 -3.957031 7.144531 -4.957031 6.9375 -6.03125 C 6.945312 -6.164062 6.953125 -6.257812 6.953125 -6.3125 C 6.960938 -6.375 6.972656 -6.4375 6.984375 -6.5 C 6.992188 -6.582031 7.003906 -6.703125 7.015625 -6.859375 C 7.023438 -7.023438 7.03125 -7.203125 7.03125 -7.390625 C 7.039062 -7.578125 7.050781 -7.75 7.0625 -7.90625 C 7.070312 -8.070312 7.078125 -8.191406 7.078125 -8.265625 C 7.078125 -8.367188 7.046875 -8.453125 6.984375 -8.515625 L 6.375 -9.140625 C 6.3125 -9.191406 6.238281 -9.21875 6.15625 -9.21875 L 4.53125 -9.21875 C 4.445312 -9.21875 4.375 -9.191406 4.3125 -9.140625 C 4.25 -9.085938 4.21875 -9.019531 4.21875 -8.9375 L 4.234375 -7.96875 C 4.234375 -7.6875 4.207031 -7.359375 4.15625 -6.984375 C 4.113281 -6.609375 4.054688 -6.238281 3.984375 -5.875 C 3.910156 -5.519531 3.828125 -5.21875 3.734375 -4.96875 C 3.609375 -4.59375 3.40625 -4.21875 3.125 -3.84375 C 2.851562 -3.46875 2.539062 -3.128906 2.1875 -2.828125 C 1.84375 -2.523438 1.5 -2.296875 1.15625 -2.140625 C 0.988281 -2.066406 0.882812 -2.019531 0.84375 -2 C 0.800781 -1.976562 0.765625 -1.953125 0.734375 -1.921875 C 0.679688 -1.847656 0.65625 -1.785156 0.65625 -1.734375 C 0.65625 -1.679688 0.675781 -1.613281 0.71875 -1.53125 C 0.757812 -1.457031 0.835938 -1.359375 0.953125 -1.234375 C 1.078125 -1.066406 1.1875 -0.910156 1.28125 -0.765625 C 1.382812 -0.617188 1.472656 -0.476562 1.546875 -0.34375 C 1.597656 -0.238281 1.632812 -0.164062 1.65625 -0.125 C 1.6875 -0.09375 1.707031 -0.0703125 1.71875 -0.0625 L 2.328125 0.5625 C 2.410156 0.625 2.484375 0.65625 2.546875 0.65625 C 2.640625 0.65625 2.820312 0.566406 3.09375 0.390625 C 3.363281 0.222656 3.671875 0 4.015625 -0.28125 C 4.410156 -0.601562 4.757812 -0.945312 5.0625 -1.3125 C 5.375 -1.675781 5.65625 -2.085938 5.90625 -2.546875 L 5.90625 -2.5625 C 6.175781 -2.175781 6.484375 -1.804688 6.828125 -1.453125 L 7.4375 -0.84375 C 7.675781 -0.601562 7.9375 -0.367188 8.21875 -0.140625 C 8.5 0.078125 8.753906 0.253906 8.984375 0.390625 C 9.210938 0.535156 9.375 0.609375 9.46875 0.609375 C 9.53125 0.609375 9.582031 0.585938 9.625 0.546875 C 9.675781 0.503906 9.738281 0.410156 9.8125 0.265625 C 9.84375 0.222656 9.925781 0.101562 10.0625 -0.09375 C 10.195312 -0.300781 10.347656 -0.523438 10.515625 -0.765625 C 10.660156 -0.972656 10.734375 -1.117188 10.734375 -1.203125 C 10.734375 -1.296875 10.707031 -1.367188 10.65625 -1.421875 Z M 10.65625 -1.421875 "/></g></g></g><g fill="#005bac" fill-opacity="1"><g transform="translate(45.961392, 20.012743)"><g><path d="M 5.96875 -1.78125 L 5.96875 -1.390625 C 5.96875 -1.085938 5.910156 -0.851562 5.796875 -0.6875 C 5.679688 -0.519531 5.472656 -0.398438 5.171875 -0.328125 C 4.878906 -0.265625 4.457031 -0.226562 3.90625 -0.21875 C 3.851562 -0.445312 3.796875 -0.65625 3.734375 -0.84375 C 3.671875 -1.03125 3.59375 -1.234375 3.5 -1.453125 L 4.265625 -1.453125 C 4.421875 -1.453125 4.523438 -1.46875 4.578125 -1.5 C 4.628906 -1.539062 4.65625 -1.617188 4.65625 -1.734375 L 4.65625 -1.78125 L 1.671875 -1.78125 L 1.671875 -2.625 L 4.65625 -2.625 L 4.65625 -2.96875 L 0.984375 -2.96875 L 0.984375 -3.90625 L 4.65625 -3.90625 L 4.65625 -4.21875 L 1.671875 -4.21875 L 1.671875 -5.0625 L 4.65625 -5.0625 L 4.65625 -5.34375 L 1.9375 -5.34375 L 1.9375 -7.1875 L 4.65625 -7.1875 L 4.65625 -7.46875 L 1.15625 -7.46875 L 1.15625 -8.546875 L 4.65625 -8.546875 L 4.65625 -9.0625 L 5.96875 -9.0625 L 5.96875 -8.546875 L 9.609375 -8.546875 L 9.609375 -7.46875 L 5.96875 -7.46875 L 5.96875 -7.1875 L 8.765625 -7.1875 L 8.765625 -5.34375 L 5.96875 -5.34375 L 5.96875 -5.0625 L 8.96875 -5.0625 L 8.96875 -3.90625 L 9.796875 -3.90625 L 9.796875 -2.96875 L 8.96875 -2.96875 L 8.96875 -1.78125 Z M 5.96875 -3.90625 L 7.640625 -3.90625 L 7.640625 -4.21875 L 5.96875 -4.21875 Z M 5.96875 -2.96875 L 5.96875 -2.625 L 7.640625 -2.625 L 7.640625 -2.96875 Z M 4.65625 -6.109375 L 4.65625 -6.421875 L 3.296875 -6.421875 L 3.296875 -6.109375 Z M 7.390625 -6.109375 L 7.390625 -6.421875 L 5.96875 -6.421875 L 5.96875 -6.109375 Z M 6.78125 -9.296875 L 9.609375 -9.296875 C 9.804688 -9.296875 9.976562 -9.222656 10.125 -9.078125 L 10.734375 -8.46875 C 10.878906 -8.320312 10.953125 -8.144531 10.953125 -7.9375 L 10.953125 -6.859375 C 10.953125 -6.648438 10.878906 -6.472656 10.734375 -6.328125 C 10.597656 -6.179688 10.425781 -6.109375 10.21875 -6.109375 L 10.109375 -6.109375 L 10.109375 -4.953125 C 10.242188 -4.804688 10.3125 -4.632812 10.3125 -4.4375 L 10.921875 -3.8125 C 11.066406 -3.675781 11.140625 -3.503906 11.140625 -3.296875 L 11.140625 -2.359375 C 11.140625 -2.148438 11.066406 -1.972656 10.921875 -1.828125 C 10.773438 -1.691406 10.601562 -1.625 10.40625 -1.625 L 10.3125 -1.625 L 10.3125 -1.171875 C 10.3125 -0.960938 10.238281 -0.785156 10.09375 -0.640625 C 9.957031 -0.503906 9.785156 -0.4375 9.578125 -0.4375 L 7.296875 -0.4375 C 7.265625 -0.269531 7.238281 -0.144531 7.21875 -0.0625 C 7.195312 0.0195312 7.164062 0.101562 7.125 0.1875 C 7 0.414062 6.816406 0.601562 6.578125 0.75 C 6.347656 0.90625 6.082031 1 5.78125 1.03125 C 5.601562 1.0625 5.390625 1.085938 5.140625 1.109375 C 4.890625 1.128906 4.695312 1.140625 4.5625 1.140625 C 4.332031 1.140625 4.144531 1.070312 4 0.9375 L 3.390625 0.3125 C 3.347656 0.269531 3.304688 0.21875 3.265625 0.15625 C 3.234375 0.09375 3.207031 0.0351562 3.1875 -0.015625 L 3.09375 -0.4375 L 2.296875 -0.4375 C 2.085938 -0.4375 1.910156 -0.507812 1.765625 -0.65625 L 1.15625 -1.265625 C 1.007812 -1.410156 0.9375 -1.582031 0.9375 -1.78125 L 0.9375 -1.96875 L 0.453125 -2.453125 C 0.304688 -2.597656 0.234375 -2.769531 0.234375 -2.96875 L 0.234375 -3.90625 C 0.234375 -4.101562 0.300781 -4.269531 0.4375 -4.40625 C 0.570312 -4.550781 0.738281 -4.628906 0.9375 -4.640625 L 0.9375 -5.0625 C 0.9375 -5.289062 1.023438 -5.476562 1.203125 -5.625 L 1.203125 -6.390625 L 0.640625 -6.953125 C 0.492188 -7.097656 0.421875 -7.269531 0.421875 -7.46875 L 0.421875 -8.546875 C 0.421875 -8.753906 0.492188 -8.929688 0.640625 -9.078125 C 0.785156 -9.222656 0.957031 -9.296875 1.15625 -9.296875 L 3.953125 -9.296875 C 4.003906 -9.441406 4.09375 -9.5625 4.21875 -9.65625 C 4.351562 -9.75 4.5 -9.796875 4.65625 -9.796875 L 5.96875 -9.796875 C 6.175781 -9.796875 6.351562 -9.722656 6.5 -9.578125 Z M 6.609375 -8.859375 L 6.1875 -9.265625 C 6.125 -9.328125 6.050781 -9.359375 5.96875 -9.359375 L 4.65625 -9.359375 C 4.570312 -9.359375 4.5 -9.328125 4.4375 -9.265625 C 4.375 -9.210938 4.34375 -9.144531 4.34375 -9.0625 L 4.34375 -8.859375 L 1.15625 -8.859375 C 1.070312 -8.859375 1 -8.828125 0.9375 -8.765625 C 0.882812 -8.710938 0.859375 -8.640625 0.859375 -8.546875 L 0.859375 -7.46875 C 0.859375 -7.382812 0.890625 -7.3125 0.953125 -7.25 L 1.5625 -6.640625 L 1.625 -6.59375 L 1.625 -5.359375 L 1.59375 -5.359375 C 1.4375 -5.316406 1.359375 -5.21875 1.359375 -5.0625 L 1.359375 -4.21875 L 0.984375 -4.21875 C 0.898438 -4.21875 0.828125 -4.1875 0.765625 -4.125 C 0.703125 -4.0625 0.671875 -3.988281 0.671875 -3.90625 L 0.671875 -2.96875 C 0.671875 -2.882812 0.703125 -2.8125 0.765625 -2.75 L 1.359375 -2.15625 L 1.359375 -1.78125 C 1.359375 -1.695312 1.390625 -1.628906 1.453125 -1.578125 L 2.078125 -0.953125 C 2.140625 -0.890625 2.210938 -0.859375 2.296875 -0.859375 L 3.40625 -0.859375 C 3.445312 -0.765625 3.476562 -0.675781 3.5 -0.59375 C 3.519531 -0.507812 3.535156 -0.425781 3.546875 -0.34375 C 3.578125 -0.226562 3.597656 -0.148438 3.609375 -0.109375 C 3.628906 -0.0664062 3.65625 -0.0234375 3.6875 0.015625 L 4.3125 0.625 C 4.363281 0.675781 4.445312 0.703125 4.5625 0.703125 C 4.644531 0.703125 4.757812 0.695312 4.90625 0.6875 C 5.050781 0.6875 5.21875 0.675781 5.40625 0.65625 C 5.945312 0.59375 6.328125 0.453125 6.546875 0.234375 C 6.773438 0.0234375 6.890625 -0.3125 6.890625 -0.78125 L 6.890625 -0.859375 L 9.578125 -0.859375 C 9.660156 -0.859375 9.734375 -0.890625 9.796875 -0.953125 C 9.859375 -1.015625 9.890625 -1.085938 9.890625 -1.171875 L 9.890625 -2.046875 L 10.40625 -2.046875 C 10.488281 -2.046875 10.5625 -2.078125 10.625 -2.140625 C 10.6875 -2.203125 10.71875 -2.273438 10.71875 -2.359375 L 10.71875 -3.296875 C 10.71875 -3.378906 10.6875 -3.453125 10.625 -3.515625 L 10.015625 -4.125 C 9.984375 -4.15625 9.941406 -4.179688 9.890625 -4.203125 L 9.890625 -4.4375 C 9.890625 -4.519531 9.859375 -4.59375 9.796875 -4.65625 L 9.6875 -4.765625 L 9.6875 -6.546875 L 10.21875 -6.546875 C 10.300781 -6.546875 10.375 -6.578125 10.4375 -6.640625 C 10.5 -6.703125 10.53125 -6.773438 10.53125 -6.859375 L 10.53125 -7.9375 C 10.53125 -8.03125 10.5 -8.101562 10.4375 -8.15625 L 9.828125 -8.765625 C 9.765625 -8.828125 9.691406 -8.859375 9.609375 -8.859375 Z M 6.609375 -8.859375 "/></g></g></g><g fill="#005bac" fill-opacity="1"><g transform="translate(61.924893, 20.012743)"><g><path d="M 6.78125 -4.3125 L 7.421875 -3.84375 C 7.753906 -3.59375 8.039062 -3.359375 8.28125 -3.140625 C 8.53125 -2.929688 8.765625 -2.71875 8.984375 -2.5 C 9.203125 -2.28125 9.4375 -2.03125 9.6875 -1.75 L 8.34375 -0.671875 C 7.957031 -1.160156 7.539062 -1.628906 7.09375 -2.078125 C 6.644531 -2.523438 6.222656 -2.898438 5.828125 -3.203125 C 5.285156 -2.648438 4.691406 -2.160156 4.046875 -1.734375 C 3.410156 -1.316406 2.75 -0.972656 2.0625 -0.703125 C 1.90625 -0.960938 1.765625 -1.191406 1.640625 -1.390625 C 1.515625 -1.585938 1.375 -1.789062 1.21875 -2 C 1.957031 -2.300781 2.609375 -2.628906 3.171875 -2.984375 C 3.742188 -3.335938 4.25 -3.738281 4.6875 -4.1875 C 4.957031 -4.46875 5.210938 -4.765625 5.453125 -5.078125 C 5.691406 -5.398438 5.898438 -5.710938 6.078125 -6.015625 C 6.253906 -6.328125 6.378906 -6.597656 6.453125 -6.828125 L 2.015625 -6.828125 L 2.015625 -8.28125 L 8.515625 -8.28125 C 8.242188 -6.863281 7.664062 -5.539062 6.78125 -4.3125 Z M 9.03125 -8.8125 L 9.640625 -8.1875 C 9.785156 -8.039062 9.859375 -7.867188 9.859375 -7.671875 C 9.859375 -7.554688 9.832031 -7.40625 9.78125 -7.21875 C 9.707031 -6.894531 9.628906 -6.601562 9.546875 -6.34375 C 9.472656 -6.082031 9.382812 -5.832031 9.28125 -5.59375 C 9.1875 -5.351562 9.070312 -5.101562 8.9375 -4.84375 C 8.800781 -4.582031 8.640625 -4.285156 8.453125 -3.953125 C 8.609375 -3.835938 8.726562 -3.738281 8.8125 -3.65625 C 8.90625 -3.570312 9.003906 -3.484375 9.109375 -3.390625 C 9.210938 -3.296875 9.34375 -3.164062 9.5 -3 L 10.109375 -2.390625 C 10.390625 -2.117188 10.59375 -1.910156 10.71875 -1.765625 C 10.84375 -1.617188 10.925781 -1.503906 10.96875 -1.421875 C 11.007812 -1.335938 11.03125 -1.242188 11.03125 -1.140625 C 11.03125 -0.898438 10.9375 -0.707031 10.75 -0.5625 L 9.421875 0.515625 C 9.273438 0.617188 9.117188 0.671875 8.953125 0.671875 C 8.742188 0.671875 8.566406 0.597656 8.421875 0.453125 L 7.8125 -0.15625 C 7.789062 -0.1875 7.769531 -0.210938 7.75 -0.234375 C 7.738281 -0.253906 7.707031 -0.296875 7.65625 -0.359375 C 7.582031 -0.460938 7.492188 -0.570312 7.390625 -0.6875 C 7.285156 -0.800781 7.140625 -0.957031 6.953125 -1.15625 L 6.78125 -1.328125 L 6.46875 -1.59375 C 6.113281 -1.300781 5.804688 -1.054688 5.546875 -0.859375 C 5.285156 -0.660156 5.023438 -0.484375 4.765625 -0.328125 C 4.503906 -0.171875 4.195312 0 3.84375 0.1875 C 3.28125 0.488281 2.882812 0.640625 2.65625 0.640625 C 2.46875 0.640625 2.300781 0.566406 2.15625 0.421875 L 1.53125 -0.1875 C 1.5 -0.226562 1.46875 -0.265625 1.4375 -0.296875 C 1.414062 -0.335938 1.378906 -0.40625 1.328125 -0.5 C 1.242188 -0.65625 1.15625 -0.800781 1.0625 -0.9375 C 0.96875 -1.082031 0.875 -1.222656 0.78125 -1.359375 C 0.65625 -1.515625 0.570312 -1.632812 0.53125 -1.71875 C 0.5 -1.8125 0.484375 -1.90625 0.484375 -2 C 0.484375 -2.195312 0.546875 -2.363281 0.671875 -2.5 C 0.710938 -2.550781 0.757812 -2.59375 0.8125 -2.625 C 0.875 -2.65625 0.957031 -2.695312 1.0625 -2.75 C 1.175781 -2.800781 1.347656 -2.875 1.578125 -2.96875 C 2.921875 -3.550781 4.007812 -4.390625 4.84375 -5.484375 L 2.625 -5.484375 C 2.425781 -5.484375 2.253906 -5.554688 2.109375 -5.703125 L 1.484375 -6.3125 C 1.347656 -6.457031 1.28125 -6.628906 1.28125 -6.828125 L 1.28125 -8.28125 C 1.28125 -8.488281 1.347656 -8.660156 1.484375 -8.796875 C 1.628906 -8.941406 1.804688 -9.015625 2.015625 -9.015625 L 8.515625 -9.015625 C 8.710938 -9.015625 8.882812 -8.945312 9.03125 -8.8125 Z M 7.875 -3.859375 L 7.875 -3.890625 L 7.90625 -3.90625 C 8.414062 -4.632812 8.828125 -5.507812 9.140625 -6.53125 C 9.335938 -7.144531 9.4375 -7.523438 9.4375 -7.671875 C 9.4375 -7.753906 9.40625 -7.820312 9.34375 -7.875 L 8.71875 -8.5 C 8.664062 -8.5625 8.597656 -8.59375 8.515625 -8.59375 L 2.015625 -8.59375 C 1.929688 -8.59375 1.859375 -8.5625 1.796875 -8.5 C 1.734375 -8.4375 1.703125 -8.363281 1.703125 -8.28125 L 1.703125 -6.828125 C 1.703125 -6.742188 1.734375 -6.675781 1.796875 -6.625 L 2.421875 -6 C 2.472656 -5.9375 2.539062 -5.90625 2.625 -5.90625 L 5.65625 -5.90625 C 5.21875 -5.175781 4.664062 -4.523438 4 -3.953125 C 3.332031 -3.390625 2.582031 -2.925781 1.75 -2.5625 C 1.488281 -2.457031 1.296875 -2.375 1.171875 -2.3125 C 1.054688 -2.257812 0.984375 -2.210938 0.953125 -2.171875 C 0.921875 -2.128906 0.90625 -2.070312 0.90625 -2 C 0.90625 -1.957031 0.921875 -1.910156 0.953125 -1.859375 C 0.984375 -1.804688 1.035156 -1.726562 1.109375 -1.625 C 1.222656 -1.476562 1.328125 -1.328125 1.421875 -1.171875 C 1.523438 -1.015625 1.617188 -0.859375 1.703125 -0.703125 C 1.765625 -0.585938 1.8125 -0.519531 1.84375 -0.5 L 2.453125 0.109375 C 2.515625 0.171875 2.582031 0.203125 2.65625 0.203125 C 2.78125 0.203125 3.003906 0.125 3.328125 -0.03125 C 3.660156 -0.1875 4.039062 -0.394531 4.46875 -0.65625 C 4.84375 -0.875 5.179688 -1.097656 5.484375 -1.328125 C 5.796875 -1.566406 6.097656 -1.828125 6.390625 -2.109375 L 6.453125 -2.171875 C 6.554688 -2.085938 6.640625 -2.015625 6.703125 -1.953125 C 6.765625 -1.898438 6.835938 -1.835938 6.921875 -1.765625 C 7.003906 -1.691406 7.113281 -1.59375 7.25 -1.46875 C 7.46875 -1.226562 7.625 -1.050781 7.71875 -0.9375 C 7.820312 -0.832031 7.914062 -0.722656 8 -0.609375 C 8.039062 -0.554688 8.066406 -0.519531 8.078125 -0.5 C 8.097656 -0.488281 8.113281 -0.476562 8.125 -0.46875 L 8.734375 0.140625 C 8.796875 0.203125 8.867188 0.234375 8.953125 0.234375 C 9.023438 0.234375 9.085938 0.210938 9.140625 0.171875 L 10.484375 -0.90625 C 10.554688 -0.96875 10.59375 -1.046875 10.59375 -1.140625 C 10.59375 -1.191406 10.570312 -1.242188 10.53125 -1.296875 C 10.5 -1.347656 10.425781 -1.4375 10.3125 -1.5625 C 10.207031 -1.6875 10.039062 -1.859375 9.8125 -2.078125 L 9.203125 -2.703125 C 9.023438 -2.878906 8.875 -3.019531 8.75 -3.125 C 8.632812 -3.238281 8.507812 -3.347656 8.375 -3.453125 C 8.25 -3.566406 8.082031 -3.703125 7.875 -3.859375 Z M 7.875 -3.859375 "/></g></g></g><g fill="#005bac" fill-opacity="1"><g transform="translate(77.888393, 20.012743)"><g><path d="M 8.84375 -1.171875 L 1.796875 -1.171875 L 1.796875 -2.671875 L 7.296875 -2.671875 L 7.296875 -6.40625 L 1.859375 -6.40625 L 1.859375 -7.921875 L 8.84375 -7.921875 Z M 6.546875 -3.40625 L 6.546875 -5.0625 L 2.46875 -5.0625 C 2.269531 -5.0625 2.097656 -5.132812 1.953125 -5.28125 L 1.328125 -5.890625 C 1.179688 -6.035156 1.109375 -6.207031 1.109375 -6.40625 L 1.109375 -7.921875 C 1.109375 -8.117188 1.179688 -8.289062 1.328125 -8.4375 C 1.472656 -8.582031 1.648438 -8.65625 1.859375 -8.65625 L 8.828125 -8.65625 C 9.035156 -8.65625 9.210938 -8.582031 9.359375 -8.4375 L 9.96875 -7.828125 C 10.113281 -7.671875 10.1875 -7.492188 10.1875 -7.296875 L 10.1875 -0.5625 C 10.1875 -0.351562 10.113281 -0.175781 9.96875 -0.03125 C 9.820312 0.113281 9.644531 0.1875 9.4375 0.1875 L 2.421875 0.1875 C 2.210938 0.1875 2.035156 0.113281 1.890625 -0.03125 L 1.28125 -0.65625 C 1.132812 -0.789062 1.0625 -0.960938 1.0625 -1.171875 L 1.0625 -2.671875 C 1.0625 -2.867188 1.128906 -3.039062 1.265625 -3.1875 C 1.410156 -3.332031 1.585938 -3.40625 1.796875 -3.40625 Z M 6.984375 -2.96875 L 1.796875 -2.96875 C 1.710938 -2.96875 1.640625 -2.9375 1.578125 -2.875 C 1.515625 -2.820312 1.484375 -2.753906 1.484375 -2.671875 L 1.484375 -1.171875 C 1.484375 -1.085938 1.515625 -1.015625 1.578125 -0.953125 L 2.203125 -0.34375 C 2.265625 -0.28125 2.335938 -0.25 2.421875 -0.25 L 9.4375 -0.25 C 9.519531 -0.25 9.59375 -0.28125 9.65625 -0.34375 C 9.71875 -0.40625 9.75 -0.476562 9.75 -0.5625 L 9.75 -7.296875 C 9.75 -7.378906 9.71875 -7.453125 9.65625 -7.515625 L 9.046875 -8.140625 C 8.992188 -8.191406 8.921875 -8.21875 8.828125 -8.21875 L 1.859375 -8.21875 C 1.773438 -8.21875 1.703125 -8.1875 1.640625 -8.125 C 1.578125 -8.070312 1.546875 -8.003906 1.546875 -7.921875 L 1.546875 -6.40625 C 1.546875 -6.320312 1.578125 -6.253906 1.640625 -6.203125 L 2.25 -5.578125 C 2.3125 -5.515625 2.382812 -5.484375 2.46875 -5.484375 L 6.984375 -5.484375 Z M 6.984375 -2.96875 "/></g></g></g><g fill="#005bac" fill-opacity="1"><g transform="translate(93.851896, 20.012743)"><g><path d="M 5.984375 -5.75 L 5.984375 -5.265625 C 6.460938 -5.441406 6.835938 -5.660156 7.109375 -5.921875 C 7.378906 -6.179688 7.582031 -6.515625 7.71875 -6.921875 L 1.53125 -6.921875 L 1.53125 -8.34375 L 9.65625 -8.34375 C 9.601562 -7.644531 9.4375 -7 9.15625 -6.40625 C 8.882812 -5.820312 8.515625 -5.328125 8.046875 -4.921875 C 7.847656 -4.753906 7.648438 -4.609375 7.453125 -4.484375 C 7.265625 -4.367188 7.046875 -4.253906 6.796875 -4.140625 C 6.554688 -4.035156 6.253906 -3.921875 5.890625 -3.796875 C 5.785156 -3.085938 5.472656 -2.445312 4.953125 -1.875 C 4.441406 -1.3125 3.722656 -0.84375 2.796875 -0.46875 C 2.648438 -0.71875 2.5 -0.9375 2.34375 -1.125 C 2.195312 -1.320312 2.023438 -1.535156 1.828125 -1.765625 C 2.296875 -1.929688 2.6875 -2.101562 3 -2.28125 C 3.3125 -2.457031 3.582031 -2.660156 3.8125 -2.890625 C 4.0625 -3.128906 4.234375 -3.429688 4.328125 -3.796875 C 4.421875 -4.171875 4.46875 -4.671875 4.46875 -5.296875 C 4.46875 -5.316406 4.46875 -5.34375 4.46875 -5.375 C 4.46875 -5.414062 4.46875 -5.507812 4.46875 -5.65625 C 4.46875 -5.800781 4.46875 -6.046875 4.46875 -6.390625 L 5.984375 -6.390625 Z M 10.1875 -8.859375 L 10.78125 -8.265625 C 10.925781 -8.117188 11 -7.9375 11 -7.71875 C 11 -7.53125 10.960938 -7.265625 10.890625 -6.921875 C 10.816406 -6.585938 10.722656 -6.269531 10.609375 -5.96875 C 10.304688 -5.132812 9.878906 -4.453125 9.328125 -3.921875 C 8.773438 -3.390625 8.046875 -2.957031 7.140625 -2.625 C 7.054688 -2.289062 6.929688 -1.972656 6.765625 -1.671875 C 6.597656 -1.367188 6.394531 -1.082031 6.15625 -0.8125 C 5.664062 -0.28125 4.976562 0.207031 4.09375 0.65625 C 3.789062 0.800781 3.5625 0.875 3.40625 0.875 C 3.21875 0.875 3.050781 0.800781 2.90625 0.65625 L 2.296875 0.046875 C 2.253906 0.00390625 2.21875 -0.03125 2.1875 -0.0625 C 2.164062 -0.101562 2.117188 -0.179688 2.046875 -0.296875 C 1.972656 -0.421875 1.882812 -0.546875 1.78125 -0.671875 C 1.6875 -0.796875 1.585938 -0.921875 1.484375 -1.046875 C 1.316406 -1.222656 1.207031 -1.359375 1.15625 -1.453125 C 1.101562 -1.546875 1.078125 -1.65625 1.078125 -1.78125 C 1.078125 -1.96875 1.144531 -2.140625 1.28125 -2.296875 C 1.332031 -2.335938 1.375 -2.367188 1.40625 -2.390625 C 1.445312 -2.410156 1.503906 -2.4375 1.578125 -2.46875 C 1.660156 -2.5 1.785156 -2.546875 1.953125 -2.609375 C 2.148438 -2.679688 2.351562 -2.773438 2.5625 -2.890625 C 2.769531 -3.003906 2.953125 -3.128906 3.109375 -3.265625 C 3.273438 -3.398438 3.394531 -3.523438 3.46875 -3.640625 C 3.550781 -3.785156 3.613281 -3.988281 3.65625 -4.25 C 3.707031 -4.507812 3.734375 -4.863281 3.734375 -5.3125 L 3.734375 -5.5625 L 2.140625 -5.5625 C 1.953125 -5.5625 1.78125 -5.632812 1.625 -5.78125 L 1 -6.40625 C 0.851562 -6.550781 0.78125 -6.722656 0.78125 -6.921875 L 0.78125 -8.34375 C 0.78125 -8.539062 0.847656 -8.710938 0.984375 -8.859375 C 1.128906 -9.003906 1.3125 -9.082031 1.53125 -9.09375 L 9.65625 -9.09375 C 9.851562 -9.09375 10.03125 -9.015625 10.1875 -8.859375 Z M 6.78125 -2.96875 L 6.953125 -3.03125 C 8.109375 -3.414062 8.972656 -4.007812 9.546875 -4.8125 C 9.953125 -5.363281 10.25 -6.0625 10.4375 -6.90625 C 10.53125 -7.257812 10.578125 -7.53125 10.578125 -7.71875 C 10.578125 -7.820312 10.546875 -7.898438 10.484375 -7.953125 L 9.875 -8.5625 C 9.8125 -8.625 9.738281 -8.65625 9.65625 -8.65625 L 1.53125 -8.65625 C 1.445312 -8.65625 1.375 -8.625 1.3125 -8.5625 C 1.25 -8.5 1.21875 -8.425781 1.21875 -8.34375 L 1.21875 -6.921875 C 1.21875 -6.835938 1.25 -6.765625 1.3125 -6.703125 L 1.921875 -6.09375 C 1.984375 -6.03125 2.054688 -6 2.140625 -6 L 4.15625 -6 L 4.15625 -5.859375 L 4.171875 -5.5625 L 4.171875 -5.34375 C 4.171875 -4.863281 4.144531 -4.46875 4.09375 -4.15625 C 4.039062 -3.851562 3.953125 -3.601562 3.828125 -3.40625 C 3.734375 -3.257812 3.59375 -3.109375 3.40625 -2.953125 C 3.226562 -2.796875 3.023438 -2.648438 2.796875 -2.515625 C 2.566406 -2.390625 2.332031 -2.285156 2.09375 -2.203125 C 1.90625 -2.140625 1.785156 -2.09375 1.734375 -2.0625 C 1.679688 -2.039062 1.632812 -2.015625 1.59375 -1.984375 C 1.539062 -1.929688 1.515625 -1.859375 1.515625 -1.765625 C 1.515625 -1.710938 1.53125 -1.660156 1.5625 -1.609375 C 1.601562 -1.554688 1.675781 -1.46875 1.78125 -1.34375 C 1.914062 -1.21875 2.035156 -1.082031 2.140625 -0.9375 C 2.242188 -0.800781 2.335938 -0.660156 2.421875 -0.515625 C 2.472656 -0.429688 2.507812 -0.367188 2.53125 -0.328125 C 2.550781 -0.296875 2.570312 -0.273438 2.59375 -0.265625 L 3.21875 0.359375 C 3.269531 0.410156 3.332031 0.4375 3.40625 0.4375 C 3.476562 0.4375 3.597656 0.398438 3.765625 0.328125 C 3.929688 0.253906 4.125 0.15625 4.34375 0.03125 C 4.5625 -0.09375 4.78125 -0.226562 5 -0.375 C 5.851562 -0.945312 6.410156 -1.675781 6.671875 -2.5625 C 6.691406 -2.613281 6.707031 -2.65625 6.71875 -2.6875 C 6.726562 -2.726562 6.75 -2.820312 6.78125 -2.96875 Z M 6.78125 -2.96875 "/></g></g></g></svg>