<svg xmlns="http://www.w3.org/2000/svg" xmlns:xlink="http://www.w3.org/1999/xlink" width="305" height="54.56" viewBox="0 0 305 54.56">
  <defs>
    <clipPath id="clip-path">
      <rect id="長方形_64" data-name="長方形 64" width="305" height="54.557" fill="none"/>
    </clipPath>
    <clipPath id="clip-path-2">
      <path id="パス_107" data-name="パス 107" d="M476.816,90.772a4.8,4.8,0,1,0,6.231,2.576,4.641,4.641,0,0,0-2.577-2.576,2.085,2.085,0,0,0-1.078-.14c-.89.234-.562,1.874-.094,2.389a1.511,1.511,0,0,1,.563,1.686,1.329,1.329,0,0,1-1.734.7,1.293,1.293,0,0,1-.7-.7,1.51,1.51,0,0,1,.562-1.686c.469-.469.8-2.155-.093-2.389a1.538,1.538,0,0,0-.373-.047,1.409,1.409,0,0,0-.7.188" transform="translate(-473.865 -90.584)" fill="none"/>
    </clipPath>
    <linearGradient id="linear-gradient" x1="-21.572" y1="0.949" x2="-21.527" y2="0.949" gradientUnits="objectBoundingBox">
      <stop offset="0" stop-color="#d0e4a6"/>
      <stop offset="0.61" stop-color="#abdcf1"/>
      <stop offset="1" stop-color="#abdcf1"/>
    </linearGradient>
    <clipPath id="clip-mypage_logo">
      <rect width="305" height="54.56"/>
    </clipPath>
  </defs>
  <g id="mypage_logo" clip-path="url(#clip-mypage_logo)">
    <g id="グループ_109" data-name="グループ 109" transform="translate(0.001 0.002)">
      <g id="グループ_104" data-name="グループ 104" transform="translate(0 0)">
        <g id="グループ_103" data-name="グループ 103" clip-path="url(#clip-path)">
          <path id="パス_86" data-name="パス 86" d="M294.5,33.419a.65.65,0,0,0-.637.52l-4.14,20.475a.65.65,0,0,0,.637.779h3.309a2.731,2.731,0,0,0,1.825-.7l15.625-14.06a.65.65,0,0,1,1.072.614L310.372,49.9a.65.65,0,0,1-.637.52h-4.461a.649.649,0,0,0-.637.521l-.7,3.47a.651.651,0,0,0,.637.78h8.968a.65.65,0,0,0,.637-.522L318.313,34.2a.65.65,0,0,0-.637-.779Zm10.991,5.9-8.264,7.437a.65.65,0,0,1-1.072-.61l1.483-7.437a.651.651,0,0,1,.638-.523h6.781a.65.65,0,0,1,.435,1.133" transform="translate(-145.819 -16.821)" fill="#888"/>
          <path id="パス_87" data-name="パス 87" d="M111.353,20.78h-3.285a.735.735,0,0,0-.72.587l-.445,2.164a.823.823,0,0,1-.806.657h-5.276a.734.734,0,0,0-.72.586l-.684,3.3a.736.736,0,0,0,.72.884h4.777a.713.713,0,0,1,.7.857l-.182.885a.713.713,0,0,1-.7.57H99.369a.736.736,0,0,0-.721.588l-3.3,16.09a.735.735,0,0,0,.72.883h9.762a1.923,1.923,0,0,0,1.411-.616l6.824-7.359a2.858,2.858,0,0,0,.7-1.364l.545-2.653a.839.839,0,0,1,.822-.67h2.031a.65.65,0,0,1,.637.778l-1.338,6.636a.65.65,0,0,1-.637.52h-2.846a.785.785,0,0,0-.769.629l-.637,3.161a.785.785,0,0,0,.769.939h7.031a.938.938,0,0,0,.919-.749l3.287-16a.677.677,0,0,0-.663-.813h-12.94a.713.713,0,0,1-.7-.857l.181-.885a.714.714,0,0,1,.7-.57h13.464a.734.734,0,0,0,.72-.588l.675-3.3a.735.735,0,0,0-.72-.882H112.563a.823.823,0,0,1-.806-.988l.315-1.537a.735.735,0,0,0-.719-.883m-.83,16.029-.216,1.089a2.5,2.5,0,0,1-.62,1.216l-4.2,4.526a1.44,1.44,0,0,1-1.057.462h-2.607a.721.721,0,0,1-.706-.866l1.328-6.464a.755.755,0,0,1,.739-.6h.432a.563.563,0,0,1,.551.676l-.829,4.036a.411.411,0,0,0,.4.494h.266a.714.714,0,0,0,.525-.231l4.309-4.7a.843.843,0,0,1,.622-.274H110a.536.536,0,0,1,.526.641" transform="translate(-47.982 -10.459)" fill="#d70c18"/>
          <path id="パス_88" data-name="パス 88" d="M184.168,35.072l-1.861,8.309a.87.87,0,0,1-.849.68H168.786A.871.871,0,0,1,167.936,43L172.6,21.838a.87.87,0,0,0-.85-1.057h-3a.87.87,0,0,0-.85.684l-5.744,26.309A.871.871,0,0,0,163,48.831h22.224a.872.872,0,0,0,.85-.683l2.8-12.7a.871.871,0,0,0-.85-1.057h-3a.869.869,0,0,0-.849.68" transform="translate(-81.605 -10.46)" fill="#d70c18"/>
          <path id="パス_89" data-name="パス 89" d="M250.564,50.344H263.8a.65.65,0,0,0,.637-.52l.71-3.47a.65.65,0,0,0-.637-.78H251.252a.65.65,0,0,0-.638.523l-.688,3.471a.65.65,0,0,0,.638.776" transform="translate(-125.788 -22.938)" fill="#d70c18"/>
          <path id="パス_90" data-name="パス 90" d="M250.408,64.1H246.95a.65.65,0,0,0-.637.52l-.256,1.247h0l-.022.112-.414,2.014h.014l-.371,1.869a.65.65,0,0,0,.637.777h14.6a.649.649,0,0,0,.637-.52l.71-3.47a.65.65,0,0,0-.636-.781h-9.57a.65.65,0,0,1-.637-.78l.042-.205a.65.65,0,0,0-.637-.781" transform="translate(-123.442 -32.261)" fill="#d70c18"/>
          <path id="パス_91" data-name="パス 91" d="M53.857,34.887l-10.393-17a7.215,7.215,0,0,0-12.311,7.527l10.392,17a7.168,7.168,0,0,0,4.464,3.251,7.3,7.3,0,0,0,1.7.2,7.219,7.219,0,0,0,6.143-10.981m-4.317,6.771a3.525,3.525,0,0,1-4.846-1.169l-10.392-17a3.524,3.524,0,0,1,6.013-3.677l10.393,17a3.529,3.529,0,0,1-1.168,4.846" transform="translate(-15.148 -7.266)" fill="#005693"/>
          <path id="パス_92" data-name="パス 92" d="M26.985,5.127A7.215,7.215,0,0,0,13.719,3.8L.855,27.973A7.215,7.215,0,1,0,13.573,34.79L26.437,10.622a7.167,7.167,0,0,0,.547-5.495m-3.8,3.751L10.32,33.047a3.525,3.525,0,1,1-6.213-3.331L16.972,5.548a3.525,3.525,0,1,1,6.213,3.331" transform="translate(0 0)" fill="#d70c18"/>
          <rect id="長方形_63" data-name="長方形 63" width="3.69" height="19.925" transform="translate(16.005 18.148) rotate(-31.439)" fill="#005692"/>
          <path id="パス_93" data-name="パス 93" d="M244.918,24.188h-9.076a.683.683,0,0,1-.668-.83l.326-1.479a.9.9,0,0,0-.883-1.1h-2.931a.9.9,0,0,0-.884.712l-.434,1.985a.9.9,0,0,1-.883.712H225.9a.792.792,0,0,0-.775.631l-.661,3.187a.792.792,0,0,0,.775.952h3.086a.684.684,0,0,1,.668.829L225.046,47.86a.8.8,0,0,0,.782.971h3.095a.8.8,0,0,0,.782-.628l4.081-18.534a.9.9,0,0,1,.883-.71h9.559a.792.792,0,0,0,.776-.633l.66-3.225a.76.76,0,0,0-.744-.912" transform="translate(-112.97 -10.459)" fill="#d70c18"/>
          <path id="パス_94" data-name="パス 94" d="M418.986,46.123l.706-3.234a.654.654,0,0,1,.606-.5h22.313a.733.733,0,0,1,.735.94l-.706,3.235a.653.653,0,0,1-.606.5H419.721a.734.734,0,0,1-.735-.94" transform="translate(-210.876 -21.337)" fill="#02538a"/>
          <path id="パス_95" data-name="パス 95" d="M515.727,26.48l1.163-5.255a.486.486,0,0,0-.434-.728h-2.951a1,1,0,0,0-.881.608l-1.166,5.255a.486.486,0,0,0,.433.729h2.954a1,1,0,0,0,.881-.609" transform="translate(-257.404 -10.317)" fill="#02538a"/>
          <path id="パス_96" data-name="パス 96" d="M526.2,26.48l1.163-5.255a.486.486,0,0,0-.434-.728h-2.951a1,1,0,0,0-.881.608l-1.166,5.255a.486.486,0,0,0,.434.729h2.954a1,1,0,0,0,.881-.609" transform="translate(-262.677 -10.317)" fill="#02538a"/>
          <path id="パス_97" data-name="パス 97" d="M561.936,20.672,536.2,30.974a1.875,1.875,0,0,0-1.126,1.29l-.945,4.255a.346.346,0,0,0,.507.387l11.13-4.439c.306-.122.574.082.507.387l-3.364,15.4a.388.388,0,0,0,.389.5h4.17a1.235,1.235,0,0,0,1.145-.94L552.5,30.036a.562.562,0,0,1,.338-.387l7.525-2.993a1.875,1.875,0,0,0,1.126-1.29l.955-4.307c.067-.3-.2-.509-.507-.387" transform="translate(-268.839 -10.387)" fill="#02538a"/>
          <path id="パス_98" data-name="パス 98" d="M381.707,103.858h-.657V98.043h.657v.516a1.655,1.655,0,0,1,1.266-.609,1.875,1.875,0,0,1,1.829,2.016,1.827,1.827,0,0,1-1.782,1.97,1.675,1.675,0,0,1-1.313-.61Zm2.439-3.892a1.265,1.265,0,0,0-1.219-1.407,1.327,1.327,0,0,0-1.266,1.407,1.3,1.3,0,0,0,1.266,1.407,1.346,1.346,0,0,0,1.219-1.407" transform="translate(-191.793 -49.3)" fill="#727171"/>
          <path id="パス_99" data-name="パス 99" d="M390.115,99.919a1.97,1.97,0,1,1,1.97,1.97,1.9,1.9,0,0,1-1.97-1.97m.657,0a1.316,1.316,0,1,0,2.626,0,1.281,1.281,0,0,0-1.313-1.407,1.307,1.307,0,0,0-1.313,1.407" transform="translate(-196.356 -49.3)" fill="#727171"/>
          <path id="パス_100" data-name="パス 100" d="M399.74,97.853l1.125,2.533,1.173-2.814,1.172,2.814,1.079-2.533h.7l-1.876,3.986-1.172-2.814-1.173,2.814-1.782-3.986Z" transform="translate(-200.823 -49.11)" fill="#727171"/>
          <path id="パス_101" data-name="パス 101" d="M415.584,100.9a2.672,2.672,0,0,1-.469.61,1.7,1.7,0,0,1-1.267.469,1.783,1.783,0,0,1-1.829-1.97,1.812,1.812,0,0,1,1.829-1.969,1.64,1.64,0,0,1,1.407.7,2.25,2.25,0,0,1,.328,1.407h-2.908a1.185,1.185,0,0,0,1.172,1.267,1.253,1.253,0,0,0,1.125-.8Zm-.657-1.36a1.146,1.146,0,0,0-1.079-.985,1.109,1.109,0,0,0-1.078.985Z" transform="translate(-207.381 -49.348)" fill="#727171"/>
          <path id="パス_102" data-name="パス 102" d="M421.132,98.043h.657v.422a1,1,0,0,1,.844-.516,1.983,1.983,0,0,1,.563.141l-.328.563a.751.751,0,0,0-.375-.141.548.548,0,0,0-.516.234,1.651,1.651,0,0,0-.235,1.032v2.016h-.656Z" transform="translate(-211.944 -49.3)" fill="#727171"/>
          <path id="パス_103" data-name="パス 103" d="M429.181,100.9a2.642,2.642,0,0,1-.469.61,1.7,1.7,0,0,1-1.266.469,1.783,1.783,0,0,1-1.829-1.97,1.812,1.812,0,0,1,1.829-1.969,1.641,1.641,0,0,1,1.407.7,2.247,2.247,0,0,1,.328,1.407h-2.908a1.186,1.186,0,0,0,1.173,1.267,1.253,1.253,0,0,0,1.125-.8Zm-.609-1.36a1.146,1.146,0,0,0-1.079-.985,1.109,1.109,0,0,0-1.078.985Z" transform="translate(-214.225 -49.348)" fill="#727171"/>
          <path id="パス_104" data-name="パス 104" d="M437.492,92.473h.657v6.566h-.657v-.516a1.564,1.564,0,0,1-1.267.61,1.975,1.975,0,0,1,0-3.94,1.471,1.471,0,0,1,1.267.61Zm-2.439,4.69a1.264,1.264,0,0,0,1.219,1.407,1.3,1.3,0,0,0,1.266-1.407,1.271,1.271,0,0,0-1.266-1.407,1.323,1.323,0,0,0-1.219,1.407" transform="translate(-218.644 -46.544)" fill="#727171"/>
          <path id="パス_105" data-name="パス 105" d="M449.311,99.038h-.657V92.473h.657V95.8a1.557,1.557,0,0,1,1.266-.609,1.861,1.861,0,0,1,1.829,1.97,1.826,1.826,0,0,1-1.782,1.969,1.672,1.672,0,0,1-1.313-.609Zm2.439-1.829a1.265,1.265,0,0,0-1.22-1.407,1.327,1.327,0,0,0-1.266,1.407,1.3,1.3,0,0,0,1.266,1.407,1.346,1.346,0,0,0,1.22-1.407" transform="translate(-225.82 -46.544)" fill="#727171"/>
          <path id="パス_106" data-name="パス 106" d="M458.793,101.515l-1.735-3.376h.75l1.313,2.673,1.219-2.673h.7l-2.767,5.815h-.7Z" transform="translate(-230.05 -49.396)" fill="#727171"/>
        </g>
      </g>
      <g id="グループ_106" data-name="グループ 106" transform="translate(235.363 45.001)">
        <g id="グループ_105" data-name="グループ 105" clip-path="url(#clip-path-2)">
          <rect id="長方形_65" data-name="長方形 65" width="10.868" height="10.072" transform="translate(-0.656 0)" fill="url(#linear-gradient)"/>
        </g>
      </g>
      <g id="グループ_108" data-name="グループ 108" transform="translate(0 0)">
        <g id="グループ_107" data-name="グループ 107" clip-path="url(#clip-path)">
          <path id="パス_108" data-name="パス 108" d="M514.838,99.733a.383.383,0,0,1-.422-.375V91.292h4.22a.383.383,0,0,1,.376.422.4.4,0,0,1-.376.375h-3.423v7.269a.4.4,0,0,1-.375.375m3.283-4.783a.421.421,0,0,0-.422-.422h-.938a.383.383,0,0,0-.376.422.4.4,0,0,0,.376.375h.938c.234.047.375-.141.422-.375m-13.928,4.408a.42.42,0,0,0-.422-.422h-2.954V91.667a.383.383,0,0,0-.422-.375.4.4,0,0,0-.375.375v8.066h3.751a.413.413,0,0,0,.422-.375m37.423,0a.42.42,0,0,0-.422-.422h-2.954V91.667a.383.383,0,0,0-.422-.375.4.4,0,0,0-.375.375v8.066h3.751a.414.414,0,0,0,.422-.375m-9.145.282a5.13,5.13,0,0,0,.8-.234,5.235,5.235,0,0,0,1.36-.891,3.225,3.225,0,0,0,.516-.61,5.092,5.092,0,0,0,.375-.7,3.95,3.95,0,0,0,.234-.8.4.4,0,1,0-.8-.141,3.989,3.989,0,0,1-.516,1.219,2.983,2.983,0,0,1-.938.938,3.493,3.493,0,0,1-.563.328,2.687,2.687,0,0,1-.657.188,3.566,3.566,0,0,1-1.407,0,3.471,3.471,0,0,1-.657-.188,2.978,2.978,0,0,1-1.079-.75,4.993,4.993,0,0,1-.422-.516,3.977,3.977,0,0,1-.516-1.219.4.4,0,0,0-.8.141,3.946,3.946,0,0,0,.234.8,3.347,3.347,0,0,0,.375.7,4.8,4.8,0,0,0,1.125,1.125,5.07,5.07,0,0,0,.7.375,4.636,4.636,0,0,0,2.626.234m2.955-4.5a.387.387,0,0,0,.328-.469,3.95,3.95,0,0,0-.234-.8,3.34,3.34,0,0,0-.375-.7,4.64,4.64,0,0,0-1.876-1.548,4.106,4.106,0,0,0-2.485-.234,3.345,3.345,0,0,0-1.5.657,3.21,3.21,0,0,0-.61.516.383.383,0,0,0,.047.563.368.368,0,0,0,.516,0,4.9,4.9,0,0,1,.516-.422,3.493,3.493,0,0,1,.563-.328,3.33,3.33,0,0,1,2.016-.188,3.469,3.469,0,0,1,.657.188,2.237,2.237,0,0,1,.563.328,4.944,4.944,0,0,1,.516.422,4.879,4.879,0,0,1,.422.516,3.54,3.54,0,0,1,.328.563,2.7,2.7,0,0,1,.188.657.4.4,0,0,0,.375.328.046.046,0,0,1,.047-.047m-7.644,0a.387.387,0,0,0,.328-.469,5.108,5.108,0,0,0-.234-.8,3.36,3.36,0,0,0-.375-.7,3.686,3.686,0,0,0-1.125-1.125,4.726,4.726,0,0,0-1.5-.657,4.259,4.259,0,0,0-2.533.234,3.361,3.361,0,0,0-.7.375,4.817,4.817,0,0,0-1.125,1.126,3.749,3.749,0,0,0-.375.75,3.95,3.95,0,0,0-.234.8.4.4,0,1,0,.8.141,3.473,3.473,0,0,1,.187-.657,2.978,2.978,0,0,1,.751-1.079,5.015,5.015,0,0,1,.516-.422,3.49,3.49,0,0,1,.563-.328,2.7,2.7,0,0,1,.657-.187,3.644,3.644,0,0,1,2.016.187,2.237,2.237,0,0,1,.563.328,5.073,5.073,0,0,1,.516.422,4.9,4.9,0,0,1,.422.516,3.487,3.487,0,0,1,.328.563,2.694,2.694,0,0,1,.188.657.4.4,0,0,0,.375.328h0m-3,4.5a5.13,5.13,0,0,0,.8-.234,3.332,3.332,0,0,0,.7-.375,3.236,3.236,0,0,0,.609-.516.4.4,0,0,0-.563-.563,5.059,5.059,0,0,1-.516.422,3.989,3.989,0,0,1-1.219.516,3.551,3.551,0,0,1-1.407,0,3.434,3.434,0,0,1-.657-.188,2.2,2.2,0,0,1-.563-.328,2.993,2.993,0,0,1-.938-.938,3.473,3.473,0,0,1-.328-.563,2.7,2.7,0,0,1-.188-.657.4.4,0,0,0-.8.141,3.942,3.942,0,0,0,.234.8,3.369,3.369,0,0,0,.375.7,3.231,3.231,0,0,0,.516.609,3.8,3.8,0,0,0,1.36.891c.282.094.516.188.8.282a3.812,3.812,0,0,0,1.782,0m-14.772-2.251a.42.42,0,0,0-.422-.422h-.938a.4.4,0,1,0-.047.8h.984a.413.413,0,0,0,.422-.375m-3.939,2.157,2.954-6.518,3.142,6.518a.388.388,0,1,0,.7-.328l-3.892-8.066-3.658,8.066a.394.394,0,0,0,.188.516.172.172,0,0,0,.141.047c.234,0,.375-.094.422-.234" transform="translate(-251.673 -45.879)" fill="#727171"/>
          <path id="パス_109" data-name="パス 109" d="M497.168,54.584l1.048-4.614a1.74,1.74,0,0,0-.384-1.618L484.373,34.263a1.135,1.135,0,0,0-.836-.334h-5.343a1.767,1.767,0,0,0-1.146.462l-4.655,4.1a3.638,3.638,0,0,0-1.151,1.883l-1.365,6.03c-.087.387.348.572.672.285l8.633-7.634a.883.883,0,0,1,.573-.231h1.031A.569.569,0,0,1,481.2,39L496.4,54.9c.222.232.686.038.767-.321" transform="translate(-236.496 -17.077)" fill="#02538a"/>
          <path id="パス_110" data-name="パス 110" d="M382.8,33.328l.421-1.926a.554.554,0,0,1,.515-.422H386.4a.654.654,0,0,0,.606-.5l.812-3.716a.733.733,0,0,0-.735-.94h-2.226a.33.33,0,0,1-.33-.423l.865-3.959a.734.734,0,0,0-.735-.94h-4.17a.654.654,0,0,0-.606.5l-.962,4.4a.555.555,0,0,1-.514.423h-7.8a.33.33,0,0,1-.33-.423l.865-3.959a.734.734,0,0,0-.735-.94h-4.17a.654.654,0,0,0-.606.5l-.961,4.4a.555.555,0,0,1-.515.423h-2.833a.653.653,0,0,0-.606.5l-.812,3.716a.733.733,0,0,0,.735.94h2.39a.329.329,0,0,1,.33.422l-1.61,7.373a.733.733,0,0,0,.735.94h4.17a.653.653,0,0,0,.606-.5l1.707-7.816a.555.555,0,0,1,.515-.422h7.8a.329.329,0,0,1,.33.422l-1.4,6.4a1.832,1.832,0,0,1-.688,1.042L363.57,47.913c-.342.26-.262.735.124.735l5.823.16a3.452,3.452,0,0,0,2.054-.732l8.774-6.653a2.818,2.818,0,0,0,1.05-1.644Z" transform="translate(-181.139 -10.321)" fill="#02538a"/>
          <path id="パス_111" data-name="パス 111" d="M599.853,21.068h-1.24v-.612h3.169v.612h-1.24v3.918h-.69Z" transform="translate(-301.299 -10.296)" fill="#231815"/>
          <path id="パス_112" data-name="パス 112" d="M606.3,20.455h.646l1.3,2.952,1.274-2.952h.649v4.53h-.686V22.161h-.016l-.948,2.175h-.572L607,22.161h-.012v2.825H606.3Z" transform="translate(-305.167 -10.296)" fill="#231815"/>
        </g>
      </g>
    </g>
  </g>
</svg>
