<?xml version="1.0" encoding="UTF-8"?><svg id="_レイヤー_1" xmlns="http://www.w3.org/2000/svg" xmlns:xlink="http://www.w3.org/1999/xlink" viewBox="0 0 1257.2 925"><defs><style>.cls-1{fill:#f3e727;}.cls-2{fill:#fff;}.cls-3{fill:#ece7dd;}.cls-4{fill:#c3c0b7;}.cls-5{fill:#d61518;}.cls-6{fill:#231815;}.cls-7{fill:#221714;}.cls-8{fill:#717171;}.cls-9{fill:url(#_名称未設定グラデーション_2);}</style><linearGradient id="_名称未設定グラデーション_2" x1="633" y1="2804.8" x2="633" y2="2728" gradientTransform="translate(0 -1881.4)" gradientUnits="userSpaceOnUse"><stop offset="0" stop-color="#c9dda2"/><stop offset=".6" stop-color="#a7d5e9"/></linearGradient></defs><g><g><path class="cls-8" d="m221.8,925h-5.4v-47.6h5.4v4.2c3.5-4.2,8.1-5,10.4-5,9.6,0,15,8.1,15,16.5s-5.4,16.1-14.6,16.1-8.4-2.3-10.8-5v20.7Zm20-31.9c0-7.7-5-11.5-10-11.5s-10.4,4.2-10.4,11.5,3.8,11.5,10.4,11.5c6.1-.4,10-5.8,10-11.5Z"/><path class="cls-8" d="m253.3,892.8c0-9.2,6.9-16.1,16.1-16.1s16.1,6.9,16.1,16.1-6.9,16.1-16.1,16.1-16.1-6.5-16.1-16.1Zm5.4,0c0,7.7,5.4,11.5,10.8,11.5s10.8-3.8,10.8-11.5-5-11.5-10.8-11.5-10.8,4.2-10.8,11.5Z"/><path class="cls-8" d="m295.5,877.4l9.2,20.7,9.6-23,9.6,23,8.8-20.7h5.8l-15.4,32.6-9.6-23-9.6,23-14.6-32.6h6.1Z"/><path class="cls-8" d="m371.5,900.4c-.8,1.5-2.3,3.5-3.8,5-2.7,2.7-6.1,3.8-10.4,3.8-7.3,0-15-4.6-15-16.1s5.8-16.1,15-16.1,9.6,3.1,11.5,5.8c1.9,2.7,3.1,7.3,2.7,11.5h-23.8c0,6.5,4.6,10.4,9.6,10.4s4.6-.8,6.1-2.3c1.5-1.2,2.7-2.7,3.1-4.2l5,2.3Zm-5.4-11.1c-.8-4.6-4.6-8.1-8.8-8.1s-8.1,3.5-8.8,8.1h17.7Z"/><path class="cls-8" d="m379.6,877.4h5.4v3.5c.4-.8,2.7-4.2,6.9-4.2s3.5.8,4.6,1.2l-2.7,4.6c-1.2-.8-2.3-1.2-3.1-1.2-2.3,0-3.5.8-4.2,1.9-.8,1.2-1.9,3.1-1.9,8.4v16.5h-5.4l.4-30.7h0Z"/><path class="cls-8" d="m426.8,900.4c-.8,1.5-2.3,3.5-3.8,5-2.7,2.7-6.1,3.8-10.4,3.8-7.3,0-15-4.6-15-16.1s5.8-16.1,15-16.1,9.6,3.1,11.5,5.8c1.9,2.7,3.1,7.3,2.7,11.5h-23.8c0,6.5,4.6,10.4,9.6,10.4s4.6-.8,6.1-2.3c1.5-1.2,2.7-2.7,3.1-4.2l5,2.3Zm-5-11.1c-.8-4.6-4.6-8.1-8.8-8.1s-8.1,3.5-8.8,8.1h17.7Z"/><path class="cls-8" d="m458.7,854.4h5.4v53.8h-5.4v-4.2c-1.9,2.3-5,5-10.4,5-7.7,0-15-5.4-15-16.1s6.9-16.1,15-16.1,9.2,3.1,10.4,5v-27.3Zm-20,38.4c0,6.5,3.8,11.5,10,11.5s10.4-5.4,10.4-11.5-5.4-11.5-10.4-11.5c-5,.4-10,4.2-10,11.5Z"/><path class="cls-8" d="m496.7,908.1h-5.4v-53.8h5.4v27.3c3.5-4.6,8.4-5,10.4-5,9.6,0,15,8.1,15,16.1s-5.4,16.1-14.6,16.1-8.4-2.3-10.8-5v4.2Zm20-15c0-7.7-5-11.5-10-11.5s-10.4,4.2-10.4,11.5,3.8,11.5,10.4,11.5c6.1-.4,10-5.8,10-11.5Z"/><path class="cls-8" d="m539.7,905l-14.2-27.6h6.1l10.8,21.9,10-21.9h5.8l-22.7,47.6h-5.8l10-20Z"/></g><path class="cls-9" d="m669.1,869.3c-3.8-9.6-11.5-17.3-21.1-21.1-2.7-1.2-5.8-1.5-8.8-1.2-7.3,1.9-4.6,15.4-.8,19.6,3.8,3.8,6.9,8.4,4.6,13.8-2.3,5.4-8.4,8.1-14.2,5.8-2.7-1.2-4.6-3.1-5.8-5.8-2.3-5.4.8-10,4.6-13.8,3.8-3.8,6.5-17.7-.8-19.6-3.1-.8-6.1-.4-8.8,1.2-20,8.4-29.6,31.1-21.1,51.5,8.4,20.4,31.1,29.6,51.5,21.1,19.6-8.4,29.2-31.5,20.7-51.5Z"/><path class="cls-8" d="m821.5,919.2c-1.9,0-3.5-1.2-3.5-3.1h0v-66h34.6c1.9,0,3.1,1.5,3.1,3.5s-1.5,3.1-3.1,3.1h-28v59.5c0,1.5-1.5,3.1-3.1,3.1Zm26.9-39.2c0-1.9-1.5-3.5-3.5-3.5h-7.7c-1.9,0-3.1,1.5-3.1,3.5s1.5,3.1,3.1,3.1h7.7c1.9.4,3.1-1.2,3.5-3.1h0Zm-114,36.1c0-1.9-1.5-3.5-3.5-3.5h-24.2v-59.5c0-1.9-1.5-3.1-3.5-3.1s-3.1,1.5-3.1,3.1v66h30.7c1.9,0,3.5-1.5,3.5-3.1h0Zm306.4,0c0-1.9-1.5-3.5-3.5-3.5h-24.2v-59.5c0-1.9-1.5-3.1-3.5-3.1s-3.1,1.5-3.1,3.1v66h30.7c1.9,0,3.5-1.5,3.5-3.1h0Zm-74.9,2.3c2.3-.4,4.2-1.2,6.5-1.9,4.2-1.9,7.7-4.2,11.1-7.3,1.5-1.5,3.1-3.1,4.2-5s2.3-3.8,3.1-5.8c.8-1.9,1.5-4.2,1.9-6.5.4-1.9-.8-3.5-2.7-3.8-1.9-.4-3.5.8-3.8,2.7-.8,3.5-2.3,6.9-4.2,10-1.9,3.1-4.6,5.8-7.7,7.7-1.5,1.2-3.1,1.9-4.6,2.7-1.5.8-3.5,1.2-5.4,1.5-3.8.8-7.7.8-11.5,0-1.9-.4-3.5-.8-5.4-1.5-3.5-1.5-6.5-3.5-8.8-6.1-1.2-1.2-2.3-2.7-3.5-4.2-1.9-3.1-3.5-6.5-4.2-10-.4-1.9-1.9-3.1-3.8-2.7-1.9.4-3.1,1.9-2.7,3.8.4,2.3,1.2,4.6,1.9,6.5.8,1.9,1.9,4.2,3.1,5.8,1.2,1.9,2.7,3.5,4.2,5,1.5,1.5,3.1,3.1,5,4.2,1.9,1.2,3.8,2.3,5.8,3.1,7.3,2.7,14.6,3.5,21.5,1.9Zm24.2-36.9c1.9-.4,3.1-1.9,2.7-3.8-.4-2.3-1.2-4.6-1.9-6.5-.8-1.9-1.9-4.2-3.1-5.8-3.8-5.4-9.2-10-15.4-12.7-6.5-2.7-13.4-3.5-20.4-1.9-4.6.8-8.8,2.7-12.3,5.4-1.9,1.2-3.5,2.7-5,4.2-1.2,1.5-1.2,3.5.4,4.6,1.2,1.2,3.1,1.2,4.2,0,1.2-1.2,2.7-2.3,4.2-3.5,1.5-1.2,3.1-1.9,4.6-2.7,5.4-2.3,11.1-2.7,16.5-1.5,1.9.4,3.5.8,5.4,1.5,1.5.8,3.5,1.5,4.6,2.7,1.5,1.2,3.1,2.3,4.2,3.5,1.2,1.2,2.3,2.7,3.5,4.2,1.2,1.5,1.9,3.1,2.7,4.6.8,1.5,1.2,3.5,1.5,5.4.4,1.5,1.5,2.7,3.1,2.7,0-.4.4-.4.4-.4h0Zm-62.6,0c1.9-.4,3.1-1.9,2.7-3.8-.4-2.3-1.2-4.2-1.9-6.5-.8-1.9-1.9-4.2-3.1-5.8-2.3-3.8-5.8-6.9-9.2-9.2-3.8-2.7-8.1-4.2-12.3-5.4-6.9-1.5-14.2-.8-20.7,1.9-1.9.8-4.2,1.9-5.8,3.1-1.9,1.2-3.5,2.7-5,4.2-1.5,1.5-3.1,3.1-4.2,5-1.2,1.9-2.3,3.8-3.1,6.1-.8,1.9-1.5,4.2-1.9,6.5-.4,1.9.8,3.5,2.7,3.8,1.9.4,3.5-.8,3.8-2.7.4-1.9.8-3.5,1.5-5.4,1.5-3.5,3.5-6.5,6.1-8.8,1.2-1.2,2.7-2.3,4.2-3.5,1.5-1.2,3.1-1.9,4.6-2.7,1.5-.8,3.5-1.2,5.4-1.5,5.8-1.2,11.5-.4,16.5,1.5,1.5.8,3.5,1.5,4.6,2.7,1.5,1.2,3.1,2.3,4.2,3.5,1.2,1.2,2.3,2.7,3.5,4.2,1.2,1.5,1.9,3.1,2.7,4.6.8,1.5,1.2,3.5,1.5,5.4.4,1.5,1.5,2.7,3.1,2.7q-.4,0,0,0h0Zm-24.6,36.9c2.3-.4,4.2-1.2,6.5-1.9,1.9-.8,4.2-1.9,5.8-3.1,1.9-1.2,3.5-2.7,5-4.2,1.2-1.2,1.2-3.5,0-4.6-1.2-1.2-3.5-1.2-4.6,0h0c-1.2,1.2-2.7,2.3-4.2,3.5-3.1,1.9-6.5,3.5-10,4.2-3.8.8-7.7.8-11.5,0-1.9-.4-3.5-.8-5.4-1.5-1.5-.8-3.5-1.5-4.6-2.7-3.1-1.9-5.8-4.6-7.7-7.7-1.2-1.5-1.9-3.1-2.7-4.6s-1.2-3.5-1.5-5.4c-.4-1.9-1.9-3.1-3.8-2.7-1.9.4-3.1,1.9-2.7,3.8h0c.4,2.3,1.2,4.6,1.9,6.5.8,1.9,1.9,4.2,3.1,5.8,1.2,1.9,2.7,3.5,4.2,5,3.1,3.1,6.9,5.8,11.1,7.3,2.3.8,4.2,1.5,6.5,2.3,5.4,1.2,10,1.2,14.6,0Zm-120.9-18.4c0-1.9-1.5-3.5-3.5-3.5h-7.7c-1.9,0-3.5,1.2-3.5,3.1s1.2,3.5,3.1,3.5h8.1c1.9,0,3.5-1.5,3.5-3.1h0Zm-32.3,17.7l24.2-53.4,25.7,53.4c.8,1.5,2.7,2.3,4.2,1.5,1.5-.8,2.3-2.7,1.5-4.2l-31.9-66-29.9,66c-.8,1.5,0,3.5,1.5,4.2h0c.4.4.8.4,1.2.4,1.9,0,3.1-.8,3.5-1.9h0Z"/></g><g><ellipse class="cls-4" cx="635.7" cy="503.5" rx="62.9" ry="6.9" transform="translate(-40.6 55.9) rotate(-4.9)"/><g><path class="cls-3" d="m709.2,387.3c-2.8-12-13.5-33.2-24.5-50-10.9-16.7-22.1-28.9-25.5-31.7-.1-.3-.2-.6-.4-.9-4.1-9.4-37.9-3.1-64.3,3.6l2.5-5.5s-30.5,7.1-35.3,13c-5,6.1-18.8,28.6-23.9,33.6-5,5-10.1,9.4-12.6,9.4s-12.6-10.1-12.6-10.1c0,0-4.4-14.5-8.2-17.6-3.8-3.1-20.8,26.5-20.8,26.5,0,0,13.2,6.3,16.4,10.7,3.1,4.4,18.9,12.6,22,12.6s23.3-9.1,31.2-15.5c-2.3,14.3-4.1,28.6-4.1,38.2,0,17,4.4,37.5,13.8,49.9,4.1,7.4,10,18.4,11.7,27.1,2.5,12.6-11.6,26.4-9.1,29.5,2.5,3.1,30.9-.6,30.9-.6,0,0,8-24.1,7.7-40.5,7.7.5,16.1.4,24.2-.3-.3,16.4,7.7,40.3,7.7,40.3,0,0,22,3.4,24.5.2,2.5-3.1-9.4-16.6-6.9-29.2,1.6-7.9,7.4-19.6,11.5-27.1,10-13.5,13.7-35.2,12.6-52.2-.7-11-4-32.8-8-53.3,3.3,2.7,7.5,7.2,10.5,14.2,5.7,13.2,10.7,44.7,10.7,44.7,0,0-12,14.5-7.6,15.7,4.4,1.3,8.2-3.8,8.2-3.8,0,0,6.9,15.1,15.1,12.6,8.2-2.5,8.2-19.5,2.5-43.5Z"/><path class="cls-4" d="m560.5,306.6s41.2,32.2,95.4,21.8c18-3.5,11.1-18.3,11.1-18.3l-106.6-3.4Z"/><path class="cls-4" d="m684.7,380.7c.1,1.3,7.2-33.3-2-46.4-5.7-8.1-19-26.2-23.5-20.3l12.6,35.5s10.9,10.3,12.9,31.2Z"/><path class="cls-4" d="m508,341l4.4,10.3s-10.5,16.7-8.2,20.5l-6.7-7.9s.3-7.3,4.4-10.5c4.1-3.2,6.2-12.3,6.2-12.3Z"/><path class="cls-4" d="m636.3,503s-.4-14.3,2.1-24c2.4-9.7,12-16.3,9.7-17.2-2.3-.9-17.6,5.8-17.6,5.8,0,0-.7,8.1.9,17.9,1.6,9.7,5,17.6,5,17.6Z"/><path class="cls-7" d="m574.1,515.2c-9.2,0-10.6-1.8-11.4-2.7-2.6-3.3-.3-7.3,2.5-12.3,3-5.3,7.1-12.6,5.8-18.8-1.7-8.6-8.2-20.4-11.2-25.7-10.6-14.2-14.4-36.1-14.4-51.9s1-17.3,2.9-30.3c-9.5,5.6-22.8,11.4-26.2,11.4s-21.5-9-25.1-14.2c-1.8-2.5-9.8-7.1-14.9-9.5-1-.5-1.7-1.3-2-2.3-.3-1-.2-2.1.3-3,10.4-18.1,18-27.7,22.5-28.5,1.5-.3,2.9.1,4,1,4,3.3,7.7,14.1,9.1,18.5,3.5,3.4,7.7,7.1,9.5,8.2,1-.5,3.6-2.1,9.7-8.2,2.6-2.6,8.7-11.7,13.6-19,4-6,7.8-11.6,10-14.4,5.2-6.4,30-12.5,37.4-14.2,1.4-.3,2.9.2,3.8,1.3.6.7.9,1.6.8,2.4,49-11.6,58.6-6,61.4.3,0,0,0,0,0,.1,4.1,3.7,14.7,15.3,25.6,31.9,11.7,17.9,22.2,39.4,25,51.2h0c6.8,28.7,5.1,44.8-5.1,47.9-7.8,2.4-14-5-17.3-10.2-2.3,1.4-5.1,2.3-8.2,1.4-.9-.3-1.6-.7-2.2-1.3-1.9,10.9-5.5,22-11.8,30.5-6,11-9.9,20.2-11,25.8-1.2,6.2,2,13.4,4.4,18.6,2.3,5.1,4.2,9.1,1.7,12.2-1.1,1.3-3.9,4.9-28,1.1-1.4-.2-2.6-1.2-3-2.5-.3-.9-6.9-21-7.8-37.4-5.5.4-11.2.4-16.7.2-.7,16.4-7.5,36.8-7.8,37.8-.5,1.4-1.7,2.4-3.1,2.6-10.7,1.4-17.9,1.9-22.9,1.9Zm-4.3-7.7c4.5.4,14.6-.3,23.8-1.5,1.9-6.3,7-24.3,6.8-37,0-1.1.4-2.1,1.2-2.8.8-.7,1.8-1.1,2.9-1,7.8.5,16,.4,23.6-.3,1.1-.1,2.1.3,2.9,1,.8.7,1.2,1.8,1.2,2.8-.2,12.8,4.9,30.6,6.8,36.8,7.4,1,14.6,1.5,17.8,1.1-.4-1.2-1.2-2.8-1.8-4.1-2.8-6.2-6.7-14.6-5-23.3,1.6-8.2,7.4-19.9,11.9-28.2,0-.2.2-.3.3-.5,10.2-13.7,12.8-35.4,11.9-49.8-.6-10.5-3.9-32.2-7.9-52.8-.3-1.6.4-3.2,1.8-4,1.4-.8,3.1-.7,4.3.3,3.4,2.8,8.2,7.8,11.6,15.6,5.8,13.5,10.8,44.3,11,45.6.2,1.1-.1,2.2-.8,3-2.1,2.5-4,5.2-5.4,7.5,0,0,0-.1.1-.2.8-1.1,2.1-1.6,3.4-1.5,1.3.1,2.5,1,3,2.2,1.9,4.2,7,11.6,10.6,10.6,3.2-1,6.7-10.3,0-39-2.6-11-12.7-31.5-24-48.8-10.4-15.9-21.4-28.1-24.8-30.8-.5-.4-.9-.9-1.1-1.5l-.3-.8c-.2-.3-4.3-8.2-59.9,5.7-1.4.4-2.9-.1-3.8-1.3-.6-.7-.9-1.6-.9-2.4-12.1,3.2-24,7.4-26.1,9.9-2,2.5-5.7,8-9.6,13.8-5.6,8.3-11.4,17-14.5,20.1-8.8,8.8-12.4,10.6-15.3,10.6s-4.1,0-15.3-11.2c-.4-.4-.8-1-.9-1.6-1.6-5.2-4-11.3-5.8-14.3-3.1,3.1-9.1,11.9-14.2,20.4,4.5,2.4,11.6,6.5,14.2,10.1,2.3,3.2,15.6,10.4,18.9,11,3.3-.7,21.5-8.7,28.8-14.7,1.2-1,2.9-1.1,4.3-.3,1.4.8,2.1,2.3,1.8,3.9-2.7,16.8-4.1,29.4-4.1,37.6,0,18.5,5.1,37.2,13,47.6.1.1.2.3.3.5,5,9,10.3,19.5,12.1,28.1,1.8,8.9-3.1,17.6-6.7,24-.6,1.1-1.4,2.5-2,3.7Zm88.3-1.3h0Zm18.2-144.4c2.7,15.7,4.7,30.1,5.2,38.5.2,3.8.2,8.1,0,12.7,1.3-2.3,3.2-4.9,5.5-7.8-1.1-6.6-5.5-31.2-10.2-42.2-.2-.4-.3-.8-.5-1.1Zm-150.3-6.6h0Z"/><g><path class="cls-3" d="m504.6,331.3s-8.2-8.2-18.9-3.8c-10.7,4.4-17.6,22.7-13.2,29,4.4,6.3,15.7,9.4,20.2,8.2,4.4-1.3,6-4.1,6.6-6.6.3-1.3,5.4-5.1,8.1-9.2,2.7-4.1,3-8.5,3-10.7,0-4.4-5.7-6.9-5.7-6.9Z"/><path class="cls-7" d="m490.3,368.7c-6.5,0-16.3-3.5-20.9-10.1-2.4-3.4-2.7-8.7-.9-14.8,2-7,7.4-16.3,15.8-19.8,11.4-4.7,20.3,2.2,22.5,4.1,1.9,1,7.3,4.3,7.3,10.1s-1.2,9.1-3.6,12.7c-1.7,2.6-4,4.9-5.9,6.8-.6.6-1.4,1.4-1.8,1.8-1.3,4.4-4.4,7.4-9.1,8.7-.9.3-2.1.4-3.4.4Zm1.8-38.7c-1.6,0-3.2.3-5,1-4.7,1.9-9.4,8.1-11.4,14.9-1.2,4.2-1,7.2-.2,8.4,3.4,4.9,13.1,7.6,16,6.7,2.8-.8,3.6-2.3,4-3.9.4-1.6,1.5-2.7,3.6-4.8,1.6-1.6,3.7-3.6,4.9-5.6,1.5-2.4,2.4-5.3,2.4-8.6s-2.4-3-3.4-3.5l-.6-.3-.5-.5c-.3-.2-4.2-4-9.8-4Z"/></g><g><path class="cls-3" d="m493.8,325s-1.3-17.6,7.6-17c8.8.6,6.9,5.7,6.9,5.7l-3.8,17.6-10.7-6.3Z"/><path class="cls-7" d="m507.1,337.2l-16.9-10v-2c-.3-2.2-.8-13.3,4.3-18.4,1.9-1.9,4.4-2.8,7.1-2.6,4.6.3,7.8,1.8,9.5,4.4,1.3,2.1,1.3,4.5.8,6l-4.8,22.6Zm-9.6-14.4l4.4,2.6,2.7-12.8c-.1,0-1-.6-3.6-.8-.6,0-.9.1-1.2.4-1.7,1.7-2.4,6.7-2.4,10.6Z"/></g><path class="cls-7" d="m628.5,472.4c-.2,0-.4,0-.4,0-2.1-.2-3.6-2-3.5-4,.1-2.1,1.9-3.6,4-3.5.2,0,3,0,7.2-2.9,1.7-1.2,4.1-.7,5.2,1,1.2,1.7.7,4.1-1,5.2-5.7,3.8-10.1,4.1-11.4,4.1Z"/><path class="cls-5" d="m597.8,319.6s-12,54.9-10.1,60.5c1.9,5.7,16.4,18.3,20.2,18.3s18.3-15.8,18.3-20.2-7.6-59.9-7.6-59.9l-20.8,1.3Z"/><path class="cls-7" d="m669.9,351.8c-1.8,0-3.4-1.3-3.7-3.2-1.8-10.6-6.2-19.6-6.2-19.7-.9-1.9-.2-4.1,1.7-5.1,1.9-.9,4.1-.2,5.1,1.7.2.4,5,10.1,6.9,21.8.3,2.1-1,4-3.1,4.3-.2,0-.4,0-.6,0Z"/><path class="cls-3" d="m549,138.1c1.5,5.9,3.9,13.2,0,17.2-3.9,3.9-32.5,36.9-35.8,74-3.2,36.5,7.4,78,74,88.7,66.7,10.8,105.9-17.7,119.6-51,13.7-33.3,3.5-60.7-2.3-72.5-5.5-11.3-13.9-23.3-15.4-25.7-1.5-2.5-3.4-6.3-1.3-13.3,1.3-4.5,8.6-26.7,22.9-49.8,12.2-19.6,24.8-33,31.5-45.5,10.5-19.7,0-52.5-22.2-56-17.4-2.8-35.3,6.2-48,32.2-12.7,26-23.1,65.9-27.5,86-4.4,20.1-4.9,27-5.4,29.9-.5,2.9-1,5.9-4.9,4.9-3.9-1-35.8-6.4-42.7-5.4-6.9,1-5.9-5.9-5.9-7.9s1-15.2,3.4-30.4c2.5-15.2,13.5-65.9,9.6-87.5-3.9-21.6-25.5-25.3-38.2-15.7-13.8,10.5-19.6,22.6-18.1,62.3,1.5,39.7,6.6,65.4,6.6,65.4Z"/><ellipse class="cls-2" cx="645.9" cy="235.7" rx="13.3" ry="10.8"/><ellipse class="cls-2" cx="545.6" cy="240.2" rx="12.6" ry="9.8"/><path class="cls-4" d="m704.6,194.5s-.3,46.9-15.3,76.3c-15,29.4-45.8,42.5-72.6,51,0,0,67.8-.6,87-50.3,17.7-45.8.9-77,.9-77Z"/><path class="cls-7" d="m614.9,324.1c-8.8,0-18.2-.8-28.3-2.4-55.8-9-81.8-40.3-77.2-92.8,3.2-36,29.9-69.4,36.9-76.4,2-2,.6-7.4-.5-11.8l-.5-2c0-.3-5.2-26.4-6.6-66-1.5-41.8,5.1-54.4,19.6-65.4,7.8-5.9,18.3-7.4,27.3-3.9,9,3.5,15,11.3,16.9,21.9,3.4,18.5-3.5,55.6-7.6,77.8-.8,4.4-1.5,8.3-2,10.9-2.5,15.4-3.4,28.2-3.4,29.8s0,.5,0,.8c0,1.8,0,2.9.3,3.3,0,0,.2,0,.5,0s.4,0,.7,0c7.8-1.1,40.2,4.5,44,5.4.1-.5.3-1.3.4-1.8,0-.5.2-1.2.3-2.1.5-4.1,1.5-11.6,5.1-28,2-9.1,12.8-56.3,27.8-86.9C685.5.5,708.5-1.4,720.7.5c10.1,1.6,18.7,8.5,24.2,19.5,6.8,13.6,7.1,30.1.7,42.1-3.5,6.6-8.5,13.3-14.3,21-5.4,7.1-11.4,15.2-17.3,24.7-14.8,23.8-21.8,46.4-22.5,48.8-1.7,5.8,0,8.6.9,10.2.3.5.9,1.4,1.7,2.7,3.3,5,9.4,14.3,13.8,23.3,6.8,13.9,16.1,42.3,2.4,75.6-11.7,28.5-42.6,55.7-95.5,55.7Zm-62.2-186.9l.4,1.7c1.6,6.2,3.6,13.9-1.4,19-.3.3-31.3,33.5-34.7,71.7-4.3,48.6,18.9,76.3,70.9,84.7,43.3,7,96.4-2.1,115.5-48.7,12-29.1,5.4-53.8-2.2-69.5-4.2-8.6-10.1-17.6-13.3-22.5-.9-1.4-1.6-2.4-1.9-2.9-2-3.4-4.1-8.3-1.7-16.3.8-2.6,8-26,23.3-50.7,6.1-9.7,12.2-18,17.7-25.2,5.6-7.5,10.4-13.9,13.7-20.1,5.2-9.7,4.8-23.8-.8-35.1-4.3-8.7-10.9-14.2-18.6-15.4-17.5-2.8-33.2,7.9-44,30.1-14.6,29.8-25.2,76.2-27.2,85.1-3.5,16.1-4.5,23.4-5,27.4-.1,1-.2,1.7-.3,2.3-.4,2.3-.9,5.5-3.6,7.2-1.6,1.1-3.7,1.3-6,.7-4.1-1-35.2-6.2-41.2-5.3-3.8.5-6.1-.7-7.4-1.9-3-2.8-2.9-7.1-2.8-9.2,0-.2,0-.4,0-.5,0-2,.9-15.2,3.5-31,.4-2.7,1.2-6.6,2-11.1,3.8-20.3,10.7-58,7.6-75.1-1.4-8-5.8-13.7-12.2-16.3-6.5-2.5-14.3-1.4-20,2.9-12.7,9.6-18.1,20.4-16.6,59.1,1.4,37.7,6.2,63,6.5,64.7Z"/><path class="cls-7" d="m579.8,263.6c-2.5.8-2.5,3.9,0,5.9,2.5,2,9.8,7.4,13.2,7.4s13.7-4.9,15.7-8.3c2-3.4,0-5.9-3.4-6.4-3.4-.5-22.6.5-25.5,1.5Z"/><path class="cls-7" d="m631.8,282.4c1,4.1,1.5,11.7-10.3,14.6-5.8,1.4-14,2.6-19.3.8-5.6-1.9-7-3.7-8.3-3.7s-2.5,1.9-5.9,3.4c-3.4,1.6-11.1,1.6-16.5,0-5.4-1.6-9.8-5-11.1-8.1-1.1-2.8-.8-5.6,2.2-7,3-1.4,5.3,5,7.5,6.7,2.2,1.7,12.6,6.2,17.6,2.8,5-3.4.9-19.3.9-19.3l8.1.2s-.2,16.7.9,17.7c1.1,1.1,6.8,5.2,16.5,3.4,10.4-1.9,14-4.7,11.2-10-2.8-5.3,5.3-6.1,6.4-1.6Z"/><path class="cls-7" d="m646.6,220.2c-10.6,0-19.2,7-19.2,15.5s8.6,15.4,19.2,15.5c12.4.1,19.2-7,19.2-15.5s-8.6-15.5-19.2-15.5Zm-.8,26.2c-7.3,0-13.3-4.8-13.3-10.8s5.9-10.8,13.3-10.8,13.3,4.8,13.3,10.8-5.9,10.8-13.3,10.8Z"/><circle class="cls-7" cx="645.5" cy="233.2" r="9.9"/><circle class="cls-7" cx="546.4" cy="237.6" r="9"/><path class="cls-7" d="m545.2,224.8c-9.7,0-18.6,6.9-18.6,14.7s8.1,14.5,18.6,13.5c9.7-.9,17.6-6.3,17.6-14.1s-7.9-14.1-17.6-14.1Zm.4,25.2c-6.9,0-12.6-4.4-12.6-9.8s5.6-9.8,12.6-9.8,12.6,4.4,12.6,9.8-5.6,9.8-12.6,9.8Z"/><path class="cls-7" d="m558.7,231l-14.6-14.9c-1.2-1.6-6.2,0-5.2,2.2,1,2.2,6.9,7.5,6.9,7.5l12.9,5.2Z"/><path class="cls-7" d="m633.5,225.2s10.2-9.3,14.2-15.6c.9-1.4,6.2,2.2,5.4,3.6-.8,1.5-4.9,7.5-10.6,9l-9,3Z"/><path class="cls-7" d="m588.8,152.8s-19.2,11.9-19,24.1c.3,12.2,13.1,11.5,13.1,11.5,0,0-.8,7.8,10.7,9.2,11.5,1.4,14.4-1.6,14.4-1.6,0,0,11.5,10.1,20.6,6.4,9.1-3.7,4.8-8.9,4.8-8.9,0,0-3.2,3-6.9,1.1-3.7-1.8.8-28.5,9.9-38.1,0,0-34.4-7.3-47.5-3.7Z"/><g><path class="cls-1" d="m655.1,359l-3.3,68.7s30.5-9.5,32.6-12.2c1.5-2,6.5-9.3,6.5-9.3-3.6-24.3-7.5-34.9-7.5-34.9l-28.3-12.3Z"/><path class="cls-7" d="m651.9,431.5c-.8,0-1.6-.3-2.3-.8-1-.8-1.5-1.9-1.5-3.2l3.3-68.7c0-1.2.7-2.4,1.8-3,1.1-.7,2.4-.8,3.5-.3l28.3,12.3c.9.4,1.7,1.2,2,2.1.2.4,4.1,11.2,7.7,35.7.1.9,0,1.9-.6,2.7-.2.3-5.1,7.4-6.6,9.5-.7.9-2.8,3.7-34.5,13.5-.4.1-.7.2-1.1.2Zm6.8-66.8l-2.8,57.8c11.6-3.7,23.5-8,25.8-9.5,1.1-1.5,3.8-5.3,5.4-7.7-2.6-17.7-5.5-27.7-6.6-31.2l-21.8-9.4Z"/></g></g></g><g><g><g><path class="cls-7" d="m1246.6,407.1H10.6c-5.8,0-10.6,4.7-10.6,10.6v315.5c0,.2,0,.3,0,.5,0,.3,0,.5,0,.8,0,.7.2,1.3.4,1.9,0,.2.1.4.2.6.3.8.7,1.6,1.2,2.3,0,0,0,0,0,.1l26.5,37c2,2.8,5.2,4.4,8.6,4.4h1209.5c5.8,0,10.6-4.7,10.6-10.6v-352.5c0-5.8-4.7-10.6-10.6-10.6Z"/><rect class="cls-2" x="20.2" y="428.2" width="1139.5" height="294.4"/><polygon class="cls-1" points="42.5 759.5 1236.1 759.5 1236.1 743.7 31.1 743.7 42.5 759.5"/></g><polygon class="cls-2" points="1236.1 722.6 1200.3 722.6 1236.1 686.9 1236.1 722.6"/><polygon class="cls-2" points="1181.7 428.2 1218.2 428.2 1181.7 464.7 1181.7 428.2"/><polygon class="cls-2" points="1181.7 494.5 1236.1 440.2 1236.1 472 1181.7 526.3 1181.7 494.5"/><polygon class="cls-2" points="1181.7 556.2 1236.1 501.8 1236.1 533.6 1181.7 588 1181.7 556.2"/><polygon class="cls-2" points="1181.7 617.9 1236.1 563.5 1236.1 595.3 1181.7 649.7 1181.7 617.9"/><polygon class="cls-2" points="1181.7 679.5 1236.1 625.2 1236.1 657 1181.7 711.4 1181.7 679.5"/></g><g><g><path class="cls-6" d="m179.4,605.5c0,17.9-5.3,31.3-16,40.1-9.3,7.8-22.1,11.7-38.6,11.7s-29.4-4-38.9-12.1c-10.7-8.9-16-22.4-16-40.3v-30h33.3v27.2c0,15.4,7.2,23.2,21.7,23.2s21.5-7.5,21.5-22.4v-107.6h33.1v110.1Z"/><path class="cls-6" d="m328.2,575.4c0,25-5.6,44.9-16.7,59.5-11.6,15-27.7,22.6-48.2,22.6s-36.6-7.5-48.2-22.6c-11.3-14.7-16.9-34.5-16.9-59.5s5.7-45,17.2-59.8c11.4-14.9,27.4-22.3,48-22.3s36.6,7.5,48.2,22.6c11.1,14.7,16.7,34.5,16.7,59.5Zm-34,0c0-33.5-10.3-50.2-31-50.2s-31.2,16.7-31.2,50.2,10.4,50.2,31.2,50.2,31-16.7,31-50.2Z"/><path class="cls-6" d="m464.9,606.3c0,32.8-16.2,49.2-48.6,49.2h-69.2v-160.3h66.5c29.8,0,44.7,14.1,44.7,42.2s-1.9,13.4-5.6,20c-3.5,6.1-7.6,10.4-12.1,12.8,16.2,6.5,24.3,18.5,24.3,36Zm-39.8-64c0-10.1-5.9-15.2-17.8-15.2h-27.6v31.9h27.1c6,0,10.6-1.8,13.9-5.3,2.9-3,4.4-6.8,4.4-11.5Zm5.5,62.5c0-11.4-7-17.1-21.1-17.1h-29.8v36.6h30.5c13.6,0,20.4-6.5,20.4-19.5Z"/></g><g><path class="cls-6" d="m658.1,606.3c0,18.4-6.3,32.1-19,41.1-9.6,6.7-21.2,10.1-34.9,10.1s-28.3-2.6-37.3-7.8c-12.4-7.1-21.5-20-27.1-38.7l31.9-10.9c3.6,10.5,8.5,17.7,14.6,21.6,4.3,2.6,10.3,3.9,18,3.9s10.1-1.5,13.6-4.4c3.4-2.9,5.1-7,5.1-12.2s-2.9-9.5-8.6-12.6c-3.8-2.1-10.6-4.4-20.6-7-17-4.4-28.6-8.8-34.9-13.2-10.7-7.8-16-19.8-16-36.2s5.1-25.1,15.2-33.8c10.2-8.6,23.4-12.9,39.7-12.9,29.5,0,49.5,12.8,60,38.3l-30.5,12.3c-3.6-7.1-8-12.1-13-15-4.3-2.5-10.3-3.7-18-3.7s-11.7,1.6-15.3,4.9c-3.1,2.9-4.6,6.1-4.6,9.7s2.2,7.8,6.5,10.3c2.7,1.7,8,3.6,16,5.6,15.6,4.2,24.3,6.6,26.1,7.2,10.2,3.6,17.9,8.4,23.1,14.2,6.7,7.4,10,17.1,10,29.2Z"/><path class="cls-6" d="m814.4,655.5h-28.7l-.2-91.1-27.5,75.9h-25.9l-26.6-75.9v91.1h-28.3v-160.3h33.8l34.5,100.6,34.9-100.6h34v160.3Z"/><path class="cls-6" d="m833.5,655.5v-159.8h33.1v159.8h-33.1Z"/><path class="cls-6" d="m984.9,655.5h-99.1v-160.3h33.1v127.4h66v32.9Z"/><path class="cls-6" d="m1106.7,655.5h-102.6v-160.3h102.6v32.7h-69.5v28.8h61.1v32.7h-61.1v33.3h69.5v32.9Z"/></g><path class="cls-7" d="m493.3,607.2c0,.3.2.6.4.6,0,0,.1,0,.2,0,.2,0,.4-.1.5-.3,4.2-7.1,13.1-19.3,25.6-21.6.3,0,.5-.3.5-.5,0-.3-.1-.5-.4-.7-4-1.7-7.2-4.2-9.5-7.4-2.8-3.9-4.1-8.8-3.8-14.5,0-.3-.2-.6-.4-.6-.3,0-.6,0-.7.3-3.5,5.9-10.9,16.1-21.2,18.3-.3,0-.4.3-.5.5,0,.3,0,.5.3.6,3.8,2.3,9.9,8.7,8.9,25.2Z"/></g></g></svg>