<svg width="154" height="50" viewBox="0 0 154 50" fill="none" xmlns="http://www.w3.org/2000/svg">
<g clip-path="url(#clip0_3570_68700)">
<g clip-path="url(#clip1_3570_68700)">
<path d="M34.75 24.9547H45.5673L39.9352 37.6494H44.4945L50.1267 24.9547H58.6196V20.8423H34.75V24.9547Z" fill="#222222"/>
<path d="M56.0272 17.5342H37.3428V13.5112H56.0272V17.5342Z" fill="#222222"/>
<path d="M79.5393 19.6802H89.3733V15.5678H78.3771L77.7514 13.154H73.3708L73.9966 15.5678H66.3082V19.6802H75.1588L76.2316 23.6137H66.04V27.8155H77.3044L79.9863 37.6494H84.3669L81.6849 27.8155H89.6415V23.6137H80.6121L79.5393 19.6802Z" fill="#222222"/>
<path d="M111.544 12.26H107.163L105.465 16.9088H97.1504V21.0211H104.034L98.0444 37.2918H102.514L108.415 21.0211H116.103L110.024 37.6494H114.494L122.003 16.9088H109.845L111.544 12.26Z" fill="#222222"/>
<path d="M140.33 14.6738L142.029 12.26H136.933L127.188 26.1169H132.284L137.38 18.7862H145.337L132.105 37.6494H137.201L153.293 14.6738H140.33Z" fill="#222222"/>
</g>
<g clip-path="url(#clip2_3570_68700)">
<path d="M0.796875 25.0935H4.6187C4.4846 25.4287 4.3505 25.764 4.3505 26.0992C4.3505 27.3732 5.35624 28.3789 6.63018 28.3789C7.90412 28.3789 8.90986 27.3732 8.90986 26.0992C8.90986 25.764 8.84281 25.4287 8.70871 25.0935H12.5976V20.1318C12.2623 20.333 11.86 20.4 11.4577 20.4C10.1838 20.4 9.17806 19.3943 9.17806 18.1203C9.17806 16.8464 10.1838 15.8407 11.4577 15.8407C11.86 15.8407 12.2623 15.9748 12.5976 16.1759V12.5552H0.796875V25.0935Z" fill="#222222"/>
<path d="M24.3984 37.6318H12.5977V34.0112C12.9329 34.2123 13.3352 34.3464 13.7375 34.3464C15.0114 34.3464 16.0172 33.3407 16.0172 32.0667C16.0172 30.7928 15.0114 29.787 13.7375 29.787C13.3352 29.787 12.9329 29.8541 12.5977 30.0552V25.0936H16.4865C16.3524 24.7583 16.2854 24.4231 16.2854 24.0878C16.2854 22.8139 17.2911 21.8082 18.5651 21.8082C19.839 21.8082 20.8447 22.8139 20.8447 24.0878C20.8447 24.4901 20.7777 24.8254 20.5765 25.0936H24.3984V37.6318Z" fill="#222222"/>
<path d="M2.33901 36.0226V28.379H0.796875V37.6318H9.11101V36.0226H2.33901Z" fill="#222222"/>
</g>
</g>
<defs>
<clipPath id="clip0_3570_68700">
<rect width="152.407" height="50" fill="white" transform="translate(0.796875)"/>
</clipPath>
<clipPath id="clip1_3570_68700">
<rect width="118.454" height="25.3" fill="white" transform="matrix(1 0 0 -1 34.75 37.6494)"/>
</clipPath>
<clipPath id="clip2_3570_68700">
<rect width="23.6685" height="25.0765" fill="white" transform="matrix(1 0 0 -1 0.796875 37.6318)"/>
</clipPath>
</defs>
</svg>
